<svg id="b28bf4cb-f7a7-4280-a985-6ed8a7660c8d" data-name="Ebene 1" xmlns="http://www.w3.org/2000/svg" viewBox="0 0 462.38 107.04"><defs><style>.a7797fb5-c86e-4953-ba71-6d2716e97fc1{isolation:isolate;}.f4bef5a3-6903-4ff2-8ba0-29eed2b3ec58{fill:#1c1635;}.fa5aa57e-67e4-4f9c-b895-5dfcbc11bde6{fill:#2ea836;}.bfee28b1-d7cd-43a4-8ed3-2897c94b7133{fill:#a8c81e;}.f716e658-90fa-4f63-86ea-b8bcf6b20709{fill:#f7a515;}.b22176b6-9031-44f1-bd73-4331912a68c1{fill:#d01417;}</style></defs><g id="ea1969a6-d9da-4991-85b4-a2711d895b50" data-name="Gruppe 448"><g id="ea6db568-a007-4885-8852-83c49d32d82e" data-name="Gruppe 175"><g id="e3a4764e-3b30-46fb-80e2-87af92348827" data-name=" 00 - 33" class="a7797fb5-c86e-4953-ba71-6d2716e97fc1"><g class="a7797fb5-c86e-4953-ba71-6d2716e97fc1"><path class="f4bef5a3-6903-4ff2-8ba0-29eed2b3ec58" d="M53.81,12.27a3,3,0,0,1-1.91-.6A3.64,3.64,0,0,1,50.75,10a7.15,7.15,0,0,1-.39-2.47,6.47,6.47,0,0,1,.4-2.39,3.41,3.41,0,0,1,1.16-1.59,3.47,3.47,0,0,1,3.81,0,3.46,3.46,0,0,1,1.15,1.59,6.69,6.69,0,0,1,.39,2.39,6.92,6.92,0,0,1-.4,2.47,3.64,3.64,0,0,1-1.15,1.68A3,3,0,0,1,53.81,12.27Zm0-1.51a1.26,1.26,0,0,0,1-.43,2.76,2.76,0,0,0,.59-1.16,6.45,6.45,0,0,0,.19-1.65A5.77,5.77,0,0,0,55.38,6a2.45,2.45,0,0,0-.59-1.07,1.44,1.44,0,0,0-1.95,0A2.45,2.45,0,0,0,52.25,6a5.77,5.77,0,0,0-.19,1.57,6.45,6.45,0,0,0,.19,1.65,2.66,2.66,0,0,0,.6,1.16A1.3,1.3,0,0,0,53.82,10.76Z" transform="translate(0 -2.97)"/><path class="f4bef5a3-6903-4ff2-8ba0-29eed2b3ec58" d="M61.44,12.27a3,3,0,0,1-1.91-.6A3.64,3.64,0,0,1,58.38,10,7.15,7.15,0,0,1,58,7.52a6.47,6.47,0,0,1,.4-2.39,3.41,3.41,0,0,1,1.16-1.59,3.47,3.47,0,0,1,3.81,0,3.46,3.46,0,0,1,1.15,1.59,6.69,6.69,0,0,1,.39,2.39A6.92,6.92,0,0,1,64.5,10a3.64,3.64,0,0,1-1.15,1.68A3,3,0,0,1,61.44,12.27Zm0-1.51a1.26,1.26,0,0,0,1-.43A2.76,2.76,0,0,0,63,9.17a6.45,6.45,0,0,0,.19-1.65A5.77,5.77,0,0,0,63,6a2.45,2.45,0,0,0-.59-1.07,1.44,1.44,0,0,0-2,0A2.45,2.45,0,0,0,59.88,6a5.77,5.77,0,0,0-.19,1.57,6.45,6.45,0,0,0,.19,1.65,2.66,2.66,0,0,0,.6,1.16A1.3,1.3,0,0,0,61.45,10.76Z" transform="translate(0 -2.97)"/><path class="f4bef5a3-6903-4ff2-8ba0-29eed2b3ec58" d="M68.75,8.92V7.35H73V8.92Z" transform="translate(0 -2.97)"/><path class="f4bef5a3-6903-4ff2-8ba0-29eed2b3ec58" d="M76.8,11.27l1-1.16a2.87,2.87,0,0,0,.84.54,2.46,2.46,0,0,0,1,.2,1.69,1.69,0,0,0,1.2-.42,1.4,1.4,0,0,0,.46-1.07,1.58,1.58,0,0,0-.34-1,1.47,1.47,0,0,0-1.19-.41,3,3,0,0,0-.41,0L79,8.07l-.49-.79,2.25-2.53h-3.3V3.24H82.7V4.5l-2,2.29a2.55,2.55,0,0,1,1.73.84A2.73,2.73,0,0,1,83,9.37a2.71,2.71,0,0,1-.45,1.57,3,3,0,0,1-1.22,1A4.54,4.54,0,0,1,78,12,4,4,0,0,1,76.8,11.27Z" transform="translate(0 -2.97)"/><path class="f4bef5a3-6903-4ff2-8ba0-29eed2b3ec58" d="M84.43,11.27l.95-1.16a2.87,2.87,0,0,0,.84.54,2.46,2.46,0,0,0,1,.2,1.69,1.69,0,0,0,1.2-.42,1.4,1.4,0,0,0,.46-1.07,1.58,1.58,0,0,0-.34-1,1.47,1.47,0,0,0-1.19-.41A3,3,0,0,0,87,8l-.37.09-.49-.79,2.25-2.53h-3.3V3.24h5.27V4.5l-2,2.29a2.55,2.55,0,0,1,1.73.84,2.73,2.73,0,0,1,.56,1.74,2.71,2.71,0,0,1-.45,1.57A3,3,0,0,1,89,12a4.54,4.54,0,0,1-3.37.05A4,4,0,0,1,84.43,11.27Z" transform="translate(0 -2.97)"/></g></g><g id="fa4b4292-624d-4ef6-bc33-4e46c2f0bb7c" data-name="Nicht vertrauensw端rdig" class="a7797fb5-c86e-4953-ba71-6d2716e97fc1"><g class="a7797fb5-c86e-4953-ba71-6d2716e97fc1"><path class="f4bef5a3-6903-4ff2-8ba0-29eed2b3ec58" d="M1.06,29V19.71H2.42L7.52,27V19.71H8.83V29H7.49l-5.11-7.3V29Z" transform="translate(0 -2.97)"/><path class="f4bef5a3-6903-4ff2-8ba0-29eed2b3ec58" d="M10.74,21.37V20h1.41v1.41ZM10.82,29V22.53h1.26V29Z" transform="translate(0 -2.97)"/><path class="f4bef5a3-6903-4ff2-8ba0-29eed2b3ec58" d="M18.76,27.34l.77.81a3.22,3.22,0,0,1-1.08.79,3.45,3.45,0,0,1-1.47.3,3.5,3.5,0,0,1-1.81-.45A3.08,3.08,0,0,1,14,27.57a3.73,3.73,0,0,1-.42-1.79A3.5,3.5,0,0,1,14,24.05a3.33,3.33,0,0,1,1.21-1.26,3.63,3.63,0,0,1,3.23-.17,3.17,3.17,0,0,1,1.08.8l-.83.79a2.18,2.18,0,0,0-.71-.57,2.23,2.23,0,0,0-1-.21,2,2,0,0,0-1.15.33,2.12,2.12,0,0,0-.74.86,2.72,2.72,0,0,0,0,2.3,2.32,2.32,0,0,0,.73.88,2,2,0,0,0,1.15.33,2.43,2.43,0,0,0,1-.21A2.29,2.29,0,0,0,18.76,27.34Z" transform="translate(0 -2.97)"/><path class="f4bef5a3-6903-4ff2-8ba0-29eed2b3ec58" d="M20.76,29V19.71H22V23.5a3.75,3.75,0,0,1,.44-.5,2.27,2.27,0,0,1,.7-.44,2.64,2.64,0,0,1,1-.18,2.3,2.3,0,0,1,1.89.75,3.07,3.07,0,0,1,.61,2V29H25.42v-3.8A1.88,1.88,0,0,0,25,23.9a1.39,1.39,0,0,0-1.09-.43,1.7,1.7,0,0,0-1.14.37,2,2,0,0,0-.59,1A4.14,4.14,0,0,0,22,26v3Z" transform="translate(0 -2.97)"/><path class="f4bef5a3-6903-4ff2-8ba0-29eed2b3ec58" d="M28.94,26.92V23.58H27.76v-1h1.18V20.41H30.2v2.12h1.9v1H30.2v3.21a1.79,1.79,0,0,0,.24,1.08.89.89,0,0,0,.7.29,1.34,1.34,0,0,0,.6-.11,1.48,1.48,0,0,0,.47-.34l.58.77a2.41,2.41,0,0,1-.84.57,2.57,2.57,0,0,1-1,.18,1.88,1.88,0,0,1-1.51-.57A2.6,2.6,0,0,1,28.94,26.92Z" transform="translate(0 -2.97)"/><path class="f4bef5a3-6903-4ff2-8ba0-29eed2b3ec58" d="M38.3,29l-2.8-6.51H37l2,5.09,2-5.09h1.36L39.56,29Z" transform="translate(0 -2.97)"/><path class="f4bef5a3-6903-4ff2-8ba0-29eed2b3ec58" d="M48.19,27.34l.71.75a3.08,3.08,0,0,1-.5.44,3.51,3.51,0,0,1-.95.49,3.85,3.85,0,0,1-1.4.22,3.53,3.53,0,0,1-1.78-.44,3,3,0,0,1-1.2-1.23,3.86,3.86,0,0,1-.43-1.83A3.53,3.53,0,0,1,43.06,24a3.08,3.08,0,0,1,2.83-1.68,2.94,2.94,0,0,1,1.84.54,3.27,3.27,0,0,1,1,1.42,5.42,5.42,0,0,1,.32,1.86H43.93a1.92,1.92,0,0,0,.31,1,2.05,2.05,0,0,0,.78.71,2.09,2.09,0,0,0,1,.26,2.86,2.86,0,0,0,1.36-.28A2.59,2.59,0,0,0,48.19,27.34Zm-4.26-2.12h3.84a2.2,2.2,0,0,0-.53-1.29,1.74,1.74,0,0,0-1.35-.53,1.91,1.91,0,0,0-1,.27,1.82,1.82,0,0,0-.67.68A2,2,0,0,0,43.93,25.22Z" transform="translate(0 -2.97)"/><path class="f4bef5a3-6903-4ff2-8ba0-29eed2b3ec58" d="M51.73,29H50.47v-6.1c0-.08,0-.22,0-.41h1.2l0,1a4.17,4.17,0,0,1,.43-.49,2.59,2.59,0,0,1,.69-.46,2.4,2.4,0,0,1,1-.19l.38,0a1.59,1.59,0,0,1,.33.09l-.28,1.17a1.89,1.89,0,0,0-.64-.09,1.76,1.76,0,0,0-1,.27,2,2,0,0,0-.68.72,2,2,0,0,0-.25,1Z" transform="translate(0 -2.97)"/><path class="f4bef5a3-6903-4ff2-8ba0-29eed2b3ec58" d="M56.41,26.92V23.58H55.23v-1h1.18V20.41h1.26v2.12h1.9v1h-1.9v3.21a1.79,1.79,0,0,0,.24,1.08.85.85,0,0,0,.69.29,1.36,1.36,0,0,0,.61-.11,1.48,1.48,0,0,0,.47-.34l.57.77a2.38,2.38,0,0,1-.83.57,2.57,2.57,0,0,1-1,.18,1.88,1.88,0,0,1-1.51-.57A2.6,2.6,0,0,1,56.41,26.92Z" transform="translate(0 -2.97)"/><path class="f4bef5a3-6903-4ff2-8ba0-29eed2b3ec58" d="M62.48,29H61.22v-6.1c0-.08,0-.22,0-.41h1.2l0,1a5.36,5.36,0,0,1,.43-.49,2.59,2.59,0,0,1,.69-.46,2.4,2.4,0,0,1,1-.19l.39,0a1.68,1.68,0,0,1,.32.09L65,23.72a2,2,0,0,0-.65-.09,1.78,1.78,0,0,0-1,.27,2,2,0,0,0-.68.72,2,2,0,0,0-.25,1Z" transform="translate(0 -2.97)"/><path class="f4bef5a3-6903-4ff2-8ba0-29eed2b3ec58" d="M70.21,29l0-.78a2.08,2.08,0,0,1-1,.72,3.1,3.1,0,0,1-1.22.25,3,3,0,0,1-1.06-.2,1.79,1.79,0,0,1-1.21-1.83,2.11,2.11,0,0,1,.74-1.68,3.18,3.18,0,0,1,2.11-.63c.21,0,.42,0,.64,0l.6,0,.35,0v-.23a1.21,1.21,0,0,0-.44-1.05,2.05,2.05,0,0,0-1.2-.31,2.9,2.9,0,0,0-1.17.2,4.75,4.75,0,0,0-.73.41L66,23.15a4.13,4.13,0,0,1,1-.55,4.46,4.46,0,0,1,1.67-.26,2.94,2.94,0,0,1,2,.61,2.11,2.11,0,0,1,.73,1.73v4c0,.09,0,.2,0,.33Zm0-2.33V26a2.37,2.37,0,0,0-.33,0l-.56-.05-.61,0a2.18,2.18,0,0,0-1.07.21,1.08,1.08,0,0,0-.51.5,1.43,1.43,0,0,0-.13.59.94.94,0,0,0,.36.8,1.62,1.62,0,0,0,1,.28,2,2,0,0,0,.91-.21,2.18,2.18,0,0,0,.67-.57A1.24,1.24,0,0,0,70.17,26.71Z" transform="translate(0 -2.97)"/><path class="f4bef5a3-6903-4ff2-8ba0-29eed2b3ec58" d="M73.05,26.44V22.53h1.26v3.83a2,2,0,0,0,.38,1.33,1.39,1.39,0,0,0,1.09.42,1.63,1.63,0,0,0,1.14-.38,2.12,2.12,0,0,0,.58-1,4.42,4.42,0,0,0,.17-1.21v-3h1.26v6.12c0,.13,0,.26,0,.39H77.74l0-1a3,3,0,0,1-.43.48,2.6,2.6,0,0,1-.71.44,2.67,2.67,0,0,1-1,.18,2.26,2.26,0,0,1-1.88-.74A3.08,3.08,0,0,1,73.05,26.44Z" transform="translate(0 -2.97)"/><path class="f4bef5a3-6903-4ff2-8ba0-29eed2b3ec58" d="M85.9,27.34l.72.75a3.76,3.76,0,0,1-1.45.93,3.94,3.94,0,0,1-1.41.22A3.59,3.59,0,0,1,82,28.8a3,3,0,0,1-1.19-1.23,3.75,3.75,0,0,1-.43-1.83A3.64,3.64,0,0,1,80.77,24a3.31,3.31,0,0,1,1.15-1.23,3.16,3.16,0,0,1,1.69-.45,2.93,2.93,0,0,1,1.83.54,3.12,3.12,0,0,1,1,1.42,5.2,5.2,0,0,1,.33,1.86H81.65a1.92,1.92,0,0,0,.31,1,2,2,0,0,0,.77.71,2.09,2.09,0,0,0,1,.26,2.9,2.9,0,0,0,1.37-.28A2.52,2.52,0,0,0,85.9,27.34Zm-4.25-2.12h3.83A2.08,2.08,0,0,0,85,23.93a1.72,1.72,0,0,0-1.34-.53,1.94,1.94,0,0,0-1,.27,1.79,1.79,0,0,0-.66.68A1.91,1.91,0,0,0,81.65,25.22Z" transform="translate(0 -2.97)"/><path class="f4bef5a3-6903-4ff2-8ba0-29eed2b3ec58" d="M89.44,29H88.19V23c0-.09,0-.23,0-.42h1.21l0,1a3.72,3.72,0,0,1,.44-.49,2.88,2.88,0,0,1,.71-.45,2.49,2.49,0,0,1,1-.19,2.3,2.3,0,0,1,1.89.75,3.07,3.07,0,0,1,.62,2V29H92.85v-3.8a1.93,1.93,0,0,0-.4-1.34,1.42,1.42,0,0,0-1.1-.43,1.72,1.72,0,0,0-1.14.37,2.14,2.14,0,0,0-.59,1A4.14,4.14,0,0,0,89.44,26Z" transform="translate(0 -2.97)"/><path class="f4bef5a3-6903-4ff2-8ba0-29eed2b3ec58" d="M95.45,28.25l.77-.84a2.63,2.63,0,0,0,.84.56,2.88,2.88,0,0,0,1.13.21,2.34,2.34,0,0,0,1-.21.65.65,0,0,0,.42-.63.69.69,0,0,0-.16-.49,1.61,1.61,0,0,0-.58-.33,9.25,9.25,0,0,0-1.12-.32,6,6,0,0,1-1-.34,2.23,2.23,0,0,1-.78-.6,1.53,1.53,0,0,1-.31-1,1.58,1.58,0,0,1,.37-1.07,2.34,2.34,0,0,1,1-.65,3.62,3.62,0,0,1,1.23-.22,4.34,4.34,0,0,1,1.43.22,3.25,3.25,0,0,1,1,.61l-.69.87a2.51,2.51,0,0,0-.73-.45,2.74,2.74,0,0,0-1-.18,2.07,2.07,0,0,0-1,.19.69.69,0,0,0-.36.65.65.65,0,0,0,.49.62,7.34,7.34,0,0,0,1.26.39,5,5,0,0,1,1.11.37,2.08,2.08,0,0,1,.8.62,1.63,1.63,0,0,1,.3,1,1.6,1.6,0,0,1-.39,1.09,2.48,2.48,0,0,1-1,.67,3.83,3.83,0,0,1-1.33.23A3.62,3.62,0,0,1,95.45,28.25Z" transform="translate(0 -2.97)"/><path class="f4bef5a3-6903-4ff2-8ba0-29eed2b3ec58" d="M103.89,29l-2.2-6.51h1.39l1.46,5,1.56-5h1.08l1.57,5,1.43-5h1.3L109.32,29h-1.24l-1.51-4.55L105.07,29Z" transform="translate(0 -2.97)"/><path class="f4bef5a3-6903-4ff2-8ba0-29eed2b3ec58" d="M112.47,26.44V22.53h1.26v3.83a2,2,0,0,0,.38,1.33,1.39,1.39,0,0,0,1.09.42,1.62,1.62,0,0,0,1.14-.38,2.12,2.12,0,0,0,.58-1,4.07,4.07,0,0,0,.17-1.21v-3h1.26v6.12c0,.13,0,.26,0,.39h-1.21l0-1a3,3,0,0,1-.43.48A2.45,2.45,0,0,1,116,29a2.64,2.64,0,0,1-1,.18,2.24,2.24,0,0,1-1.87-.74A3,3,0,0,1,112.47,26.44Zm1.11-5.24V19.93h1.32V21.2Zm2.39,0V19.93h1.31V21.2Z" transform="translate(0 -2.97)"/><path class="f4bef5a3-6903-4ff2-8ba0-29eed2b3ec58" d="M121.36,29H120.1v-6.1c0-.08,0-.22,0-.41h1.2l0,1a4,4,0,0,1,.42-.49,2.66,2.66,0,0,1,.7-.46,2.35,2.35,0,0,1,1-.19l.39,0a1.59,1.59,0,0,1,.33.09l-.28,1.17a2,2,0,0,0-.65-.09,1.78,1.78,0,0,0-1,.27,1.93,1.93,0,0,0-.67.72,2,2,0,0,0-.26,1Z" transform="translate(0 -2.97)"/><path class="f4bef5a3-6903-4ff2-8ba0-29eed2b3ec58" d="M129.58,29l0-.82c-.07.07-.18.19-.36.36a2.51,2.51,0,0,1-.69.46,2.57,2.57,0,0,1-1.06.2,2.8,2.8,0,0,1-1.49-.41,2.87,2.87,0,0,1-1-1.17,3.86,3.86,0,0,1-.38-1.78,3.67,3.67,0,0,1,.31-1.59,3.22,3.22,0,0,1,.82-1.08,3.64,3.64,0,0,1,1.09-.63,3.4,3.4,0,0,1,2-.09,5.06,5.06,0,0,1,.78.31V19.71h1.26v8.94c0,.13,0,.26,0,.39Zm0-2.74V24a2,2,0,0,0-.64-.35,2.74,2.74,0,0,0-1-.14,2,2,0,0,0-1.52.64,2.49,2.49,0,0,0-.6,1.76A3,3,0,0,0,126,27a1.76,1.76,0,0,0,.62.82,1.8,1.8,0,0,0,1.07.3,1.7,1.7,0,0,0,1-.3,1.75,1.75,0,0,0,.59-.74A2,2,0,0,0,129.54,26.3Z" transform="translate(0 -2.97)"/><path class="f4bef5a3-6903-4ff2-8ba0-29eed2b3ec58" d="M132.52,21.37V20h1.42v1.41Zm.09,7.67V22.53h1.26V29Z" transform="translate(0 -2.97)"/><path class="f4bef5a3-6903-4ff2-8ba0-29eed2b3ec58" d="M135.94,31.3l.59-.93a3.06,3.06,0,0,0,.79.39,3.44,3.44,0,0,0,1.14.16,1.78,1.78,0,0,0,1.4-.52,2,2,0,0,0,.46-1.36v-.79l-.38.31a2.47,2.47,0,0,1-.65.37,2.59,2.59,0,0,1-1,.17,3,3,0,0,1-1.61-.42,2.63,2.63,0,0,1-1-1.15,3.88,3.88,0,0,1-.34-1.66,3.47,3.47,0,0,1,.46-1.8,3.21,3.21,0,0,1,1.29-1.24,3.93,3.93,0,0,1,1.91-.45,7.67,7.67,0,0,1,1.48.14,6.48,6.48,0,0,1,1.11.31V29a2.87,2.87,0,0,1-.82,2.19,3.22,3.22,0,0,1-2.3.78,4.54,4.54,0,0,1-1.58-.22A4,4,0,0,1,135.94,31.3Zm4.39-4.92v-2.7l-.42-.12a4.16,4.16,0,0,0-.91-.07,2.47,2.47,0,0,0-1.24.3,2.23,2.23,0,0,0-.84.83,2.49,2.49,0,0,0-.3,1.23,3.14,3.14,0,0,0,.19,1.08,1.64,1.64,0,0,0,.61.78,1.81,1.81,0,0,0,1.08.3,2.05,2.05,0,0,0,1-.24,1.53,1.53,0,0,0,.6-.61A1.66,1.66,0,0,0,140.33,26.38Z" transform="translate(0 -2.97)"/></g></g></g><g id="a25ccb29-8b95-4011-b8e5-6830dbe4a6e8" data-name="Gruppe 181"><g id="ee839fad-161c-4e4c-83d4-3e8f868338bb" data-name=" 34 - 66" class="a7797fb5-c86e-4953-ba71-6d2716e97fc1"><g class="a7797fb5-c86e-4953-ba71-6d2716e97fc1"><path class="f4bef5a3-6903-4ff2-8ba0-29eed2b3ec58" d="M188.29,89.27l1-1.16a2.87,2.87,0,0,0,.84.54,2.43,2.43,0,0,0,1,.2,1.69,1.69,0,0,0,1.2-.42,1.39,1.39,0,0,0,.45-1.07,1.57,1.57,0,0,0-.33-1,1.49,1.49,0,0,0-1.19-.41,3,3,0,0,0-.41,0l-.38.09-.49-.79,2.26-2.53h-3.31V81.24h5.28V82.5l-2,2.29a2.51,2.51,0,0,1,1.72.84,2.67,2.67,0,0,1,.56,1.74,2.78,2.78,0,0,1-.44,1.57,3,3,0,0,1-1.22,1,4.34,4.34,0,0,1-4.57-.68Z" transform="translate(0 -2.97)"/><path class="f4bef5a3-6903-4ff2-8ba0-29eed2b3ec58" d="M196.19,88.35V87L200,81.22h1.65V87h.91v1.4h-.91V90h-1.58V88.35Zm1.6-1.4h2.32v-3.4Z" transform="translate(0 -2.97)"/><path class="f4bef5a3-6903-4ff2-8ba0-29eed2b3ec58" d="M206.75,86.92V85.35H211v1.57Z" transform="translate(0 -2.97)"/><path class="f4bef5a3-6903-4ff2-8ba0-29eed2b3ec58" d="M221.4,81.56l-.71,1.3a2.92,2.92,0,0,0-.72-.32,3.13,3.13,0,0,0-.79-.11,1.87,1.87,0,0,0-1.16.37,2.57,2.57,0,0,0-.79.94A2.72,2.72,0,0,0,217,85c.21-.12.45-.26.74-.4a2.41,2.41,0,0,1,1.11-.22,2.68,2.68,0,0,1,2,.76,2.85,2.85,0,0,1,.76,2.13,3.36,3.36,0,0,1-.34,1.52,2.82,2.82,0,0,1-1,1.13,3.08,3.08,0,0,1-1.66.43,3,3,0,0,1-2.82-1.87,6.23,6.23,0,0,1-.42-2.47,6.89,6.89,0,0,1,.44-2.59A3.81,3.81,0,0,1,217,81.61a3.6,3.6,0,0,1,2.15-.64,3.73,3.73,0,0,1,1.36.22A6.47,6.47,0,0,1,221.4,81.56Zm-4.46,4.72a4.63,4.63,0,0,0,.21,1.55,1.56,1.56,0,0,0,.59.79,1.38,1.38,0,0,0,.79.23,1.32,1.32,0,0,0,1.06-.46,1.84,1.84,0,0,0,.4-1.23,1.42,1.42,0,0,0-.37-1,1.27,1.27,0,0,0-1-.38,2.67,2.67,0,0,0-1.05.18A4.86,4.86,0,0,0,216.94,86.28Z" transform="translate(0 -2.97)"/><path class="f4bef5a3-6903-4ff2-8ba0-29eed2b3ec58" d="M229,81.56l-.71,1.3a2.63,2.63,0,0,0-.72-.32,3.13,3.13,0,0,0-.79-.11,1.87,1.87,0,0,0-1.16.37,2.57,2.57,0,0,0-.79.94,2.72,2.72,0,0,0-.28,1.21c.21-.12.46-.26.74-.4a2.41,2.41,0,0,1,1.11-.22,2.68,2.68,0,0,1,2,.76,2.85,2.85,0,0,1,.76,2.13,3.36,3.36,0,0,1-.34,1.52,2.82,2.82,0,0,1-1,1.13,3.07,3.07,0,0,1-4.48-1.44,6.23,6.23,0,0,1-.42-2.47,6.89,6.89,0,0,1,.44-2.59,3.81,3.81,0,0,1,1.31-1.76,3.6,3.6,0,0,1,2.15-.64,3.73,3.73,0,0,1,1.36.22A6.47,6.47,0,0,1,229,81.56Zm-4.46,4.72a4.36,4.36,0,0,0,.22,1.55,1.49,1.49,0,0,0,.58.79,1.4,1.4,0,0,0,.79.23,1.32,1.32,0,0,0,1.06-.46,1.84,1.84,0,0,0,.4-1.23,1.42,1.42,0,0,0-.37-1,1.27,1.27,0,0,0-1-.38,2.67,2.67,0,0,0-1.05.18A4.86,4.86,0,0,0,224.57,86.28Z" transform="translate(0 -2.97)"/></g></g><g id="f7aa7bc2-3ee7-4740-989c-02aba1b5c92c" data-name="Eher nicht vertrauensw端rdig" class="a7797fb5-c86e-4953-ba71-6d2716e97fc1"><g class="a7797fb5-c86e-4953-ba71-6d2716e97fc1"><path class="f4bef5a3-6903-4ff2-8ba0-29eed2b3ec58" d="M125.06,107V97.71h5.88V98.9h-4.53v2.71h3.41v1.21h-3.41v3h4.87V107Z" transform="translate(0 -2.97)"/><path class="f4bef5a3-6903-4ff2-8ba0-29eed2b3ec58" d="M132.75,107V97.71H134v3.79a3.15,3.15,0,0,1,.44-.5,2.27,2.27,0,0,1,.7-.44,2.6,2.6,0,0,1,1-.18,2.3,2.3,0,0,1,1.89.75,3.07,3.07,0,0,1,.61,2V107h-1.26v-3.8a1.88,1.88,0,0,0-.4-1.34,1.4,1.4,0,0,0-1.1-.43,1.69,1.69,0,0,0-1.13.37,2,2,0,0,0-.59,1A4.14,4.14,0,0,0,134,104v3Z" transform="translate(0 -2.97)"/><path class="f4bef5a3-6903-4ff2-8ba0-29eed2b3ec58" d="M145.59,105.34l.71.75a3.08,3.08,0,0,1-.5.44,3.65,3.65,0,0,1-1,.49,3.85,3.85,0,0,1-1.4.22,3.53,3.53,0,0,1-1.78-.44,3.15,3.15,0,0,1-1.2-1.23,3.86,3.86,0,0,1-.43-1.83,3.53,3.53,0,0,1,.42-1.72,3.08,3.08,0,0,1,2.83-1.68,2.94,2.94,0,0,1,1.84.54,3.27,3.27,0,0,1,1,1.42,5.42,5.42,0,0,1,.32,1.86h-5.14a1.92,1.92,0,0,0,.31,1,2.13,2.13,0,0,0,.78.71,2.09,2.09,0,0,0,1,.26,2.93,2.93,0,0,0,1.37-.28A2.66,2.66,0,0,0,145.59,105.34Zm-4.26-2.12h3.84a2.2,2.2,0,0,0-.53-1.29,1.74,1.74,0,0,0-1.35-.53,1.91,1.91,0,0,0-1.7.95A2,2,0,0,0,141.33,103.22Z" transform="translate(0 -2.97)"/><path class="f4bef5a3-6903-4ff2-8ba0-29eed2b3ec58" d="M149.13,107h-1.26v-6.1c0-.08,0-.22,0-.41h1.2l0,1a3.49,3.49,0,0,1,.43-.49,2.59,2.59,0,0,1,.69-.46,2.4,2.4,0,0,1,1-.19l.38,0a1.59,1.59,0,0,1,.33.09l-.28,1.17a1.89,1.89,0,0,0-.64-.09,1.78,1.78,0,0,0-1,.27,2,2,0,0,0-.68.72,2,2,0,0,0-.25,1Z" transform="translate(0 -2.97)"/><path class="f4bef5a3-6903-4ff2-8ba0-29eed2b3ec58" d="M156.76,107H155.5V101c0-.09,0-.23,0-.42h1.2l0,1a3.24,3.24,0,0,1,.45-.49,2.47,2.47,0,0,1,.71-.45,2.43,2.43,0,0,1,1-.19,2.3,2.3,0,0,1,1.89.75,3.07,3.07,0,0,1,.61,2V107h-1.26v-3.8a1.88,1.88,0,0,0-.4-1.34,1.4,1.4,0,0,0-1.1-.43,1.69,1.69,0,0,0-1.13.37,2,2,0,0,0-.59,1,4.14,4.14,0,0,0-.18,1.22Z" transform="translate(0 -2.97)"/><path class="f4bef5a3-6903-4ff2-8ba0-29eed2b3ec58" d="M163.09,99.37V98h1.41v1.41Zm.08,7.67v-6.51h1.26V107Z" transform="translate(0 -2.97)"/><path class="f4bef5a3-6903-4ff2-8ba0-29eed2b3ec58" d="M171.11,105.34l.77.81a3.36,3.36,0,0,1-1.08.79,3.45,3.45,0,0,1-1.47.3,3.5,3.5,0,0,1-1.81-.45,3.14,3.14,0,0,1-1.18-1.22,3.73,3.73,0,0,1-.42-1.79,3.5,3.5,0,0,1,.43-1.73,3.33,3.33,0,0,1,1.21-1.26,3.63,3.63,0,0,1,3.23-.17,3.17,3.17,0,0,1,1.08.8l-.83.79a2.18,2.18,0,0,0-.71-.57,2.23,2.23,0,0,0-1-.21,2,2,0,0,0-1.15.33,2.12,2.12,0,0,0-.74.86,2.72,2.72,0,0,0,0,2.3,2.32,2.32,0,0,0,.73.88,2,2,0,0,0,1.15.33,2.43,2.43,0,0,0,1-.21A2.29,2.29,0,0,0,171.11,105.34Z" transform="translate(0 -2.97)"/><path class="f4bef5a3-6903-4ff2-8ba0-29eed2b3ec58" d="M173.11,107V97.71h1.25v3.79a3.75,3.75,0,0,1,.44-.5,2.27,2.27,0,0,1,.7-.44,2.64,2.64,0,0,1,1-.18,2.3,2.3,0,0,1,1.89.75,3.07,3.07,0,0,1,.61,2V107h-1.26v-3.8a1.88,1.88,0,0,0-.4-1.34,1.39,1.39,0,0,0-1.09-.43,1.7,1.7,0,0,0-1.14.37,2,2,0,0,0-.59,1,4.14,4.14,0,0,0-.18,1.22v3Z" transform="translate(0 -2.97)"/><path class="f4bef5a3-6903-4ff2-8ba0-29eed2b3ec58" d="M181.29,104.92v-3.34h-1.18v-1h1.18V98.41h1.26v2.12h1.9v1h-1.9v3.21a1.79,1.79,0,0,0,.24,1.08.89.89,0,0,0,.7.29,1.34,1.34,0,0,0,.6-.11,1.48,1.48,0,0,0,.47-.34l.58.77a2.45,2.45,0,0,1-1.85.75,1.88,1.88,0,0,1-1.51-.57A2.6,2.6,0,0,1,181.29,104.92Z" transform="translate(0 -2.97)"/><path class="f4bef5a3-6903-4ff2-8ba0-29eed2b3ec58" d="M190.65,107l-2.8-6.51h1.44l2,5.09,2-5.09h1.36L191.91,107Z" transform="translate(0 -2.97)"/><path class="f4bef5a3-6903-4ff2-8ba0-29eed2b3ec58" d="M200.54,105.34l.71.75a3.08,3.08,0,0,1-.5.44,3.9,3.9,0,0,1-2.35.71,3.53,3.53,0,0,1-1.78-.44,3.15,3.15,0,0,1-1.2-1.23,3.86,3.86,0,0,1-.43-1.83,3.53,3.53,0,0,1,.42-1.72,3.14,3.14,0,0,1,1.14-1.23,3.19,3.19,0,0,1,1.69-.45,2.94,2.94,0,0,1,1.84.54,3.27,3.27,0,0,1,1,1.42,5.42,5.42,0,0,1,.32,1.86h-5.14a1.92,1.92,0,0,0,.31,1,2.05,2.05,0,0,0,.78.71,2.09,2.09,0,0,0,1,.26,2.86,2.86,0,0,0,1.36-.28A2.59,2.59,0,0,0,200.54,105.34Zm-4.26-2.12h3.84a2.2,2.2,0,0,0-.53-1.29,1.74,1.74,0,0,0-1.35-.53,1.88,1.88,0,0,0-1,.27,1.82,1.82,0,0,0-.67.68A2,2,0,0,0,196.28,103.22Z" transform="translate(0 -2.97)"/><path class="f4bef5a3-6903-4ff2-8ba0-29eed2b3ec58" d="M204.08,107h-1.26v-6.1c0-.08,0-.22,0-.41H204l0,1a3.49,3.49,0,0,1,.43-.49,2.59,2.59,0,0,1,.69-.46,2.4,2.4,0,0,1,1-.19l.38,0a1.59,1.59,0,0,1,.33.09l-.28,1.17a1.89,1.89,0,0,0-.64-.09,1.74,1.74,0,0,0-1,.27,2,2,0,0,0-.68.72,2,2,0,0,0-.25,1Z" transform="translate(0 -2.97)"/><path class="f4bef5a3-6903-4ff2-8ba0-29eed2b3ec58" d="M208.76,104.92v-3.34h-1.18v-1h1.18V98.41H210v2.12h1.9v1H210v3.21a1.79,1.79,0,0,0,.24,1.08.85.85,0,0,0,.69.29,1.36,1.36,0,0,0,.61-.11,1.48,1.48,0,0,0,.47-.34l.57.77a2.52,2.52,0,0,1-.83.57,2.57,2.57,0,0,1-1,.18,1.88,1.88,0,0,1-1.51-.57A2.6,2.6,0,0,1,208.76,104.92Z" transform="translate(0 -2.97)"/><path class="f4bef5a3-6903-4ff2-8ba0-29eed2b3ec58" d="M214.83,107h-1.26v-6.1c0-.08,0-.22,0-.41h1.2l0,1a4.29,4.29,0,0,1,.43-.49,2.59,2.59,0,0,1,.69-.46,2.4,2.4,0,0,1,1-.19l.39,0a1.68,1.68,0,0,1,.32.09l-.27,1.17a2,2,0,0,0-.65-.09,1.78,1.78,0,0,0-1,.27,2,2,0,0,0-.68.72,2.08,2.08,0,0,0-.25,1Z" transform="translate(0 -2.97)"/><path class="f4bef5a3-6903-4ff2-8ba0-29eed2b3ec58" d="M222.56,107l0-.78a2.08,2.08,0,0,1-1,.72,3.29,3.29,0,0,1-1.22.25,3,3,0,0,1-1.06-.2,2,2,0,0,1-.87-.64,1.91,1.91,0,0,1-.34-1.19,2.11,2.11,0,0,1,.74-1.68,3.19,3.19,0,0,1,2.12-.63c.2,0,.41,0,.63,0l.6,0,.35,0v-.23a1.21,1.21,0,0,0-.44-1,2.05,2.05,0,0,0-1.2-.31,2.9,2.9,0,0,0-1.17.2,5.45,5.45,0,0,0-.74.41l-.58-.85a4.13,4.13,0,0,1,1-.55,4.46,4.46,0,0,1,1.67-.26,2.94,2.94,0,0,1,2,.61,2.11,2.11,0,0,1,.73,1.73v4c0,.09,0,.2,0,.33Zm0-2.33V104l-.32,0-.57,0-.61,0a2.34,2.34,0,0,0-1.07.2,1.14,1.14,0,0,0-.51.51,1.61,1.61,0,0,0-.13.59.94.94,0,0,0,.36.8,1.62,1.62,0,0,0,1,.28,1.88,1.88,0,0,0,.91-.22,2,2,0,0,0,.67-.56A1.26,1.26,0,0,0,222.52,104.71Z" transform="translate(0 -2.97)"/><path class="f4bef5a3-6903-4ff2-8ba0-29eed2b3ec58" d="M225.4,104.44v-3.91h1.26v3.83a2,2,0,0,0,.38,1.33,1.38,1.38,0,0,0,1.09.42,1.59,1.59,0,0,0,1.13-.38,2.06,2.06,0,0,0,.59-1,4.42,4.42,0,0,0,.17-1.21v-3h1.26v6.11c0,.14,0,.27,0,.4h-1.2l0-1a3,3,0,0,1-.43.48,2.6,2.6,0,0,1-.71.44,2.67,2.67,0,0,1-1,.18,2.26,2.26,0,0,1-1.88-.74A3.08,3.08,0,0,1,225.4,104.44Z" transform="translate(0 -2.97)"/><path class="f4bef5a3-6903-4ff2-8ba0-29eed2b3ec58" d="M238.25,105.34l.72.75a3.27,3.27,0,0,1-.51.44,3.74,3.74,0,0,1-.94.49,3.94,3.94,0,0,1-1.41.22,3.59,3.59,0,0,1-1.78-.44,3.13,3.13,0,0,1-1.19-1.23,3.75,3.75,0,0,1-.43-1.83,3.64,3.64,0,0,1,.41-1.72,3.24,3.24,0,0,1,1.15-1.23,3.16,3.16,0,0,1,1.69-.45,2.93,2.93,0,0,1,1.83.54,3.12,3.12,0,0,1,1,1.42,5.2,5.2,0,0,1,.32,1.86H234a2,2,0,0,0,.3,1,2.13,2.13,0,0,0,.78.71,2.1,2.1,0,0,0,1,.26,2.89,2.89,0,0,0,1.36-.28A2.52,2.52,0,0,0,238.25,105.34ZM234,103.22h3.83a2.13,2.13,0,0,0-.53-1.29,1.72,1.72,0,0,0-1.34-.53,1.92,1.92,0,0,0-1,.27,1.79,1.79,0,0,0-.66.68A1.91,1.91,0,0,0,234,103.22Z" transform="translate(0 -2.97)"/><path class="f4bef5a3-6903-4ff2-8ba0-29eed2b3ec58" d="M241.79,107h-1.25V101c0-.09,0-.23,0-.42h1.2l.05,1a3.72,3.72,0,0,1,.44-.49,2.62,2.62,0,0,1,.71-.45,2.49,2.49,0,0,1,1-.19,2.3,2.3,0,0,1,1.89.75,3.07,3.07,0,0,1,.62,2V107H245.2v-3.8a1.93,1.93,0,0,0-.4-1.34,1.42,1.42,0,0,0-1.1-.43,1.7,1.7,0,0,0-1.14.37,2.14,2.14,0,0,0-.59,1,4.14,4.14,0,0,0-.18,1.22Z" transform="translate(0 -2.97)"/><path class="f4bef5a3-6903-4ff2-8ba0-29eed2b3ec58" d="M247.8,106.25l.77-.84a2.63,2.63,0,0,0,.84.56,2.88,2.88,0,0,0,1.13.21,2.34,2.34,0,0,0,1.05-.21.64.64,0,0,0,.42-.63.69.69,0,0,0-.16-.49,1.48,1.48,0,0,0-.58-.33,9.25,9.25,0,0,0-1.12-.32,6,6,0,0,1-1-.34,2.23,2.23,0,0,1-.78-.6,1.53,1.53,0,0,1-.31-1,1.58,1.58,0,0,1,.37-1.07,2.34,2.34,0,0,1,1-.65,3.62,3.62,0,0,1,1.23-.22,4.34,4.34,0,0,1,1.43.22,3.25,3.25,0,0,1,1,.61l-.69.87a2.51,2.51,0,0,0-.73-.45,2.74,2.74,0,0,0-1-.18,2.07,2.07,0,0,0-1,.19.68.68,0,0,0-.36.65.65.65,0,0,0,.49.62,7.34,7.34,0,0,0,1.26.39,5,5,0,0,1,1.11.37,2.08,2.08,0,0,1,.8.62,1.63,1.63,0,0,1,.3,1,1.6,1.6,0,0,1-.39,1.09,2.48,2.48,0,0,1-1,.67,3.83,3.83,0,0,1-1.33.23A3.62,3.62,0,0,1,247.8,106.25Z" transform="translate(0 -2.97)"/><path class="f4bef5a3-6903-4ff2-8ba0-29eed2b3ec58" d="M256.24,107l-2.2-6.51h1.39l1.46,5,1.56-5h1.08l1.57,5,1.43-5h1.3L261.67,107h-1.24l-1.51-4.55-1.5,4.55Z" transform="translate(0 -2.97)"/><path class="f4bef5a3-6903-4ff2-8ba0-29eed2b3ec58" d="M264.82,104.44v-3.91h1.26v3.83a2,2,0,0,0,.38,1.33,1.39,1.39,0,0,0,1.09.42,1.62,1.62,0,0,0,1.14-.38,2.12,2.12,0,0,0,.58-1,4.07,4.07,0,0,0,.17-1.21v-3h1.26v6.11c0,.14,0,.27,0,.4h-1.21l0-1a3,3,0,0,1-.43.48,2.45,2.45,0,0,1-.71.44,2.64,2.64,0,0,1-1,.18,2.24,2.24,0,0,1-1.87-.74A3,3,0,0,1,264.82,104.44Zm1.11-5.24V97.93h1.32V99.2Zm2.39,0V97.93h1.31V99.2Z" transform="translate(0 -2.97)"/><path class="f4bef5a3-6903-4ff2-8ba0-29eed2b3ec58" d="M273.71,107h-1.26v-6.1c0-.08,0-.22,0-.41h1.2l.05,1a3.35,3.35,0,0,1,.42-.49,2.66,2.66,0,0,1,.7-.46,2.35,2.35,0,0,1,1-.19l.39,0a1.59,1.59,0,0,1,.33.09l-.28,1.17a2,2,0,0,0-.65-.09,1.78,1.78,0,0,0-1,.27,1.93,1.93,0,0,0-.67.72,2,2,0,0,0-.26,1Z" transform="translate(0 -2.97)"/><path class="f4bef5a3-6903-4ff2-8ba0-29eed2b3ec58" d="M281.93,107l0-.82-.36.36a2.51,2.51,0,0,1-.69.46,2.57,2.57,0,0,1-1.06.2,2.78,2.78,0,0,1-1.49-.41,2.87,2.87,0,0,1-1-1.17,3.86,3.86,0,0,1-.38-1.78,3.67,3.67,0,0,1,.31-1.59,3.22,3.22,0,0,1,.82-1.08,3.64,3.64,0,0,1,1.09-.63,3.4,3.4,0,0,1,2-.09,5.06,5.06,0,0,1,.78.31V97.71h1.26v8.93c0,.14,0,.27,0,.4Zm0-2.74V102a2,2,0,0,0-.64-.35,2.74,2.74,0,0,0-1-.14,2,2,0,0,0-1.51.64,2.45,2.45,0,0,0-.61,1.76,3,3,0,0,0,.2,1.14,1.76,1.76,0,0,0,.62.82,1.8,1.8,0,0,0,1.07.3,1.7,1.7,0,0,0,1.05-.3,1.75,1.75,0,0,0,.59-.74A2,2,0,0,0,281.89,104.3Z" transform="translate(0 -2.97)"/><path class="f4bef5a3-6903-4ff2-8ba0-29eed2b3ec58" d="M284.87,99.37V98h1.42v1.41ZM285,107v-6.51h1.26V107Z" transform="translate(0 -2.97)"/><path class="f4bef5a3-6903-4ff2-8ba0-29eed2b3ec58" d="M288.29,109.3l.59-.93a3.06,3.06,0,0,0,.79.39,3.44,3.44,0,0,0,1.14.16,1.78,1.78,0,0,0,1.4-.52,2,2,0,0,0,.46-1.36v-.79l-.38.31a2.47,2.47,0,0,1-.65.37,2.59,2.59,0,0,1-1,.17,3,3,0,0,1-1.61-.42,2.68,2.68,0,0,1-1-1.15,3.88,3.88,0,0,1-.34-1.66,3.44,3.44,0,0,1,.46-1.8,3.21,3.21,0,0,1,1.29-1.24,3.93,3.93,0,0,1,1.91-.45,7.67,7.67,0,0,1,1.48.14,6.48,6.48,0,0,1,1.11.31V107a2.87,2.87,0,0,1-.82,2.19,3.22,3.22,0,0,1-2.3.78,4.54,4.54,0,0,1-1.58-.22A4,4,0,0,1,288.29,109.3Zm4.39-4.92v-2.7l-.42-.12a4.16,4.16,0,0,0-.91-.07,2.47,2.47,0,0,0-1.24.3,2.16,2.16,0,0,0-.84.83,2.46,2.46,0,0,0-.3,1.23,3.14,3.14,0,0,0,.19,1.08,1.64,1.64,0,0,0,.61.78,1.81,1.81,0,0,0,1.08.3,2,2,0,0,0,1-.24,1.53,1.53,0,0,0,.6-.61A1.66,1.66,0,0,0,292.68,104.38Z" transform="translate(0 -2.97)"/></g></g></g><g id="a4dc6d3d-c6cb-48d7-8bca-4931da9aef7f" data-name="Gruppe 183"><g id="a7cccd57-fa24-4489-a746-2ea1f998ca1d" data-name=" 67 - 83" class="a7797fb5-c86e-4953-ba71-6d2716e97fc1"><g class="a7797fb5-c86e-4953-ba71-6d2716e97fc1"><path class="f4bef5a3-6903-4ff2-8ba0-29eed2b3ec58" d="M322.9,3.56l-.71,1.3a2.92,2.92,0,0,0-.72-.32,3.13,3.13,0,0,0-.79-.11,1.92,1.92,0,0,0-1.17.37,2.64,2.64,0,0,0-.78.94A2.72,2.72,0,0,0,318.45,7c.21-.12.45-.26.74-.4a2.41,2.41,0,0,1,1.11-.22,2.68,2.68,0,0,1,2,.76A2.85,2.85,0,0,1,323,9.22a3.36,3.36,0,0,1-.34,1.52,2.77,2.77,0,0,1-1,1.13,3,3,0,0,1-1.65.43,2.94,2.94,0,0,1-2.82-1.87A6.22,6.22,0,0,1,316.78,8a6.89,6.89,0,0,1,.45-2.59,3.81,3.81,0,0,1,1.31-1.76A3.58,3.58,0,0,1,320.69,3a3.73,3.73,0,0,1,1.36.22A6.47,6.47,0,0,1,322.9,3.56Zm-4.46,4.72a4.63,4.63,0,0,0,.21,1.55,1.6,1.6,0,0,0,.58.79,1.43,1.43,0,0,0,.8.23,1.33,1.33,0,0,0,1.06-.46,1.84,1.84,0,0,0,.4-1.23,1.46,1.46,0,0,0-.37-1,1.28,1.28,0,0,0-1-.38,2.62,2.62,0,0,0-1,.18A4.32,4.32,0,0,0,318.44,8.28Z" transform="translate(0 -2.97)"/><path class="f4bef5a3-6903-4ff2-8ba0-29eed2b3ec58" d="M327.2,12h-1.79c.16-.49.34-1,.55-1.58s.44-1.14.67-1.71.48-1.11.72-1.62.46-1,.67-1.39.39-.73.54-1h-4V3.22h5.71V4.71a9.66,9.66,0,0,0-.54,1q-.33.64-.69,1.47c-.24.55-.48,1.12-.71,1.7s-.45,1.15-.65,1.7S327.31,11.62,327.2,12Z" transform="translate(0 -2.97)"/><path class="f4bef5a3-6903-4ff2-8ba0-29eed2b3ec58" d="M334.75,8.92V7.35H339V8.92Z" transform="translate(0 -2.97)"/><path class="f4bef5a3-6903-4ff2-8ba0-29eed2b3ec58" d="M344.64,7.15a2.49,2.49,0,0,1-.77-.75,1.92,1.92,0,0,1-.33-1.09,2.19,2.19,0,0,1,.35-1.23,2.25,2.25,0,0,1,1-.81,3.32,3.32,0,0,1,1.45-.3,3,3,0,0,1,2.08.64,2.08,2.08,0,0,1,.71,1.63,1.92,1.92,0,0,1-.35,1.13,2.39,2.39,0,0,1-.8.73,2.77,2.77,0,0,1,1.23,1,2.42,2.42,0,0,1,.45,1.47,2.69,2.69,0,0,1-.18.94,2.49,2.49,0,0,1-.58.89,3,3,0,0,1-1,.66,4.3,4.3,0,0,1-1.53.25,4.14,4.14,0,0,1-1.54-.25,2.76,2.76,0,0,1-1-.65,2.56,2.56,0,0,1-.57-.88,2.64,2.64,0,0,1-.18-.93,2.47,2.47,0,0,1,.45-1.48A2.85,2.85,0,0,1,344.64,7.15Zm1.66.78a2.38,2.38,0,0,0-1.13.57,1.31,1.31,0,0,0-.48,1,1.2,1.2,0,0,0,.25.8,1.41,1.41,0,0,0,.63.45,2.11,2.11,0,0,0,1.51,0,1.41,1.41,0,0,0,.63-.45,1.2,1.2,0,0,0,.25-.8,1.16,1.16,0,0,0-.24-.72,2.06,2.06,0,0,0-.61-.56A2.43,2.43,0,0,0,346.3,7.93Zm0-1.36a1.76,1.76,0,0,0,.9-.53,1.18,1.18,0,0,0,.34-.77,1,1,0,0,0-.35-.76,1.3,1.3,0,0,0-.89-.31,1.32,1.32,0,0,0-.87.31,1,1,0,0,0-.36.8,1.11,1.11,0,0,0,.34.74A1.84,1.84,0,0,0,346.32,6.57Z" transform="translate(0 -2.97)"/><path class="f4bef5a3-6903-4ff2-8ba0-29eed2b3ec58" d="M350.43,11.27l.95-1.16a2.87,2.87,0,0,0,.84.54,2.46,2.46,0,0,0,1,.2,1.69,1.69,0,0,0,1.2-.42,1.4,1.4,0,0,0,.46-1.07,1.58,1.58,0,0,0-.34-1,1.47,1.47,0,0,0-1.19-.41A3,3,0,0,0,353,8l-.37.09-.49-.79,2.25-2.53h-3.3V3.24h5.27V4.5l-2,2.29a2.55,2.55,0,0,1,1.73.84,2.73,2.73,0,0,1,.56,1.74,2.71,2.71,0,0,1-.45,1.57A3,3,0,0,1,355,12a4.54,4.54,0,0,1-3.37.05A4,4,0,0,1,350.43,11.27Z" transform="translate(0 -2.97)"/></g></g><g id="b6f62111-e15a-49a8-be8c-bcf0b06c2ecc" data-name="Eher vertrauensw端rdig" class="a7797fb5-c86e-4953-ba71-6d2716e97fc1"><g class="a7797fb5-c86e-4953-ba71-6d2716e97fc1"><path class="f4bef5a3-6903-4ff2-8ba0-29eed2b3ec58" d="M269.06,29V19.71h5.88V20.9h-4.53v2.71h3.41v1.21h-3.41v3h4.87V29Z" transform="translate(0 -2.97)"/><path class="f4bef5a3-6903-4ff2-8ba0-29eed2b3ec58" d="M276.75,29V19.71H278V23.5a3.15,3.15,0,0,1,.44-.5,2.27,2.27,0,0,1,.7-.44,2.6,2.6,0,0,1,1-.18,2.32,2.32,0,0,1,1.89.75,3.07,3.07,0,0,1,.61,2V29h-1.26v-3.8a1.88,1.88,0,0,0-.4-1.34,1.4,1.4,0,0,0-1.1-.43,1.69,1.69,0,0,0-1.13.37,2,2,0,0,0-.59,1A4.14,4.14,0,0,0,278,26v3Z" transform="translate(0 -2.97)"/><path class="f4bef5a3-6903-4ff2-8ba0-29eed2b3ec58" d="M289.59,27.34l.71.75a3.08,3.08,0,0,1-.5.44,3.51,3.51,0,0,1-.95.49,3.85,3.85,0,0,1-1.4.22,3.53,3.53,0,0,1-1.78-.44,3,3,0,0,1-1.2-1.23,3.86,3.86,0,0,1-.43-1.83,3.53,3.53,0,0,1,.42-1.72,3.23,3.23,0,0,1,1.15-1.23,3.15,3.15,0,0,1,1.68-.45,2.94,2.94,0,0,1,1.84.54,3.27,3.27,0,0,1,1,1.42,5.42,5.42,0,0,1,.32,1.86h-5.14a1.92,1.92,0,0,0,.31,1,2.13,2.13,0,0,0,.78.71,2.09,2.09,0,0,0,1,.26,2.93,2.93,0,0,0,1.37-.28A2.66,2.66,0,0,0,289.59,27.34Zm-4.26-2.12h3.84a2.2,2.2,0,0,0-.53-1.29,1.74,1.74,0,0,0-1.35-.53,1.91,1.91,0,0,0-1.7,1A2,2,0,0,0,285.33,25.22Z" transform="translate(0 -2.97)"/><path class="f4bef5a3-6903-4ff2-8ba0-29eed2b3ec58" d="M293.13,29h-1.26v-6.1c0-.08,0-.22,0-.41h1.2l0,1a5.36,5.36,0,0,1,.43-.49,2.59,2.59,0,0,1,.69-.46,2.4,2.4,0,0,1,1-.19l.39,0a1.68,1.68,0,0,1,.32.09l-.28,1.17a1.89,1.89,0,0,0-.64-.09,1.78,1.78,0,0,0-1,.27,2,2,0,0,0-.68.72,2,2,0,0,0-.25,1Z" transform="translate(0 -2.97)"/><path class="f4bef5a3-6903-4ff2-8ba0-29eed2b3ec58" d="M301.52,29l-2.8-6.51h1.44l2,5.09,2-5.09h1.36L302.78,29Z" transform="translate(0 -2.97)"/><path class="f4bef5a3-6903-4ff2-8ba0-29eed2b3ec58" d="M311.4,27.34l.71.75a3.08,3.08,0,0,1-.5.44,3.44,3.44,0,0,1-.94.49,3.94,3.94,0,0,1-1.41.22,3.56,3.56,0,0,1-1.78-.44,3.09,3.09,0,0,1-1.2-1.23,3.86,3.86,0,0,1-.42-1.83,3.53,3.53,0,0,1,.41-1.72,3.23,3.23,0,0,1,1.15-1.23,3.15,3.15,0,0,1,1.68-.45,2.94,2.94,0,0,1,1.84.54,3.19,3.19,0,0,1,1,1.42,5.42,5.42,0,0,1,.32,1.86h-5.14a2,2,0,0,0,.31,1,2.13,2.13,0,0,0,.78.71,2.09,2.09,0,0,0,1,.26,2.93,2.93,0,0,0,1.37-.28A2.52,2.52,0,0,0,311.4,27.34Zm-4.26-2.12H311a2.13,2.13,0,0,0-.53-1.29,1.74,1.74,0,0,0-1.35-.53,1.91,1.91,0,0,0-1.7,1A2,2,0,0,0,307.14,25.22Z" transform="translate(0 -2.97)"/><path class="f4bef5a3-6903-4ff2-8ba0-29eed2b3ec58" d="M314.94,29h-1.26v-6.1c0-.08,0-.22,0-.41h1.2l0,1a5.36,5.36,0,0,1,.43-.49,2.59,2.59,0,0,1,.69-.46,2.4,2.4,0,0,1,1-.19l.39,0a2,2,0,0,1,.33.09l-.28,1.17a2,2,0,0,0-.65-.09,1.78,1.78,0,0,0-1,.27,2,2,0,0,0-.68.72,2.08,2.08,0,0,0-.25,1Z" transform="translate(0 -2.97)"/><path class="f4bef5a3-6903-4ff2-8ba0-29eed2b3ec58" d="M319.62,26.92V23.58h-1.18v-1h1.18V20.41h1.26v2.12h1.9v1h-1.9v3.21a1.79,1.79,0,0,0,.24,1.08.89.89,0,0,0,.7.29,1.34,1.34,0,0,0,.6-.11,1.48,1.48,0,0,0,.47-.34l.58.77a2.41,2.41,0,0,1-.84.57,2.57,2.57,0,0,1-1,.18,1.88,1.88,0,0,1-1.51-.57A2.6,2.6,0,0,1,319.62,26.92Z" transform="translate(0 -2.97)"/><path class="f4bef5a3-6903-4ff2-8ba0-29eed2b3ec58" d="M325.69,29h-1.26v-6.1c0-.08,0-.22,0-.41h1.2l.05,1a4,4,0,0,1,.42-.49,2.66,2.66,0,0,1,.7-.46,2.35,2.35,0,0,1,1-.19l.39,0a2,2,0,0,1,.33.09l-.28,1.17a2,2,0,0,0-.65-.09,1.73,1.73,0,0,0-.95.27,1.88,1.88,0,0,0-.68.72,2,2,0,0,0-.26,1Z" transform="translate(0 -2.97)"/><path class="f4bef5a3-6903-4ff2-8ba0-29eed2b3ec58" d="M333.42,29l0-.78a2.08,2.08,0,0,1-1,.72,3.1,3.1,0,0,1-1.22.25,3.06,3.06,0,0,1-1.06-.2,1.83,1.83,0,0,1-.86-.64,1.91,1.91,0,0,1-.35-1.19,2.11,2.11,0,0,1,.74-1.68,3.19,3.19,0,0,1,2.12-.63c.2,0,.41,0,.63,0l.6,0,.35,0v-.23a1.21,1.21,0,0,0-.44-1.05,2,2,0,0,0-1.2-.31,3,3,0,0,0-1.17.2,4.75,4.75,0,0,0-.73.41l-.59-.85a4,4,0,0,1,1-.55,4.4,4.4,0,0,1,1.66-.26,3,3,0,0,1,2,.61,2.13,2.13,0,0,1,.72,1.73v4c0,.09,0,.2,0,.33Zm0-2.33V26a2.15,2.15,0,0,0-.32,0l-.57-.05-.61,0a2.23,2.23,0,0,0-1.07.21,1,1,0,0,0-.5.5,1.45,1.45,0,0,0-.14.59.92.92,0,0,0,.37.8,1.6,1.6,0,0,0,1,.28,2,2,0,0,0,.9-.21,2.07,2.07,0,0,0,.67-.57A1.24,1.24,0,0,0,333.38,26.71Z" transform="translate(0 -2.97)"/><path class="f4bef5a3-6903-4ff2-8ba0-29eed2b3ec58" d="M336.26,26.44V22.53h1.26v3.83a2,2,0,0,0,.38,1.33,1.39,1.39,0,0,0,1.09.42,1.62,1.62,0,0,0,1.14-.38,2.12,2.12,0,0,0,.58-1,4.07,4.07,0,0,0,.17-1.21v-3h1.26v6.12c0,.13,0,.26,0,.39H341l0-1a3,3,0,0,1-.43.48,2.6,2.6,0,0,1-.71.44,2.64,2.64,0,0,1-1,.18,2.24,2.24,0,0,1-1.87-.74A3,3,0,0,1,336.26,26.44Z" transform="translate(0 -2.97)"/><path class="f4bef5a3-6903-4ff2-8ba0-29eed2b3ec58" d="M349.12,27.34l.71.75a3.08,3.08,0,0,1-.5.44,3.51,3.51,0,0,1-.95.49,3.94,3.94,0,0,1-1.41.22,3.52,3.52,0,0,1-1.77-.44,3,3,0,0,1-1.2-1.23,3.75,3.75,0,0,1-.43-1.83A3.64,3.64,0,0,1,344,24a3.31,3.31,0,0,1,1.15-1.23,3.16,3.16,0,0,1,1.69-.45,2.89,2.89,0,0,1,1.83.54,3.21,3.21,0,0,1,1,1.42,5.42,5.42,0,0,1,.32,1.86h-5.14a1.92,1.92,0,0,0,.31,1,2,2,0,0,0,.77.71,2.12,2.12,0,0,0,1.05.26,2.89,2.89,0,0,0,1.36-.28A2.59,2.59,0,0,0,349.12,27.34Zm-4.26-2.12h3.84a2.15,2.15,0,0,0-.54-1.29,1.7,1.7,0,0,0-1.34-.53,1.94,1.94,0,0,0-1,.27,1.79,1.79,0,0,0-.66.68A1.91,1.91,0,0,0,344.86,25.22Z" transform="translate(0 -2.97)"/><path class="f4bef5a3-6903-4ff2-8ba0-29eed2b3ec58" d="M352.66,29H351.4V23c0-.09,0-.23,0-.42h1.21l0,1a3.24,3.24,0,0,1,.45-.49,2.64,2.64,0,0,1,.7-.45,2.49,2.49,0,0,1,1-.19,2.3,2.3,0,0,1,1.89.75,3.07,3.07,0,0,1,.62,2V29h-1.26v-3.8a1.88,1.88,0,0,0-.4-1.34,1.42,1.42,0,0,0-1.1-.43,1.69,1.69,0,0,0-1.13.37,2.07,2.07,0,0,0-.6,1,4.13,4.13,0,0,0-.17,1.22Z" transform="translate(0 -2.97)"/><path class="f4bef5a3-6903-4ff2-8ba0-29eed2b3ec58" d="M358.66,28.25l.77-.84a2.69,2.69,0,0,0,2,.77,2.34,2.34,0,0,0,1-.21.65.65,0,0,0,.42-.63.69.69,0,0,0-.17-.49,1.45,1.45,0,0,0-.58-.33A9.57,9.57,0,0,0,361,26.2a5.4,5.4,0,0,1-1-.34,2.27,2.27,0,0,1-.79-.6,1.53,1.53,0,0,1-.31-1,1.64,1.64,0,0,1,.37-1.07,2.34,2.34,0,0,1,1-.65,3.71,3.71,0,0,1,1.23-.22,4.3,4.3,0,0,1,1.43.22,3.25,3.25,0,0,1,1,.61l-.69.87a2.38,2.38,0,0,0-.73-.45,2.74,2.74,0,0,0-1-.18,2.07,2.07,0,0,0-1,.19.69.69,0,0,0-.36.65.65.65,0,0,0,.49.62,8,8,0,0,0,1.26.39,5,5,0,0,1,1.11.37,2.08,2.08,0,0,1,.8.62,1.63,1.63,0,0,1,.3,1,1.64,1.64,0,0,1-.38,1.09,2.56,2.56,0,0,1-1,.67,3.91,3.91,0,0,1-1.33.23A3.63,3.63,0,0,1,358.66,28.25Z" transform="translate(0 -2.97)"/><path class="f4bef5a3-6903-4ff2-8ba0-29eed2b3ec58" d="M367.11,29l-2.2-6.51h1.38l1.46,5,1.57-5h1.07l1.57,5,1.43-5h1.3L372.54,29h-1.25l-1.51-4.55L368.28,29Z" transform="translate(0 -2.97)"/><path class="f4bef5a3-6903-4ff2-8ba0-29eed2b3ec58" d="M375.69,26.44V22.53H377v3.83a2,2,0,0,0,.37,1.33,1.42,1.42,0,0,0,1.1.42,1.61,1.61,0,0,0,1.13-.38,2,2,0,0,0,.58-1,4.07,4.07,0,0,0,.18-1.21v-3h1.26v6.12c0,.13,0,.26,0,.39h-1.2l-.05-1a2.57,2.57,0,0,1-.43.48,2.45,2.45,0,0,1-.71.44,2.59,2.59,0,0,1-1,.18,2.26,2.26,0,0,1-1.88-.74A3.08,3.08,0,0,1,375.69,26.44Zm1.1-5.24V19.93h1.32V21.2Zm2.4,0V19.93h1.3V21.2Z" transform="translate(0 -2.97)"/><path class="f4bef5a3-6903-4ff2-8ba0-29eed2b3ec58" d="M384.58,29h-1.26v-6.1c0-.08,0-.22,0-.41h1.21l0,1a3.4,3.4,0,0,1,.43-.49,2.59,2.59,0,0,1,.69-.46,2.4,2.4,0,0,1,1-.19l.38,0a1.59,1.59,0,0,1,.33.09l-.28,1.17a1.93,1.93,0,0,0-.64-.09,1.74,1.74,0,0,0-1,.27,2,2,0,0,0-.93,1.71Z" transform="translate(0 -2.97)"/><path class="f4bef5a3-6903-4ff2-8ba0-29eed2b3ec58" d="M392.79,29l0-.82-.35.36a2.74,2.74,0,0,1-.7.46,2.57,2.57,0,0,1-1.06.2,2.8,2.8,0,0,1-1.49-.41,2.94,2.94,0,0,1-1-1.17,4,4,0,0,1-.38-1.78,3.66,3.66,0,0,1,.32-1.59,3.1,3.1,0,0,1,.82-1.08,3.42,3.42,0,0,1,2.18-.83,3.57,3.57,0,0,1,.92.11,5.39,5.39,0,0,1,.77.31V19.71H394v8.94c0,.13,0,.26,0,.39Zm0-2.74V24a2,2,0,0,0-.64-.35,2.68,2.68,0,0,0-.95-.14,2,2,0,0,0-1.52.64,2.45,2.45,0,0,0-.61,1.76,3.21,3.21,0,0,0,.2,1.14,1.78,1.78,0,0,0,.63.82,1.75,1.75,0,0,0,1.06.3,1.73,1.73,0,0,0,1.06-.3,1.81,1.81,0,0,0,.58-.74A2,2,0,0,0,392.75,26.3Z" transform="translate(0 -2.97)"/><path class="f4bef5a3-6903-4ff2-8ba0-29eed2b3ec58" d="M395.73,21.37V20h1.42v1.41Zm.09,7.67V22.53h1.26V29Z" transform="translate(0 -2.97)"/><path class="f4bef5a3-6903-4ff2-8ba0-29eed2b3ec58" d="M399.15,31.3l.59-.93a3.23,3.23,0,0,0,.79.39,3.44,3.44,0,0,0,1.14.16,1.78,1.78,0,0,0,1.4-.52,2,2,0,0,0,.46-1.36v-.79l-.38.31a2.32,2.32,0,0,1-.65.37,2.53,2.53,0,0,1-1,.17,3,3,0,0,1-1.62-.42,2.69,2.69,0,0,1-1-1.15,3.88,3.88,0,0,1-.34-1.66,3.47,3.47,0,0,1,.46-1.8,3.28,3.28,0,0,1,1.29-1.24,4,4,0,0,1,1.92-.45,7.64,7.64,0,0,1,1.47.14,6.36,6.36,0,0,1,1.12.31V29a2.87,2.87,0,0,1-.83,2.19,3.22,3.22,0,0,1-2.3.78,4.54,4.54,0,0,1-1.58-.22A4,4,0,0,1,399.15,31.3Zm4.4-4.92v-2.7l-.43-.12a4.06,4.06,0,0,0-.9-.07,2.51,2.51,0,0,0-1.25.3,2.2,2.2,0,0,0-.83.83,2.49,2.49,0,0,0-.3,1.23,2.92,2.92,0,0,0,.19,1.08,1.56,1.56,0,0,0,.6.78,1.81,1.81,0,0,0,1.08.3,2,2,0,0,0,1-.24,1.53,1.53,0,0,0,.6-.61A1.68,1.68,0,0,0,403.55,26.38Z" transform="translate(0 -2.97)"/></g></g></g><g id="b0091712-db61-4812-be5c-321e49d2ccbd" data-name="Gruppe 184"><g id="a030e85f-2d20-4e54-b628-14ab0259c162" data-name=" 84 - 99" class="a7797fb5-c86e-4953-ba71-6d2716e97fc1"><g class="a7797fb5-c86e-4953-ba71-6d2716e97fc1"><path class="f4bef5a3-6903-4ff2-8ba0-29eed2b3ec58" d="M390.14,85.15a2.49,2.49,0,0,1-.77-.75,1.92,1.92,0,0,1-.33-1.09,2.12,2.12,0,0,1,.35-1.23,2.25,2.25,0,0,1,1-.81,3.32,3.32,0,0,1,1.45-.3,3,3,0,0,1,2.08.64,2.08,2.08,0,0,1,.71,1.63,1.92,1.92,0,0,1-.35,1.13,2.49,2.49,0,0,1-.8.73,2.82,2.82,0,0,1,1.23,1,2.42,2.42,0,0,1,.45,1.47,2.69,2.69,0,0,1-.18.94,2.63,2.63,0,0,1-.58.89,3,3,0,0,1-1,.66,4.3,4.3,0,0,1-1.53.25,4.14,4.14,0,0,1-1.54-.25,2.76,2.76,0,0,1-1-.65,2.56,2.56,0,0,1-.57-.88,2.45,2.45,0,0,1-.19-.93,2.48,2.48,0,0,1,.46-1.48A2.85,2.85,0,0,1,390.14,85.15Zm1.65.78a2.4,2.4,0,0,0-1.12.57,1.32,1.32,0,0,0-.49,1,1.2,1.2,0,0,0,.26.8,1.31,1.31,0,0,0,.63.45,2.21,2.21,0,0,0,.75.14,2.27,2.27,0,0,0,.76-.14,1.41,1.41,0,0,0,.63-.45,1.2,1.2,0,0,0,.25-.8,1.16,1.16,0,0,0-.24-.72,2.19,2.19,0,0,0-.61-.56A2.48,2.48,0,0,0,391.79,85.93Zm0-1.36a1.81,1.81,0,0,0,.9-.53,1.17,1.17,0,0,0,.33-.77,1,1,0,0,0-.34-.76,1.3,1.3,0,0,0-.89-.31,1.32,1.32,0,0,0-.87.31,1,1,0,0,0-.36.8,1.11,1.11,0,0,0,.34.74A1.84,1.84,0,0,0,391.82,84.57Z" transform="translate(0 -2.97)"/><path class="f4bef5a3-6903-4ff2-8ba0-29eed2b3ec58" d="M396.19,88.35V87L400,81.22h1.65V87h.91v1.4h-.91V90h-1.58V88.35Zm1.6-1.4h2.32v-3.4Z" transform="translate(0 -2.97)"/><path class="f4bef5a3-6903-4ff2-8ba0-29eed2b3ec58" d="M406.75,86.92V85.35H411v1.57Z" transform="translate(0 -2.97)"/><path class="f4bef5a3-6903-4ff2-8ba0-29eed2b3ec58" d="M415.29,89.68l.67-1.33a5,5,0,0,0,.86.34,3.36,3.36,0,0,0,.86.12,1.68,1.68,0,0,0,1.11-.35,2.17,2.17,0,0,0,.68-.91,3.17,3.17,0,0,0,.25-1.19,3.27,3.27,0,0,1-.66.39,2.9,2.9,0,0,1-1.23.21,2.62,2.62,0,0,1-1.43-.39,2.65,2.65,0,0,1-1-1,3.07,3.07,0,0,1-.35-1.47,3.36,3.36,0,0,1,.35-1.52,2.78,2.78,0,0,1,1.05-1.13A3.06,3.06,0,0,1,421,82.84a6,6,0,0,1,.43,2.47,7.5,7.5,0,0,1-.4,2.55,3.71,3.71,0,0,1-1.22,1.76,3.35,3.35,0,0,1-2.12.65,4.42,4.42,0,0,1-1.43-.22A5.85,5.85,0,0,1,415.29,89.68ZM419.74,85a4.28,4.28,0,0,0-.22-1.55,1.5,1.5,0,0,0-.58-.79,1.42,1.42,0,0,0-.8-.24,1.44,1.44,0,0,0-1.08.45,1.66,1.66,0,0,0-.43,1.21,1.4,1.4,0,0,0,.39,1,1.35,1.35,0,0,0,1,.41,2.68,2.68,0,0,0,1.06-.16A5.58,5.58,0,0,0,419.74,85Z" transform="translate(0 -2.97)"/><path class="f4bef5a3-6903-4ff2-8ba0-29eed2b3ec58" d="M422.92,89.68l.67-1.33a5,5,0,0,0,.86.34,3.36,3.36,0,0,0,.86.12,1.68,1.68,0,0,0,1.11-.35,2.17,2.17,0,0,0,.68-.91,3.17,3.17,0,0,0,.25-1.19,3.27,3.27,0,0,1-.66.39,2.9,2.9,0,0,1-1.23.21,2.62,2.62,0,0,1-1.43-.39,2.65,2.65,0,0,1-1-1,3.07,3.07,0,0,1-.35-1.47,3.36,3.36,0,0,1,.35-1.52,2.78,2.78,0,0,1,1.05-1.13,3.06,3.06,0,0,1,4.48,1.44,6,6,0,0,1,.43,2.47,7.5,7.5,0,0,1-.4,2.55,3.71,3.71,0,0,1-1.22,1.76,3.35,3.35,0,0,1-2.12.65,4.42,4.42,0,0,1-1.43-.22A5.85,5.85,0,0,1,422.92,89.68ZM427.37,85a4.28,4.28,0,0,0-.22-1.55,1.5,1.5,0,0,0-.58-.79,1.42,1.42,0,0,0-.8-.24,1.44,1.44,0,0,0-1.08.45,1.66,1.66,0,0,0-.43,1.21,1.4,1.4,0,0,0,.39,1,1.35,1.35,0,0,0,1,.41,2.68,2.68,0,0,0,1.06-.16A5.58,5.58,0,0,0,427.37,85Z" transform="translate(0 -2.97)"/></g></g><g id="a91db5a6-cd14-40a5-84b7-7073155f9ce1" data-name="Vertrauensw端rdig" class="a7797fb5-c86e-4953-ba71-6d2716e97fc1"><g class="a7797fb5-c86e-4953-ba71-6d2716e97fc1"><path class="f4bef5a3-6903-4ff2-8ba0-29eed2b3ec58" d="M358.78,107l-3.61-9.33h1.5l2.84,7.67,2.84-7.67h1.41L360.15,107Z" transform="translate(0 -2.97)"/><path class="f4bef5a3-6903-4ff2-8ba0-29eed2b3ec58" d="M369,105.34l.72.75a3.83,3.83,0,0,1-.51.44,3.74,3.74,0,0,1-.94.49,3.94,3.94,0,0,1-1.41.22,3.59,3.59,0,0,1-1.78-.44,3.13,3.13,0,0,1-1.19-1.23,3.75,3.75,0,0,1-.43-1.83,3.64,3.64,0,0,1,.41-1.72,3.24,3.24,0,0,1,1.15-1.23,3.16,3.16,0,0,1,1.69-.45,2.93,2.93,0,0,1,1.83.54,3.12,3.12,0,0,1,1,1.42,5.2,5.2,0,0,1,.32,1.86h-5.13a2,2,0,0,0,.3,1,2.13,2.13,0,0,0,.78.71,2.09,2.09,0,0,0,1,.26,2.93,2.93,0,0,0,1.37-.28A2.52,2.52,0,0,0,369,105.34Zm-4.25-2.12h3.83a2.13,2.13,0,0,0-.53-1.29,1.73,1.73,0,0,0-1.34-.53,1.92,1.92,0,0,0-1,.27,1.89,1.89,0,0,0-.92,1.55Z" transform="translate(0 -2.97)"/><path class="f4bef5a3-6903-4ff2-8ba0-29eed2b3ec58" d="M372.51,107h-1.26v-6.1c0-.08,0-.22,0-.41h1.2l.05,1a3.35,3.35,0,0,1,.42-.49,2.66,2.66,0,0,1,.7-.46,2.35,2.35,0,0,1,1-.19l.39,0a1.59,1.59,0,0,1,.33.09l-.28,1.17a2,2,0,0,0-.65-.09,1.73,1.73,0,0,0-.95.27,1.88,1.88,0,0,0-.68.72,2,2,0,0,0-.26,1Z" transform="translate(0 -2.97)"/><path class="f4bef5a3-6903-4ff2-8ba0-29eed2b3ec58" d="M377.19,104.92v-3.34H376v-1h1.18V98.41h1.26v2.12h1.9v1h-1.9v3.21a1.71,1.71,0,0,0,.25,1.08.85.85,0,0,0,.69.29,1.42,1.42,0,0,0,.61-.11,1.6,1.6,0,0,0,.47-.34l.57.77a2.41,2.41,0,0,1-1.85.75,1.89,1.89,0,0,1-1.51-.57A2.6,2.6,0,0,1,377.19,104.92Z" transform="translate(0 -2.97)"/><path class="f4bef5a3-6903-4ff2-8ba0-29eed2b3ec58" d="M383.27,107H382v-6.1c0-.08,0-.22,0-.41h1.21l0,1a3.35,3.35,0,0,1,.42-.49,2.83,2.83,0,0,1,.7-.46,2.37,2.37,0,0,1,1-.19l.38,0a1.59,1.59,0,0,1,.33.09l-.28,1.17a1.93,1.93,0,0,0-.64-.09,1.74,1.74,0,0,0-1,.27,2,2,0,0,0-.93,1.71Z" transform="translate(0 -2.97)"/><path class="f4bef5a3-6903-4ff2-8ba0-29eed2b3ec58" d="M391,107l0-.78a2.18,2.18,0,0,1-1,.72,3.38,3.38,0,0,1-1.23.25,3.06,3.06,0,0,1-1.06-.2,2,2,0,0,1-.86-.64,1.91,1.91,0,0,1-.35-1.19,2.08,2.08,0,0,1,.75-1.68,3.16,3.16,0,0,1,2.11-.63c.21,0,.42,0,.64,0l.59,0,.35,0v-.23a1.21,1.21,0,0,0-.44-1,2,2,0,0,0-1.2-.31,3,3,0,0,0-1.17.2,5.28,5.28,0,0,0-.73.41l-.59-.85a4.23,4.23,0,0,1,1-.55,4.4,4.4,0,0,1,1.66-.26,3,3,0,0,1,2,.61,2.14,2.14,0,0,1,.73,1.73v4c0,.09,0,.2,0,.33Zm0-2.33V104a2,2,0,0,0-.32,0l-.57,0-.61,0a2.37,2.37,0,0,0-1.07.2,1.16,1.16,0,0,0-.5.51,1.43,1.43,0,0,0-.13.59.94.94,0,0,0,.36.8,1.6,1.6,0,0,0,1,.28,2,2,0,0,0,1.57-.78A1.19,1.19,0,0,0,391,104.71Z" transform="translate(0 -2.97)"/><path class="f4bef5a3-6903-4ff2-8ba0-29eed2b3ec58" d="M393.84,104.44v-3.91h1.26v3.83a2,2,0,0,0,.37,1.33,1.42,1.42,0,0,0,1.1.42,1.61,1.61,0,0,0,1.13-.38,2.12,2.12,0,0,0,.58-1,4.07,4.07,0,0,0,.18-1.21v-3h1.26v6.11c0,.14,0,.27,0,.4h-1.2l0-1a2.57,2.57,0,0,1-.43.48,2.45,2.45,0,0,1-.71.44,2.64,2.64,0,0,1-1,.18,2.24,2.24,0,0,1-1.87-.74A3.08,3.08,0,0,1,393.84,104.44Z" transform="translate(0 -2.97)"/><path class="f4bef5a3-6903-4ff2-8ba0-29eed2b3ec58" d="M406.69,105.34l.71.75a3.08,3.08,0,0,1-.5.44,3.9,3.9,0,0,1-2.35.71,3.53,3.53,0,0,1-1.78-.44,3.15,3.15,0,0,1-1.2-1.23,3.86,3.86,0,0,1-.43-1.83,3.53,3.53,0,0,1,.42-1.72,3.14,3.14,0,0,1,1.14-1.23,3.19,3.19,0,0,1,1.69-.45,2.94,2.94,0,0,1,1.84.54,3.27,3.27,0,0,1,1,1.42,5.42,5.42,0,0,1,.32,1.86h-5.14a1.92,1.92,0,0,0,.31,1,2.05,2.05,0,0,0,.78.71,2.09,2.09,0,0,0,1,.26,2.86,2.86,0,0,0,1.36-.28A2.59,2.59,0,0,0,406.69,105.34Zm-4.26-2.12h3.84a2.2,2.2,0,0,0-.53-1.29,1.74,1.74,0,0,0-1.35-.53,1.88,1.88,0,0,0-1,.27,1.82,1.82,0,0,0-.67.68A2,2,0,0,0,402.43,103.22Z" transform="translate(0 -2.97)"/><path class="f4bef5a3-6903-4ff2-8ba0-29eed2b3ec58" d="M410.23,107H409V101c0-.09,0-.23,0-.42h1.2l0,1a3.24,3.24,0,0,1,.45-.49,2.47,2.47,0,0,1,.71-.45,2.43,2.43,0,0,1,1-.19,2.33,2.33,0,0,1,1.89.75,3.07,3.07,0,0,1,.61,2V107h-1.26v-3.8a1.88,1.88,0,0,0-.4-1.34,1.4,1.4,0,0,0-1.1-.43,1.69,1.69,0,0,0-1.13.37,2.07,2.07,0,0,0-.6,1,4.49,4.49,0,0,0-.17,1.22Z" transform="translate(0 -2.97)"/><path class="f4bef5a3-6903-4ff2-8ba0-29eed2b3ec58" d="M416.24,106.25l.76-.84a2.69,2.69,0,0,0,2,.77,2.34,2.34,0,0,0,1-.21.65.65,0,0,0,.42-.63.69.69,0,0,0-.17-.49,1.36,1.36,0,0,0-.57-.33,9.83,9.83,0,0,0-1.12-.32,5.4,5.4,0,0,1-1-.34,2.27,2.27,0,0,1-.79-.6,1.73,1.73,0,0,1,.07-2.07,2.24,2.24,0,0,1,.95-.65,3.72,3.72,0,0,1,1.24-.22,4.28,4.28,0,0,1,1.42.22,3.14,3.14,0,0,1,1,.61l-.68.87a2.57,2.57,0,0,0-.74-.45,2.71,2.71,0,0,0-1-.18,2,2,0,0,0-1,.19.67.67,0,0,0-.37.65.65.65,0,0,0,.49.62,8,8,0,0,0,1.26.39,5,5,0,0,1,1.11.37,2,2,0,0,1,.8.62,1.63,1.63,0,0,1,.3,1,1.64,1.64,0,0,1-.38,1.09,2.56,2.56,0,0,1-1,.67,3.87,3.87,0,0,1-1.33.23A3.6,3.6,0,0,1,416.24,106.25Z" transform="translate(0 -2.97)"/><path class="f4bef5a3-6903-4ff2-8ba0-29eed2b3ec58" d="M424.68,107l-2.2-6.51h1.39l1.45,5,1.57-5H428l1.57,5,1.42-5h1.3L430.11,107h-1.25l-1.51-4.55-1.5,4.55Z" transform="translate(0 -2.97)"/><path class="f4bef5a3-6903-4ff2-8ba0-29eed2b3ec58" d="M433.26,104.44v-3.91h1.26v3.83a1.92,1.92,0,0,0,.38,1.33,1.38,1.38,0,0,0,1.09.42,1.61,1.61,0,0,0,1.13-.38,2,2,0,0,0,.58-1,4.07,4.07,0,0,0,.18-1.21v-3h1.26v6.11c0,.14,0,.27,0,.4H438l0-1a3.1,3.1,0,0,1-.44.48,2.4,2.4,0,0,1-.7.44,2.67,2.67,0,0,1-1,.18,2.26,2.26,0,0,1-1.88-.74A3.08,3.08,0,0,1,433.26,104.44Zm1.11-5.24V97.93h1.31V99.2Zm2.39,0V97.93h1.3V99.2Z" transform="translate(0 -2.97)"/><path class="f4bef5a3-6903-4ff2-8ba0-29eed2b3ec58" d="M442.15,107h-1.26v-6.1c0-.08,0-.22,0-.41h1.2l0,1a3.49,3.49,0,0,1,.43-.49,2.59,2.59,0,0,1,.69-.46,2.4,2.4,0,0,1,1-.19l.38,0a1.59,1.59,0,0,1,.33.09l-.28,1.17a1.93,1.93,0,0,0-.64-.09,1.74,1.74,0,0,0-1,.27,2,2,0,0,0-.93,1.71Z" transform="translate(0 -2.97)"/><path class="f4bef5a3-6903-4ff2-8ba0-29eed2b3ec58" d="M450.37,107l0-.82-.36.36a2.74,2.74,0,0,1-.7.46,2.54,2.54,0,0,1-1.06.2,2.77,2.77,0,0,1-1.48-.41,2.89,2.89,0,0,1-1-1.17,4,4,0,0,1-.38-1.78,3.66,3.66,0,0,1,.32-1.59,3.1,3.1,0,0,1,.82-1.08,3.48,3.48,0,0,1,1.08-.63,3.43,3.43,0,0,1,2-.09,6,6,0,0,1,.78.31V97.71h1.25v8.93c0,.14,0,.27,0,.4Zm0-2.74V102a2.11,2.11,0,0,0-.65-.35,2.68,2.68,0,0,0-.95-.14,2,2,0,0,0-1.52.64,2.45,2.45,0,0,0-.61,1.76,3.25,3.25,0,0,0,.2,1.14,1.85,1.85,0,0,0,.63.82,1.77,1.77,0,0,0,1.06.3,1.73,1.73,0,0,0,1.06-.3,1.92,1.92,0,0,0,.59-.74A2.16,2.16,0,0,0,450.33,104.3Z" transform="translate(0 -2.97)"/><path class="f4bef5a3-6903-4ff2-8ba0-29eed2b3ec58" d="M453.31,99.37V98h1.41v1.41Zm.08,7.67v-6.51h1.26V107Z" transform="translate(0 -2.97)"/><path class="f4bef5a3-6903-4ff2-8ba0-29eed2b3ec58" d="M456.72,109.3l.59-.93a3.2,3.2,0,0,0,1.93.55,1.76,1.76,0,0,0,1.4-.52,2,2,0,0,0,.46-1.36v-.79l-.37.31a2.54,2.54,0,0,1-1.64.54,3,3,0,0,1-1.62-.42,2.75,2.75,0,0,1-1-1.15,3.88,3.88,0,0,1-.34-1.66,3.44,3.44,0,0,1,.46-1.8,3.28,3.28,0,0,1,1.29-1.24,4,4,0,0,1,1.92-.45,7.83,7.83,0,0,1,1.48.14,6.48,6.48,0,0,1,1.11.31V107a2.87,2.87,0,0,1-.83,2.19,3.19,3.19,0,0,1-2.29.78,4.6,4.6,0,0,1-1.59-.22A4,4,0,0,1,456.72,109.3Zm4.4-4.92v-2.7l-.43-.12a4.06,4.06,0,0,0-.9-.07,2.51,2.51,0,0,0-1.25.3,2.2,2.2,0,0,0-.83.83,2.46,2.46,0,0,0-.3,1.23,2.92,2.92,0,0,0,.19,1.08,1.58,1.58,0,0,0,.61.78,1.8,1.8,0,0,0,1.07.3,2,2,0,0,0,1-.24,1.53,1.53,0,0,0,.6-.61A1.68,1.68,0,0,0,461.12,104.38Z" transform="translate(0 -2.97)"/></g></g></g><path id="aad38cd4-92a4-4fe2-bc0b-2475453651e8" data-name="Rechteck 442" class="fa5aa57e-67e4-4f9c-b895-5dfcbc11bde6" d="M6,49H444a6,6,0,0,1,6,6h0a6,6,0,0,1-6,6H6a6,6,0,0,1-6-6H0A6,6,0,0,1,6,49Z" transform="translate(0 -2.97)"/><path id="ae855904-55ee-47bc-9e6a-737960860053" data-name="Rechteck 441" class="bfee28b1-d7cd-43a4-8ed3-2897c94b7133" d="M6,49H369a6,6,0,0,1,6,6h0a6,6,0,0,1-6,6H6a6,6,0,0,1-6-6H0A6,6,0,0,1,6,49Z" transform="translate(0 -2.97)"/><path id="e6660676-11b5-4343-b3d2-871f2e63ed98" data-name="Rechteck 440" class="f716e658-90fa-4f63-86ea-b8bcf6b20709" d="M6,49H294a6,6,0,0,1,6,6h0a6,6,0,0,1-6,6H6a6,6,0,0,1-6-6H0A6,6,0,0,1,6,49Z" transform="translate(0 -2.97)"/><path id="ffde996e-6c14-4e4a-9568-5597395f8e70" data-name="Pfad 1437" class="b22176b6-9031-44f1-bd73-4331912a68c1" d="M8,49H142c4.44,0,8,2.69,8,6s-3.6,6-8,6H8c-4.44,0-8-2.68-8-6S3.6,49,8,49Z" transform="translate(0 -2.97)"/><rect id="b8548b86-9c88-446b-bf62-c937303d5ef3" data-name="Rechteck 443" class="f4bef5a3-6903-4ff2-8ba0-29eed2b3ec58" x="71" y="30.07" width="2" height="16"/><rect id="b0cf97f4-1a3f-445b-b47e-96eb69edbcea" data-name="Rechteck 444" class="f4bef5a3-6903-4ff2-8ba0-29eed2b3ec58" x="410" y="58.07" width="2" height="16"/><rect id="a84b22ab-31e2-48b0-a591-c3155bd99e77" data-name="Rechteck 445" class="f4bef5a3-6903-4ff2-8ba0-29eed2b3ec58" x="209" y="58.07" width="2" height="16"/><rect id="a814f4f3-0b6a-49b9-b46d-a4b5d5ff9e5e" data-name="Rechteck 446" class="f4bef5a3-6903-4ff2-8ba0-29eed2b3ec58" x="337" y="30.07" width="2" height="16"/></g></svg>