<svg xmlns="http://www.w3.org/2000/svg" width="464" height="109" viewBox="0 0 464 109">
  <g id="Gruppe_448" data-name="Gruppe 448" transform="translate(-1132 -273)">
    <g id="Gruppe_175" data-name="Gruppe 175" transform="translate(1082 -299)">
      <text id="_00_-_33" data-name="00 - 33" transform="translate(100 581)" fill="#160637" font-size="14" font-family="Effra-Medium, Effra" font-weight="500"><tspan x="0" y="0">00 - 33</tspan></text>
      <text id="Nicht_vertrauenswürdig" data-name="Nicht vertrauenswürdig" transform="translate(50 598)" fill="#160637" font-size="14" font-family="Effra-Regular, Effra"><tspan x="0" y="0">Nicht vertrauenswürdig</tspan></text>
    </g>
    <g id="Gruppe_181" data-name="Gruppe 181" transform="translate(1270 -221)">
      <text id="_34_-_66" data-name="34 - 66" transform="translate(50 581)" fill="#160637" font-size="14" font-family="Effra-Medium, Effra" font-weight="500"><tspan x="0" y="0">34 - 66</tspan></text>
      <text id="Eher_nicht_vertrauenswürdig" data-name="Eher nicht vertrauenswürdig" transform="translate(-14 598)" fill="#160637" font-size="14" font-family="Effra-Regular, Effra"><tspan x="0" y="0">Eher nicht vertrauenswürdig</tspan></text>
    </g>
    <g id="Gruppe_183" data-name="Gruppe 183" transform="translate(1337 -299)">
      <text id="_67_-_83" data-name="67 - 83" transform="translate(111 581)" fill="#160637" font-size="14" font-family="Effra-Medium, Effra" font-weight="500"><tspan x="0" y="0">67 - 83</tspan></text>
      <text id="Eher_vertrauenswürdig" data-name="Eher vertrauenswürdig" transform="translate(63 598)" fill="#160637" font-size="14" font-family="Effra-Regular, Effra"><tspan x="0" y="0">Eher vertrauenswürdig</tspan></text>
    </g>
    <g id="Gruppe_184" data-name="Gruppe 184" transform="translate(1470 -220)">
      <text id="_84_-_100" data-name="84 - 100" transform="translate(50 580)" fill="#160637" font-size="14" font-family="Effra-Medium, Effra" font-weight="500"><tspan x="0" y="0">84 - 100</tspan></text>
      <text id="Vertrauenswürdig" transform="translate(17 597)" fill="#160637" font-size="14" font-family="Effra-Regular, Effra"><tspan x="0" y="0">Vertrauenswürdig</tspan></text>
    </g>
    <rect id="Rechteck_442" data-name="Rechteck 442" width="450" height="12" rx="6" transform="translate(1132 319)" fill="#0daf00"/>
    <rect id="Rechteck_441" data-name="Rechteck 441" width="375" height="12" rx="6" transform="translate(1132 319)" fill="#a9d100"/>
    <rect id="Rechteck_440" data-name="Rechteck 440" width="300" height="12" rx="6" transform="translate(1132 319)" fill="#ffa700"/>
    <path id="Pfad_1437" data-name="Pfad 1437" d="M8.036,0H141.964C146.4,0,150,2.686,150,6s-3.6,6-8.036,6H8.036C3.6,12,0,9.314,0,6S3.6,0,8.036,0Z" transform="translate(1132 319)" fill="#d10e00"/>
    <rect id="Rechteck_443" data-name="Rechteck 443" width="2" height="16" transform="translate(1203 303)" fill="#160637"/>
    <rect id="Rechteck_444" data-name="Rechteck 444" width="2" height="16" transform="translate(1542 331)" fill="#160637"/>
    <rect id="Rechteck_445" data-name="Rechteck 445" width="2" height="16" transform="translate(1341 331)" fill="#160637"/>
    <rect id="Rechteck_446" data-name="Rechteck 446" width="2" height="16" transform="translate(1469 303)" fill="#160637"/>
  </g>
</svg>
