<svg xmlns="http://www.w3.org/2000/svg" width="462.38" height="107.04" viewBox="0 0 462.38 107.04">
  <g id="Gruppe_448" data-name="Gruppe 448" transform="translate(-1132 -272.928)">
    <g id="Gruppe_175" data-name="Gruppe 175" transform="translate(1082 -299)">
      <path id="Pfad_1767" data-name="Pfad 1767" d="M3.808.224a3,3,0,0,1-1.9-.6A3.61,3.61,0,0,1,.749-2.051,7.288,7.288,0,0,1,.364-4.522,6.669,6.669,0,0,1,.756-6.916,3.445,3.445,0,0,1,1.918-8.505a3.123,3.123,0,0,1,1.9-.567,3.116,3.116,0,0,1,1.911.567A3.421,3.421,0,0,1,6.881-6.916a6.779,6.779,0,0,1,.385,2.394,7.169,7.169,0,0,1-.392,2.471A3.679,3.679,0,0,1,5.719-.378,2.99,2.99,0,0,1,3.808.224Zm.014-1.512A1.254,1.254,0,0,0,4.8-1.715a2.775,2.775,0,0,0,.581-1.162,6.387,6.387,0,0,0,.2-1.645,5.717,5.717,0,0,0-.2-1.568,2.386,2.386,0,0,0-.588-1.071,1.342,1.342,0,0,0-.98-.385,1.325,1.325,0,0,0-.966.385A2.386,2.386,0,0,0,2.254-6.09a5.717,5.717,0,0,0-.2,1.568,6.387,6.387,0,0,0,.2,1.645,2.682,2.682,0,0,0,.595,1.162A1.281,1.281,0,0,0,3.822-1.288Zm7.294-1.834V-4.69h4.27v1.568ZM19.166-.77l.952-1.162a3.186,3.186,0,0,0,.84.539,2.549,2.549,0,0,0,1.036.2,1.7,1.7,0,0,0,1.2-.42,1.4,1.4,0,0,0,.455-1.078,1.535,1.535,0,0,0-.336-1A1.461,1.461,0,0,0,22.12-4.1a2.069,2.069,0,0,0-.406.042q-.21.042-.378.084l-.49-.784L23.1-7.294H19.8V-8.806h5.278v1.26l-1.96,2.3a2.475,2.475,0,0,1,1.722.84,2.691,2.691,0,0,1,.56,1.736,2.718,2.718,0,0,1-.448,1.568A2.879,2.879,0,0,1,23.73-.1a4.115,4.115,0,0,1-1.722.35,4.26,4.26,0,0,1-1.645-.294A4.246,4.246,0,0,1,19.166-.77Zm7.63,0,.952-1.162a3.186,3.186,0,0,0,.84.539,2.549,2.549,0,0,0,1.036.2,1.7,1.7,0,0,0,1.2-.42,1.4,1.4,0,0,0,.455-1.078,1.535,1.535,0,0,0-.336-1A1.461,1.461,0,0,0,29.75-4.1a2.069,2.069,0,0,0-.406.042q-.21.042-.378.084l-.49-.784L30.73-7.294h-3.3V-8.806H32.7v1.26l-1.96,2.3a2.475,2.475,0,0,1,1.722.84,2.691,2.691,0,0,1,.56,1.736,2.718,2.718,0,0,1-.448,1.568A2.879,2.879,0,0,1,31.36-.1a4.115,4.115,0,0,1-1.722.35,4.26,4.26,0,0,1-1.645-.294A4.246,4.246,0,0,1,26.8-.77Z" transform="translate(100 581)" fill="#160637"/>
      <path id="Pfad_1766" data-name="Pfad 1766" d="M1.064,0V-9.338H2.422l5.1,7.294V-9.338H8.834V0H7.49L2.38-7.308V0Zm9.674-7.672V-9.086h1.414v1.414ZM10.822,0V-6.51h1.26V0ZM18.76-1.708l.77.812a3.265,3.265,0,0,1-1.078.791,3.433,3.433,0,0,1-1.47.3,3.518,3.518,0,0,1-1.813-.448,3.11,3.11,0,0,1-1.183-1.225,3.7,3.7,0,0,1-.42-1.785A3.524,3.524,0,0,1,14-5a3.319,3.319,0,0,1,1.211-1.253,3.359,3.359,0,0,1,1.771-.469,3.408,3.408,0,0,1,1.456.294,3.281,3.281,0,0,1,1.078.8l-.826.8a2.134,2.134,0,0,0-.714-.574,2.2,2.2,0,0,0-.994-.21,2,2,0,0,0-1.155.329,2.122,2.122,0,0,0-.735.861,2.68,2.68,0,0,0-.252,1.162A2.6,2.6,0,0,0,15.1-2.121a2.237,2.237,0,0,0,.735.875,1.939,1.939,0,0,0,1.148.336,2.361,2.361,0,0,0,1.029-.217A2.117,2.117,0,0,0,18.76-1.708Zm2,1.708V-9.338h1.246v3.794a3.411,3.411,0,0,1,.441-.5,2.336,2.336,0,0,1,.7-.441,2.618,2.618,0,0,1,1.029-.182,2.305,2.305,0,0,1,1.89.749,3.066,3.066,0,0,1,.616,2.009V0h-1.26V-3.808a1.908,1.908,0,0,0-.4-1.337,1.431,1.431,0,0,0-1.1-.427,1.651,1.651,0,0,0-1.134.371,2.013,2.013,0,0,0-.6.959,4.247,4.247,0,0,0-.175,1.218V0Zm8.176-2.128V-5.46H27.762V-6.51h1.176V-8.638H30.2V-6.51h1.9v1.05H30.2v3.206a1.741,1.741,0,0,0,.245,1.078.852.852,0,0,0,.693.294,1.464,1.464,0,0,0,.609-.112,1.622,1.622,0,0,0,.469-.336l.574.77a2.672,2.672,0,0,1-.833.567A2.669,2.669,0,0,1,30.94.182a1.892,1.892,0,0,1-1.512-.567A2.617,2.617,0,0,1,28.938-2.128ZM38.3,0,35.5-6.51h1.442l2.03,5.082L40.992-6.51H42.35L39.564,0Zm9.884-1.708.714.756a3.18,3.18,0,0,1-.5.441,3.783,3.783,0,0,1-.945.49A4.034,4.034,0,0,1,46.046.2a3.514,3.514,0,0,1-1.778-.441,3.073,3.073,0,0,1-1.2-1.232A3.786,3.786,0,0,1,42.644-3.3a3.585,3.585,0,0,1,.413-1.722,3.186,3.186,0,0,1,1.148-1.225,3.139,3.139,0,0,1,1.687-.455,2.9,2.9,0,0,1,1.834.546,3.136,3.136,0,0,1,1.022,1.414,5.311,5.311,0,0,1,.322,1.862H43.932a1.945,1.945,0,0,0,.308,1.029,2.079,2.079,0,0,0,.777.714,2.173,2.173,0,0,0,1.043.259,2.947,2.947,0,0,0,1.365-.28A2.532,2.532,0,0,0,48.188-1.708ZM43.932-3.822h3.836a2.108,2.108,0,0,0-.532-1.288,1.71,1.71,0,0,0-1.344-.532,1.944,1.944,0,0,0-1.036.266,1.852,1.852,0,0,0-.665.679A2.022,2.022,0,0,0,43.932-3.822ZM51.73,0H50.47V-6.1q0-.126-.014-.406h1.2L51.7-5.46a3.384,3.384,0,0,1,.427-.49,2.493,2.493,0,0,1,.693-.462,2.368,2.368,0,0,1,1.008-.2,2.445,2.445,0,0,1,.385.028,1.787,1.787,0,0,1,.329.084l-.28,1.176a1.8,1.8,0,0,0-.644-.1,1.743,1.743,0,0,0-.959.273,2.013,2.013,0,0,0-.679.721,1.992,1.992,0,0,0-.252.994Zm4.676-2.128V-5.46H55.23V-6.51h1.176V-8.638h1.26V-6.51h1.9v1.05h-1.9v3.206a1.741,1.741,0,0,0,.245,1.078.852.852,0,0,0,.693.294,1.464,1.464,0,0,0,.609-.112,1.622,1.622,0,0,0,.469-.336l.574.77a2.672,2.672,0,0,1-.833.567,2.669,2.669,0,0,1-1.015.175A1.892,1.892,0,0,1,56.9-.385,2.617,2.617,0,0,1,56.406-2.128ZM62.482,0h-1.26V-6.1q0-.126-.014-.406h1.2l.042,1.05a3.384,3.384,0,0,1,.427-.49,2.493,2.493,0,0,1,.693-.462,2.368,2.368,0,0,1,1.008-.2,2.445,2.445,0,0,1,.385.028A1.787,1.787,0,0,1,65.3-6.5l-.28,1.176a1.8,1.8,0,0,0-.644-.1,1.743,1.743,0,0,0-.959.273,2.013,2.013,0,0,0-.679.721,1.992,1.992,0,0,0-.252.994ZM70.21,0l-.028-.784a2.156,2.156,0,0,1-.959.721A3.259,3.259,0,0,1,68,.182a3,3,0,0,1-1.057-.2,1.918,1.918,0,0,1-.868-.644,1.907,1.907,0,0,1-.343-1.19,2.093,2.093,0,0,1,.742-1.68,3.176,3.176,0,0,1,2.114-.63q.308,0,.637.021t.6.042q.266.021.35.035V-4.3a1.193,1.193,0,0,0-.441-1.043,2.023,2.023,0,0,0-1.2-.315,2.827,2.827,0,0,0-1.169.2,4.535,4.535,0,0,0-.735.413l-.588-.854A4.277,4.277,0,0,1,67-6.44a4.284,4.284,0,0,1,1.666-.266,2.98,2.98,0,0,1,1.974.609,2.128,2.128,0,0,1,.728,1.729V-.336q0,.14.014.336Zm-.042-2.338V-3.08a1.435,1.435,0,0,0-.322-.049q-.252-.021-.567-.042t-.609-.021a2.273,2.273,0,0,0-1.071.2,1.094,1.094,0,0,0-.5.5,1.464,1.464,0,0,0-.133.6.947.947,0,0,0,.364.8,1.618,1.618,0,0,0,1.008.28,1.912,1.912,0,0,0,.9-.217,1.948,1.948,0,0,0,.672-.567A1.227,1.227,0,0,0,70.168-2.338ZM73.052-2.6V-6.51h1.26v3.822a1.952,1.952,0,0,0,.378,1.33,1.393,1.393,0,0,0,1.092.42,1.6,1.6,0,0,0,1.134-.378,2.113,2.113,0,0,0,.581-.959,4.176,4.176,0,0,0,.175-1.211V-6.51h1.26V-.4q0,.2.014.4h-1.2L77.7-.966a2.985,2.985,0,0,1-.434.483,2.437,2.437,0,0,1-.707.441A2.618,2.618,0,0,1,75.53.14,2.274,2.274,0,0,1,73.654-.6,3.085,3.085,0,0,1,73.052-2.6Zm12.852.9.714.756a3.18,3.18,0,0,1-.5.441,3.783,3.783,0,0,1-.945.49A4.035,4.035,0,0,1,83.762.2a3.514,3.514,0,0,1-1.778-.441,3.073,3.073,0,0,1-1.2-1.232A3.786,3.786,0,0,1,80.36-3.3a3.585,3.585,0,0,1,.413-1.722,3.186,3.186,0,0,1,1.148-1.225,3.139,3.139,0,0,1,1.687-.455,2.9,2.9,0,0,1,1.834.546,3.136,3.136,0,0,1,1.022,1.414,5.311,5.311,0,0,1,.322,1.862H81.648a1.945,1.945,0,0,0,.308,1.029,2.079,2.079,0,0,0,.777.714,2.173,2.173,0,0,0,1.043.259,2.948,2.948,0,0,0,1.365-.28A2.532,2.532,0,0,0,85.9-1.708ZM81.648-3.822h3.836a2.108,2.108,0,0,0-.532-1.288,1.71,1.71,0,0,0-1.344-.532,1.944,1.944,0,0,0-1.036.266,1.852,1.852,0,0,0-.665.679A2.022,2.022,0,0,0,81.648-3.822ZM89.446,0h-1.26V-5.838q0-.126,0-.259t-.014-.413h1.2l.042.98a3.232,3.232,0,0,1,.448-.5,2.552,2.552,0,0,1,.707-.448A2.533,2.533,0,0,1,91.6-6.664a2.305,2.305,0,0,1,1.89.749,3.066,3.066,0,0,1,.616,2.009V0h-1.26V-3.808a1.908,1.908,0,0,0-.4-1.337,1.431,1.431,0,0,0-1.1-.427,1.651,1.651,0,0,0-1.134.371,2.013,2.013,0,0,0-.6.959,4.247,4.247,0,0,0-.175,1.218Zm6.006-.8.77-.84a2.648,2.648,0,0,0,.84.56,2.858,2.858,0,0,0,1.134.21,2.407,2.407,0,0,0,1.05-.2.669.669,0,0,0,.42-.637A.694.694,0,0,0,99.5-2.2a1.461,1.461,0,0,0-.574-.329,10.541,10.541,0,0,0-1.12-.315,5.677,5.677,0,0,1-.98-.343,2.1,2.1,0,0,1-.784-.6,1.553,1.553,0,0,1-.308-1A1.581,1.581,0,0,1,96.1-5.852a2.265,2.265,0,0,1,.959-.651,3.53,3.53,0,0,1,1.232-.217,4.216,4.216,0,0,1,1.428.217,3.088,3.088,0,0,1,1.036.609l-.686.868a2.512,2.512,0,0,0-.735-.448,2.684,2.684,0,0,0-1.029-.182,2.04,2.04,0,0,0-.966.2.675.675,0,0,0-.364.644.666.666,0,0,0,.49.623,8.446,8.446,0,0,0,1.26.385,5.56,5.56,0,0,1,1.113.371,2.1,2.1,0,0,1,.8.623,1.632,1.632,0,0,1,.3,1.022,1.591,1.591,0,0,1-.385,1.085,2.433,2.433,0,0,1-1,.672A3.758,3.758,0,0,1,98.224.2,3.605,3.605,0,0,1,95.452-.8Zm8.442.8-2.2-6.51h1.386l1.456,4.97,1.568-4.97h1.078L108.752-1.5,110.18-6.51h1.3L109.326,0H108.08l-1.512-4.55L105.07,0Zm8.582-2.6V-6.51h1.26v3.822a1.952,1.952,0,0,0,.378,1.33,1.393,1.393,0,0,0,1.092.42,1.6,1.6,0,0,0,1.134-.378,2.113,2.113,0,0,0,.581-.959,4.176,4.176,0,0,0,.175-1.211V-6.51h1.26V-.4q0,.2.014.4h-1.2l-.042-.966a2.985,2.985,0,0,1-.434.483,2.437,2.437,0,0,1-.707.441,2.618,2.618,0,0,1-1.029.182A2.274,2.274,0,0,1,113.078-.6,3.085,3.085,0,0,1,112.476-2.6Zm3.5-5.236V-9.114h1.3V-7.84Zm-2.394,0V-9.114H114.9V-7.84ZM121.366,0h-1.26V-5.88q0-.1,0-.224t-.014-.406h1.2l.042,1.05a3.384,3.384,0,0,1,.427-.49,2.493,2.493,0,0,1,.693-.462,2.368,2.368,0,0,1,1.008-.2,2.445,2.445,0,0,1,.385.028,1.787,1.787,0,0,1,.329.084L123.9-5.32a1.8,1.8,0,0,0-.644-.1,1.743,1.743,0,0,0-.959.273,2.013,2.013,0,0,0-.679.721,1.992,1.992,0,0,0-.252.994Zm8.218,0-.042-.826q-.1.112-.357.364a2.513,2.513,0,0,1-.693.455,2.5,2.5,0,0,1-1.064.2,2.733,2.733,0,0,1-1.484-.413,2.845,2.845,0,0,1-1.036-1.169,3.93,3.93,0,0,1-.378-1.778,3.684,3.684,0,0,1,.315-1.589,3.131,3.131,0,0,1,.819-1.085,3.482,3.482,0,0,1,1.085-.623,3.336,3.336,0,0,1,1.1-.2,3.307,3.307,0,0,1,.917.112,4.633,4.633,0,0,1,.777.308V-9.338h1.26V-.4q0,.2.014.4Zm-.042-2.744V-5.068a2.1,2.1,0,0,0-.644-.35,2.845,2.845,0,0,0-.952-.14,2,2,0,0,0-1.519.644,2.463,2.463,0,0,0-.609,1.764,3.082,3.082,0,0,0,.2,1.134,1.778,1.778,0,0,0,.623.819,1.781,1.781,0,0,0,1.064.3,1.712,1.712,0,0,0,1.057-.3,1.823,1.823,0,0,0,.588-.735A2.042,2.042,0,0,0,129.542-2.744Zm2.982-4.928V-9.086h1.414v1.414ZM132.608,0V-6.51h1.26V0Zm3.332,2.254.588-.924a3.2,3.2,0,0,0,.791.385,3.538,3.538,0,0,0,1.141.161,1.78,1.78,0,0,0,1.4-.518A1.964,1.964,0,0,0,140.322,0V-.8q-.126.112-.378.315a2.719,2.719,0,0,1-.651.371,2.549,2.549,0,0,1-.987.168,2.968,2.968,0,0,1-1.617-.42,2.669,2.669,0,0,1-1.008-1.155,3.878,3.878,0,0,1-.343-1.659,3.5,3.5,0,0,1,.462-1.8,3.259,3.259,0,0,1,1.288-1.239,3.961,3.961,0,0,1,1.918-.448,7.452,7.452,0,0,1,1.477.14,6.613,6.613,0,0,1,1.113.308V0a2.867,2.867,0,0,1-.826,2.184,3.2,3.2,0,0,1-2.3.784,4.554,4.554,0,0,1-1.582-.224A4.087,4.087,0,0,1,135.94,2.254Zm4.4-4.914v-2.7q-.126-.042-.427-.119a3.923,3.923,0,0,0-.9-.077,2.488,2.488,0,0,0-1.246.3,2.165,2.165,0,0,0-.833.833,2.459,2.459,0,0,0-.3,1.232,2.972,2.972,0,0,0,.189,1.078,1.666,1.666,0,0,0,.609.784,1.838,1.838,0,0,0,1.078.294,2.026,2.026,0,0,0,1.036-.238,1.539,1.539,0,0,0,.6-.609A1.641,1.641,0,0,0,140.336-2.66Z" transform="translate(50 598)" fill="#160637"/>
    </g>
    <g id="Gruppe_181" data-name="Gruppe 181" transform="translate(1270 -221)">
      <path id="Pfad_1771" data-name="Pfad 1771" d="M.294-.77l.952-1.162a3.186,3.186,0,0,0,.84.539,2.549,2.549,0,0,0,1.036.2,1.7,1.7,0,0,0,1.2-.42,1.4,1.4,0,0,0,.455-1.078,1.535,1.535,0,0,0-.336-1A1.461,1.461,0,0,0,3.248-4.1a2.069,2.069,0,0,0-.406.042q-.21.042-.378.084l-.49-.784L4.228-7.294H.924V-8.806H6.2v1.26l-1.96,2.3a2.475,2.475,0,0,1,1.722.84,2.691,2.691,0,0,1,.56,1.736,2.718,2.718,0,0,1-.448,1.568A2.878,2.878,0,0,1,4.858-.1a4.115,4.115,0,0,1-1.722.35A4.26,4.26,0,0,1,1.491-.042,4.246,4.246,0,0,1,.294-.77Zm7.9-.924V-3.08l3.85-5.74h1.652v5.726h.91v1.4h-.91V0H12.11V-1.694Zm1.6-1.4H12.11V-6.5Zm8.96-.028V-4.69h4.27v1.568ZM33.4-8.484l-.714,1.3a2.593,2.593,0,0,0-.721-.322,2.917,2.917,0,0,0-.791-.112,1.908,1.908,0,0,0-1.162.371,2.534,2.534,0,0,0-.784.945,2.713,2.713,0,0,0-.28,1.2q.308-.182.742-.4A2.47,2.47,0,0,1,30.8-5.712a2.694,2.694,0,0,1,1.981.756,2.862,2.862,0,0,1,.763,2.128A3.421,3.421,0,0,1,33.2-1.3,2.746,2.746,0,0,1,32.186-.175a3.02,3.02,0,0,1-1.652.427A3.087,3.087,0,0,1,28.875-.2a3.063,3.063,0,0,1-1.162-1.414,6.117,6.117,0,0,1-.427-2.471,7.037,7.037,0,0,1,.441-2.59,3.86,3.86,0,0,1,1.316-1.757,3.553,3.553,0,0,1,2.149-.637,3.838,3.838,0,0,1,1.358.217A7.127,7.127,0,0,1,33.4-8.484ZM28.938-3.766a4.451,4.451,0,0,0,.217,1.547,1.565,1.565,0,0,0,.581.8,1.46,1.46,0,0,0,.8.231,1.319,1.319,0,0,0,1.057-.469,1.825,1.825,0,0,0,.4-1.225,1.42,1.42,0,0,0-.371-1.029,1.29,1.29,0,0,0-.973-.385,2.6,2.6,0,0,0-1.043.182A4.474,4.474,0,0,0,28.938-3.766Zm12.1-4.718-.714,1.3A2.593,2.593,0,0,0,39.6-7.5a2.917,2.917,0,0,0-.791-.112,1.908,1.908,0,0,0-1.162.371,2.534,2.534,0,0,0-.784.945,2.713,2.713,0,0,0-.28,1.2q.308-.182.742-.4a2.47,2.47,0,0,1,1.106-.217,2.694,2.694,0,0,1,1.981.756,2.862,2.862,0,0,1,.763,2.128A3.421,3.421,0,0,1,40.831-1.3,2.746,2.746,0,0,1,39.816-.175a3.02,3.02,0,0,1-1.652.427A3.087,3.087,0,0,1,36.505-.2a3.063,3.063,0,0,1-1.162-1.414,6.117,6.117,0,0,1-.427-2.471,7.037,7.037,0,0,1,.441-2.59,3.86,3.86,0,0,1,1.316-1.757,3.553,3.553,0,0,1,2.149-.637,3.838,3.838,0,0,1,1.358.217A7.127,7.127,0,0,1,41.034-8.484ZM36.568-3.766a4.451,4.451,0,0,0,.217,1.547,1.565,1.565,0,0,0,.581.8,1.46,1.46,0,0,0,.8.231,1.319,1.319,0,0,0,1.057-.469,1.825,1.825,0,0,0,.4-1.225,1.42,1.42,0,0,0-.371-1.029,1.29,1.29,0,0,0-.973-.385,2.6,2.6,0,0,0-1.043.182A4.474,4.474,0,0,0,36.568-3.766Z" transform="translate(50 581)" fill="#160637"/>
      <path id="Pfad_1770" data-name="Pfad 1770" d="M1.064,0V-9.338h5.88v1.19H2.408v2.716H5.824v1.2H2.408V-1.2H7.28V0ZM8.75,0V-9.338H10v3.794a3.411,3.411,0,0,1,.441-.5,2.336,2.336,0,0,1,.7-.441,2.618,2.618,0,0,1,1.029-.182,2.305,2.305,0,0,1,1.89.749,3.066,3.066,0,0,1,.616,2.009V0h-1.26V-3.808a1.908,1.908,0,0,0-.4-1.337,1.431,1.431,0,0,0-1.1-.427A1.651,1.651,0,0,0,10.78-5.2a2.013,2.013,0,0,0-.6.959,4.247,4.247,0,0,0-.175,1.218V0ZM21.588-1.708l.714.756a3.181,3.181,0,0,1-.5.441,3.783,3.783,0,0,1-.945.49A4.034,4.034,0,0,1,19.446.2a3.514,3.514,0,0,1-1.778-.441,3.073,3.073,0,0,1-1.2-1.232A3.786,3.786,0,0,1,16.044-3.3a3.585,3.585,0,0,1,.413-1.722,3.186,3.186,0,0,1,1.148-1.225,3.139,3.139,0,0,1,1.687-.455,2.9,2.9,0,0,1,1.834.546,3.136,3.136,0,0,1,1.022,1.414,5.311,5.311,0,0,1,.322,1.862H17.332a1.945,1.945,0,0,0,.308,1.029,2.079,2.079,0,0,0,.777.714,2.173,2.173,0,0,0,1.043.259,2.947,2.947,0,0,0,1.365-.28A2.532,2.532,0,0,0,21.588-1.708ZM17.332-3.822h3.836a2.108,2.108,0,0,0-.532-1.288,1.71,1.71,0,0,0-1.344-.532,1.944,1.944,0,0,0-1.036.266,1.852,1.852,0,0,0-.665.679A2.022,2.022,0,0,0,17.332-3.822ZM25.13,0H23.87V-6.1q0-.126-.014-.406h1.2L25.1-5.46a3.384,3.384,0,0,1,.427-.49,2.493,2.493,0,0,1,.693-.462,2.368,2.368,0,0,1,1.008-.2,2.445,2.445,0,0,1,.385.028,1.787,1.787,0,0,1,.329.084l-.28,1.176a1.8,1.8,0,0,0-.644-.1,1.743,1.743,0,0,0-.959.273,2.013,2.013,0,0,0-.679.721,1.992,1.992,0,0,0-.252.994Zm7.63,0H31.5V-6.1q0-.133-.014-.413h1.2l.042.98a3.232,3.232,0,0,1,.448-.5,2.552,2.552,0,0,1,.707-.448,2.533,2.533,0,0,1,1.029-.189,2.305,2.305,0,0,1,1.89.749,3.066,3.066,0,0,1,.616,2.009V0h-1.26V-3.808a1.908,1.908,0,0,0-.4-1.337,1.431,1.431,0,0,0-1.1-.427A1.651,1.651,0,0,0,33.53-5.2a2.013,2.013,0,0,0-.6.959,4.247,4.247,0,0,0-.175,1.218Zm6.328-7.672V-9.086H40.5v1.414ZM39.172,0V-6.51h1.26V0ZM47.11-1.708l.77.812A3.265,3.265,0,0,1,46.8-.105a3.433,3.433,0,0,1-1.47.3,3.518,3.518,0,0,1-1.813-.448,3.11,3.11,0,0,1-1.183-1.225,3.7,3.7,0,0,1-.42-1.785A3.524,3.524,0,0,1,42.35-5a3.319,3.319,0,0,1,1.211-1.253,3.359,3.359,0,0,1,1.771-.469,3.408,3.408,0,0,1,1.456.294,3.281,3.281,0,0,1,1.078.8l-.826.8a2.134,2.134,0,0,0-.714-.574,2.2,2.2,0,0,0-.994-.21,2,2,0,0,0-1.155.329,2.122,2.122,0,0,0-.735.861,2.68,2.68,0,0,0-.252,1.162,2.6,2.6,0,0,0,.259,1.141,2.237,2.237,0,0,0,.735.875,1.939,1.939,0,0,0,1.148.336,2.361,2.361,0,0,0,1.029-.217A2.117,2.117,0,0,0,47.11-1.708Zm2,1.708V-9.338h1.246v3.794a3.411,3.411,0,0,1,.441-.5,2.336,2.336,0,0,1,.7-.441,2.618,2.618,0,0,1,1.029-.182,2.305,2.305,0,0,1,1.89.749,3.066,3.066,0,0,1,.616,2.009V0h-1.26V-3.808a1.908,1.908,0,0,0-.4-1.337,1.431,1.431,0,0,0-1.1-.427,1.652,1.652,0,0,0-1.134.371,2.013,2.013,0,0,0-.595.959,4.247,4.247,0,0,0-.175,1.218V0Zm8.176-2.128V-5.46H56.112V-6.51h1.176V-8.638h1.26V-6.51h1.9v1.05h-1.9v3.206a1.741,1.741,0,0,0,.245,1.078.852.852,0,0,0,.693.294A1.464,1.464,0,0,0,60.1-.994a1.622,1.622,0,0,0,.469-.336l.574.77a2.672,2.672,0,0,1-.833.567A2.669,2.669,0,0,1,59.29.182a1.892,1.892,0,0,1-1.512-.567A2.617,2.617,0,0,1,57.288-2.128ZM66.654,0l-2.8-6.51H65.3l2.03,5.082L69.342-6.51H70.7L67.914,0Zm9.884-1.708.714.756a3.18,3.18,0,0,1-.5.441,3.783,3.783,0,0,1-.945.49A4.035,4.035,0,0,1,74.4.2a3.514,3.514,0,0,1-1.778-.441,3.073,3.073,0,0,1-1.2-1.232A3.786,3.786,0,0,1,70.994-3.3a3.585,3.585,0,0,1,.413-1.722,3.186,3.186,0,0,1,1.148-1.225,3.139,3.139,0,0,1,1.687-.455,2.9,2.9,0,0,1,1.834.546A3.136,3.136,0,0,1,77.1-4.746a5.311,5.311,0,0,1,.322,1.862H72.282a1.945,1.945,0,0,0,.308,1.029,2.079,2.079,0,0,0,.777.714,2.173,2.173,0,0,0,1.043.259,2.948,2.948,0,0,0,1.365-.28A2.532,2.532,0,0,0,76.538-1.708ZM72.282-3.822h3.836a2.108,2.108,0,0,0-.532-1.288,1.71,1.71,0,0,0-1.344-.532,1.944,1.944,0,0,0-1.036.266,1.852,1.852,0,0,0-.665.679A2.022,2.022,0,0,0,72.282-3.822ZM80.08,0H78.82V-5.88q0-.1,0-.224t-.014-.406h1.2l.042,1.05a3.384,3.384,0,0,1,.427-.49,2.493,2.493,0,0,1,.693-.462,2.368,2.368,0,0,1,1.008-.2,2.445,2.445,0,0,1,.385.028,1.787,1.787,0,0,1,.329.084l-.28,1.176a1.8,1.8,0,0,0-.644-.1,1.743,1.743,0,0,0-.959.273,2.013,2.013,0,0,0-.679.721,1.992,1.992,0,0,0-.252.994Zm4.676-2.128V-5.46H83.58V-6.51h1.176V-8.638h1.26V-6.51h1.9v1.05h-1.9v3.206a1.741,1.741,0,0,0,.245,1.078.852.852,0,0,0,.693.294,1.464,1.464,0,0,0,.609-.112,1.622,1.622,0,0,0,.469-.336l.574.77a2.672,2.672,0,0,1-.833.567,2.669,2.669,0,0,1-1.015.175,1.892,1.892,0,0,1-1.512-.567A2.617,2.617,0,0,1,84.756-2.128ZM90.832,0h-1.26V-5.88q0-.1,0-.224t-.014-.406h1.2L90.8-5.46a3.384,3.384,0,0,1,.427-.49,2.493,2.493,0,0,1,.693-.462,2.368,2.368,0,0,1,1.008-.2,2.445,2.445,0,0,1,.385.028,1.787,1.787,0,0,1,.329.084l-.28,1.176a1.8,1.8,0,0,0-.644-.1,1.743,1.743,0,0,0-.959.273,2.013,2.013,0,0,0-.679.721,1.992,1.992,0,0,0-.252.994ZM98.56,0l-.028-.784a2.156,2.156,0,0,1-.959.721,3.259,3.259,0,0,1-1.225.245,3,3,0,0,1-1.057-.2,1.918,1.918,0,0,1-.868-.644,1.907,1.907,0,0,1-.343-1.19,2.093,2.093,0,0,1,.742-1.68,3.176,3.176,0,0,1,2.114-.63q.308,0,.637.021t.6.042q.266.021.35.035V-4.3a1.193,1.193,0,0,0-.441-1.043,2.023,2.023,0,0,0-1.2-.315,2.827,2.827,0,0,0-1.169.2,4.535,4.535,0,0,0-.735.413l-.588-.854a4.277,4.277,0,0,1,.966-.546,4.284,4.284,0,0,1,1.666-.266,2.98,2.98,0,0,1,1.974.609,2.129,2.129,0,0,1,.728,1.729V-.336q0,.14.014.336Zm-.042-2.338V-3.08a1.435,1.435,0,0,0-.322-.049q-.252-.021-.567-.042t-.609-.021a2.273,2.273,0,0,0-1.071.2,1.094,1.094,0,0,0-.5.5,1.464,1.464,0,0,0-.133.6.947.947,0,0,0,.364.8,1.618,1.618,0,0,0,1.008.28,1.912,1.912,0,0,0,.9-.217,1.948,1.948,0,0,0,.672-.567A1.227,1.227,0,0,0,98.518-2.338ZM101.4-2.6V-6.51h1.26v3.822a1.952,1.952,0,0,0,.378,1.33,1.393,1.393,0,0,0,1.092.42,1.6,1.6,0,0,0,1.134-.378,2.113,2.113,0,0,0,.581-.959,4.176,4.176,0,0,0,.175-1.211V-6.51h1.26V-.4q0,.2.014.4h-1.2l-.042-.966a2.985,2.985,0,0,1-.434.483,2.437,2.437,0,0,1-.707.441A2.618,2.618,0,0,1,103.88.14,2.274,2.274,0,0,1,102-.6,3.085,3.085,0,0,1,101.4-2.6Zm12.852.9.714.756a3.18,3.18,0,0,1-.5.441,3.783,3.783,0,0,1-.945.49A4.035,4.035,0,0,1,112.112.2a3.514,3.514,0,0,1-1.778-.441,3.073,3.073,0,0,1-1.2-1.232A3.786,3.786,0,0,1,108.71-3.3a3.585,3.585,0,0,1,.413-1.722,3.186,3.186,0,0,1,1.148-1.225,3.139,3.139,0,0,1,1.687-.455,2.9,2.9,0,0,1,1.834.546,3.136,3.136,0,0,1,1.022,1.414,5.311,5.311,0,0,1,.322,1.862H110a1.945,1.945,0,0,0,.308,1.029,2.079,2.079,0,0,0,.777.714,2.173,2.173,0,0,0,1.043.259,2.948,2.948,0,0,0,1.365-.28A2.532,2.532,0,0,0,114.254-1.708ZM110-3.822h3.836A2.108,2.108,0,0,0,113.3-5.11a1.71,1.71,0,0,0-1.344-.532,1.944,1.944,0,0,0-1.036.266,1.852,1.852,0,0,0-.665.679A2.022,2.022,0,0,0,110-3.822ZM117.8,0h-1.26V-6.1q0-.133-.014-.413h1.2l.042.98a3.232,3.232,0,0,1,.448-.5,2.552,2.552,0,0,1,.707-.448,2.533,2.533,0,0,1,1.029-.189,2.305,2.305,0,0,1,1.89.749,3.066,3.066,0,0,1,.616,2.009V0H121.2V-3.808a1.908,1.908,0,0,0-.4-1.337,1.431,1.431,0,0,0-1.1-.427,1.651,1.651,0,0,0-1.134.371,2.013,2.013,0,0,0-.6.959,4.247,4.247,0,0,0-.175,1.218ZM123.8-.8l.77-.84a2.648,2.648,0,0,0,.84.56,2.858,2.858,0,0,0,1.134.21,2.407,2.407,0,0,0,1.05-.2.669.669,0,0,0,.42-.637.694.694,0,0,0-.168-.49,1.461,1.461,0,0,0-.574-.329,10.541,10.541,0,0,0-1.12-.315,5.677,5.677,0,0,1-.98-.343,2.1,2.1,0,0,1-.784-.6,1.553,1.553,0,0,1-.308-1,1.581,1.581,0,0,1,.371-1.064,2.265,2.265,0,0,1,.959-.651,3.53,3.53,0,0,1,1.232-.217,4.216,4.216,0,0,1,1.428.217,3.088,3.088,0,0,1,1.036.609l-.686.868a2.512,2.512,0,0,0-.735-.448,2.684,2.684,0,0,0-1.029-.182,2.04,2.04,0,0,0-.966.2.675.675,0,0,0-.364.644.666.666,0,0,0,.49.623,8.446,8.446,0,0,0,1.26.385,5.56,5.56,0,0,1,1.113.371,2.1,2.1,0,0,1,.8.623,1.632,1.632,0,0,1,.3,1.022A1.591,1.591,0,0,1,128.9-.707a2.433,2.433,0,0,1-1,.672,3.758,3.758,0,0,1-1.33.231A3.605,3.605,0,0,1,123.8-.8Zm8.442.8-2.2-6.51h1.386l1.456,4.97,1.568-4.97h1.078L137.1-1.5,138.53-6.51h1.3L137.676,0H136.43l-1.512-4.55L133.42,0Zm8.582-2.6V-6.51h1.26v3.822a1.952,1.952,0,0,0,.378,1.33,1.393,1.393,0,0,0,1.092.42,1.6,1.6,0,0,0,1.134-.378,2.113,2.113,0,0,0,.581-.959,4.176,4.176,0,0,0,.175-1.211V-6.51h1.26V-.4q0,.2.014.4h-1.2l-.042-.966a2.984,2.984,0,0,1-.434.483,2.437,2.437,0,0,1-.707.441A2.618,2.618,0,0,1,143.3.14,2.274,2.274,0,0,1,141.428-.6,3.085,3.085,0,0,1,140.826-2.6Zm3.5-5.236V-9.114h1.3V-7.84Zm-2.394,0V-9.114h1.316V-7.84ZM149.716,0h-1.26V-6.1q0-.126-.014-.406h1.2l.042,1.05a3.384,3.384,0,0,1,.427-.49,2.493,2.493,0,0,1,.693-.462,2.368,2.368,0,0,1,1.008-.2,2.445,2.445,0,0,1,.385.028,1.787,1.787,0,0,1,.329.084l-.28,1.176a1.8,1.8,0,0,0-.644-.1,1.742,1.742,0,0,0-.959.273,2.013,2.013,0,0,0-.679.721,1.992,1.992,0,0,0-.252.994Zm8.218,0-.042-.826q-.1.112-.357.364a2.512,2.512,0,0,1-.693.455,2.5,2.5,0,0,1-1.064.2,2.733,2.733,0,0,1-1.484-.413,2.845,2.845,0,0,1-1.036-1.169,3.93,3.93,0,0,1-.378-1.778,3.684,3.684,0,0,1,.315-1.589,3.131,3.131,0,0,1,.819-1.085,3.483,3.483,0,0,1,1.085-.623,3.336,3.336,0,0,1,1.1-.2,3.307,3.307,0,0,1,.917.112,4.633,4.633,0,0,1,.777.308V-9.338h1.26V-.4q0,.2.014.4Zm-.042-2.744V-5.068a2.1,2.1,0,0,0-.644-.35,2.845,2.845,0,0,0-.952-.14,2,2,0,0,0-1.519.644,2.463,2.463,0,0,0-.609,1.764,3.082,3.082,0,0,0,.2,1.134,1.778,1.778,0,0,0,.623.819,1.781,1.781,0,0,0,1.064.3,1.712,1.712,0,0,0,1.057-.3,1.824,1.824,0,0,0,.588-.735A2.043,2.043,0,0,0,157.892-2.744Zm2.982-4.928V-9.086h1.414v1.414ZM160.958,0V-6.51h1.26V0Zm3.332,2.254.588-.924a3.2,3.2,0,0,0,.791.385,3.538,3.538,0,0,0,1.141.161,1.78,1.78,0,0,0,1.4-.518A1.964,1.964,0,0,0,168.672,0V-.8q-.126.112-.378.315a2.719,2.719,0,0,1-.651.371,2.549,2.549,0,0,1-.987.168,2.968,2.968,0,0,1-1.617-.42,2.669,2.669,0,0,1-1.008-1.155,3.878,3.878,0,0,1-.343-1.659,3.5,3.5,0,0,1,.462-1.8,3.259,3.259,0,0,1,1.288-1.239,3.961,3.961,0,0,1,1.918-.448,7.452,7.452,0,0,1,1.477.14,6.613,6.613,0,0,1,1.113.308V0a2.867,2.867,0,0,1-.826,2.184,3.2,3.2,0,0,1-2.3.784,4.554,4.554,0,0,1-1.582-.224A4.087,4.087,0,0,1,164.29,2.254Zm4.4-4.914v-2.7q-.126-.042-.427-.119a3.923,3.923,0,0,0-.9-.077,2.488,2.488,0,0,0-1.246.3,2.165,2.165,0,0,0-.833.833,2.459,2.459,0,0,0-.3,1.232,2.972,2.972,0,0,0,.189,1.078,1.666,1.666,0,0,0,.609.784,1.838,1.838,0,0,0,1.078.294,2.026,2.026,0,0,0,1.036-.238,1.539,1.539,0,0,0,.6-.609A1.641,1.641,0,0,0,168.686-2.66Z" transform="translate(-14 598)" fill="#160637"/>
    </g>
    <g id="Gruppe_183" data-name="Gruppe 183" transform="translate(1337 -299)">
      <path id="Pfad_1772" data-name="Pfad 1772" d="M6.9-8.484l-.714,1.3A2.593,2.593,0,0,0,5.467-7.5a2.917,2.917,0,0,0-.791-.112,1.908,1.908,0,0,0-1.162.371A2.534,2.534,0,0,0,2.73-6.3a2.713,2.713,0,0,0-.28,1.2q.308-.182.742-.4A2.47,2.47,0,0,1,4.3-5.712a2.694,2.694,0,0,1,1.981.756,2.862,2.862,0,0,1,.763,2.128A3.421,3.421,0,0,1,6.7-1.3,2.746,2.746,0,0,1,5.684-.175,3.02,3.02,0,0,1,4.032.252,3.087,3.087,0,0,1,2.373-.2,3.063,3.063,0,0,1,1.211-1.617,6.117,6.117,0,0,1,.784-4.088a7.037,7.037,0,0,1,.441-2.59A3.86,3.86,0,0,1,2.541-8.435,3.553,3.553,0,0,1,4.69-9.072a3.838,3.838,0,0,1,1.358.217A7.127,7.127,0,0,1,6.9-8.484ZM2.436-3.766a4.451,4.451,0,0,0,.217,1.547,1.565,1.565,0,0,0,.581.8,1.46,1.46,0,0,0,.8.231,1.319,1.319,0,0,0,1.057-.469,1.825,1.825,0,0,0,.4-1.225,1.42,1.42,0,0,0-.371-1.029A1.29,1.29,0,0,0,4.144-4.3,2.6,2.6,0,0,0,3.1-4.116,4.474,4.474,0,0,0,2.436-3.766ZM11.2,0H9.408q.238-.742.553-1.589t.672-1.7q.357-.854.714-1.624T12.019-6.3q.315-.616.539-.966H8.54V-8.82h5.712v1.484q-.224.35-.546.994t-.686,1.47q-.364.826-.714,1.7t-.644,1.7Q11.368-.644,11.2,0Zm7.546-3.122V-4.69h4.27v1.568Zm9.9-1.771a2.389,2.389,0,0,1-.77-.748,1.914,1.914,0,0,1-.336-1.1,2.15,2.15,0,0,1,.35-1.223,2.329,2.329,0,0,1,.98-.818,3.412,3.412,0,0,1,1.456-.294,3.015,3.015,0,0,1,2.079.636,2.092,2.092,0,0,1,.707,1.628,1.9,1.9,0,0,1-.35,1.132,2.338,2.338,0,0,1-.8.727,2.868,2.868,0,0,1,1.232.96,2.468,2.468,0,0,1,.448,1.479,2.642,2.642,0,0,1-.182.932,2.55,2.55,0,0,1-.581.89,2.96,2.96,0,0,1-1.029.659,4.108,4.108,0,0,1-1.526.252,4.258,4.258,0,0,1-1.54-.245,2.811,2.811,0,0,1-1.022-.652,2.614,2.614,0,0,1-.574-.883,2.587,2.587,0,0,1-.182-.925,2.442,2.442,0,0,1,.455-1.479A2.774,2.774,0,0,1,28.644-4.893Zm1.68-.581a1.8,1.8,0,0,0,.9-.532,1.159,1.159,0,0,0,.336-.77.971.971,0,0,0-.343-.763,1.3,1.3,0,0,0-.889-.3,1.293,1.293,0,0,0-.875.308,1,1,0,0,0-.357.8A1.109,1.109,0,0,0,29.428-6,1.829,1.829,0,0,0,30.324-5.474ZM30.3-4.116a2.462,2.462,0,0,0-1.127.567,1.326,1.326,0,0,0-.483,1.029,1.22,1.22,0,0,0,.252.8,1.45,1.45,0,0,0,.63.448,2.164,2.164,0,0,0,.756.14,2.164,2.164,0,0,0,.756-.14,1.45,1.45,0,0,0,.63-.448,1.22,1.22,0,0,0,.252-.8,1.194,1.194,0,0,0-.238-.728,2.144,2.144,0,0,0-.616-.553A2.431,2.431,0,0,0,30.3-4.116ZM34.426-.77l.952-1.162a3.186,3.186,0,0,0,.84.539,2.549,2.549,0,0,0,1.036.2,1.7,1.7,0,0,0,1.2-.42,1.4,1.4,0,0,0,.455-1.078,1.535,1.535,0,0,0-.336-1A1.461,1.461,0,0,0,37.38-4.1a2.069,2.069,0,0,0-.406.042q-.21.042-.378.084l-.49-.784L38.36-7.294h-3.3V-8.806h5.278v1.26l-1.96,2.3a2.475,2.475,0,0,1,1.722.84,2.691,2.691,0,0,1,.56,1.736,2.718,2.718,0,0,1-.448,1.568A2.879,2.879,0,0,1,38.99-.1a4.115,4.115,0,0,1-1.722.35,4.26,4.26,0,0,1-1.645-.294A4.246,4.246,0,0,1,34.426-.77Z" transform="translate(111 581)" fill="#160637"/>
      <path id="Pfad_1773" data-name="Pfad 1773" d="M1.064,0V-9.338h5.88v1.19H2.408v2.716H5.824v1.2H2.408V-1.2H7.28V0ZM8.75,0V-9.338H10v3.794a3.411,3.411,0,0,1,.441-.5,2.336,2.336,0,0,1,.7-.441,2.618,2.618,0,0,1,1.029-.182,2.305,2.305,0,0,1,1.89.749,3.066,3.066,0,0,1,.616,2.009V0h-1.26V-3.808a1.908,1.908,0,0,0-.4-1.337,1.431,1.431,0,0,0-1.1-.427A1.651,1.651,0,0,0,10.78-5.2a2.013,2.013,0,0,0-.6.959,4.247,4.247,0,0,0-.175,1.218V0ZM21.588-1.708l.714.756a3.181,3.181,0,0,1-.5.441,3.783,3.783,0,0,1-.945.49A4.034,4.034,0,0,1,19.446.2a3.514,3.514,0,0,1-1.778-.441,3.073,3.073,0,0,1-1.2-1.232A3.786,3.786,0,0,1,16.044-3.3a3.585,3.585,0,0,1,.413-1.722,3.186,3.186,0,0,1,1.148-1.225,3.139,3.139,0,0,1,1.687-.455,2.9,2.9,0,0,1,1.834.546,3.136,3.136,0,0,1,1.022,1.414,5.311,5.311,0,0,1,.322,1.862H17.332a1.945,1.945,0,0,0,.308,1.029,2.079,2.079,0,0,0,.777.714,2.173,2.173,0,0,0,1.043.259,2.947,2.947,0,0,0,1.365-.28A2.532,2.532,0,0,0,21.588-1.708ZM17.332-3.822h3.836a2.108,2.108,0,0,0-.532-1.288,1.71,1.71,0,0,0-1.344-.532,1.944,1.944,0,0,0-1.036.266,1.852,1.852,0,0,0-.665.679A2.022,2.022,0,0,0,17.332-3.822ZM25.13,0H23.87V-6.1q0-.126-.014-.406h1.2L25.1-5.46a3.384,3.384,0,0,1,.427-.49,2.493,2.493,0,0,1,.693-.462,2.368,2.368,0,0,1,1.008-.2,2.445,2.445,0,0,1,.385.028,1.787,1.787,0,0,1,.329.084l-.28,1.176a1.8,1.8,0,0,0-.644-.1,1.743,1.743,0,0,0-.959.273,2.013,2.013,0,0,0-.679.721,1.992,1.992,0,0,0-.252.994Zm8.386,0-2.8-6.51h1.442l2.03,5.082L36.2-6.51h1.358L34.776,0ZM43.4-1.708l.714.756a3.18,3.18,0,0,1-.5.441,3.783,3.783,0,0,1-.945.49A4.034,4.034,0,0,1,41.258.2,3.514,3.514,0,0,1,39.48-.245a3.073,3.073,0,0,1-1.2-1.232A3.786,3.786,0,0,1,37.856-3.3a3.585,3.585,0,0,1,.413-1.722,3.186,3.186,0,0,1,1.148-1.225A3.139,3.139,0,0,1,41.1-6.706a2.9,2.9,0,0,1,1.834.546A3.136,3.136,0,0,1,43.96-4.746a5.311,5.311,0,0,1,.322,1.862H39.144a1.945,1.945,0,0,0,.308,1.029,2.079,2.079,0,0,0,.777.714,2.173,2.173,0,0,0,1.043.259,2.947,2.947,0,0,0,1.365-.28A2.532,2.532,0,0,0,43.4-1.708ZM39.144-3.822H42.98a2.108,2.108,0,0,0-.532-1.288A1.71,1.71,0,0,0,41.1-5.642a1.944,1.944,0,0,0-1.036.266A1.852,1.852,0,0,0,39.4-4.7,2.022,2.022,0,0,0,39.144-3.822ZM46.942,0h-1.26V-6.1q0-.126-.014-.406h1.2l.042,1.05a3.384,3.384,0,0,1,.427-.49,2.493,2.493,0,0,1,.693-.462,2.368,2.368,0,0,1,1.008-.2,2.445,2.445,0,0,1,.385.028,1.787,1.787,0,0,1,.329.084l-.28,1.176a1.8,1.8,0,0,0-.644-.1,1.743,1.743,0,0,0-.959.273,2.013,2.013,0,0,0-.679.721,1.992,1.992,0,0,0-.252.994Zm4.676-2.128V-5.46H50.442V-6.51h1.176V-8.638h1.26V-6.51h1.9v1.05h-1.9v3.206a1.741,1.741,0,0,0,.245,1.078.852.852,0,0,0,.693.294,1.464,1.464,0,0,0,.609-.112,1.622,1.622,0,0,0,.469-.336l.574.77a2.672,2.672,0,0,1-.833.567A2.669,2.669,0,0,1,53.62.182a1.892,1.892,0,0,1-1.512-.567A2.617,2.617,0,0,1,51.618-2.128ZM57.694,0h-1.26V-6.1q0-.126-.014-.406h1.2l.042,1.05a3.384,3.384,0,0,1,.427-.49,2.493,2.493,0,0,1,.693-.462,2.368,2.368,0,0,1,1.008-.2,2.445,2.445,0,0,1,.385.028,1.787,1.787,0,0,1,.329.084l-.28,1.176a1.8,1.8,0,0,0-.644-.1,1.743,1.743,0,0,0-.959.273,2.013,2.013,0,0,0-.679.721,1.992,1.992,0,0,0-.252.994Zm7.728,0-.028-.784a2.156,2.156,0,0,1-.959.721A3.259,3.259,0,0,1,63.21.182a3,3,0,0,1-1.057-.2,1.918,1.918,0,0,1-.868-.644,1.907,1.907,0,0,1-.343-1.19,2.093,2.093,0,0,1,.742-1.68,3.176,3.176,0,0,1,2.114-.63q.308,0,.637.021t.6.042q.266.021.35.035V-4.3a1.193,1.193,0,0,0-.441-1.043,2.023,2.023,0,0,0-1.2-.315,2.827,2.827,0,0,0-1.169.2,4.535,4.535,0,0,0-.735.413l-.588-.854a4.277,4.277,0,0,1,.966-.546,4.284,4.284,0,0,1,1.666-.266,2.98,2.98,0,0,1,1.974.609,2.129,2.129,0,0,1,.728,1.729V-.336q0,.14.014.336ZM65.38-2.338V-3.08a1.435,1.435,0,0,0-.322-.049q-.252-.021-.567-.042t-.609-.021a2.273,2.273,0,0,0-1.071.2,1.094,1.094,0,0,0-.5.5,1.464,1.464,0,0,0-.133.6.947.947,0,0,0,.364.8,1.618,1.618,0,0,0,1.008.28,1.912,1.912,0,0,0,.9-.217,1.948,1.948,0,0,0,.672-.567A1.227,1.227,0,0,0,65.38-2.338ZM68.264-2.6V-6.51h1.26v3.822a1.952,1.952,0,0,0,.378,1.33,1.393,1.393,0,0,0,1.092.42,1.6,1.6,0,0,0,1.134-.378,2.113,2.113,0,0,0,.581-.959,4.176,4.176,0,0,0,.175-1.211V-6.51h1.26V-.4q0,.2.014.4h-1.2l-.042-.966a2.985,2.985,0,0,1-.434.483,2.437,2.437,0,0,1-.707.441A2.618,2.618,0,0,1,70.742.14,2.274,2.274,0,0,1,68.866-.6,3.085,3.085,0,0,1,68.264-2.6Zm12.852.9.714.756a3.18,3.18,0,0,1-.5.441,3.783,3.783,0,0,1-.945.49A4.035,4.035,0,0,1,78.974.2,3.514,3.514,0,0,1,77.2-.245,3.073,3.073,0,0,1,76-1.477,3.786,3.786,0,0,1,75.572-3.3a3.585,3.585,0,0,1,.413-1.722,3.186,3.186,0,0,1,1.148-1.225,3.139,3.139,0,0,1,1.687-.455,2.9,2.9,0,0,1,1.834.546,3.136,3.136,0,0,1,1.022,1.414A5.311,5.311,0,0,1,82-2.884H76.86a1.945,1.945,0,0,0,.308,1.029,2.079,2.079,0,0,0,.777.714,2.173,2.173,0,0,0,1.043.259,2.948,2.948,0,0,0,1.365-.28A2.532,2.532,0,0,0,81.116-1.708ZM76.86-3.822H80.7a2.108,2.108,0,0,0-.532-1.288,1.71,1.71,0,0,0-1.344-.532,1.944,1.944,0,0,0-1.036.266,1.852,1.852,0,0,0-.665.679A2.022,2.022,0,0,0,76.86-3.822ZM84.658,0H83.4V-6.1q0-.133-.014-.413h1.2l.042.98a3.232,3.232,0,0,1,.448-.5,2.552,2.552,0,0,1,.707-.448,2.533,2.533,0,0,1,1.029-.189,2.305,2.305,0,0,1,1.89.749,3.066,3.066,0,0,1,.616,2.009V0H88.06V-3.808a1.908,1.908,0,0,0-.4-1.337,1.431,1.431,0,0,0-1.1-.427,1.651,1.651,0,0,0-1.134.371,2.013,2.013,0,0,0-.6.959,4.247,4.247,0,0,0-.175,1.218Zm6.006-.8.77-.84a2.648,2.648,0,0,0,.84.56,2.858,2.858,0,0,0,1.134.21,2.407,2.407,0,0,0,1.05-.2.669.669,0,0,0,.42-.637.694.694,0,0,0-.168-.49,1.461,1.461,0,0,0-.574-.329,10.541,10.541,0,0,0-1.12-.315,5.677,5.677,0,0,1-.98-.343,2.1,2.1,0,0,1-.784-.6,1.553,1.553,0,0,1-.308-1,1.581,1.581,0,0,1,.371-1.064,2.265,2.265,0,0,1,.959-.651,3.53,3.53,0,0,1,1.232-.217,4.216,4.216,0,0,1,1.428.217,3.088,3.088,0,0,1,1.036.609l-.686.868a2.512,2.512,0,0,0-.735-.448,2.684,2.684,0,0,0-1.029-.182,2.04,2.04,0,0,0-.966.2.675.675,0,0,0-.364.644.666.666,0,0,0,.49.623,8.446,8.446,0,0,0,1.26.385,5.56,5.56,0,0,1,1.113.371,2.1,2.1,0,0,1,.8.623,1.632,1.632,0,0,1,.3,1.022,1.591,1.591,0,0,1-.385,1.085,2.433,2.433,0,0,1-1,.672A3.758,3.758,0,0,1,93.436.2,3.605,3.605,0,0,1,90.664-.8Zm8.442.8-2.2-6.51h1.386L99.75-1.54l1.568-4.97H102.4L103.964-1.5l1.428-5.012h1.3L104.538,0h-1.246L101.78-4.55,100.282,0Zm8.582-2.6V-6.51h1.26v3.822a1.952,1.952,0,0,0,.378,1.33,1.393,1.393,0,0,0,1.092.42,1.6,1.6,0,0,0,1.134-.378,2.113,2.113,0,0,0,.581-.959,4.176,4.176,0,0,0,.175-1.211V-6.51h1.26V-.4q0,.2.014.4h-1.2l-.042-.966a2.985,2.985,0,0,1-.434.483,2.437,2.437,0,0,1-.707.441,2.618,2.618,0,0,1-1.029.182A2.274,2.274,0,0,1,108.29-.6,3.085,3.085,0,0,1,107.688-2.6Zm3.5-5.236V-9.114h1.3V-7.84Zm-2.394,0V-9.114h1.316V-7.84ZM116.578,0h-1.26V-6.1q0-.126-.014-.406h1.2l.042,1.05a3.384,3.384,0,0,1,.427-.49,2.493,2.493,0,0,1,.693-.462,2.368,2.368,0,0,1,1.008-.2,2.445,2.445,0,0,1,.385.028,1.787,1.787,0,0,1,.329.084l-.28,1.176a1.8,1.8,0,0,0-.644-.1,1.743,1.743,0,0,0-.959.273,2.014,2.014,0,0,0-.679.721,1.992,1.992,0,0,0-.252.994ZM124.8,0l-.042-.826q-.1.112-.357.364a2.513,2.513,0,0,1-.693.455,2.5,2.5,0,0,1-1.064.2,2.733,2.733,0,0,1-1.484-.413,2.845,2.845,0,0,1-1.036-1.169,3.93,3.93,0,0,1-.378-1.778,3.684,3.684,0,0,1,.315-1.589,3.131,3.131,0,0,1,.819-1.085,3.482,3.482,0,0,1,1.085-.623,3.336,3.336,0,0,1,1.1-.2,3.307,3.307,0,0,1,.917.112,4.633,4.633,0,0,1,.777.308V-9.338h1.26V-.4q0,.2.014.4Zm-.042-2.744V-5.068a2.1,2.1,0,0,0-.644-.35,2.845,2.845,0,0,0-.952-.14,2,2,0,0,0-1.519.644,2.463,2.463,0,0,0-.609,1.764,3.082,3.082,0,0,0,.2,1.134,1.778,1.778,0,0,0,.623.819,1.781,1.781,0,0,0,1.064.3,1.712,1.712,0,0,0,1.057-.3,1.824,1.824,0,0,0,.588-.735A2.042,2.042,0,0,0,124.754-2.744Zm2.982-4.928V-9.086h1.414v1.414ZM127.82,0V-6.51h1.26V0Zm3.332,2.254.588-.924a3.2,3.2,0,0,0,.791.385,3.538,3.538,0,0,0,1.141.161,1.78,1.78,0,0,0,1.4-.518A1.964,1.964,0,0,0,135.534,0V-.8q-.126.112-.378.315a2.719,2.719,0,0,1-.651.371,2.549,2.549,0,0,1-.987.168,2.968,2.968,0,0,1-1.617-.42,2.669,2.669,0,0,1-1.008-1.155,3.878,3.878,0,0,1-.343-1.659,3.5,3.5,0,0,1,.462-1.8A3.259,3.259,0,0,1,132.3-6.216a3.961,3.961,0,0,1,1.918-.448,7.452,7.452,0,0,1,1.477.14,6.613,6.613,0,0,1,1.113.308V0a2.867,2.867,0,0,1-.826,2.184,3.2,3.2,0,0,1-2.3.784,4.554,4.554,0,0,1-1.582-.224A4.087,4.087,0,0,1,131.152,2.254Zm4.4-4.914v-2.7q-.126-.042-.427-.119a3.923,3.923,0,0,0-.9-.077,2.488,2.488,0,0,0-1.246.3,2.165,2.165,0,0,0-.833.833,2.459,2.459,0,0,0-.3,1.232,2.972,2.972,0,0,0,.189,1.078,1.666,1.666,0,0,0,.609.784,1.838,1.838,0,0,0,1.078.294,2.026,2.026,0,0,0,1.036-.238,1.539,1.539,0,0,0,.6-.609A1.641,1.641,0,0,0,135.548-2.66Z" transform="translate(63 598)" fill="#160637"/>
    </g>
    <g id="Gruppe_184" data-name="Gruppe 184" transform="translate(1470 -220)">
      <path id="Pfad_1769" data-name="Pfad 1769" d="M2.142-4.893a2.389,2.389,0,0,1-.77-.748,1.914,1.914,0,0,1-.336-1.1,2.15,2.15,0,0,1,.35-1.223,2.329,2.329,0,0,1,.98-.818,3.412,3.412,0,0,1,1.456-.294A3.015,3.015,0,0,1,5.9-8.436a2.092,2.092,0,0,1,.707,1.628,1.9,1.9,0,0,1-.35,1.132,2.338,2.338,0,0,1-.8.727,2.868,2.868,0,0,1,1.232.96A2.468,2.468,0,0,1,7.14-2.51a2.642,2.642,0,0,1-.182.932,2.55,2.55,0,0,1-.581.89,2.96,2.96,0,0,1-1.029.659A4.108,4.108,0,0,1,3.822.224a4.258,4.258,0,0,1-1.54-.245A2.811,2.811,0,0,1,1.26-.673a2.614,2.614,0,0,1-.574-.883A2.587,2.587,0,0,1,.5-2.482,2.442,2.442,0,0,1,.959-3.961,2.774,2.774,0,0,1,2.142-4.893Zm1.68-.581a1.8,1.8,0,0,0,.9-.532,1.159,1.159,0,0,0,.336-.77.971.971,0,0,0-.343-.763,1.3,1.3,0,0,0-.889-.3,1.293,1.293,0,0,0-.875.308,1,1,0,0,0-.357.8A1.109,1.109,0,0,0,2.926-6,1.829,1.829,0,0,0,3.822-5.474ZM3.794-4.116a2.462,2.462,0,0,0-1.127.567A1.326,1.326,0,0,0,2.184-2.52a1.22,1.22,0,0,0,.252.8,1.45,1.45,0,0,0,.63.448,2.164,2.164,0,0,0,.756.14,2.164,2.164,0,0,0,.756-.14,1.45,1.45,0,0,0,.63-.448,1.22,1.22,0,0,0,.252-.8,1.194,1.194,0,0,0-.238-.728A2.144,2.144,0,0,0,4.606-3.8,2.431,2.431,0,0,0,3.794-4.116Zm4.4,2.422V-3.08l3.85-5.74h1.652v5.726h.91v1.4h-.91V0H12.11V-1.694Zm1.6-1.4H12.11V-6.5Zm8.96-.028V-4.69h4.27v1.568ZM28.336,0V-1.442h1.512V-7.014l-1.694.9-.686-1.288,2.59-1.414H31.5v7.378h1.456V0Zm9.6.224a3,3,0,0,1-1.9-.6,3.61,3.61,0,0,1-1.155-1.673A7.288,7.288,0,0,1,34.5-4.522a6.669,6.669,0,0,1,.392-2.394A3.445,3.445,0,0,1,36.05-8.505a3.123,3.123,0,0,1,1.9-.567,3.116,3.116,0,0,1,1.911.567,3.421,3.421,0,0,1,1.148,1.589A6.779,6.779,0,0,1,41.4-4.522a7.169,7.169,0,0,1-.392,2.471A3.679,3.679,0,0,1,39.851-.378,2.99,2.99,0,0,1,37.94.224Zm.014-1.512a1.254,1.254,0,0,0,.973-.427,2.775,2.775,0,0,0,.581-1.162,6.387,6.387,0,0,0,.2-1.645,5.717,5.717,0,0,0-.2-1.568,2.386,2.386,0,0,0-.588-1.071,1.342,1.342,0,0,0-.98-.385,1.325,1.325,0,0,0-.966.385,2.386,2.386,0,0,0-.588,1.071,5.717,5.717,0,0,0-.2,1.568,6.386,6.386,0,0,0,.2,1.645,2.682,2.682,0,0,0,.595,1.162A1.281,1.281,0,0,0,37.954-1.288ZM45.57.224a3,3,0,0,1-1.9-.6,3.61,3.61,0,0,1-1.155-1.673,7.288,7.288,0,0,1-.385-2.471,6.669,6.669,0,0,1,.392-2.394A3.445,3.445,0,0,1,43.68-8.505a3.123,3.123,0,0,1,1.9-.567,3.116,3.116,0,0,1,1.911.567,3.421,3.421,0,0,1,1.148,1.589,6.779,6.779,0,0,1,.385,2.394,7.169,7.169,0,0,1-.392,2.471A3.679,3.679,0,0,1,47.481-.378,2.99,2.99,0,0,1,45.57.224Zm.014-1.512a1.254,1.254,0,0,0,.973-.427,2.775,2.775,0,0,0,.581-1.162,6.387,6.387,0,0,0,.2-1.645,5.717,5.717,0,0,0-.2-1.568,2.386,2.386,0,0,0-.588-1.071,1.342,1.342,0,0,0-.98-.385,1.325,1.325,0,0,0-.966.385,2.386,2.386,0,0,0-.588,1.071,5.717,5.717,0,0,0-.2,1.568,6.386,6.386,0,0,0,.2,1.645,2.682,2.682,0,0,0,.595,1.162A1.281,1.281,0,0,0,45.584-1.288Z" transform="translate(50 580)" fill="#160637"/>
      <path id="Pfad_1768" data-name="Pfad 1768" d="M3.78,0,.168-9.338h1.5L4.508-1.666,7.35-9.338H8.764L5.152,0ZM13.972-1.708l.714.756a3.18,3.18,0,0,1-.5.441,3.783,3.783,0,0,1-.945.49A4.034,4.034,0,0,1,11.83.2a3.514,3.514,0,0,1-1.778-.441,3.073,3.073,0,0,1-1.2-1.232A3.786,3.786,0,0,1,8.428-3.3a3.585,3.585,0,0,1,.413-1.722A3.186,3.186,0,0,1,9.989-6.251a3.139,3.139,0,0,1,1.687-.455,2.9,2.9,0,0,1,1.834.546,3.136,3.136,0,0,1,1.022,1.414,5.311,5.311,0,0,1,.322,1.862H9.716a1.945,1.945,0,0,0,.308,1.029,2.079,2.079,0,0,0,.777.714,2.173,2.173,0,0,0,1.043.259,2.947,2.947,0,0,0,1.365-.28A2.532,2.532,0,0,0,13.972-1.708ZM9.716-3.822h3.836A2.108,2.108,0,0,0,13.02-5.11a1.71,1.71,0,0,0-1.344-.532,1.944,1.944,0,0,0-1.036.266,1.852,1.852,0,0,0-.665.679A2.022,2.022,0,0,0,9.716-3.822ZM17.514,0h-1.26V-5.88q0-.1,0-.224T16.24-6.51h1.2l.042,1.05a3.384,3.384,0,0,1,.427-.49,2.493,2.493,0,0,1,.693-.462,2.368,2.368,0,0,1,1.008-.2A2.445,2.445,0,0,1,20-6.58a1.787,1.787,0,0,1,.329.084l-.28,1.176a1.8,1.8,0,0,0-.644-.1,1.743,1.743,0,0,0-.959.273,2.013,2.013,0,0,0-.679.721,1.992,1.992,0,0,0-.252.994ZM22.19-2.128V-5.46H21.014V-6.51H22.19V-8.638h1.26V-6.51h1.9v1.05h-1.9v3.206A1.741,1.741,0,0,0,23.7-1.176a.852.852,0,0,0,.693.294A1.464,1.464,0,0,0,25-.994a1.622,1.622,0,0,0,.469-.336l.574.77a2.672,2.672,0,0,1-.833.567,2.669,2.669,0,0,1-1.015.175A1.892,1.892,0,0,1,22.68-.385,2.617,2.617,0,0,1,22.19-2.128ZM28.266,0h-1.26V-6.1q0-.126-.014-.406h1.2l.042,1.05a3.384,3.384,0,0,1,.427-.49,2.493,2.493,0,0,1,.693-.462,2.368,2.368,0,0,1,1.008-.2,2.445,2.445,0,0,1,.385.028,1.787,1.787,0,0,1,.329.084L30.8-5.32a1.8,1.8,0,0,0-.644-.1,1.743,1.743,0,0,0-.959.273,2.013,2.013,0,0,0-.679.721,1.992,1.992,0,0,0-.252.994Zm7.728,0-.028-.784a2.156,2.156,0,0,1-.959.721,3.259,3.259,0,0,1-1.225.245,3,3,0,0,1-1.057-.2,1.918,1.918,0,0,1-.868-.644,1.907,1.907,0,0,1-.343-1.19,2.093,2.093,0,0,1,.742-1.68,3.176,3.176,0,0,1,2.114-.63q.308,0,.637.021t.6.042q.266.021.35.035V-4.3a1.193,1.193,0,0,0-.441-1.043,2.023,2.023,0,0,0-1.2-.315,2.827,2.827,0,0,0-1.169.2,4.535,4.535,0,0,0-.735.413l-.588-.854a4.277,4.277,0,0,1,.966-.546,4.284,4.284,0,0,1,1.666-.266,2.98,2.98,0,0,1,1.974.609,2.128,2.128,0,0,1,.728,1.729V-.336q0,.14.014.336Zm-.042-2.338V-3.08a1.435,1.435,0,0,0-.322-.049q-.252-.021-.567-.042t-.609-.021a2.273,2.273,0,0,0-1.071.2,1.094,1.094,0,0,0-.5.5,1.464,1.464,0,0,0-.133.6.947.947,0,0,0,.364.8,1.617,1.617,0,0,0,1.008.28,1.912,1.912,0,0,0,.9-.217,1.948,1.948,0,0,0,.672-.567A1.227,1.227,0,0,0,35.952-2.338ZM38.836-2.6V-6.51H40.1v3.822a1.951,1.951,0,0,0,.378,1.33,1.393,1.393,0,0,0,1.092.42A1.6,1.6,0,0,0,42.7-1.316a2.113,2.113,0,0,0,.581-.959,4.176,4.176,0,0,0,.175-1.211V-6.51h1.26V-.4q0,.2.014.4h-1.2l-.042-.966a2.985,2.985,0,0,1-.434.483,2.437,2.437,0,0,1-.707.441A2.618,2.618,0,0,1,41.314.14,2.274,2.274,0,0,1,39.438-.6,3.085,3.085,0,0,1,38.836-2.6Zm12.852.9.714.756a3.18,3.18,0,0,1-.5.441,3.783,3.783,0,0,1-.945.49A4.034,4.034,0,0,1,49.546.2a3.514,3.514,0,0,1-1.778-.441,3.073,3.073,0,0,1-1.2-1.232A3.786,3.786,0,0,1,46.144-3.3a3.585,3.585,0,0,1,.413-1.722,3.186,3.186,0,0,1,1.148-1.225,3.139,3.139,0,0,1,1.687-.455,2.9,2.9,0,0,1,1.834.546,3.136,3.136,0,0,1,1.022,1.414,5.311,5.311,0,0,1,.322,1.862H47.432a1.945,1.945,0,0,0,.308,1.029,2.079,2.079,0,0,0,.777.714,2.173,2.173,0,0,0,1.043.259,2.947,2.947,0,0,0,1.365-.28A2.532,2.532,0,0,0,51.688-1.708ZM47.432-3.822h3.836a2.108,2.108,0,0,0-.532-1.288,1.71,1.71,0,0,0-1.344-.532,1.944,1.944,0,0,0-1.036.266,1.852,1.852,0,0,0-.665.679A2.022,2.022,0,0,0,47.432-3.822ZM55.23,0H53.97V-6.1q0-.133-.014-.413h1.2l.042.98a3.232,3.232,0,0,1,.448-.5,2.552,2.552,0,0,1,.707-.448,2.533,2.533,0,0,1,1.029-.189,2.305,2.305,0,0,1,1.89.749,3.066,3.066,0,0,1,.616,2.009V0h-1.26V-3.808a1.908,1.908,0,0,0-.4-1.337,1.431,1.431,0,0,0-1.1-.427A1.652,1.652,0,0,0,56-5.2a2.013,2.013,0,0,0-.595.959,4.247,4.247,0,0,0-.175,1.218Zm6.006-.8.77-.84a2.648,2.648,0,0,0,.84.56,2.858,2.858,0,0,0,1.134.21,2.407,2.407,0,0,0,1.05-.2.669.669,0,0,0,.42-.637.694.694,0,0,0-.168-.49,1.461,1.461,0,0,0-.574-.329,10.541,10.541,0,0,0-1.12-.315,5.677,5.677,0,0,1-.98-.343,2.1,2.1,0,0,1-.784-.6,1.553,1.553,0,0,1-.308-1,1.581,1.581,0,0,1,.371-1.064,2.265,2.265,0,0,1,.959-.651,3.53,3.53,0,0,1,1.232-.217,4.216,4.216,0,0,1,1.428.217,3.087,3.087,0,0,1,1.036.609l-.686.868a2.512,2.512,0,0,0-.735-.448,2.684,2.684,0,0,0-1.029-.182,2.04,2.04,0,0,0-.966.2.675.675,0,0,0-.364.644.666.666,0,0,0,.49.623,8.446,8.446,0,0,0,1.26.385,5.56,5.56,0,0,1,1.113.371,2.1,2.1,0,0,1,.8.623,1.632,1.632,0,0,1,.3,1.022,1.591,1.591,0,0,1-.385,1.085,2.433,2.433,0,0,1-1,.672A3.757,3.757,0,0,1,64.008.2,3.605,3.605,0,0,1,61.236-.8Zm8.442.8-2.2-6.51h1.386l1.456,4.97L71.89-6.51h1.078L74.536-1.5,75.964-6.51h1.3L75.11,0H73.864L72.352-4.55,70.854,0ZM78.26-2.6V-6.51h1.26v3.822a1.952,1.952,0,0,0,.378,1.33,1.393,1.393,0,0,0,1.092.42,1.6,1.6,0,0,0,1.134-.378,2.113,2.113,0,0,0,.581-.959,4.176,4.176,0,0,0,.175-1.211V-6.51h1.26V-.4q0,.2.014.4h-1.2l-.042-.966a2.985,2.985,0,0,1-.434.483,2.437,2.437,0,0,1-.707.441A2.618,2.618,0,0,1,80.738.14,2.274,2.274,0,0,1,78.862-.6,3.085,3.085,0,0,1,78.26-2.6Zm3.5-5.236V-9.114h1.3V-7.84Zm-2.394,0V-9.114h1.316V-7.84ZM87.15,0H85.89V-6.1q0-.126-.014-.406h1.2l.042,1.05a3.384,3.384,0,0,1,.427-.49,2.493,2.493,0,0,1,.693-.462,2.368,2.368,0,0,1,1.008-.2,2.445,2.445,0,0,1,.385.028,1.787,1.787,0,0,1,.329.084l-.28,1.176a1.8,1.8,0,0,0-.644-.1,1.743,1.743,0,0,0-.959.273,2.014,2.014,0,0,0-.679.721,1.992,1.992,0,0,0-.252.994Zm8.218,0-.042-.826q-.1.112-.357.364a2.513,2.513,0,0,1-.693.455,2.5,2.5,0,0,1-1.064.2,2.733,2.733,0,0,1-1.484-.413,2.845,2.845,0,0,1-1.036-1.169,3.93,3.93,0,0,1-.378-1.778,3.684,3.684,0,0,1,.315-1.589,3.131,3.131,0,0,1,.819-1.085,3.482,3.482,0,0,1,1.085-.623,3.336,3.336,0,0,1,1.1-.2,3.307,3.307,0,0,1,.917.112,4.633,4.633,0,0,1,.777.308V-9.338h1.26V-.4q0,.2.014.4Zm-.042-2.744V-5.068a2.1,2.1,0,0,0-.644-.35,2.845,2.845,0,0,0-.952-.14,2,2,0,0,0-1.519.644A2.463,2.463,0,0,0,91.6-3.15a3.082,3.082,0,0,0,.2,1.134,1.778,1.778,0,0,0,.623.819,1.781,1.781,0,0,0,1.064.3,1.712,1.712,0,0,0,1.057-.3,1.824,1.824,0,0,0,.588-.735A2.042,2.042,0,0,0,95.326-2.744Zm2.982-4.928V-9.086h1.414v1.414ZM98.392,0V-6.51h1.26V0Zm3.332,2.254.588-.924a3.2,3.2,0,0,0,.791.385,3.538,3.538,0,0,0,1.141.161,1.78,1.78,0,0,0,1.4-.518A1.964,1.964,0,0,0,106.106,0V-.8q-.126.112-.378.315a2.719,2.719,0,0,1-.651.371,2.549,2.549,0,0,1-.987.168,2.968,2.968,0,0,1-1.617-.42,2.669,2.669,0,0,1-1.008-1.155,3.878,3.878,0,0,1-.343-1.659,3.5,3.5,0,0,1,.462-1.8,3.259,3.259,0,0,1,1.288-1.239,3.961,3.961,0,0,1,1.918-.448,7.452,7.452,0,0,1,1.477.14,6.613,6.613,0,0,1,1.113.308V0a2.867,2.867,0,0,1-.826,2.184,3.2,3.2,0,0,1-2.3.784,4.554,4.554,0,0,1-1.582-.224A4.087,4.087,0,0,1,101.724,2.254Zm4.4-4.914v-2.7q-.126-.042-.427-.119a3.923,3.923,0,0,0-.9-.077,2.488,2.488,0,0,0-1.246.3,2.165,2.165,0,0,0-.833.833,2.459,2.459,0,0,0-.3,1.232,2.972,2.972,0,0,0,.189,1.078,1.666,1.666,0,0,0,.609.784,1.838,1.838,0,0,0,1.078.294,2.026,2.026,0,0,0,1.036-.238,1.539,1.539,0,0,0,.6-.609A1.641,1.641,0,0,0,106.12-2.66Z" transform="translate(17 597)" fill="#160637"/>
    </g>
    <rect id="Rechteck_442" data-name="Rechteck 442" width="450" height="12" rx="6" transform="translate(1132 319)" fill="#0daf00"/>
    <rect id="Rechteck_441" data-name="Rechteck 441" width="375" height="12" rx="6" transform="translate(1132 319)" fill="#a9d100"/>
    <rect id="Rechteck_440" data-name="Rechteck 440" width="300" height="12" rx="6" transform="translate(1132 319)" fill="#ffa700"/>
    <path id="Pfad_1437" data-name="Pfad 1437" d="M8.036,0H141.964C146.4,0,150,2.686,150,6s-3.6,6-8.036,6H8.036C3.6,12,0,9.314,0,6S3.6,0,8.036,0Z" transform="translate(1132 319)" fill="#d10e00"/>
    <rect id="Rechteck_443" data-name="Rechteck 443" width="2" height="16" transform="translate(1203 303)" fill="#160637"/>
    <rect id="Rechteck_444" data-name="Rechteck 444" width="2" height="16" transform="translate(1542 331)" fill="#160637"/>
    <rect id="Rechteck_445" data-name="Rechteck 445" width="2" height="16" transform="translate(1341 331)" fill="#160637"/>
    <rect id="Rechteck_446" data-name="Rechteck 446" width="2" height="16" transform="translate(1469 303)" fill="#160637"/>
  </g>
</svg>
