<svg xmlns="http://www.w3.org/2000/svg" width="1877.007" height="547.366" viewBox="0 0 1877.007 547.366">
  <g id="Glimmer_and_Stars" data-name="Glimmer and Stars" transform="translate(-9 -14)" opacity="0.5">
    <g id="Ellipse_287" data-name="Ellipse 287" transform="translate(179 277)" fill="none" stroke="#fac800" stroke-width="2">
      <circle cx="6" cy="6" r="6" stroke="none"/>
      <circle cx="6" cy="6" r="5" fill="none"/>
    </g>
    <g id="Rechteck_129" data-name="Rechteck 129" transform="translate(94 373)" fill="none" stroke="#fac800" stroke-width="2">
      <rect width="12" height="12" stroke="none"/>
      <rect x="1" y="1" width="10" height="10" fill="none"/>
    </g>
    <g id="Polygon_1" data-name="Polygon 1" transform="translate(223 366)" fill="none">
      <path d="M6,0l6,12H0Z" stroke="none"/>
      <path d="M 6 4.472129821777344 L 3.236064910888672 10 L 8.763935089111328 10 L 6 4.472129821777344 M 6 0 L 12 12 L 0 12 L 6 0 Z" stroke="none" fill="#fac800"/>
    </g>
    <g id="Ellipse_288" data-name="Ellipse 288" transform="translate(632 255)" fill="none" stroke="#fac800" stroke-width="2">
      <circle cx="6" cy="6" r="6" stroke="none"/>
      <circle cx="6" cy="6" r="5" fill="none"/>
    </g>
    <g id="Ellipse_289" data-name="Ellipse 289" transform="translate(9 14)" fill="none" stroke="#fac800" stroke-width="2">
      <circle cx="6" cy="6" r="6" stroke="none"/>
      <circle cx="6" cy="6" r="5" fill="none"/>
    </g>
    <g id="Ellipse_290" data-name="Ellipse 290" transform="translate(865 61)" fill="none" stroke="#fac800" stroke-width="2">
      <circle cx="6" cy="6" r="6" stroke="none"/>
      <circle cx="6" cy="6" r="5" fill="none"/>
    </g>
    <g id="Ellipse_291" data-name="Ellipse 291" transform="translate(918 320)" fill="none" stroke="#fac800" stroke-width="2">
      <circle cx="6" cy="6" r="6" stroke="none"/>
      <circle cx="6" cy="6" r="5" fill="none"/>
    </g>
    <g id="Ellipse_292" data-name="Ellipse 292" transform="translate(1277 188)" fill="none" stroke="#fac800" stroke-width="2">
      <circle cx="6" cy="6" r="6" stroke="none"/>
      <circle cx="6" cy="6" r="5" fill="none"/>
    </g>
    <g id="Ellipse_293" data-name="Ellipse 293" transform="translate(1449 402)" fill="none" stroke="#fac800" stroke-width="2">
      <circle cx="6" cy="6" r="6" stroke="none"/>
      <circle cx="6" cy="6" r="5" fill="none"/>
    </g>
    <g id="Ellipse_294" data-name="Ellipse 294" transform="translate(1779 165)" fill="none" stroke="#fac800" stroke-width="2">
      <circle cx="6" cy="6" r="6" stroke="none"/>
      <circle cx="6" cy="6" r="5" fill="none"/>
    </g>
    <g id="Ellipse_295" data-name="Ellipse 295" transform="translate(286 466)" fill="none" stroke="#fac800" stroke-width="2">
      <circle cx="6" cy="6" r="6" stroke="none"/>
      <circle cx="6" cy="6" r="5" fill="none"/>
    </g>
    <g id="Polygon_2" data-name="Polygon 2" transform="matrix(0.819, -0.574, 0.574, 0.819, 92.68, 139.299)" fill="none">
      <path d="M6,0l6,12H0Z" stroke="none"/>
      <path d="M 6 4.472129821777344 L 3.236064910888672 10 L 8.763935089111328 10 L 6 4.472129821777344 M 6 0 L 12 12 L 0 12 L 6 0 Z" stroke="none" fill="#fac800"/>
    </g>
    <g id="Polygon_3" data-name="Polygon 3" transform="translate(896.915 130.482) rotate(41)" fill="none">
      <path d="M6,0l6,12H0Z" stroke="none"/>
      <path d="M 6 4.472129821777344 L 3.236064910888672 10 L 8.763935089111328 10 L 6 4.472129821777344 M 6 0 L 12 12 L 0 12 L 6 0 Z" stroke="none" fill="#fac800"/>
    </g>
    <g id="Polygon_4" data-name="Polygon 4" transform="matrix(0.883, -0.469, 0.469, 0.883, 1668.124, 31.452)" fill="none">
      <path d="M6,0l6,12H0Z" stroke="none"/>
      <path d="M 6 4.472129821777344 L 3.236064910888672 10 L 8.763935089111328 10 L 6 4.472129821777344 M 6 0 L 12 12 L 0 12 L 6 0 Z" stroke="none" fill="#fac800"/>
    </g>
    <g id="Polygon_5" data-name="Polygon 5" transform="translate(646.697 492.265) rotate(17)" fill="none">
      <path d="M6,0l6,12H0Z" stroke="none"/>
      <path d="M 6 4.472129821777344 L 3.236064910888672 10 L 8.763935089111328 10 L 6 4.472129821777344 M 6 0 L 12 12 L 0 12 L 6 0 Z" stroke="none" fill="#fac800"/>
    </g>
    <g id="Polygon_6" data-name="Polygon 6" transform="translate(1020.68 214.922) rotate(-22)" fill="none">
      <path d="M6,0l6,12H0Z" stroke="none"/>
      <path d="M 6 4.472129821777344 L 3.236064910888672 10 L 8.763935089111328 10 L 6 4.472129821777344 M 6 0 L 12 12 L 0 12 L 6 0 Z" stroke="none" fill="#fac800"/>
    </g>
    <g id="Polygon_7" data-name="Polygon 7" transform="matrix(-0.574, -0.819, 0.819, -0.574, 1701.299, 399.32)" fill="none">
      <path d="M6,0l6,12H0Z" stroke="none"/>
      <path d="M 6 4.472129821777344 L 3.236064910888672 10 L 8.763935089111328 10 L 6 4.472129821777344 M 6 0 L 12 12 L 0 12 L 6 0 Z" stroke="none" fill="#fac800"/>
    </g>
    <g id="Polygon_8" data-name="Polygon 8" transform="translate(461.901 134.426) rotate(-20)" fill="none">
      <path d="M6,0l6,12H0Z" stroke="none"/>
      <path d="M 6 4.472129821777344 L 3.236064910888672 10 L 8.763935089111328 10 L 6 4.472129821777344 M 6 0 L 12 12 L 0 12 L 6 0 Z" stroke="none" fill="#fac800"/>
    </g>
    <g id="Ellipse_296" data-name="Ellipse 296" transform="translate(20 373)" fill="none" stroke="#fac800" stroke-width="2">
      <circle cx="6" cy="6" r="6" stroke="none"/>
      <circle cx="6" cy="6" r="5" fill="none"/>
    </g>
    <g id="Ellipse_297" data-name="Ellipse 297" transform="translate(409 225)" fill="none" stroke="#fac800" stroke-width="2">
      <circle cx="6" cy="6" r="6" stroke="none"/>
      <circle cx="6" cy="6" r="5" fill="none"/>
    </g>
    <g id="Ellipse_298" data-name="Ellipse 298" transform="translate(1125 429)" fill="none" stroke="#fac800" stroke-width="2">
      <circle cx="6" cy="6" r="6" stroke="none"/>
      <circle cx="6" cy="6" r="5" fill="none"/>
    </g>
    <g id="Ellipse_299" data-name="Ellipse 299" transform="translate(308 39)" fill="none" stroke="#fac800" stroke-width="2">
      <circle cx="6" cy="6" r="6" stroke="none"/>
      <circle cx="6" cy="6" r="5" fill="none"/>
    </g>
    <g id="Gruppe_272" data-name="Gruppe 272" transform="translate(104.686 166.469) rotate(17)">
      <rect id="Rechteck_127" data-name="Rechteck 127" width="2" height="12" transform="translate(102.866 275.089) rotate(90)" fill="#fac800"/>
      <rect id="Rechteck_128" data-name="Rechteck 128" width="2" height="12" transform="translate(95.866 270.089)" fill="#fac800"/>
    </g>
    <g id="Ellipse_300" data-name="Ellipse 300" transform="translate(686 447)" fill="none" stroke="#fac800" stroke-width="2">
      <circle cx="6" cy="6" r="6" stroke="none"/>
      <circle cx="6" cy="6" r="5" fill="none"/>
    </g>
    <g id="Ellipse_301" data-name="Ellipse 301" transform="translate(887 520)" fill="none" stroke="#fac800" stroke-width="2">
      <circle cx="6" cy="6" r="6" stroke="none"/>
      <circle cx="6" cy="6" r="5" fill="none"/>
    </g>
    <g id="Ellipse_302" data-name="Ellipse 302" transform="translate(1597 444)" fill="none" stroke="#fac800" stroke-width="2">
      <circle cx="6" cy="6" r="6" stroke="none"/>
      <circle cx="6" cy="6" r="5" fill="none"/>
    </g>
    <g id="Ellipse_303" data-name="Ellipse 303" transform="translate(207 81)" fill="none" stroke="#fac800" stroke-width="2">
      <circle cx="6" cy="6" r="6" stroke="none"/>
      <circle cx="6" cy="6" r="5" fill="none"/>
    </g>
    <g id="Rechteck_130" data-name="Rechteck 130" transform="matrix(0.891, 0.454, -0.454, 0.891, 136.193, 30.205)" fill="none" stroke="#fac800" stroke-width="2">
      <rect width="12" height="12" stroke="none"/>
      <rect x="1" y="1" width="10" height="10" fill="none"/>
    </g>
    <g id="Rechteck_131" data-name="Rechteck 131" transform="translate(806 244)" fill="none" stroke="#fac800" stroke-width="2">
      <rect width="12" height="12" stroke="none"/>
      <rect x="1" y="1" width="10" height="10" fill="none"/>
    </g>
    <g id="Rechteck_132" data-name="Rechteck 132" transform="translate(177.974 550.974) rotate(-30)" fill="none" stroke="#fac800" stroke-width="2">
      <rect width="12" height="12" stroke="none"/>
      <rect x="1" y="1" width="10" height="10" fill="none"/>
    </g>
    <g id="Rechteck_133" data-name="Rechteck 133" transform="matrix(0.899, -0.438, 0.438, 0.899, 1126.291, 120.935)" fill="none" stroke="#fac800" stroke-width="2">
      <rect width="12" height="12" stroke="none"/>
      <rect x="1" y="1" width="10" height="10" fill="none"/>
    </g>
    <g id="Rechteck_134" data-name="Rechteck 134" transform="translate(1635.321 127.382) rotate(65)" fill="none" stroke="#fac800" stroke-width="2">
      <rect width="12" height="12" stroke="none"/>
      <rect x="1" y="1" width="10" height="10" fill="none"/>
    </g>
    <g id="Rechteck_135" data-name="Rechteck 135" transform="matrix(0.174, 0.985, -0.985, 0.174, 1883.923, 23.257)" fill="none" stroke="#fac800" stroke-width="2">
      <rect width="12" height="12" stroke="none"/>
      <rect x="1" y="1" width="10" height="10" fill="none"/>
    </g>
    <g id="Rechteck_136" data-name="Rechteck 136" transform="translate(755.018 109.181) rotate(-19)" fill="none" stroke="#fac800" stroke-width="2">
      <rect width="12" height="12" stroke="none"/>
      <rect x="1" y="1" width="10" height="10" fill="none"/>
    </g>
    <g id="Rechteck_137" data-name="Rechteck 137" transform="translate(274.181 173.018) rotate(19)" fill="none" stroke="#fac800" stroke-width="2">
      <rect width="12" height="12" stroke="none"/>
      <rect x="1" y="1" width="10" height="10" fill="none"/>
    </g>
    <g id="Rechteck_138" data-name="Rechteck 138" transform="matrix(0.891, -0.454, 0.454, 0.891, 1006.205, 32.193)" fill="none" stroke="#fac800" stroke-width="2">
      <rect width="12" height="12" stroke="none"/>
      <rect x="1" y="1" width="10" height="10" fill="none"/>
    </g>
    <g id="Rechteck_139" data-name="Rechteck 139" transform="translate(1434.237 289.906) rotate(31)" fill="none" stroke="#fac800" stroke-width="2">
      <rect width="12" height="12" stroke="none"/>
      <rect x="1" y="1" width="10" height="10" fill="none"/>
    </g>
    <g id="Rechteck_140" data-name="Rechteck 140" transform="translate(1817 290)" fill="none" stroke="#fac800" stroke-width="2">
      <rect width="12" height="12" stroke="none"/>
      <rect x="1" y="1" width="10" height="10" fill="none"/>
    </g>
    <g id="Gruppe_273" data-name="Gruppe 273" transform="translate(290.052 23.034) rotate(76)">
      <rect id="Rechteck_127-2" data-name="Rechteck 127" width="2" height="12" transform="translate(102.866 275.089) rotate(90)" fill="#fac800"/>
      <rect id="Rechteck_128-2" data-name="Rechteck 128" width="2" height="12" transform="translate(95.866 270.089)" fill="#fac800"/>
    </g>
    <g id="Gruppe_274" data-name="Gruppe 274" transform="translate(633.579 -247.346) rotate(17)">
      <rect id="Rechteck_127-3" data-name="Rechteck 127" width="2" height="12" transform="translate(102.866 275.089) rotate(90)" fill="#fac800"/>
      <rect id="Rechteck_128-3" data-name="Rechteck 128" width="2" height="12" transform="translate(95.866 270.089)" fill="#fac800"/>
    </g>
    <g id="Gruppe_275" data-name="Gruppe 275" transform="translate(73.275 -15.346) rotate(17)">
      <rect id="Rechteck_127-4" data-name="Rechteck 127" width="2" height="12" transform="translate(102.866 275.089) rotate(90)" fill="#fac800"/>
      <rect id="Rechteck_128-4" data-name="Rechteck 128" width="2" height="12" transform="translate(95.866 270.089)" fill="#fac800"/>
    </g>
    <g id="Gruppe_276" data-name="Gruppe 276" transform="translate(636.156 23.952) rotate(-2)">
      <rect id="Rechteck_127-5" data-name="Rechteck 127" width="2" height="12" transform="translate(102.866 275.089) rotate(90)" fill="#fac800"/>
      <rect id="Rechteck_128-5" data-name="Rechteck 128" width="2" height="12" transform="translate(95.866 270.089)" fill="#fac800"/>
    </g>
    <g id="Gruppe_277" data-name="Gruppe 277" transform="translate(516.686 141.162) rotate(17)">
      <rect id="Rechteck_127-6" data-name="Rechteck 127" width="2" height="12" transform="translate(102.866 275.089) rotate(90)" fill="#fac800"/>
      <rect id="Rechteck_128-6" data-name="Rechteck 128" width="2" height="12" transform="translate(95.866 270.089)" fill="#fac800"/>
    </g>
    <g id="Gruppe_278" data-name="Gruppe 278" transform="matrix(0.891, -0.454, 0.454, 0.891, 265.632, 111.844)">
      <rect id="Rechteck_127-7" data-name="Rechteck 127" width="2" height="12" transform="translate(102.866 275.089) rotate(90)" fill="#fac800"/>
      <rect id="Rechteck_128-7" data-name="Rechteck 128" width="2" height="12" transform="translate(95.866 270.089)" fill="#fac800"/>
    </g>
    <g id="Gruppe_279" data-name="Gruppe 279" transform="translate(864.44 200.619) rotate(-65)">
      <rect id="Rechteck_127-8" data-name="Rechteck 127" width="2" height="12" transform="translate(102.866 275.089) rotate(90)" fill="#fac800"/>
      <rect id="Rechteck_128-8" data-name="Rechteck 128" width="2" height="12" transform="translate(95.866 270.089)" fill="#fac800"/>
    </g>
    <g id="Gruppe_280" data-name="Gruppe 280" transform="translate(831.13 -78.319) rotate(-23)">
      <rect id="Rechteck_127-9" data-name="Rechteck 127" width="2" height="12" transform="translate(102.866 275.089) rotate(90)" fill="#fac800"/>
      <rect id="Rechteck_128-9" data-name="Rechteck 128" width="2" height="12" transform="translate(95.866 270.089)" fill="#fac800"/>
    </g>
    <g id="Gruppe_281" data-name="Gruppe 281" transform="translate(1263.595 109.654) rotate(17)">
      <rect id="Rechteck_127-10" data-name="Rechteck 127" width="2" height="12" transform="translate(102.866 275.089) rotate(90)" fill="#fac800"/>
      <rect id="Rechteck_128-10" data-name="Rechteck 128" width="2" height="12" transform="translate(95.866 270.089)" fill="#fac800"/>
    </g>
    <g id="Gruppe_282" data-name="Gruppe 282" transform="matrix(0.966, -0.259, 0.259, 0.966, 1303.469, -106.736)">
      <rect id="Rechteck_127-11" data-name="Rechteck 127" width="2" height="12" transform="translate(102.866 275.089) rotate(90)" fill="#fac800"/>
      <rect id="Rechteck_128-11" data-name="Rechteck 128" width="2" height="12" transform="translate(95.866 270.089)" fill="#fac800"/>
    </g>
    <g id="Gruppe_283" data-name="Gruppe 283" transform="translate(1671.817 -40.854) rotate(17)">
      <rect id="Rechteck_127-12" data-name="Rechteck 127" width="2" height="12" transform="translate(102.866 275.089) rotate(90)" fill="#fac800"/>
      <rect id="Rechteck_128-12" data-name="Rechteck 128" width="2" height="12" transform="translate(95.866 270.089)" fill="#fac800"/>
    </g>
    <g id="Gruppe_284" data-name="Gruppe 284" transform="translate(1597.087 66.162) rotate(17)">
      <rect id="Rechteck_127-13" data-name="Rechteck 127" width="2" height="12" transform="translate(102.866 275.089) rotate(90)" fill="#fac800"/>
      <rect id="Rechteck_128-13" data-name="Rechteck 128" width="2" height="12" transform="translate(95.866 270.089)" fill="#fac800"/>
    </g>
    <g id="Gruppe_285" data-name="Gruppe 285" transform="translate(1631.711 247.811) rotate(-14)">
      <rect id="Rechteck_127-14" data-name="Rechteck 127" width="2" height="12" transform="translate(102.866 275.089) rotate(90)" fill="#fac800"/>
      <rect id="Rechteck_128-14" data-name="Rechteck 128" width="2" height="12" transform="translate(95.866 270.089)" fill="#fac800"/>
    </g>
  </g>
</svg>
