<svg xmlns="http://www.w3.org/2000/svg" width="286.388" height="211.414" viewBox="0 0 286.388 211.414">
  <g id="undraw_people_tax5" transform="translate(0 -8.724)">
    <path id="Pfad_1439" data-name="Pfad 1439" d="M221.583,289.014c-9.37-5.223-15.2-12.355-17.337-21.2-1.585-6.564-1.129-13.951,1.353-21.955a58.8,58.8,0,0,1,8.177-16.517c18.976-26.859,20.688-44.361,18.784-54.314-2.088-10.913-8.873-15.445-8.942-15.489l.293-.45c.07.046,7.034,4.683,9.172,15.817,1.233,6.419.653,13.738-1.724,21.754-2.958,9.976-8.726,21.077-17.144,32.992a58.268,58.268,0,0,0-8.1,16.366c-4.072,13.127-4.648,31.16,15.732,42.522Z" transform="translate(-166.688 -127.805)" fill="#2f2e41"/>
    <path id="Pfad_1440" data-name="Pfad 1440" d="M255.05,289.014c9.37-5.223,15.2-12.355,17.337-21.2,1.585-6.564,1.129-13.951-1.353-21.955a58.8,58.8,0,0,0-8.177-16.517c-18.976-26.859-20.688-44.361-18.784-54.314,2.088-10.913,8.873-15.445,8.942-15.489l-.293-.45c-.07.046-7.034,4.683-9.172,15.817-1.233,6.419-.653,13.738,1.724,21.754,2.958,9.976,8.726,21.077,17.144,32.992a58.266,58.266,0,0,1,8.1,16.366c4.072,13.127,4.648,31.16-15.732,42.522Z" transform="translate(-195.648 -127.805)" fill="#2f2e41"/>
    <path id="Pfad_1441" data-name="Pfad 1441" d="M998.583,205.014c-9.37-5.223-15.2-12.355-17.337-21.2-1.585-6.564-1.129-13.951,1.353-21.955a58.8,58.8,0,0,1,8.177-16.517c18.975-26.859,20.688-44.361,18.784-54.314-2.088-10.913-8.873-15.445-8.942-15.489l.293-.45c.07.046,7.034,4.683,9.172,15.817,1.233,6.419.653,13.738-1.724,21.754-2.958,9.976-8.726,21.076-17.145,32.992a58.269,58.269,0,0,0-8.1,16.365c-4.072,13.127-4.648,31.16,15.732,42.522Z" transform="translate(-734.962 -66.37)" fill="#2f2e41"/>
    <path id="Pfad_1442" data-name="Pfad 1442" d="M1032.046,205.013c9.37-5.223,15.2-12.355,17.337-21.2,1.585-6.564,1.129-13.951-1.353-21.955a58.8,58.8,0,0,0-8.177-16.517c-18.975-26.859-20.688-44.361-18.783-54.314,2.088-10.913,8.873-15.445,8.942-15.489l-.293-.45c-.07.046-7.034,4.683-9.172,15.817-1.233,6.419-.653,13.738,1.724,21.754,2.958,9.976,8.726,21.077,17.144,32.992a58.261,58.261,0,0,1,8.1,16.366c4.072,13.127,4.648,31.16-15.732,42.522Z" transform="translate(-763.919 -66.37)" fill="#2f2e41"/>
    <path id="Pfad_1443" data-name="Pfad 1443" d="M386.862,303.827c-7.04-11.9-20.968-12.45-20.968-12.45s-13.572-1.736-22.278,16.381c-8.115,16.886-19.315,33.19-1.8,37.143l3.163-9.845,1.959,10.578a68.521,68.521,0,0,0,7.493.128c18.754-.605,36.614.177,36.039-6.552C389.7,330.265,393.636,315.273,386.862,303.827Z" transform="translate(-261.192 -224.52)" fill="#2f2e41"/>
    <path id="Pfad_1444" data-name="Pfad 1444" d="M427.194,418.923a66.833,66.833,0,0,1,4.869,18.867l19.475-1.217c-4.477-6.345-5.964-13.627-4.26-21.91Z" transform="translate(-330.421 -314.72)" fill="#ffb8b8"/>
    <path id="Pfad_1445" data-name="Pfad 1445" d="M427.194,418.923a66.833,66.833,0,0,1,4.869,18.867l19.475-1.217c-4.477-6.345-5.964-13.627-4.26-21.91Z" transform="translate(-330.421 -314.72)" opacity="0.2"/>
    <path id="Pfad_1446" data-name="Pfad 1446" d="M73.36,810.844s-10.08,5.4-4.965,10.009,11.872-6.1,11.872-6.1Z" transform="translate(-66.947 -604.475)" fill="#ffb8b8"/>
    <path id="Pfad_1447" data-name="Pfad 1447" d="M305.488,679.536l-.157,7.376-.336,15.938v0l-.1,4.616H240.438l2.62-14.546,0-.011,2.346-13.02,1.047-5.831v0l52.949-7.3Z" transform="translate(-175.849 -488.911)" fill="#2f2e41"/>
    <path id="Pfad_1448" data-name="Pfad 1448" d="M385.959,717.44l-.158,7.376c-18.733-.481-47.77-5-59.924-7.023l1.047-5.83,52.949-7.3Z" transform="translate(-256.32 -526.815)" fill="#3f3d56"/>
    <circle id="Ellipse_410" data-name="Ellipse 410" cx="15.215" cy="15.215" r="15.215" transform="translate(90.992 78.946)" fill="#ffb8b8"/>
    <path id="Pfad_1449" data-name="Pfad 1449" d="M367.25,539.7s1.826,16.432-9.129,15.215L356.3,538.486l-9.738-9.738-27.387-.609-20.084,18.867s-.609-19.475,1.826-21.3,7.912-6.086,7.912-6.086v-3.043L292.391,483.1s9.738-20.084,17.65-20.693l10.346-.609s3.652-1.826,3.652-2.434-.609-5.478,2.434-4.26c0,0,.274-6.244,3.481-4.339,0,0,10.1,7.912,20.346.347,0,0,4.778-.876,4.169,1.558s0,4.26,1.217,4.26,6.695,1.826,6.695,3.043c0,.262.4,2.781,1.016,6.573v.006c2.258,13.821,7.5,44.544,7.5,44.544S376.379,519.01,367.25,539.7Z" transform="translate(-231.83 -340.861)" fill="#ff7268"/>
    <path id="Pfad_1450" data-name="Pfad 1450" d="M134.267,560.794l-4.26,3.043L91.055,613.743,70.363,630.176s11.564-1.826,9.129,7.912L150.7,597.311Z" transform="translate(-69.445 -421.596)" fill="#ff7268"/>
    <path id="Pfad_1451" data-name="Pfad 1451" d="M438.376,465.072v.006c-.809,4.759-27.187,3.767-30.838,3.767a17,17,0,0,1-10.346-3.043c-3.652-2.435-1.826-5.478-1.826-5.478s3.109-2.368,3.109-2.977-.609-5.478,2.434-4.26c0,0,.274-6.244,3.481-4.339,0,0,10.639,8.454,20.888.889,0,0,4.778-.876,4.169,1.558s0,4.26,1.217,4.26,6.695,1.826,6.695,3.043C437.36,458.76,437.755,461.28,438.376,465.072Z" transform="translate(-306.808 -339.385)" fill="#3f3d56"/>
    <path id="Pfad_1452" data-name="Pfad 1452" d="M514.946,407.531s-4.869-10.346-9.738-5.478,5.477,12.172,5.477,12.172Z" transform="translate(-386.525 -304.545)" fill="#ffb8b8"/>
    <path id="Pfad_1453" data-name="Pfad 1453" d="M518.2,416.929s-7.518,9.5-9.845,10.228c0,0,6.8,26.9,15.323,34.2l4.869,24.953s20.693-8.52,15.824-22.519l-.145-.417a138.072,138.072,0,0,0-16.682-32.883Z" transform="translate(-389.779 -316.377)" fill="#ff7268"/>
    <path id="Pfad_1454" data-name="Pfad 1454" d="M463.1,483.933l14.973,41.2L472.6,500.181Z" transform="translate(-338.699 -355.201)" opacity="0.2"/>
    <path id="Pfad_1455" data-name="Pfad 1455" d="M356.326,276.053l-13.76-7.208-19,2.949-3.932,17.364,9.787-.376,2.734-6.379v6.274l4.516-.174,2.621-10.156,1.638,10.812,16.054-.327Z" transform="translate(-233.769 -197.892)" fill="#2f2e41"/>
    <path id="Pfad_1456" data-name="Pfad 1456" d="M1007.08,673.978l7.807,27.849s-1.609,24.668,5.9,19.841c7.683-4.939,4.826-25.74,4.826-25.74l-4.5-24.984Z" transform="translate(-754.531 -502.156)" fill="#a0616a"/>
    <path id="Pfad_1457" data-name="Pfad 1457" d="M1001.956,391.415l6.447,6.447v30.719s3.792,5.689,3.034,7.206-1.517,1.517-.758,2.655,1.517,1.9.758,2.655a2.845,2.845,0,0,0,0,3.413c.758.758,2.275,1.9,1.138,3.034s-2.655.379-1.138,4.551,4.172,5.309,3.413,6.826-.759,5.309-.759,5.309l-16.307,2.275-3.415-42.854Z" transform="translate(-745.236 -297.717)" fill="#fac800"/>
    <path id="Pfad_1458" data-name="Pfad 1458" d="M952.033,623.161l-18.963.759.758,7.964,16.687-3.034Z" transform="translate(-682.419 -457.028)" fill="#3f3d56"/>
    <path id="Pfad_1459" data-name="Pfad 1459" d="M803.346,205.986,801.07,228.74l23.134,3.413,1.707-13.084,1.707-13.084Z" transform="translate(-585.878 -151.919)" fill="#a0616a"/>
    <path id="Pfad_1460" data-name="Pfad 1460" d="M803.346,205.527l-2.276,22.755,23.134,3.413,1.707-13.084,1.707-13.084Z" transform="translate(-585.878 -151.583)" opacity="0.1"/>
    <path id="Pfad_1461" data-name="Pfad 1461" d="M689.43,646.944l12.894,27.685s2.275,12.894,5.689,13.273,6.826-13.273,6.826-13.273l-4.551-7.206-5.309-20.479Z" transform="translate(-522.212 -484.603)" fill="#a0616a"/>
    <path id="Pfad_1462" data-name="Pfad 1462" d="M819.532,745.763h-72.9c.578-9.136.941-14.769.941-14.769l.968-1.524,4.694-7.376,3.352-5.267,1.169-1.839.434-.68,4.591-.838,47.366-8.643a57.874,57.874,0,0,0,3.311,10.237c.323.735.67,1.47,1.041,2.2a22.6,22.6,0,0,0,4.372,6.148,5.375,5.375,0,0,1,.862,2.866C820.193,729.982,820.061,736.876,819.532,745.763Z" transform="translate(-564.05 -526.937)" fill="#2f2e41"/>
    <circle id="Ellipse_411" data-name="Ellipse 411" cx="18.204" cy="18.204" r="18.204" transform="translate(211.969 25.055)" fill="#a0616a"/>
    <path id="Pfad_1463" data-name="Pfad 1463" d="M694.052,337.873l-2.655-1.517s-11.757,7.964-15.549,25.788S669.4,384.52,669.4,384.52s-3.792.758-1.138,3.413,2.655,2.275.379,3.792-3.792-1.517-2.275,1.517,3.413,2.275,1.9,4.172-4.172,1.9-2.655,3.413-1.517,4.93.379,6.447,2.655,1.9,2.655,4.551a13.431,13.431,0,0,0,.759,4.551h19.721s-3.792-7.206-2.655-8.723,1.517-3.034.758-3.792-3.034.758-.758-1.138,3.034-.758,2.276-3.034-2.276-1.138-.758-2.275,2.655-.758,1.9-1.9-2.275-1.138-.759-1.9,2.655,0,2.276-1.9-.758-1.138,0-1.9,8.723-26.547,8.723-27.306S694.052,337.873,694.052,337.873Z" transform="translate(-504.459 -257.449)" fill="#fac800"/>
    <path id="Pfad_1464" data-name="Pfad 1464" d="M626.61,590.691l-23.892,1.517,6.068,5.688,16.687.379Z" transform="translate(-440.809 -433.281)" fill="#3f3d56"/>
    <path id="Pfad_1465" data-name="Pfad 1465" d="M770.6,734.473l-4.93,9.1s14.79,1.9,20.1,3.792,18.962,4.551,18.962,4.551l3.413-13.273Z" transform="translate(-577.968 -548.619)" fill="#3f3d56"/>
    <path id="Pfad_1466" data-name="Pfad 1466" d="M878.011,704.875l4.172,12.515,16.686-3.413-1.9-11.756Z" transform="translate(-642.15 -514.849)" fill="#3f3d56"/>
    <path id="Pfad_1467" data-name="Pfad 1467" d="M818.59,268.958s-1.138-.758-3.792.759-11.377,2.275-15.549-2.275-7.206-8.343-8.343-7.585-1.9,9.481-1.9,9.481l-3.793,3.034-22.375,7.964,1.9,51.2,3.413,11.757s-2.655,9.1.758,14.411-1.9,7.206-1.9,7.206-1.138,1.517-.379,5.309-.758,17.824-.758,17.824,32.236,14.411,65.988,1.9l-3.792-14.411-1.9-32.236s1.9-5.309,1.517-7.585,11.377-34.132,11.377-34.132-1.9-15.928-11.756-19.341-11.377-6.826-11.377-6.826S820.486,270.475,818.59,268.958Z" transform="translate(-575.903 -201.428)" fill="#fac800"/>
    <path id="Pfad_1468" data-name="Pfad 1468" d="M851.928,138.352a8.345,8.345,0,0,1-1.163-5.889,17.854,17.854,0,0,0,.509-5.308,52.538,52.538,0,0,1,3.054-7.707c1.527-2.763.8-3.926,5.6-4.8s2.835-7.125,15.486-.364a3.71,3.71,0,0,0,3.853,1.454c2.617-.509,3.563,3.126,3.563,3.126s1.745-1.018,2.4.436,5.32-.873,5.32,8.943-5.309,18.583-5.309,18.583.389-16.511-8.263-18.183-17.958-6.544-20.212-.291A47.676,47.676,0,0,1,851.928,138.352Z" transform="translate(-640.085 -92.762)" fill="#2f2e41"/>
    <ellipse id="Ellipse_412" data-name="Ellipse 412" cx="1.707" cy="2.275" rx="1.707" ry="2.275" transform="translate(243.635 44.965)" fill="#a0616a"/>
  </g>
</svg>
