<svg id="Ebene_1" data-name="Ebene 1" xmlns="http://www.w3.org/2000/svg" viewBox="0 0 369.45 160.55"><defs><style>.cls-1,.cls-3{fill:#fff;}.cls-1{stroke:#4a4a4a;stroke-miterlimit:10;stroke-width:10px;}.cls-2{fill:#4a4a4a;}.cls-4{fill:#ffeb3b;}</style></defs><title>Logo</title><rect class="cls-1" x="5" y="34.06" width="180.73" height="92.43"/><polygon class="cls-1" points="280.62 153.53 202.47 126.49 202.47 34.06 280.62 7.02 280.62 153.53"/><rect class="cls-2" x="82.72" y="64.14" width="85.78" height="32.27" rx="16.13"/><circle class="cls-3" cx="151.41" cy="80.28" r="9.67"/><path class="cls-4" d="M296.17,126.49V33.22h30a44.13,44.13,0,0,1,22.23,5.61,39.45,39.45,0,0,1,15.41,15.82,47.79,47.79,0,0,1,5.6,22.9v4.29a48.06,48.06,0,0,1-5.41,23,39.52,39.52,0,0,1-15.25,15.88,43.08,43.08,0,0,1-21.94,5.8Zm22.48-75.91V109.2h7.82q9.67,0,14.86-6.89t5.19-20.47v-4q0-13.52-5.19-20.37t-15.12-6.86Z"/></svg>