<svg id="Ebene_1" data-name="Ebene 1" xmlns="http://www.w3.org/2000/svg" viewBox="0 0 1412.73 160.55"><defs><style>.cls-1,.cls-3{fill:#fff;}.cls-1{stroke:#4a4a4a;stroke-miterlimit:10;stroke-width:10px;}.cls-2{fill:#4a4a4a;}.cls-4{fill:#ffeb3b;}</style></defs><title>Schrift</title><rect class="cls-1" x="5" y="34.06" width="180.73" height="92.43"/><polygon class="cls-1" points="280.62 153.53 202.47 126.49 202.47 34.06 280.62 7.02 280.62 153.53"/><rect class="cls-2" x="82.72" y="64.14" width="85.78" height="32.27" rx="16.13"/><circle class="cls-3" cx="151.41" cy="80.28" r="9.67"/><path class="cls-4" d="M293.92,127.46V34.19H324a44.12,44.12,0,0,1,22.22,5.61A39.38,39.38,0,0,1,361.6,55.62a47.91,47.91,0,0,1,5.61,22.9v4.29a48,48,0,0,1-5.42,23,39.65,39.65,0,0,1-15.24,15.89,43.23,43.23,0,0,1-21.94,5.79Zm22.49-75.91v58.62h7.81q9.67,0,14.86-6.89t5.19-20.47v-4q0-13.52-5.19-20.37T324,51.55Z"/><path class="cls-4" d="M411.28,128.74q-16,0-25.82-9.51T375.6,94.47V92.68a42.51,42.51,0,0,1,3.94-18.77A28.82,28.82,0,0,1,391,61.32,34.74,34.74,0,0,1,409,56.87q14.61,0,23.06,9.06t8.46,25.28V99.6H397.57a15.61,15.61,0,0,0,5.06,9.16,15.05,15.05,0,0,0,10.12,3.33q10.25,0,16-7.18l9.86,11.66a27.46,27.46,0,0,1-11.43,8.87A38.66,38.66,0,0,1,411.28,128.74Zm-2.44-55.21q-9.48,0-11.27,12.55h21.78V84.42c.08-3.46-.79-6.14-2.63-8S412.26,73.53,408.84,73.53Z"/><path class="cls-4" d="M474.31,40.92V58.15h11.4v15h-11.4v31.71c0,2.61.47,4.42,1.41,5.45s2.8,1.53,5.57,1.53a32.31,32.31,0,0,0,5.38-.38v15.44a40,40,0,0,1-12.17,1.85q-11.14,0-16.46-5.25t-5.32-15.95V73.14h-8.84v-15h8.84V40.92Z"/><path class="cls-4" d="M527.74,128.74q-16,0-25.82-9.51t-9.86-24.76V92.68A42.51,42.51,0,0,1,496,73.91a28.8,28.8,0,0,1,11.49-12.59,34.8,34.8,0,0,1,17.94-4.45q14.61,0,23.06,9.06T557,91.21V99.6H514a15.56,15.56,0,0,0,5.06,9.16,15.05,15.05,0,0,0,10.12,3.33q10.24,0,16-7.18l9.87,11.66a27.46,27.46,0,0,1-11.43,8.87A38.66,38.66,0,0,1,527.74,128.74ZM525.3,73.53q-9.48,0-11.27,12.55h21.78V84.42c.08-3.46-.79-6.14-2.63-8S528.72,73.53,525.3,73.53Z"/><path class="cls-4" d="M594.93,112.09c3,0,5.38-.82,7.05-2.47a9,9,0,0,0,2.43-6.88h20.25a24,24,0,0,1-8.17,18.7q-8.18,7.31-21,7.3-15.12,0-23.83-9.48T562.9,93v-.9a42.26,42.26,0,0,1,3.88-18.54A28.24,28.24,0,0,1,578,61.19a33.34,33.34,0,0,1,17.29-4.32q13.51,0,21.46,7.5t7.95,20.3H604.41q0-5.39-2.62-8.26a9.07,9.07,0,0,0-7-2.88q-8.38,0-9.8,10.69a75.34,75.34,0,0,0-.45,9.36q0,10.44,2.5,14.47C588.66,110.74,591.3,112.09,594.93,112.09Z"/><path class="cls-4" d="M658.93,40.92V58.15h11.4v15h-11.4v31.71c0,2.61.47,4.42,1.41,5.45s2.79,1.53,5.57,1.53a32.31,32.31,0,0,0,5.38-.38v15.44a40.1,40.1,0,0,1-12.17,1.85q-11.14,0-16.46-5.25t-5.32-15.95V73.14H628.5v-15h8.84V40.92Z"/><path class="cls-4" d="M678.66,40.28A9.64,9.64,0,0,1,682,32.72a14.14,14.14,0,0,1,17.29,0,9.65,9.65,0,0,1,3.34,7.56,9.66,9.66,0,0,1-3.34,7.56,14.14,14.14,0,0,1-17.29,0A9.65,9.65,0,0,1,678.66,40.28Zm22.93,87.18H679.94V58.15h21.65Z"/><path class="cls-4" d="M742.52,101.78l11-43.63h22.74l-22.61,69.31h-22L709,58.15h22.8Z"/><path class="cls-4" d="M815.36,128.74q-16,0-25.82-9.51t-9.86-24.76V92.68a42.51,42.51,0,0,1,3.94-18.77,28.82,28.82,0,0,1,11.5-12.59,34.74,34.74,0,0,1,17.93-4.45q14.61,0,23.06,9.06t8.46,25.28V99.6H801.65a15.61,15.61,0,0,0,5.06,9.16,15.07,15.07,0,0,0,10.12,3.33q10.24,0,16-7.18l9.86,11.66a27.46,27.46,0,0,1-11.43,8.87A38.66,38.66,0,0,1,815.36,128.74Zm-2.44-55.21q-9.48,0-11.27,12.55h21.78V84.42c.08-3.46-.79-6.14-2.63-8S816.34,73.53,812.92,73.53Z"/><path class="cls-2" d="M930.76,98q-1.72,14.71-10.86,22.7t-24.3,8q-16.43,0-26.33-11.79t-9.91-31.52V76.51A52.81,52.81,0,0,1,864,53.78a34.46,34.46,0,0,1,13.09-15.06,36.37,36.37,0,0,1,19.61-5.26q14.77,0,23.69,8.25t10.39,22.83h-12.3q-1.59-11.12-6.91-16.1t-14.87-5q-11.71,0-18.37,8.67T871.66,76.8v9q0,15.12,6.3,24t17.64,8.93q10.18,0,15.64-4.62T918.46,98Z"/><path class="cls-2" d="M942.47,92.37a40.73,40.73,0,0,1,4-18.21,29.72,29.72,0,0,1,11.09-12.48,30.13,30.13,0,0,1,16.2-4.4q14.09,0,22.77,9.75T1005.2,93v.82a41.06,41.06,0,0,1-3.85,18.06,29.22,29.22,0,0,1-11,12.45,30.5,30.5,0,0,1-16.46,4.46q-14,0-22.7-9.75t-8.7-25.79Zm11.85,1.4q0,11.48,5.32,18.41a18,18,0,0,0,28.5-.1q5.28-7,5.28-19.71Q993.42,81,988,74a17.11,17.11,0,0,0-14.3-7,16.94,16.94,0,0,0-14.07,6.94Q954.32,80.85,954.32,93.77Z"/><path class="cls-2" d="M1032.78,127.46H1021V29.64h11.78Z"/><path class="cls-2" d="M1064.43,127.46h-11.78V29.64h11.78Z"/><path class="cls-2" d="M1111.88,128.74q-14,0-22.8-9.21t-8.79-24.61V92.75a41.28,41.28,0,0,1,3.92-18.31,30.49,30.49,0,0,1,11-12.6,27.52,27.52,0,0,1,15.25-4.56q13.44,0,20.89,8.85t7.45,25.35v4.9h-46.68q.26,10.2,6,16.47a18.69,18.69,0,0,0,14.48,6.27,20.54,20.54,0,0,0,10.58-2.55,26.46,26.46,0,0,0,7.57-6.75l7.2,5.61Q1129.21,128.73,1111.88,128.74ZM1110.41,67a15.71,15.71,0,0,0-12,5.19q-4.85,5.19-6,14.55H1127v-.89q-.51-9-4.84-13.91T1110.41,67Z"/><path class="cls-2" d="M1180,119.12a17,17,0,0,0,11-3.82,13.45,13.45,0,0,0,5.22-9.55h11.15a21.51,21.51,0,0,1-4.08,11.27,26.83,26.83,0,0,1-10,8.53,28.86,28.86,0,0,1-13.28,3.19q-14.07,0-22.39-9.4t-8.31-25.69v-2a41.34,41.34,0,0,1,3.7-17.89,28.08,28.08,0,0,1,10.6-12.17A30.19,30.19,0,0,1,1180,57.28q11.58,0,19.26,6.94t8.19,18h-11.15a16.27,16.27,0,0,0-5.06-11A15.75,15.75,0,0,0,1180,67q-9,0-13.92,6.47t-4.93,18.69v2.23q0,11.91,4.9,18.34T1180,119.12Z"/><path class="cls-2" d="M1236.64,41.87V58.56h12.86v9.1h-12.86v42.79c0,2.76.57,4.84,1.72,6.22s3.09,2.07,5.86,2.07a28.65,28.65,0,0,0,5.6-.77v9.5a34.5,34.5,0,0,1-9,1.27q-7.9,0-11.91-4.78c-2.68-3.18-4-7.71-4-13.56V67.66h-12.55v-9.1h12.55V41.87Z"/><path class="cls-2" d="M1263.32,40.28a7,7,0,0,1,1.75-4.84,6.57,6.57,0,0,1,5.19-2,6.68,6.68,0,0,1,5.23,2,7,7,0,0,1,1.78,4.84,6.37,6.37,0,0,1-7,6.68,6.68,6.68,0,0,1-5.19-1.91A6.77,6.77,0,0,1,1263.32,40.28Zm12.74,87.18h-11.78V58.56h11.78Z"/><path class="cls-2" d="M1317.64,111.48l17.07-52.92h12L1322,127.46h-9l-25-68.9h12Z"/><path class="cls-2" d="M1385.85,128.74q-14,0-22.8-9.21t-8.79-24.61V92.75a41.41,41.41,0,0,1,3.92-18.31,30.49,30.49,0,0,1,11-12.6,27.55,27.55,0,0,1,15.26-4.56q13.44,0,20.89,8.85t7.45,25.35v4.9h-46.68q.26,10.2,6,16.47a18.72,18.72,0,0,0,14.49,6.27,20.51,20.51,0,0,0,10.57-2.55,26.5,26.5,0,0,0,7.58-6.75l7.2,5.61Q1403.17,128.73,1385.85,128.74ZM1384.39,67a15.73,15.73,0,0,0-12,5.19q-4.83,5.19-6,14.55H1401v-.89q-.51-9-4.84-13.91T1384.39,67Z"/></svg>