<svg version="1.1" id="Ebene_1" xmlns="http://www.w3.org/2000/svg" xmlns:xlink="http://www.w3.org/1999/xlink" x="0px" y="0px"
	 viewBox="0 0 283.5 66.9" enable-background="new 0 0 283.5 66.9" xml:space="preserve">
<g>
	<path fill="#009FE3" d="M43.2,25.7c-2.8-3.6-7-5.5-12.3-5.5c-3.2,0-6.2,0.9-8.7,2.5c-2.5,1.6-4.4,3.9-5.5,6.6h0
		c0.4-2.2,0.7-5.7,0.7-8.5V0.1l0,0C16,0,14.6,0,13.2,0C9.1,0,4.4,0.3,0,0.7l0,0v6l0,0c2.4,0.2,5.3,0.5,7.6,0.9v57.2l0,0
		c5.2,1.3,10,1.9,16,1.9c7.3,0,13.4-2.4,17.5-6.9c4.1-4.4,6.3-10.8,6.3-18.5C47.5,34.6,46.1,29.3,43.2,25.7z M33.7,55.2
		c-2.2,2.6-5.3,3.8-9.3,3.8c-2.9,0-5.2-0.3-7.1-0.9V44.2c0-3.9,1-7.9,2.8-10.8c1.4-2.3,4-5.1,8.2-5.1c3,0,5.2,1.2,6.7,3.6
		c1.5,2.3,2.2,5.8,2.2,10.4C37.3,48,36.1,52.3,33.7,55.2z"/>
	<path fill="#009FE3" d="M105,57.9L105,57.9L105,57.9c-1.9,0.4-3.8,0.6-5.5,0.6c-2.4,0-3.7-0.5-4.6-1.7c-0.9-1.2-1.2-3.2-1.2-6.7
		V28.7h11.7v-7.6H93.6V4.2l-9.7,2.6l0,0v14.2h-8.6v7.6h8.6v24.4c0,5.3,0.8,8.6,2.6,10.6c1.9,2.2,4.9,3.1,9.8,3.1
		c2.9,0,6.6-0.4,9.4-1.1l0,0L105,57.9z"/>
	<path fill="#07262D" d="M144.5,66l-17-23.1v16c2.3,0.2,4.5,0.5,6.2,1.1v6h-23.3v-6c2.2-0.5,4.9-1,7.4-1.2V7.6
		c-2.2-0.4-5.1-0.7-7.7-0.9v-6c5-0.5,11.5-0.9,17.3-0.6v41.4l11.8-13.4c-2-0.2-3.7-0.5-4.9-0.9v-6h22.6v6c-1.8,0.5-4.1,0.8-6.2,1
		l-12.5,13.5l13.3,17c2.1,0.3,4.5,0.6,6.9,1.2v6H144.5z"/>
	<path fill="#07262D" d="M179.3,66.9c-12.4,0-20.5-6.9-20.5-22.6c0-13.7,8.7-24.1,22.3-24.1c12,0,20.5,6.6,20.5,22.5
		C201.6,56.5,192.8,66.9,179.3,66.9z M180.3,28.4c-6,0-11.5,4.5-11.5,15.2c0,9.7,3.9,15.1,11.5,15.1c6.3,0,11.5-4.9,11.5-15.1
		C191.7,33.8,187.8,28.4,180.3,28.4z"/>
	<path fill="#07262D" d="M266.4,66V37.4c0-5.5-1.3-9.1-6.4-9.1c-5.8,0-11.5,6.4-11.5,16.3v14.3c2.3,0.2,4.9,0.5,6.9,1.1v6h-16.5
		V37.4c0-5.1-1-9.1-6.4-9.1c-6.1,0-11.5,6.9-11.5,16.3v14.3c2.3,0.2,4.9,0.5,6.9,1.1v6h-24.4v-6c2.3-0.5,5.1-1,7.8-1.2V28.6
		c-2.2-0.4-5.2-0.7-7.8-0.9v-6c5-0.5,11.6-0.9,17-0.6c0,2.3-0.2,6.1-0.6,8.8l0.1,0.1c2.6-6,8.3-9.8,15.2-9.8
		c8.7,0,11.6,5.7,12.4,9.7c2-4.2,6.9-9.7,15.1-9.7c8.6,0,13.3,4.7,13.3,14.8v23.8c2.6,0.2,5.2,0.6,7.4,1.2v6H266.4z"/>
	<path fill="#009FE3" d="M75.5,60c-2.3-0.6-5-1-7.5-1.2V21.1l0,0C66.7,21,65.3,21,63.8,21c-4.2,0-8.9,0.3-13.2,0.7l0,0v6l0,0
		c2.5,0.2,5.6,0.5,7.8,0.9v30.2c-2.5,0.2-5.3,0.6-7.8,1.2l0,0v6h25L75.5,60L75.5,60z M68.6,11.4V1.6H58.4v10.7L68.6,11.4L68.6,11.4z
		"/>
</g>
</svg>
