<svg width="174" height="80" viewBox="0 0 174 80" xmlns="http://www.w3.org/2000/svg" fill-rule="evenodd" clip-rule="evenodd" stroke-linejoin="round" stroke-miterlimit="2"><g fill-rule="nonzero"><path d="M6.304.009L.142 24.385h5.525c1.139-5.29 2.21-11.619 3.383-16.942l4.352 16.942h5.291l4.252-17.043 3.516 17.043h5.525L25.825.009h-5.424l-4.32 16.675L11.728.009H6.304zm58.687 24.393V4.7h6.533V.076H53.23V4.7h6.433v19.702h5.328zm-16.689 0H37.547v-3.887h2.915V3.929h-2.848V.009h10.622v3.92h-2.748v16.586h2.814v3.887z" fill="#c41239"/><path d="M148.902 78.679h-2.4v-1.737h2.145v-.768h-2.145V74.73h2.4v-.745h-3.249v5.454h3.249v-.76zm-5.316.089h-.662v-4.105h.647v-.678h-2.129v.678h.662v4.105h-.677v.671h2.159v-.671zm-5.226.671v-4.672h1.511v-.76h-3.896v.76h1.513v4.672h.872zm-5.948-4.604l.858 2.452h-1.693l.835-2.452zm-1.549 4.604l.466-1.392h2.204l.49 1.392h.88l-2.032-5.461h-.902l-1.979 5.461h.873zm-3.277-3.852c.015.595-.278 1.03-1.129 1.03h-.707v-1.909h.677c.76-.008 1.151.262 1.159.879zm-1.836 3.852v-2.107h.76l1.384 2.107h.993l-1.557-2.257c.692-.234 1.083-.805 1.076-1.618-.007-1.09-.775-1.594-1.979-1.579-.354 0-.917 0-1.504.008v5.446h.827zm-5.736 0v-1.813l.617-.73 1.7 2.543h1.008l-2.106-3.145 1.888-2.309h-1.053l-2.054 2.49v-2.49h-.842v5.454h.842zm-3.719-2.678c0 1.038-.512 2.038-1.64 2.038-1.121 0-1.632-1-1.632-2.038 0-1.046.451-2.098 1.632-2.098 1.159 0 1.64 1.03 1.64 2.098zm-4.13 0c0 1.542.903 2.79 2.497 2.79 1.587 0 2.483-1.248 2.483-2.79 0-1.519-.797-2.843-2.483-2.843-1.692 0-2.497 1.308-2.497 2.843zm-7.422-2.768l-.39 5.446h.872l.21-3.942 1.506 3.942h.707l1.504-3.934.211 3.934h.887l-.406-5.446h-.947l-1.603 4.235-1.611-4.235h-.94zm-2.246 4.686h-2.399v-1.737h2.144v-.768h-2.144V74.73h2.399v-.745h-3.249v5.454h3.249v-.76zm-8.135-3.971c1.317 0 2.039.698 2.039 2.03 0 1.181-.632 1.994-1.949 1.994-.18 0-.564 0-.647-.008v-4.002c.188-.008.316-.014.557-.014zm-1.399 4.731c.549.007.865.014 1.595.014 1.729 0 2.678-1.128 2.678-2.715 0-1.647-.933-2.76-2.753-2.76-.475 0-1.152.015-1.52.029v5.432zm-4.412-.76h-2.399v-1.737h2.144v-.768h-2.144V74.73h2.399v-.745h-3.249v5.454h3.249v-.76zm-6.497.76v-4.672h1.512v-.76h-3.897v.76h1.512v4.672h.873zm-4.758-1.596c0 .633-.384.896-1.226.896h-.7v-1.797h.767c.828 0 1.159.33 1.159.901zm-.098-2.42c.007.532-.399.826-1.09.826h-.738v-1.557c.293-.007.436-.007.669-.007.715-.008 1.159.157 1.159.738zm-1.015 4.023c1.225 0 1.94-.512 1.94-1.558 0-.623-.339-1.112-.902-1.324.534-.202.774-.699.774-1.18 0-.97-.797-1.421-1.85-1.406l-1.588.015v5.446l1.626.007zm-3.587-.767h-2.399v-1.737h2.145v-.768h-2.145V74.73h2.399v-.745h-3.249v5.454h3.249v-.76zm-5.127.76v-.775h-2.363v-4.679h-.842v5.454h3.205zm-5.166-.76h-2.399v-1.737h2.145v-.768h-2.145V74.73h2.399v-.745h-3.249v5.454h3.249v-.76zm-5.276-2.287h-1.956v.745h1.158v1.534c-.27.068-.526.097-.842.097-1.316 0-1.85-.977-1.85-2.007 0-1.002.496-2.061 1.888-2.061.398 0 .804.045 1.294.172l.195-.743a5.657 5.657 0 00-1.482-.197c-1.828 0-2.753 1.272-2.753 2.829 0 1.564.88 2.752 2.708 2.752.625 0 1.242-.12 1.64-.278v-2.843zm-9.639-.805c.015.595-.278 1.03-1.128 1.03h-.707v-1.909h.676c.76-.008 1.152.262 1.159.879zm-1.835 3.852v-2.107h.759l1.384 2.107h.993l-1.556-2.257c.691-.234 1.083-.805 1.075-1.618-.007-1.09-.775-1.594-1.979-1.579-.353 0-.917 0-1.504.008v5.446h.828zm-4.707-6.417c0 .278.218.504.511.504a.509.509 0 100-1.016.503.503 0 00-.511.512zm-1.722 0a.5.5 0 00.504.504.512.512 0 00.518-.504.514.514 0 00-.518-.512.502.502 0 00-.504.512zm.12.963h-.835v3.475c0 1.383.774 2.062 2.106 2.062 1.324 0 2.016-.662 2.016-2.062v-3.475h-.843v3.385c0 .977-.353 1.406-1.18 1.406-.798 0-1.264-.413-1.264-1.406v-3.385zm-5.09 5.454v-2.452h2.182v-.746h-2.182v-1.496h2.392v-.752h-3.249v5.446h.857zm133.912-14.807l-.391 5.447h.872l.211-3.942 1.505 3.942h.707l1.504-3.935.211 3.935h.888l-.407-5.447h-.947l-1.603 4.236-1.61-4.236h-.94zm-7.932 0l-.391 5.447h.872l.211-3.942 1.505 3.942h.707l1.504-3.935.211 3.935h.888l-.406-5.447h-.948l-1.602 4.236-1.611-4.236h-.94zm-4.368.843l.857 2.452h-1.692l.835-2.452zm-1.55 4.604l.467-1.392h2.204l.489 1.392h.88l-2.031-5.461h-.902l-1.979 5.461h.872zm-3.275-3.852c.014.595-.279 1.03-1.129 1.03h-.707v-1.91h.676c.76-.008 1.152.263 1.16.88zm-1.836 3.852v-2.107h.759l1.384 2.107h.993l-1.556-2.257c.691-.233 1.083-.805 1.075-1.617-.007-1.091-.774-1.595-1.979-1.58-.353 0-.917 0-1.503.007v5.447h.827zm-2.855-3.048h-1.956v.746h1.158v1.534a3.25 3.25 0 01-.841.098c-1.317 0-1.851-.978-1.851-2.008 0-1.001.496-2.062 1.888-2.062.398 0 .804.045 1.294.173l.195-.744a5.694 5.694 0 00-1.481-.196c-1.829 0-2.753 1.271-2.753 2.829 0 1.564.879 2.753 2.708 2.753.624 0 1.241-.12 1.639-.278v-2.845zm-7 .37c0 1.038-.511 2.038-1.64 2.038-1.121 0-1.632-1-1.632-2.038 0-1.046.451-2.099 1.632-2.099 1.159 0 1.64 1.031 1.64 2.099zm-4.13 0c0 1.542.903 2.791 2.497 2.791 1.587 0 2.483-1.249 2.483-2.791 0-1.52-.797-2.844-2.483-2.844-1.692 0-2.497 1.309-2.497 2.844zm-2.839-1.174c.014.595-.279 1.03-1.129 1.03h-.707v-1.91h.676c.76-.008 1.152.263 1.16.88zm-1.836 3.852v-2.107h.759l1.384 2.107h.993l-1.556-2.257c.691-.233 1.083-.805 1.075-1.617-.007-1.091-.775-1.595-1.979-1.58-.353 0-.917 0-1.504.007v5.447h.828zm-3.602-3.777c0 .647-.27 1.038-1.15 1.038h-.715v-1.97c.308-.008.443 0 .677 0 .804 0 1.188.225 1.188.932zm-1.865 3.777V68.07h.744c1.226 0 1.941-.571 1.941-1.79.008-1.166-.767-1.662-2.008-1.655-.324.007-.896 0-1.535.007v5.447h.858zm-3.923-3.852c.015.595-.278 1.03-1.129 1.03h-.707v-1.91h.677c.76-.008 1.151.263 1.159.88zm-1.836 3.852v-2.107h.76l1.384 2.107h.993l-1.557-2.257c.691-.233 1.083-.805 1.075-1.617-.007-1.091-.774-1.595-1.978-1.58-.354 0-.917 0-1.504.007v5.447h.827zm-2.788-.76h-2.4v-1.738h2.145v-.767h-2.145V65.37h2.4v-.745h-3.249v5.454h3.249v-.76zm-8.137-3.972c1.318 0 2.039.7 2.039 2.032 0 1.18-.632 1.993-1.948 1.993-.181 0-.564 0-.647-.008v-4.002c.188-.008.316-.015.556-.015zm-1.398 4.732c.549.008.865.014 1.594.014 1.73 0 2.678-1.128 2.678-2.714 0-1.648-.932-2.761-2.753-2.761-.474 0-1.151.014-1.519.029v5.432zm-3.066-3.852c.015.595-.278 1.03-1.129 1.03h-.707v-1.91h.677c.76-.008 1.152.263 1.159.88zm-1.836 3.852v-2.107h.76l1.384 2.107h.993l-1.557-2.257c.692-.233 1.083-.805 1.076-1.617-.008-1.091-.775-1.595-1.979-1.58-.353 0-.917 0-1.504.007v5.447h.827zm-4.945-6.417c0 .278.218.504.511.504a.509.509 0 100-1.016.503.503 0 00-.511.512zm-1.723 0a.5.5 0 00.504.504.513.513 0 00.519-.504.515.515 0 00-.519-.512.502.502 0 00-.504.512zm2.964 3.739c0 1.038-.511 2.038-1.64 2.038-1.12 0-1.632-1-1.632-2.038 0-1.046.451-2.099 1.632-2.099 1.159 0 1.64 1.031 1.64 2.099zm-4.13 0c0 1.542.903 2.791 2.497 2.791 1.587 0 2.483-1.249 2.483-2.791 0-1.52-.797-2.844-2.483-2.844-1.692 0-2.497 1.309-2.497 2.844zm-4.083 2.678v-2.452h2.182v-.746h-2.182v-1.497h2.392v-.752H89.22v5.447h.857zm-2.976-2.656h-2.603v.579h2.603v-.579zm-4.437 1.896h-2.399v-1.738h2.144v-.767h-2.144V65.37h2.399v-.745h-3.249v5.454h3.249v-.76zm-5.315.09h-.662v-4.107h.646v-.677h-2.129v.677h.662v4.107h-.677v.67h2.16v-.67zm-5.226.67v-4.673h1.512v-.759h-3.897v.759h1.513v4.673h.872zm-4.932-3.852c.015.595-.278 1.03-1.129 1.03h-.707v-1.91h.677c.76-.008 1.151.263 1.159.88zm-1.836 3.852v-2.107h.76l1.384 2.107h.993l-1.557-2.257c.692-.233 1.083-.805 1.076-1.617-.007-1.091-.775-1.595-1.979-1.58-.354 0-.917 0-1.504.007v5.447h.827zm-2.788-.76h-2.399v-1.738h2.144v-.767h-2.144V65.37h2.399v-.745h-3.249v5.454h3.249v-.76zm-5.495.76v-5.454h-.827v2.204h-2.377v-2.204h-.835v5.454h.835v-2.475h2.377v2.475h.827zm-11.881-.181a5.385 5.385 0 001.572.264c1.573 0 1.829-.882 1.835-1.423.008-.819-.534-1.279-1.451-1.76-.594-.315-1.181-.602-1.143-1.03.037-.392.308-.602.849-.602.437.007.873.082 1.355.203l.173-.737a5.965 5.965 0 00-1.52-.233c-1.444-.008-1.7 1.023-1.685 1.451.023.73.511 1.151 1.271 1.535.918.473 1.302.76 1.279 1.166-.015.399-.316.662-.955.662-.354 0-.865-.083-1.369-.226l-.211.73zm-3.849-4.423l.857 2.452h-1.692l.835-2.452zm-1.55 4.604l.467-1.392h2.204l.489 1.392h.88l-2.031-5.461h-.903l-1.978 5.461h.872zm-5.097-4.732c1.317 0 2.039.7 2.039 2.032 0 1.18-.632 1.993-1.948 1.993-.181 0-.565 0-.648-.008v-4.002c.189-.008.317-.015.557-.015zm-1.398 4.732c.548.008.865.014 1.594.014 1.73 0 2.678-1.128 2.678-2.714 0-1.648-.932-2.761-2.753-2.761-.474 0-1.151.014-1.519.029v5.432zm124.352-17.675V36.689l10.957 15.715h4.992V28.011h-4.925v15.815l-11.091-15.815h-4.859v24.393h4.926zm-11.534-4.523h-10.488V41.95h9.415v-4.524h-9.415v-5.025h10.488v-4.39h-15.581v24.393h15.581v-4.523zm-35.567 4.523v-7.606l2.245-2.782 6.735 10.388h6.097l-9.247-13.905 8.444-10.488h-6.4l-7.874 9.784v-9.784h-5.06v24.393h5.06zm-24.494-.029v-8.41h2.949l5.194 8.41h5.896l-6.365-9.415c2.512-1.241 4.288-3.652 4.288-7.304 0-5.094-3.819-7.774-9.449-7.64-1.44.033-4.657 0-7.438.033v24.326h4.925zm2.513-20.137c3.084-.033 4.524 1.206 4.524 3.585 0 2.044-.872 3.987-4.524 3.987h-2.513v-7.572h2.513zM74.626 48.489h-2.814V31.903h2.748v-3.921H63.938v3.921h2.848v16.586h-2.915v3.886h10.755v-3.886zm-27.297 3.886l-4.355-16.686-4.323 16.686h-5.428l-6.165-24.393h5.529l3.518 17.056 4.255-17.056h5.294l4.356 16.955c1.172-5.327 2.245-11.66 3.384-16.955h5.529l-6.165 24.393h-5.429z"/></g></svg>