<svg width="201" height="200" viewBox="0 0 201 200" fill="none" xmlns="http://www.w3.org/2000/svg">
<circle cx="100.5" cy="100" r="100" fill="#140735"/>
<path d="M67.449 109.606V106.841C67.449 105.488 67.729 104.31 68.289 103.306C68.8724 102.28 69.584 101.358 70.424 100.541C71.2874 99.7245 72.1507 98.9545 73.014 98.2312C73.8774 97.4845 74.6124 96.8662 75.219 96.3762C75.8257 95.8862 76.2807 95.4079 76.584 94.9412C76.9107 94.4745 77.0741 93.9145 77.0741 93.2612C77.0741 92.6312 76.8524 92.0362 76.409 91.4762C75.9657 90.8929 75.1374 90.6012 73.924 90.6012C72.8507 90.6012 71.9874 90.8929 71.334 91.4762C70.6807 92.0595 70.179 92.6312 69.829 93.1912L66.749 90.9862C67.1224 90.3562 67.624 89.7379 68.254 89.1312C68.884 88.5012 69.689 87.9762 70.669 87.5562C71.6724 87.1362 72.874 86.9262 74.274 86.9262C75.954 86.9262 77.319 87.2179 78.3691 87.8012C79.4424 88.3845 80.2241 89.1312 80.7141 90.0412C81.2274 90.9279 81.484 91.8729 81.484 92.8762C81.484 93.9262 81.2624 94.8829 80.819 95.7462C80.399 96.5862 79.8507 97.3679 79.1741 98.0912C78.4974 98.7912 77.774 99.4562 77.004 100.086C76.094 100.833 75.2657 101.51 74.519 102.116C73.7957 102.7 73.2124 103.283 72.769 103.866C72.3257 104.45 72.104 105.115 72.104 105.861H81.624V109.606H67.449ZM89.6713 97.3912C88.948 96.9712 88.3063 96.3529 87.7463 95.5362C87.1863 94.6962 86.9063 93.7745 86.9063 92.7712C86.9063 91.6045 87.198 90.5895 87.7813 89.7262C88.3646 88.8395 89.1813 88.1512 90.2313 87.6612C91.2813 87.1712 92.4946 86.9262 93.8713 86.9262C96.158 86.9262 97.8846 87.4629 99.0513 88.5362C100.241 89.5862 100.836 90.9395 100.836 92.5962C100.836 93.6695 100.545 94.6145 99.9613 95.4312C99.378 96.2479 98.713 96.8545 97.9663 97.2512C99.273 97.8112 100.3 98.6162 101.046 99.6662C101.793 100.693 102.166 101.918 102.166 103.341C102.166 104.088 102.015 104.87 101.711 105.686C101.408 106.48 100.918 107.215 100.241 107.891C99.588 108.568 98.7363 109.116 97.6863 109.536C96.6363 109.956 95.3646 110.166 93.8713 110.166C92.3546 110.166 91.0713 109.968 90.0213 109.571C88.9713 109.151 88.1196 108.603 87.4663 107.926C86.813 107.25 86.3346 106.515 86.0313 105.721C85.728 104.928 85.5763 104.158 85.5763 103.411C85.5763 101.988 85.9496 100.763 86.6963 99.7362C87.4663 98.6862 88.458 97.9045 89.6713 97.3912ZM93.8713 95.9212C94.8046 95.6645 95.5513 95.2212 96.1113 94.5912C96.6713 93.9612 96.9513 93.3195 96.9513 92.6662C96.9513 91.8962 96.6596 91.2662 96.0763 90.7762C95.5163 90.2629 94.7813 90.0062 93.8713 90.0062C93.008 90.0062 92.273 90.2629 91.6663 90.7762C91.083 91.2895 90.7913 91.9545 90.7913 92.7712C90.7913 93.3779 91.0713 93.9962 91.6313 94.6262C92.1913 95.2329 92.938 95.6645 93.8713 95.9212ZM93.8013 99.3162C92.728 99.5495 91.783 100.028 90.9663 100.751C90.173 101.451 89.7763 102.303 89.7763 103.306C89.7763 104.123 89.9863 104.788 90.4063 105.301C90.8263 105.815 91.3513 106.188 91.9813 106.421C92.6113 106.655 93.2413 106.771 93.8713 106.771C94.5013 106.771 95.1313 106.655 95.7613 106.421C96.3913 106.188 96.9163 105.815 97.3363 105.301C97.7563 104.788 97.9663 104.123 97.9663 103.306C97.9663 102.63 97.768 102.023 97.3713 101.486C96.9746 100.95 96.4613 100.495 95.8313 100.121C95.2013 99.7245 94.5246 99.4562 93.8013 99.3162ZM110.494 109.606L124.704 87.5562H128.449L114.239 109.606H110.494ZM128.414 109.956C126.804 109.956 125.474 109.431 124.424 108.381C123.374 107.308 122.849 105.721 122.849 103.621C122.849 101.521 123.374 99.9462 124.424 98.8962C125.474 97.8229 126.804 97.2862 128.414 97.2862C130.024 97.2862 131.354 97.8229 132.404 98.8962C133.454 99.9462 133.979 101.521 133.979 103.621C133.979 105.721 133.454 107.308 132.404 108.381C131.354 109.431 130.024 109.956 128.414 109.956ZM128.414 107.191C128.95 107.191 129.44 106.935 129.884 106.421C130.327 105.908 130.549 104.975 130.549 103.621C130.549 102.268 130.327 101.335 129.884 100.821C129.44 100.308 128.95 100.051 128.414 100.051C127.9 100.051 127.41 100.308 126.944 100.821C126.5 101.335 126.279 102.268 126.279 103.621C126.279 104.975 126.5 105.908 126.944 106.421C127.41 106.935 127.9 107.191 128.414 107.191ZM110.739 99.6312C109.129 99.6312 107.799 99.1062 106.749 98.0562C105.699 96.9829 105.174 95.3962 105.174 93.2962C105.174 91.1962 105.699 89.6212 106.749 88.5712C107.799 87.4979 109.129 86.9612 110.739 86.9612C112.349 86.9612 113.679 87.4979 114.729 88.5712C115.779 89.6212 116.304 91.1962 116.304 93.2962C116.304 95.3962 115.779 96.9829 114.729 98.0562C113.679 99.1062 112.349 99.6312 110.739 99.6312ZM110.739 96.8662C111.275 96.8662 111.765 96.6095 112.209 96.0962C112.652 95.5829 112.874 94.6495 112.874 93.2962C112.874 91.9429 112.652 91.0095 112.209 90.4962C111.765 89.9829 111.275 89.7262 110.739 89.7262C110.225 89.7262 109.735 89.9829 109.269 90.4962C108.825 91.0095 108.604 91.9429 108.604 93.2962C108.604 94.6495 108.825 95.5829 109.269 96.0962C109.735 96.6095 110.225 96.8662 110.739 96.8662Z" fill="#FF7268"/>
<path d="M100.499 9.09103C113.881 9.09103 127.098 12.0454 139.206 17.7431C151.315 23.4409 162.016 31.7415 170.546 42.0525C179.076 52.3634 185.224 64.4304 188.552 77.3919C191.88 90.3535 192.305 103.89 189.798 117.035L167.473 112.776C169.354 102.917 169.035 92.7651 166.539 83.044C164.043 73.3228 159.432 64.2726 153.034 56.5394C146.637 48.8062 138.611 42.5807 129.53 38.3074C120.448 34.034 110.536 31.8183 100.499 31.8183L100.499 9.09103Z" fill="#FF7268"/>
</svg>
