<svg width="200" height="200" viewBox="0 0 200 200" fill="none" xmlns="http://www.w3.org/2000/svg">
<circle cx="100" cy="100" r="100" fill="#140735"/>
<path d="M73.669 109.606H69.189C69.5857 108.37 70.0407 107.051 70.554 105.651C71.0907 104.228 71.6507 102.805 72.234 101.381C72.8407 99.9579 73.4357 98.6045 74.019 97.3212C74.6257 96.0379 75.1857 94.8829 75.699 93.8562C76.2357 92.8295 76.6907 92.0245 77.0641 91.4412H67.019V87.5562H81.299V91.2662C80.9257 91.8495 80.4707 92.6779 79.934 93.7512C79.3974 94.8245 78.8257 96.0495 78.219 97.4262C77.6124 98.8029 77.0174 100.226 76.434 101.696C75.8507 103.143 75.314 104.555 74.824 105.931C74.334 107.308 73.949 108.533 73.669 109.606ZM101.071 88.3962L99.2863 91.6512C98.7496 91.3012 98.143 91.0329 97.4663 90.8462C96.813 90.6595 96.1596 90.5662 95.5063 90.5662C94.4096 90.5662 93.4413 90.8812 92.6013 91.5112C91.7613 92.1179 91.108 92.8995 90.6413 93.8562C90.1746 94.8129 89.9413 95.8162 89.9413 96.8662C90.4546 96.5629 91.073 96.2362 91.7963 95.8862C92.5196 95.5129 93.4413 95.3262 94.5613 95.3262C96.5913 95.3262 98.2363 95.9562 99.4963 97.2162C100.78 98.4762 101.421 100.25 101.421 102.536C101.421 103.913 101.13 105.185 100.546 106.351C99.9863 107.518 99.1463 108.463 98.0263 109.186C96.9063 109.886 95.5296 110.236 93.8963 110.236C92.3563 110.236 90.968 109.863 89.7313 109.116C88.518 108.346 87.5496 107.168 86.8263 105.581C86.1263 103.971 85.7763 101.906 85.7763 99.3862C85.7763 96.9362 86.138 94.7779 86.8613 92.9112C87.608 91.0445 88.7046 89.5862 90.1513 88.5362C91.6213 87.4629 93.418 86.9262 95.5413 86.9262C96.848 86.9262 97.9796 87.1129 98.9363 87.4862C99.893 87.8362 100.605 88.1395 101.071 88.3962ZM89.9063 100.191C89.9063 101.825 90.0813 103.12 90.4313 104.076C90.8046 105.01 91.2946 105.675 91.9013 106.071C92.508 106.445 93.173 106.631 93.8963 106.631C94.993 106.631 95.868 106.246 96.5213 105.476C97.198 104.683 97.5363 103.656 97.5363 102.396C97.5363 101.323 97.2213 100.471 96.5913 99.8412C95.9846 99.1879 95.1796 98.8612 94.1763 98.8612C93.1263 98.8612 92.2513 99.0129 91.5513 99.3162C90.8746 99.6195 90.3263 99.9112 89.9063 100.191ZM109.994 109.606L124.204 87.5562H127.949L113.739 109.606H109.994ZM127.914 109.956C126.304 109.956 124.974 109.431 123.924 108.381C122.874 107.308 122.349 105.721 122.349 103.621C122.349 101.521 122.874 99.9462 123.924 98.8962C124.974 97.8229 126.304 97.2862 127.914 97.2862C129.524 97.2862 130.854 97.8229 131.904 98.8962C132.954 99.9462 133.479 101.521 133.479 103.621C133.479 105.721 132.954 107.308 131.904 108.381C130.854 109.431 129.524 109.956 127.914 109.956ZM127.914 107.191C128.45 107.191 128.94 106.935 129.384 106.421C129.827 105.908 130.049 104.975 130.049 103.621C130.049 102.268 129.827 101.335 129.384 100.821C128.94 100.308 128.45 100.051 127.914 100.051C127.4 100.051 126.91 100.308 126.444 100.821C126 101.335 125.779 102.268 125.779 103.621C125.779 104.975 126 105.908 126.444 106.421C126.91 106.935 127.4 107.191 127.914 107.191ZM110.239 99.6312C108.629 99.6312 107.299 99.1062 106.249 98.0562C105.199 96.9829 104.674 95.3962 104.674 93.2962C104.674 91.1962 105.199 89.6212 106.249 88.5712C107.299 87.4979 108.629 86.9612 110.239 86.9612C111.849 86.9612 113.179 87.4979 114.229 88.5712C115.279 89.6212 115.804 91.1962 115.804 93.2962C115.804 95.3962 115.279 96.9829 114.229 98.0562C113.179 99.1062 111.849 99.6312 110.239 99.6312ZM110.239 96.8662C110.775 96.8662 111.265 96.6095 111.709 96.0962C112.152 95.5829 112.374 94.6495 112.374 93.2962C112.374 91.9429 112.152 91.0095 111.709 90.4962C111.265 89.9829 110.775 89.7262 110.239 89.7262C109.725 89.7262 109.235 89.9829 108.769 90.4962C108.325 91.0095 108.104 91.9429 108.104 93.2962C108.104 94.6495 108.325 95.5829 108.769 96.0962C109.235 96.6095 109.725 96.8662 110.239 96.8662Z" fill="#FF7268"/>
<path d="M99.9991 9.09103C118.223 9.09103 136.025 14.5679 151.098 24.811C166.17 35.0541 177.816 49.5905 184.524 66.5342C191.233 83.478 192.694 102.047 188.719 119.831C184.744 137.616 175.515 153.795 162.231 166.27C148.946 178.745 132.22 186.939 114.22 189.79C96.2214 192.641 77.781 190.016 61.2919 182.257C44.8029 174.498 31.0264 161.962 21.7499 146.277C12.4734 130.591 8.12519 112.479 9.26944 94.2919L31.9519 95.7189C31.0937 109.36 34.3548 122.943 41.3122 134.707C48.2695 146.472 58.6019 155.873 70.9687 161.693C83.3355 167.512 97.1658 169.481 110.665 167.342C124.164 165.204 136.71 159.059 146.673 149.703C156.636 140.346 163.557 128.212 166.539 114.874C169.52 101.535 168.424 87.6085 163.393 74.9007C158.362 62.1929 149.627 51.2906 138.323 43.6083C127.019 35.9259 113.667 31.8183 99.9991 31.8183L99.9991 9.09103Z" fill="#FF7268"/>
</svg>
