<svg width="200" height="200" viewBox="0 0 200 200" fill="none" xmlns="http://www.w3.org/2000/svg">
<circle cx="100" cy="100" r="100" fill="#140735"/>
<path d="M70.099 97.3912C69.3757 96.9712 68.734 96.3529 68.174 95.5362C67.614 94.6962 67.334 93.7745 67.334 92.7712C67.334 91.6045 67.6257 90.5895 68.209 89.7262C68.7924 88.8395 69.609 88.1512 70.659 87.6612C71.709 87.1712 72.9224 86.9262 74.299 86.9262C76.5857 86.9262 78.3124 87.4629 79.4791 88.5362C80.6691 89.5862 81.2641 90.9395 81.2641 92.5962C81.2641 93.6695 80.9724 94.6145 80.3891 95.4312C79.8057 96.2479 79.1407 96.8545 78.394 97.2512C79.7007 97.8112 80.7274 98.6162 81.474 99.6662C82.2207 100.693 82.5941 101.918 82.5941 103.341C82.5941 104.088 82.4424 104.87 82.139 105.686C81.8357 106.48 81.3457 107.215 80.669 107.891C80.0157 108.568 79.164 109.116 78.1141 109.536C77.064 109.956 75.7924 110.166 74.299 110.166C72.7824 110.166 71.499 109.968 70.449 109.571C69.399 109.151 68.5474 108.603 67.894 107.926C67.2407 107.25 66.7624 106.515 66.459 105.721C66.1557 104.928 66.004 104.158 66.004 103.411C66.004 101.988 66.3774 100.763 67.124 99.7362C67.894 98.6862 68.8857 97.9045 70.099 97.3912ZM74.299 95.9212C75.2324 95.6645 75.979 95.2212 76.539 94.5912C77.099 93.9612 77.3791 93.3195 77.3791 92.6662C77.3791 91.8962 77.0874 91.2662 76.504 90.7762C75.944 90.2629 75.209 90.0062 74.299 90.0062C73.4357 90.0062 72.7007 90.2629 72.094 90.7762C71.5107 91.2895 71.219 91.9545 71.219 92.7712C71.219 93.3779 71.499 93.9962 72.059 94.6262C72.619 95.2329 73.3657 95.6645 74.299 95.9212ZM74.2291 99.3162C73.1557 99.5495 72.2107 100.028 71.394 100.751C70.6007 101.451 70.204 102.303 70.204 103.306C70.204 104.123 70.414 104.788 70.834 105.301C71.254 105.815 71.779 106.188 72.409 106.421C73.039 106.655 73.669 106.771 74.299 106.771C74.929 106.771 75.559 106.655 76.189 106.421C76.819 106.188 77.344 105.815 77.764 105.301C78.184 104.788 78.394 104.123 78.394 103.306C78.394 102.63 78.1957 102.023 77.799 101.486C77.4024 100.95 76.889 100.495 76.259 100.121C75.629 99.7245 74.9524 99.4562 74.2291 99.3162ZM86.0213 109.606V106.841C86.0213 105.488 86.3013 104.31 86.8613 103.306C87.4446 102.28 88.1563 101.358 88.9963 100.541C89.8596 99.7245 90.723 98.9545 91.5863 98.2312C92.4496 97.4845 93.1846 96.8662 93.7913 96.3762C94.398 95.8862 94.853 95.4079 95.1563 94.9412C95.483 94.4745 95.6463 93.9145 95.6463 93.2612C95.6463 92.6312 95.4246 92.0362 94.9813 91.4762C94.538 90.8929 93.7096 90.6012 92.4963 90.6012C91.423 90.6012 90.5596 90.8929 89.9063 91.4762C89.253 92.0595 88.7513 92.6312 88.4013 93.1912L85.3213 90.9862C85.6946 90.3562 86.1963 89.7379 86.8263 89.1312C87.4563 88.5012 88.2613 87.9762 89.2413 87.5562C90.2446 87.1362 91.4463 86.9262 92.8463 86.9262C94.5263 86.9262 95.8913 87.2179 96.9413 87.8012C98.0146 88.3845 98.7963 89.1312 99.2863 90.0412C99.7996 90.9279 100.056 91.8729 100.056 92.8762C100.056 93.9262 99.8346 94.8829 99.3913 95.7462C98.9713 96.5862 98.423 97.3679 97.7463 98.0912C97.0696 98.7912 96.3463 99.4562 95.5763 100.086C94.6663 100.833 93.838 101.51 93.0913 102.116C92.368 102.7 91.7846 103.283 91.3413 103.866C90.898 104.45 90.6763 105.115 90.6763 105.861H100.196V109.606H86.0213ZM109.994 109.606L124.204 87.5562H127.949L113.739 109.606H109.994ZM127.914 109.956C126.304 109.956 124.974 109.431 123.924 108.381C122.874 107.308 122.349 105.721 122.349 103.621C122.349 101.521 122.874 99.9462 123.924 98.8962C124.974 97.8229 126.304 97.2862 127.914 97.2862C129.524 97.2862 130.854 97.8229 131.904 98.8962C132.954 99.9462 133.479 101.521 133.479 103.621C133.479 105.721 132.954 107.308 131.904 108.381C130.854 109.431 129.524 109.956 127.914 109.956ZM127.914 107.191C128.45 107.191 128.94 106.935 129.384 106.421C129.827 105.908 130.049 104.975 130.049 103.621C130.049 102.268 129.827 101.335 129.384 100.821C128.94 100.308 128.45 100.051 127.914 100.051C127.4 100.051 126.91 100.308 126.444 100.821C126 101.335 125.779 102.268 125.779 103.621C125.779 104.975 126 105.908 126.444 106.421C126.91 106.935 127.4 107.191 127.914 107.191ZM110.239 99.6312C108.629 99.6312 107.299 99.1062 106.249 98.0562C105.199 96.9829 104.674 95.3962 104.674 93.2962C104.674 91.1962 105.199 89.6212 106.249 88.5712C107.299 87.4979 108.629 86.9612 110.239 86.9612C111.849 86.9612 113.179 87.4979 114.229 88.5712C115.279 89.6212 115.804 91.1962 115.804 93.2962C115.804 95.3962 115.279 96.9829 114.229 98.0562C113.179 99.1062 111.849 99.6312 110.239 99.6312ZM110.239 96.8662C110.775 96.8662 111.265 96.6095 111.709 96.0962C112.152 95.5829 112.374 94.6495 112.374 93.2962C112.374 91.9429 112.152 91.0095 111.709 90.4962C111.265 89.9829 110.775 89.7262 110.239 89.7262C109.725 89.7262 109.235 89.9829 108.769 90.4962C108.325 91.0095 108.104 91.9429 108.104 93.2962C108.104 94.6495 108.325 95.5829 108.769 96.0962C109.235 96.6095 109.725 96.8662 110.239 96.8662Z" fill="#FF7268"/>
<path d="M99.9991 9.09103C119.685 9.09103 138.84 15.4814 154.583 27.3015C170.326 39.1216 181.806 55.7326 187.299 74.6373C192.791 93.542 191.998 113.719 185.039 132.134C178.081 150.55 165.332 166.209 148.711 176.757C132.089 187.306 112.492 192.174 92.8665 190.629C73.2408 189.084 54.6468 181.211 39.8799 168.192C25.1129 155.173 14.971 137.713 10.9789 118.435C6.98675 99.158 9.36011 79.1056 17.7422 61.2929L38.3064 70.9697C32.0199 84.3292 30.2398 99.3685 33.2339 113.826C36.2281 128.284 43.8345 141.38 54.9097 151.144C65.9849 160.908 79.9304 166.813 94.6496 167.972C109.369 169.13 124.066 165.479 136.533 157.568C148.999 149.657 158.56 137.912 163.779 124.101C168.998 110.289 169.593 95.1565 165.474 80.978C161.354 66.7995 152.744 54.3412 140.937 45.4762C129.13 36.6111 114.764 31.8183 99.9991 31.8183L99.9991 9.09103Z" fill="#FF7268"/>
</svg>
