<svg width="201" height="200" viewBox="0 0 201 200" fill="none" xmlns="http://www.w3.org/2000/svg">
<circle cx="100.5" cy="100" r="100" fill="#140735"/>
<path d="M70.599 97.3912C69.8757 96.9712 69.234 96.3529 68.674 95.5362C68.114 94.6962 67.834 93.7745 67.834 92.7712C67.834 91.6045 68.1257 90.5895 68.709 89.7262C69.2924 88.8395 70.109 88.1512 71.159 87.6612C72.209 87.1712 73.4224 86.9262 74.799 86.9262C77.0857 86.9262 78.8124 87.4629 79.9791 88.5362C81.1691 89.5862 81.7641 90.9395 81.7641 92.5962C81.7641 93.6695 81.4724 94.6145 80.8891 95.4312C80.3057 96.2479 79.6407 96.8545 78.894 97.2512C80.2007 97.8112 81.2274 98.6162 81.974 99.6662C82.7207 100.693 83.0941 101.918 83.0941 103.341C83.0941 104.088 82.9424 104.87 82.639 105.686C82.3357 106.48 81.8457 107.215 81.169 107.891C80.5157 108.568 79.664 109.116 78.6141 109.536C77.564 109.956 76.2924 110.166 74.799 110.166C73.2824 110.166 71.999 109.968 70.949 109.571C69.899 109.151 69.0474 108.603 68.394 107.926C67.7407 107.25 67.2624 106.515 66.959 105.721C66.6557 104.928 66.504 104.158 66.504 103.411C66.504 101.988 66.8774 100.763 67.624 99.7362C68.394 98.6862 69.3857 97.9045 70.599 97.3912ZM74.799 95.9212C75.7324 95.6645 76.479 95.2212 77.039 94.5912C77.599 93.9612 77.8791 93.3195 77.8791 92.6662C77.8791 91.8962 77.5874 91.2662 77.004 90.7762C76.444 90.2629 75.709 90.0062 74.799 90.0062C73.9357 90.0062 73.2007 90.2629 72.594 90.7762C72.0107 91.2895 71.719 91.9545 71.719 92.7712C71.719 93.3779 71.999 93.9962 72.559 94.6262C73.119 95.2329 73.8657 95.6645 74.799 95.9212ZM74.7291 99.3162C73.6557 99.5495 72.7107 100.028 71.894 100.751C71.1007 101.451 70.704 102.303 70.704 103.306C70.704 104.123 70.914 104.788 71.334 105.301C71.754 105.815 72.279 106.188 72.909 106.421C73.539 106.655 74.169 106.771 74.799 106.771C75.429 106.771 76.059 106.655 76.689 106.421C77.319 106.188 77.844 105.815 78.264 105.301C78.684 104.788 78.894 104.123 78.894 103.306C78.894 102.63 78.6957 102.023 78.299 101.486C77.9024 100.95 77.389 100.495 76.759 100.121C76.129 99.7245 75.4524 99.4562 74.7291 99.3162ZM85.1563 107.716L87.4663 104.741C88.0963 105.301 88.773 105.745 89.4963 106.071C90.243 106.398 91.1646 106.561 92.2613 106.561C93.2646 106.561 94.0696 106.375 94.6763 106.001C95.283 105.605 95.7263 105.091 96.0063 104.461C96.2863 103.831 96.4263 103.166 96.4263 102.466C96.4263 102 96.298 101.475 96.0413 100.891C95.808 100.308 95.3763 99.8062 94.7463 99.3862C94.1163 98.9662 93.218 98.7562 92.0513 98.7562C91.258 98.7562 90.628 98.8379 90.1613 99.0012C89.6946 99.1412 89.263 99.2812 88.8663 99.4212L86.7663 97.8112L88.9713 87.5912H100.416V91.4412H91.9463L91.0713 95.6762C91.2346 95.6062 91.5146 95.5362 91.9113 95.4662C92.308 95.3962 92.7863 95.3612 93.3463 95.3612C94.793 95.3612 96.0646 95.6529 97.1613 96.2362C98.258 96.7962 99.1213 97.5895 99.7513 98.6162C100.381 99.6429 100.696 100.868 100.696 102.291C100.696 103.668 100.416 104.963 99.8563 106.176C99.2963 107.39 98.3746 108.37 97.0913 109.116C95.8313 109.863 94.1396 110.236 92.0163 110.236C90.453 110.236 89.123 110.003 88.0263 109.536C86.9296 109.046 85.973 108.44 85.1563 107.716ZM110.494 109.606L124.704 87.5562H128.449L114.239 109.606H110.494ZM128.414 109.956C126.804 109.956 125.474 109.431 124.424 108.381C123.374 107.308 122.849 105.721 122.849 103.621C122.849 101.521 123.374 99.9462 124.424 98.8962C125.474 97.8229 126.804 97.2862 128.414 97.2862C130.024 97.2862 131.354 97.8229 132.404 98.8962C133.454 99.9462 133.979 101.521 133.979 103.621C133.979 105.721 133.454 107.308 132.404 108.381C131.354 109.431 130.024 109.956 128.414 109.956ZM128.414 107.191C128.95 107.191 129.44 106.935 129.884 106.421C130.327 105.908 130.549 104.975 130.549 103.621C130.549 102.268 130.327 101.335 129.884 100.821C129.44 100.308 128.95 100.051 128.414 100.051C127.9 100.051 127.41 100.308 126.944 100.821C126.5 101.335 126.279 102.268 126.279 103.621C126.279 104.975 126.5 105.908 126.944 106.421C127.41 106.935 127.9 107.191 128.414 107.191ZM110.739 99.6312C109.129 99.6312 107.799 99.1062 106.749 98.0562C105.699 96.9829 105.174 95.3962 105.174 93.2962C105.174 91.1962 105.699 89.6212 106.749 88.5712C107.799 87.4979 109.129 86.9612 110.739 86.9612C112.349 86.9612 113.679 87.4979 114.729 88.5712C115.779 89.6212 116.304 91.1962 116.304 93.2962C116.304 95.3962 115.779 96.9829 114.729 98.0562C113.679 99.1062 112.349 99.6312 110.739 99.6312ZM110.739 96.8662C111.275 96.8662 111.765 96.6095 112.209 96.0962C112.652 95.5829 112.874 94.6495 112.874 93.2962C112.874 91.9429 112.652 91.0095 112.209 90.4962C111.765 89.9829 111.275 89.7262 110.739 89.7262C110.225 89.7262 109.735 89.9829 109.269 90.4962C108.825 91.0095 108.604 91.9429 108.604 93.2962C108.604 94.6495 108.825 95.5829 109.269 96.0962C109.735 96.6095 110.225 96.8662 110.739 96.8662Z" fill="#FF7268"/>
<path d="M100.499 9.09103C120.919 9.09103 140.744 15.9658 156.78 28.6077C172.816 41.2495 184.129 58.9221 188.896 78.7778C193.663 98.6335 191.607 119.516 183.058 138.06C174.509 156.604 159.965 171.73 141.771 181.001C123.577 190.271 102.791 193.146 82.7637 189.162C62.7361 185.179 44.633 174.568 31.3713 159.041C18.1097 143.513 10.4618 123.973 9.66014 103.569C8.85846 83.165 14.9496 63.0852 26.9521 46.5651L45.3389 59.9239C36.337 72.3139 31.7686 87.3738 32.3699 102.677C32.9711 117.98 38.707 132.635 48.6533 144.281C58.5995 155.926 72.1769 163.884 87.1975 166.872C102.218 169.86 117.807 167.703 131.453 160.751C145.099 153.798 156.006 142.453 162.418 128.545C168.83 114.637 170.372 98.9752 166.797 84.0834C163.222 69.1916 154.737 55.9371 142.71 46.4558C130.683 36.9744 115.814 31.8183 100.499 31.8183L100.499 9.09103Z" fill="#FF7268"/>
</svg>
