<svg xmlns="http://www.w3.org/2000/svg" width="314.042" height="226.764" viewBox="0 0 314.042 226.764">
  <g id="undraw_searching_p5ux" transform="translate(0)">
    <rect id="Rechteck_19" data-name="Rechteck 19" width="2.795" height="110.421" transform="translate(272.694 110.455)" fill="#0daf00"/>
    <path id="Pfad_124" data-name="Pfad 124" d="M969.9,313.548c.178,38.612-26.987,70.039-26.987,70.039s-27.454-31.175-27.632-69.787,26.987-70.039,26.987-70.039S969.726,274.936,969.9,313.548Z" transform="translate(-668.616 -189.021)" fill="#0daf00"/>
    <rect id="Rechteck_20" data-name="Rechteck 20" width="1.438" height="56.792" transform="translate(218.157 162.41)" fill="#0daf00"/>
    <path id="Pfad_125" data-name="Pfad 125" d="M796.026,557.542c.091,19.859-13.88,36.023-13.88,36.023s-14.12-16.034-14.212-35.893,13.88-36.023,13.88-36.023S795.935,537.683,796.026,557.542Z" transform="translate(-563.162 -387.894)" fill="#0daf00"/>
    <ellipse id="Ellipse_11" data-name="Ellipse 11" cx="38.954" cy="5.971" rx="38.954" ry="5.971" transform="translate(208.98 214.822)" fill="#0daf00"/>
    <path id="Pfad_126" data-name="Pfad 126" d="M866.937,323.581c-3.3-5.576-9.83-5.836-9.83-5.836s-6.362-.814-10.444,7.679c-3.8,7.916-9.055,15.559-.845,17.413l1.483-4.615.918,4.959a32.121,32.121,0,0,0,3.512.06c8.792-.284,17.164.083,16.895-3.072C868.268,335.975,870.112,328.947,866.937,323.581Z" transform="translate(-615.789 -241.953)" fill="#2f2e41"/>
    <path id="Pfad_127" data-name="Pfad 127" d="M889.234,369.533s4.265,5.971,1.706,10.8,5.971,9.952,5.971,9.952l6.255-13.648s-7.393-4.834-5.4-9.383Z" transform="translate(-649.972 -277.403)" fill="#fbbebe"/>
    <circle id="Ellipse_12" data-name="Ellipse 12" cx="7.393" cy="7.393" r="7.393" transform="translate(234.712 79.903)" fill="#fbbebe"/>
    <path id="Pfad_128" data-name="Pfad 128" d="M809.255,348.248l6.178-7.971s2.175-8.355,5.326-7.932-1.244,10.02-1.244,10.02l-6.139,8.823Z" transform="translate(-592.734 -252.405)" fill="#fbbebe"/>
    <path id="Pfad_129" data-name="Pfad 129" d="M871.469,707.868l1.99,10.521,4.265,1.137-1.137-12.511Z" transform="translate(-623.677 -505.983)" fill="#fbbebe"/>
    <path id="Pfad_130" data-name="Pfad 130" d="M1022.47,664.29l7.677,10.521,3.128,1.422,2.559-4.265-7.677-9.952Z" transform="translate(-731.742 -473.779)" fill="#fbbebe"/>
    <path id="Pfad_131" data-name="Pfad 131" d="M875.649,403.632l-4.743-6.244s-9.19,1.694-10.043,2.547,2.275,16.492,2.275,16.492.569,4.265,3.128,6.54l2.559,1.706,21.041-4.265.791-9.362a24.57,24.57,0,0,0-6.478-18.787h0l-3.661.5Z" transform="translate(-629.563 -295.294)" fill="#575a89"/>
    <path id="Pfad_132" data-name="Pfad 132" d="M812.987,389.769l-1.422-.569-6.54-.569s-2.275-.569-1.706-1.706,1.137-1.422,0-1.706-1.422-.569-1.137-1.422a11.316,11.316,0,0,1,1.99-2.559l-4.834-3.981s-.262.185-.685.527c-2.4,1.943-9.994,8.954-4.434,15.964,6.54,8.246,14.217,13.08,20.472,11.374Z" transform="translate(-580.549 -284.559)" fill="#575a89"/>
    <path id="Pfad_133" data-name="Pfad 133" d="M882.5,494.1v3.981s-2.559,4.834-1.706,9.383,1.137,6.824,1.137,6.824a38.821,38.821,0,0,0,1.99,11.374c1.99,5.687-4.549,42.935,3.7,43.5s12.8,1.137,15.354-1.706-4.265-51.75-4.265-51.75,23.316,48.622,28.149,46.632,17.06-6.54,15.639-9.1-37.248-59.427-37.248-59.427l-1.137-2.559Z" transform="translate(-643.809 -366.145)" fill="#707070"/>
    <path id="Pfad_134" data-name="Pfad 134" d="M917.269,791.2s-4.549-.284-4.549,1.137-2.275,6.255-2.275,6.255-1.706,5.687,2.843,5.118,7.393-5.687,7.393-5.687l-1.137-5.4Z" transform="translate(-664.928 -580.785)" fill="#2f2e41"/>
    <path id="Pfad_135" data-name="Pfad 135" d="M1092.89,749.066s-3.981-2.559-3.7-.853.569,6.255,2.559,6.54,7.961,1.99,8.246,2.559,7.108,2.843,7.108-.853-4.265-6.54-4.265-6.54l-4.834-3.7s-3.128-.284-3.7,1.706S1092.89,749.066,1092.89,749.066Z" transform="translate(-793.065 -548.603)" fill="#2f2e41"/>
    <circle id="Ellipse_13" data-name="Ellipse 13" cx="4.721" cy="4.721" r="4.721" transform="translate(237.395 71.099)" fill="#2f2e41"/>
    <path id="Pfad_136" data-name="Pfad 136" d="M878.42,301.645a4.721,4.721,0,0,1,4.224-4.695,4.775,4.775,0,0,0-.5-.027,4.721,4.721,0,0,0,0,9.442,4.775,4.775,0,0,0,.5-.027A4.721,4.721,0,0,1,878.42,301.645Z" transform="translate(-641.522 -227.067)" fill="#2f2e41"/>
    <path id="Pfad_137" data-name="Pfad 137" d="M834.84,276.686l-6.451-3.379-8.908,1.382-1.843,8.14,4.588-.177,1.282-2.99V282.6l2.117-.081,1.229-4.761.768,5.068,7.526-.154Z" transform="translate(-585.152 -195.595)" fill="#2f2e41"/>
    <path id="Pfad_138" data-name="Pfad 138" d="M879.29,490.7l-9.948.269s-8.489,1.652-8.012-1.774,8.757-2.228,8.757-2.228l9.065-1.383Z" transform="translate(-629.988 -362.082)" fill="#fbbebe"/>
    <path id="Pfad_139" data-name="Pfad 139" d="M925.648,390.5a2.123,2.123,0,0,1,2.342,1.458c1.948,6.137,7.947,26.675,1.986,29.492-7.021,3.319-12.145,3.173-12.145,3.173l-2.743-6.752,2.5-2.343,2.665-17.139,1.277-7.265Z" transform="translate(-668.475 -294.02)" fill="#575a89"/>
    <path id="Pfad_140" data-name="Pfad 140" d="M870.058,379.515l-1.137,11.374-9.952,4.265,11.089-2.559Z" transform="translate(-614.731 -271.604)" opacity="0.4"/>
    <path id="Pfad_141" data-name="Pfad 141" d="M746.338,298.7h0a13.319,13.319,0,0,1,7.777,5.65l.93,1.44.047.06,16.317,4.774a1.189,1.189,0,0,1,.813,1.454l-1.267,4.645a1.189,1.189,0,0,1-1.468.832L753.167,313h0l-1.639.62a14.648,14.648,0,0,1-9.418.32h0Z" transform="translate(-544.681 -228.342)" fill="#3f3d56"/>
    <ellipse id="Ellipse_14" data-name="Ellipse 14" cx="0.996" cy="1.868" rx="0.996" ry="1.868" transform="translate(214.974 83.739) rotate(-73.69)" fill="#575a89"/>
    <circle id="Ellipse_15" data-name="Ellipse 15" cx="0.685" cy="0.685" r="0.685" transform="translate(217.322 82.95)" fill="#3f3d56"/>
    <path id="Pfad_1634" data-name="Pfad 1634" d="M7.987,0c4.411,0,7.987,1.617,7.987,3.612S12.4,7.224,7.987,7.224,0,5.607,0,3.612,3.576,0,7.987,0Z" transform="matrix(0.308, -0.951, 0.951, 0.308, 193.686, 84.531)" fill="#fff"/>
    <path id="Pfad_142" data-name="Pfad 142" d="M745.915,307.4c1.311-4.043.954-7.811-.771-8.631a1.678,1.678,0,0,1,.306.068c1.9.615,2.333,4.516.972,8.712s-4,7.1-5.9,6.484a1.661,1.661,0,0,1-.2-.081C742.188,314.189,744.626,311.375,745.915,307.4Z" transform="translate(-543.401 -228.388)" opacity="0.4"/>
    <path id="Pfad_143" data-name="Pfad 143" d="M249.637,121.621,212.605,92.9a245.079,245.079,0,0,1-18.828-16.317c-10.556-10.062-24.886-18.107-41.571-22.39-40.536-10.406-72.648,8.045-87.254,35.138-22.319,41.4-39.424,108.583,59.539,72.822,21.643-7.821,43.551-8.652,60.162-12.772l60.149-12.4Z" transform="translate(-47.766 -51.242)" fill="#a898ff"/>
    <circle id="Ellipse_17" data-name="Ellipse 17" cx="1.99" cy="1.99" r="1.99" transform="translate(88.705 18.06)" fill="#f2f2f2"/>
    <path id="Pfad_144" data-name="Pfad 144" d="M452.086,85.391h-.518v-.518h-.1v.518h-.518v.1h.518v.518h.1v-.518h.518Z" transform="translate(-322.727 -60.74)" fill="#f2f2f2"/>
    <path id="Pfad_145" data-name="Pfad 145" d="M635.086,237.391h-.518v-.518h-.1v.518h-.518v.1h.518v.518h.1v-.518h.518Z" transform="translate(-453.693 -169.521)" fill="#f2f2f2"/>
    <path id="Pfad_146" data-name="Pfad 146" d="M622.086,284.391h-.518v-.518h-.1v.518h-.518v.1h.518v.518h.1v-.518h.518Z" transform="translate(-444.389 -203.157)" fill="#f2f2f2"/>
    <path id="Pfad_147" data-name="Pfad 147" d="M63.086,324.391h-.518v-.518h-.1v.518h-.518v.1h.518v.518h.1v-.518h.518Z" transform="translate(-44.335 -231.783)" fill="#f2f2f2"/>
    <path id="Pfad_148" data-name="Pfad 148" d="M143.086,106.391h-.518v-.518h-.1v.518h-.518v.1h.518v.518h.1v-.518h.518Z" transform="translate(-101.588 -75.769)" fill="#f2f2f2"/>
    <path id="Pfad_149" data-name="Pfad 149" d="M454.086,292.391h-.518v-.518h-.1v.518h-.518v.1h.518v.518h.1v-.518h.518Z" transform="translate(-324.158 -208.882)" fill="#f2f2f2"/>
    <path id="Pfad_150" data-name="Pfad 150" d="M263.086,42.391h-.518v-.518h-.1v.518h-.518v.1h.518v.518h.1v-.518h.518Z" transform="translate(-187.467 -29.967)" fill="#f2f2f2"/>
    <path id="Pfad_151" data-name="Pfad 151" d="M312.79,238.915l-.645.1c.2,1.291.361,2.61.478,3.915l.651-.057C313.157,241.551,313,240.22,312.79,238.915Z" transform="translate(-236.972 -185.552)" fill="#e6e6e6"/>
    <path id="Pfad_152" data-name="Pfad 152" d="M306.631,211.575l-.626.19c.378,1.251.717,2.533,1,3.81l.64-.145C307.356,214.14,307.012,212.843,306.631,211.575Z" transform="translate(-232.578 -165.986)" fill="#e6e6e6"/>
    <path id="Pfad_153" data-name="Pfad 153" d="M296.8,185.355l-.594.273c.546,1.191,1.058,2.414,1.521,3.637l.611-.23C297.868,187.8,297.354,186.558,296.8,185.355Z" transform="translate(-225.564 -147.222)" fill="#e6e6e6"/>
    <path id="Pfad_154" data-name="Pfad 154" d="M283.507,160.775l-.552.35c.7,1.1,1.376,2.246,2,3.392l.574-.313C284.9,163.044,284.217,161.89,283.507,160.775Z" transform="translate(-216.082 -129.631)" fill="#e6e6e6"/>
    <path id="Pfad_155" data-name="Pfad 155" d="M266.983,138.245l-.5.424c.847,1,1.672,2.036,2.451,3.088l.523-.39C268.674,140.3,267.841,139.252,266.983,138.245Z" transform="translate(-204.295 -113.507)" fill="#e6e6e6"/>
    <path id="Pfad_156" data-name="Pfad 156" d="M247.56,118.185l-.435.486c.978.873,1.936,1.791,2.849,2.727l.469-.458C249.519,119.993,248.55,119.066,247.56,118.185Z" transform="translate(-190.44 -99.151)" fill="#e6e6e6"/>
    <path id="Pfad_157" data-name="Pfad 157" d="M225.612,100.965l-.367.54c1.086.731,2.161,1.51,3.193,2.315l.4-.515C227.8,102.492,226.709,101.7,225.612,100.965Z" transform="translate(-174.781 -86.827)" fill="#e6e6e6"/>
    <path id="Pfad_158" data-name="Pfad 158" d="M206.4,89.006v.739c.68.355,1.353.728,2.013,1.109l.327-.566Q207.594,89.622,206.4,89.006Z" transform="translate(-161.298 -78.268)" fill="#e6e6e6"/>
    <path id="Pfad_159" data-name="Pfad 159" d="M314.57,267.191l.654-.012c.012.66.013,1.323,0,1.972l-.654-.01C314.583,268.5,314.582,267.844,314.57,267.191Z" transform="translate(-238.707 -205.78)" fill="#e6e6e6"/>
    <path id="Pfad_160" data-name="Pfad 160" d="M177.79,435.915l-.645.1c.2,1.291.361,2.61.478,3.915l.651-.057C178.157,438.551,178,437.22,177.79,435.915Z" transform="translate(-140.358 -326.538)" fill="#e6e6e6"/>
    <path id="Pfad_161" data-name="Pfad 161" d="M171.631,408.575l-.626.191c.378,1.251.717,2.533,1,3.81l.64-.145C172.356,411.14,172.012,409.843,171.631,408.575Z" transform="translate(-135.964 -306.972)" fill="#e6e6e6"/>
    <path id="Pfad_162" data-name="Pfad 162" d="M161.8,382.355l-.594.273c.546,1.191,1.058,2.414,1.521,3.637l.611-.23C162.868,384.8,162.354,383.558,161.8,382.355Z" transform="translate(-128.95 -288.207)" fill="#e6e6e6"/>
    <path id="Pfad_163" data-name="Pfad 163" d="M148.507,357.775l-.552.35c.7,1.1,1.376,2.246,2,3.392l.574-.313C149.9,360.044,149.217,358.89,148.507,357.775Z" transform="translate(-119.468 -270.616)" fill="#e6e6e6"/>
    <path id="Pfad_164" data-name="Pfad 164" d="M131.983,335.245l-.5.424c.847,1,1.672,2.036,2.451,3.088l.523-.39C133.674,337.3,132.841,336.252,131.983,335.245Z" transform="translate(-107.681 -254.492)" fill="#e6e6e6"/>
    <path id="Pfad_165" data-name="Pfad 165" d="M112.56,315.185l-.435.486c.978.873,1.936,1.791,2.849,2.727l.469-.458C114.519,316.993,113.55,316.066,112.56,315.185Z" transform="translate(-93.825 -240.136)" fill="#e6e6e6"/>
    <path id="Pfad_166" data-name="Pfad 166" d="M90.612,297.965l-.367.54c1.086.731,2.161,1.51,3.193,2.315l.4-.515C92.8,299.492,91.709,298.7,90.612,297.965Z" transform="translate(-78.167 -227.812)" fill="#e6e6e6"/>
    <path id="Pfad_167" data-name="Pfad 167" d="M71.4,286.005v.739c.68.355,1.353.728,2.013,1.109l.327-.566Q72.593,286.622,71.4,286.005Z" transform="translate(-64.684 -219.253)" fill="#e6e6e6"/>
    <path id="Pfad_168" data-name="Pfad 168" d="M179.57,464.191l.654-.012c.012.66.013,1.323,0,1.972l-.654-.01C179.583,465.5,179.582,464.844,179.57,464.191Z" transform="translate(-142.093 -346.765)" fill="#e6e6e6"/>
    <path id="Pfad_169" data-name="Pfad 169" d="M639.79,336.915l-.645.1c.2,1.291.361,2.61.478,3.915l.651-.057C640.157,339.551,640,338.22,639.79,336.915Z" transform="translate(-470.993 -255.687)" fill="#e6e6e6"/>
    <path id="Pfad_170" data-name="Pfad 170" d="M633.631,309.575l-.626.191c.378,1.251.717,2.533,1,3.81l.64-.145C634.356,312.14,634.012,310.843,633.631,309.575Z" transform="translate(-466.599 -236.121)" fill="#e6e6e6"/>
    <path id="Pfad_171" data-name="Pfad 171" d="M623.8,283.355l-.594.273c.546,1.191,1.058,2.414,1.521,3.637l.611-.23C624.868,285.8,624.354,284.558,623.8,283.355Z" transform="translate(-459.586 -217.356)" fill="#e6e6e6"/>
    <path id="Pfad_172" data-name="Pfad 172" d="M610.507,258.775l-.552.35c.7,1.1,1.376,2.246,2,3.392l.574-.313C611.9,261.044,611.217,259.89,610.507,258.775Z" transform="translate(-450.103 -199.765)" fill="#e6e6e6"/>
    <path id="Pfad_173" data-name="Pfad 173" d="M593.983,236.245l-.5.424c.847,1,1.672,2.036,2.451,3.088l.523-.39C595.674,238.3,594.841,237.252,593.983,236.245Z" transform="translate(-438.316 -183.642)" fill="#e6e6e6"/>
    <path id="Pfad_174" data-name="Pfad 174" d="M574.56,216.185l-.435.486c.978.873,1.936,1.791,2.849,2.727l.469-.458C576.519,217.993,575.55,217.066,574.56,216.185Z" transform="translate(-424.461 -169.285)" fill="#e6e6e6"/>
    <path id="Pfad_175" data-name="Pfad 175" d="M552.612,198.965l-.367.54c1.086.731,2.161,1.51,3.193,2.315l.4-.515C554.8,200.492,553.709,199.7,552.612,198.965Z" transform="translate(-408.802 -156.962)" fill="#e6e6e6"/>
    <path id="Pfad_176" data-name="Pfad 176" d="M533.405,187.005v.739c.68.355,1.353.728,2.013,1.109l.327-.566Q534.594,187.622,533.405,187.005Z" transform="translate(-395.319 -148.402)" fill="#e6e6e6"/>
    <path id="Pfad_177" data-name="Pfad 177" d="M641.57,365.191l.654-.012c.012.66.013,1.323,0,1.972l-.654-.01C641.583,366.5,641.582,365.844,641.57,365.191Z" transform="translate(-472.729 -275.915)" fill="#e6e6e6"/>
    <path id="Pfad_178" data-name="Pfad 178" d="M146.631,198.681h-.482V198.2h-.094v.482h-.482v.094h.482v.482h.094v-.482h.482Z" transform="translate(-104.181 -141.843)" fill="#f2f2f2"/>
    <path id="Pfad_179" data-name="Pfad 179" d="M127.09,301.038h-.482v-.482h-.094v.482h-.482v.094h.482v.482h.094v-.482h.482Z" transform="translate(-90.196 -215.096)" fill="#f2f2f2"/>
    <path id="Pfad_180" data-name="Pfad 180" d="M69.753,390.746h-.482v-.482h-.094v.482h-.482v.094h.482v.482h.094v-.482h.482Z" transform="translate(-49.163 -279.297)" fill="#f2f2f2"/>
    <path id="Pfad_181" data-name="Pfad 181" d="M264.654,192.474a34.92,34.92,0,1,1,16.2,13.009,11.3,11.3,0,1,1-16.2-13.009Z" transform="translate(-198.711 -113.376)" fill="#3f3d56"/>
    <path id="Pfad_182" data-name="Pfad 182" d="M348.431,190.679c8.005,0,13.513,4.44,13.513,10.823,0,4.227-2.049,7.151-6,9.478-3.714,2.156-4.974,3.736-4.974,6.468h0a1.686,1.686,0,0,1-1.686,1.686h-4.093a1.686,1.686,0,0,1-1.685-1.628l-.007-.208c-.363-4.4,1.174-7.13,5.038-9.393,3.608-2.156,5.123-3.522,5.123-6.169s-2.562-4.59-5.742-4.59a5.47,5.47,0,0,0-5.208,3.1,3.768,3.768,0,0,1-3.444,2.153h0a3.7,3.7,0,0,1-3.308-5.4C338.01,193.122,342.338,190.679,348.431,190.679Zm-5.615,36.59a4.583,4.583,0,1,1,4.568,4.4A4.471,4.471,0,0,1,342.817,227.269Z" transform="translate(-253.71 -151.032)" fill="#fff"/>
  </g>
</svg>
