<svg xmlns="http://www.w3.org/2000/svg" width="144.663" height="216.595" viewBox="0 0 144.663 216.595">
  <path id="Pfad_1607" data-name="Pfad 1607" d="M928.905,571.25l13.515-1.532a43.886,43.886,0,0,0,3.769-20.776c-7.346,10.358-22.888,10.192-33.216,17.581a26.4,26.4,0,0,0-10.846,20.146l-4.463,8.552a44.233,44.233,0,0,0,35.122-11.753,42.724,42.724,0,0,0,6.742-8.333C934.211,573.524,928.905,571.25,928.905,571.25Z" transform="translate(-820.361 -448.654)" fill="#f2f2f2"/>
  <path id="Pfad_1608" data-name="Pfad 1608" d="M920.216,526.958l11.413-7.4a43.886,43.886,0,0,0-5.892-20.277c-1.956,12.547-15.94,19.33-21.889,30.549a26.4,26.4,0,0,0-.723,22.869l-.18,9.645a44.233,44.233,0,0,0,26.194-26.183,42.727,42.727,0,0,0,2.318-10.465C925.98,526.627,920.216,526.958,920.216,526.958Z" transform="translate(-821.963 -423.824)" fill="#f2f2f2"/>
  <ellipse id="Ellipse_448" data-name="Ellipse 448" cx="40.955" cy="40.954" rx="40.955" ry="40.954" transform="translate(7.752 111.772)" fill="#fff"/>
  <path id="Pfad_1609" data-name="Pfad 1609" d="M799.018,653.821a41.454,41.454,0,1,1,41.455-41.454A41.454,41.454,0,0,1,799.018,653.821Zm0-81.909a40.454,40.454,0,1,0,40.455,40.454,40.454,40.454,0,0,0-40.455-40.454Z" transform="translate(-750.31 -459.64)" fill="#3f3d56"/>
  <path id="Pfad_1610" data-name="Pfad 1610" d="M822.134,652.862c-.087,0-.175,0-.262-.007a5.356,5.356,0,0,1-3.97-2.063l-6.844-8.8a5.358,5.358,0,0,1,.939-7.52l.246-.192a5.357,5.357,0,0,1,7.521.94,3.908,3.908,0,0,0,5.919.288l13.9-14.671a5.366,5.366,0,0,1,7.576-.206l.228.217a5.357,5.357,0,0,1,.2,7.575l-21.565,22.763a5.353,5.353,0,0,1-3.889,1.674Z" transform="translate(-776.492 -483.768)" fill="#5f38fa"/>
  <path id="Pfad_1611" data-name="Pfad 1611" d="M618.943,617.715l-5.68.632-5.382-22.036,8.383-.934Z" transform="translate(-591.66 -412.65)" fill="#a0616a"/>
  <path id="Pfad_1612" data-name="Pfad 1612" d="M811.685,549.782c-.176-.176-.368-.347-.558-.509a51.823,51.823,0,0,0-4.588-3.4c-1.8-1.2-3.825-2.423-6.115-3.687q-1.663-.918-3.515-1.875-.928-.479-1.909-.966a.944.944,0,0,0-.086-.045l-.189-.1-13.784,11.378-.979.769,2.539,3.131s-.221,2.489-.216,2.491l-2.521,6.29-.028.013-8.98,4.1L761.5,571.6l-4.97,2.27a9.548,9.548,0,0,0-5.011,5.414,9.927,9.927,0,0,0,.327,7.667c.111.243.236.487.369.721l2.065,12.986a78.164,78.164,0,0,0,7.116,22.355l3.154,12.156.479-.241,7.134-3.574,1.885-.942.356-8.168c.04-.931.046-1.867.013-2.8a36,36,0,0,0-.438-4.564l-4.091-25.47q1.089-.444,2.148-.892,4.911-2.055,9.3-4.154a118.877,118.877,0,0,0,23.6-14.379q2.669-2.151,5.007-4.4.859-.823,1.673-1.662c.129-.13.255-.257.379-.388a9.664,9.664,0,0,0,2.4-8.936A9.86,9.86,0,0,0,811.685,549.782Z" transform="translate(-746.98 -443.787)" fill="#2f2e41"/>
  <path id="Pfad_1613" data-name="Pfad 1613" d="M782.37,750.616l-6.148.68-.965.106.628,3.651-7.145,6.98a2.315,2.315,0,0,0,2.007,3.939l10.147-1.738,1.129-3.911,1.3,3.494,3.822-.654-3.281-12.71Z" transform="translate(-755.549 -549.409)" fill="#2f2e41"/>
  <path id="Pfad_1614" data-name="Pfad 1614" d="M796.583,466.88l5.265-5.583-7.427-16.249-1.1-5.707a4.315,4.315,0,0,0-7.045-2.456h0a4.315,4.315,0,0,0-.561,5.972l4.1,5.126Z" transform="translate(-763.91 -392.106)" fill="#a0616a"/>
  <path id="Pfad_1615" data-name="Pfad 1615" d="M812.931,464.072l-6,6,1.148,8.773a6.976,6.976,0,0,0,5.03,4.666h0a6.977,6.977,0,0,0,7.6-3.2l13.5-23.132a7.121,7.121,0,0,0-2.3-9.68h0a7.121,7.121,0,0,0-10.2,2.875l-8.237,17.552Z" transform="translate(-774.994 -397.381)" fill="#e6e6e6"/>
  <path id="Pfad_1616" data-name="Pfad 1616" d="M789.742,640.21c-.31.316-.621.627-.936.94-.626.625-1.26,1.244-1.9,1.855-.32.306-.644.613-.965.916l0,.011-.021.009-.006.005-.534.276-1.328-1.956-.613-.9-.866-1.276-1.586-2.335-8.352-12.293,7.49-3.866.59,1.148h0l.292.569,5.477,10.613,1.119,2.17.035.066.672,1.3.58,1.123.647,1.255Z" transform="translate(-757.85 -484.98)" fill="#a0616a"/>
  <path id="Pfad_1617" data-name="Pfad 1617" d="M796.439,650.049l-5.214,3.329-.819.521,2.178,3-3.321,9.421a2.315,2.315,0,0,0,3.542,2.645l8.332-6.047-.717-4.007,2.713,2.558,3.139-2.277-8.564-9.949Z" transform="translate(-766.094 -498.804)" fill="#2f2e41"/>
  <path id="Pfad_1618" data-name="Pfad 1618" d="M811,555.817c-.519.833-1.049,1.662-1.583,2.484q-1.488,2.295-3.056,4.522s0,0-.008.008a10.7,10.7,0,0,1-2.007,1.466c-.03.023-.064.038-.095.057a7.394,7.394,0,0,1-1.689.678l-.64.159c-.765.182-1.522.337-2.276.473q-2.011.358-3.984.515c-.106.011-.212.019-.318.026a61.615,61.615,0,0,1-16.2-1.291c-2.719-.515-5.495-1.132-8.369-1.772-.939-.212-1.882-.42-2.836-.629-.072-.015-.148-.034-.223-.049-1.363-.3-2.749-.595-4.17-.886-1.787-.367-.871-.389-2.787-.726,0,0,4.421,4.49,5.156,6.436a10.477,10.477,0,0,1,.1,8.229l4.246,8.335-14.76,2.5c-8.135-15.94-14.636-26.437-11.732-32.619.011-.288.034-.579.072-.867a9.921,9.921,0,0,1,3.776-6.68,9.555,9.555,0,0,1,7.116-1.946l2.9.375,22.468-1.092.882-3.6.163-.061,5.177-1.9,17.9-6.563.045-.015,1.178-.432.14.227c.042.068.083.136.121.2a35.1,35.1,0,0,1,2.829,6.567,103.077,103.077,0,0,1,2.973,11.35q.051.25.091.454l.011.042c.011.064.019.106.023.117A10.6,10.6,0,0,1,811,555.817Z" transform="translate(-743.059 -439.663)" fill="#2f2e41"/>
  <line id="Linie_12" data-name="Linie 12" x1="0.356" transform="translate(20.484 160.534)" fill="#2f2e41"/>
  <path id="Pfad_1619" data-name="Pfad 1619" d="M842.274,432.223l-.129-7.177-11.371-1.323-1.193,6.061-11.95,11.23c-8.5,10.387-2.322,17.551-1.953,18.616l1.051,13.1.661,4.551-2.581,12.454,32.576,6.988c1.043-8.611-.118-16.611-6.919-23.051l3.437-10.693h0a21.954,21.954,0,0,0,3.2-9.211l.124-1.118C850.258,443.187,848.46,440,842.274,432.223Z" transform="translate(-778.111 -386.045)" fill="#e6e6e6"/>
  <path id="Pfad_1620" data-name="Pfad 1620" d="M874.509,380.911c.008.186.011.371.011.553a12.713,12.713,0,0,1-16.655,12.065l-2.337-.761c-.019-.008-.042-.011-.061-.019l-3.851-1.257a2.639,2.639,0,0,1,.008-.488c-5.745-2.454,2.2-10.517,4.169-16.572.307-.943-10.24-.239-9.74-1.045-.11-.057-.22-.114-.322-.17A15.608,15.608,0,0,1,862.97,366.5c.083.019.17.045.254.068,7.483.186,11.414,5.4,11.414,12.171A18.567,18.567,0,0,1,874.509,380.911Z" transform="translate(-794.394 -357.164)" fill="#2f2e41"/>
  <path id="Pfad_1621" data-name="Pfad 1621" d="M866.525,385.213a12.2,12.2,0,0,1-15.379,7.813q-.523-.17-1.022-.386a12.2,12.2,0,1,1,16.4-7.426Z" transform="translate(-792.894 -358.8)" fill="#a0616a"/>
  <path id="Pfad_1622" data-name="Pfad 1622" d="M852.561,390.8a.425.425,0,0,1-.06-.02l-3.85-1.255c-.01-.165-7.08,4.515-7.06,4.35.11-1.265,8.075-7.435,9.265-8.87a7.379,7.379,0,0,0-3.24-11.72.588.588,0,0,1-.1-.035c-.745-.26-1.46-.525-2.13-.79-.33-1.375-.5-.92-1.295-2.085.145,1.06-1.2,1.86-1.22,2.93-.275-.125-.535-.255-.785-.385-.11-.06-.215-.115-.32-.17a5.31,5.31,0,0,1-1.965-1.57c1.925-5.915,9.29-10.65,15.2-8.715l2.235.725a11.217,11.217,0,0,1,6.515,5.545,12.628,12.628,0,0,1,3.79,4.745C872.436,383.3,862.991,394.149,852.561,390.8Z" transform="translate(-791.43 -355.195)" fill="#2f2e41"/>
  <ellipse id="Ellipse_449" data-name="Ellipse 449" cx="5.302" cy="5.302" rx="5.302" ry="5.302" transform="translate(72.004 8.558)" fill="#2f2e41"/>
  <path id="Pfad_1623" data-name="Pfad 1623" d="M966.59,373.04a35.161,35.161,0,0,1-18.56,23.865c-.6.3-1.2.57-1.81.825a11.993,11.993,0,0,0-2.035-6.955,21.342,21.342,0,0,1,.08,5.02,21.124,21.124,0,0,1-.475,2.845,35.243,35.243,0,0,1-12.17,1.755,11.824,11.824,0,0,0-1.935-5.12,21.339,21.339,0,0,1,.08,5.02A34.454,34.454,0,0,1,917.8,397.09a12.915,12.915,0,0,1-5.135-3.855,11.466,11.466,0,0,1-1.545-8.29,79.968,79.968,0,0,1,2.15-8.37,15.925,15.925,0,0,0,.28-8.53c-.835-2.76-3.18-5.215-6.055-5.43-1.31-.1-2.625.26-3.935.14s-2.73-1-2.76-2.315l1.255-2.04c.53-3.57,2.35-7.11,5.47-8.925s7.595-1.43,9.82,1.41c1.875,2.39,1.8,5.71,2.42,8.685,1.43,6.91,6.955,12.47,13.375,15.4s13.655,3.54,20.715,3.42a24.1,24.1,0,0,0,7.18-.94A9.468,9.468,0,0,0,966.59,373.04Z" transform="translate(-821.928 -348.367)" fill="#2f2e41"/>
  <path id="Pfad_1624" data-name="Pfad 1624" d="M789.812,432.753l-2.076-24.761a3.21,3.21,0,0,1,2.927-3.463l5.4-.453A3.21,3.21,0,0,1,799.522,407l2.076,24.761a3.21,3.21,0,0,1-2.927,3.463l-5.4.453a3.21,3.21,0,0,1-3.463-2.927Z" transform="translate(-765.391 -376.216)" fill="#3f3d56"/>
  <path id="Pfad_1625" data-name="Pfad 1625" d="M793.493,406.955a1.73,1.73,0,0,0-1.578,1.866l2.076,24.761a1.73,1.73,0,0,0,1.866,1.578l5.4-.453a1.73,1.73,0,0,0,1.578-1.866l-2.076-24.761a1.73,1.73,0,0,0-1.866-1.578Z" transform="translate(-767.482 -377.432)" fill="#5f38fa"/>
  <path id="Pfad_1626" data-name="Pfad 1626" d="M806.328,455.045l5.254-2.005-3.051-11.676L808,435.575a4.315,4.315,0,0,0-6.768-3.141h0a4.315,4.315,0,0,0-1.149,5.887l3.573,5.506Z" transform="translate(-771.221 -390.012)" fill="#a0616a"/>
  <path id="Pfad_1627" data-name="Pfad 1627" d="M817.191,458.953l-7.005,2.673L813.673,478a6.976,6.976,0,0,0,4.544,5.14h0a6.976,6.976,0,0,0,7.877-2.43l15.718-21.684a7.121,7.121,0,0,0-1.327-9.86h0a7.121,7.121,0,0,0-10.436,1.852l-9.933,16.651Z" transform="translate(-776.621 -398.01)" fill="#e6e6e6"/>
  <path id="Pfad_1628" data-name="Pfad 1628" d="M812.8,483.811l3.541,14.38.735.894a5.724,5.724,0,0,0,9.328-.684l11.222-18.658-10.117,14a5.724,5.724,0,0,1-9.674-.629Z" transform="translate(-777.93 -414.055)" opacity="0.2"/>
</svg>
