<svg xmlns="http://www.w3.org/2000/svg" width="1235.735" height="1136.066" viewBox="0 0 1235.735 1136.066">
  <g id="Gruppe_833" data-name="Gruppe 833" transform="translate(17556.223 -16483.852)">
    <g id="Gruppe_832" data-name="Gruppe 832" transform="translate(405.33 -68)">
      <g id="Gruppe_830" data-name="Gruppe 830" transform="matrix(0.978, 0.208, -0.208, 0.978, 1595.743, 5443.525)">
        <g id="Rechteck_787" data-name="Rechteck 787" transform="translate(-16440 14915)" fill="#54aced" stroke="#707070" stroke-width="1">
          <rect width="376" height="328" stroke="none"/>
          <rect x="0.5" y="0.5" width="375" height="327" fill="none"/>
        </g>
        <path id="twitter-square-brands" d="M406.25,32H48.75C21.836,32,0,53.5,0,80V432c0,26.5,21.836,48,48.75,48h357.5c26.914,0,48.75-21.5,48.75-48V80C455,53.5,433.164,32,406.25,32ZM356.586,190.8c.2,2.8.2,5.7.2,8.5,0,86.7-67.031,186.6-189.516,186.6A190.792,190.792,0,0,1,65,356.5a142.5,142.5,0,0,0,16.047.8,134.881,134.881,0,0,0,82.672-28c-29.25-.6-53.828-19.5-62.258-45.5,10.258,1.5,19.5,1.5,30.062-1.2-30.469-6.1-53.32-32.5-53.32-64.4v-.8a67.354,67.354,0,0,0,30.062,8.3,65.184,65.184,0,0,1-29.656-54.6A64.007,64.007,0,0,1,87.648,138a190.125,190.125,0,0,0,137.312,68.6c-9.445-44.5,24.375-80.6,65-80.6a66.858,66.858,0,0,1,48.648,20.7,131.775,131.775,0,0,0,42.25-15.8,65.609,65.609,0,0,1-29.25,36.1A134.187,134.187,0,0,0,390,156.8,139.043,139.043,0,0,1,356.586,190.8Z" transform="translate(-16478 14827)" fill="#f3f3f3"/>
      </g>
      <g id="Gruppe_834" data-name="Gruppe 834">
        <rect id="Rechteck_790" data-name="Rechteck 790" width="347" height="392" transform="matrix(0.951, -0.309, 0.309, 0.951, -17226.627, 16854.24)" fill="#fff"/>
        <path id="facebook-square-brands" d="M400,32H48A48,48,0,0,0,0,80V432a48,48,0,0,0,48,48H185.25V327.69h-63V256h63V201.36c0-62.15,37-96.48,93.67-96.48,27.14,0,55.52,4.84,55.52,4.84v61H303.17c-30.81,0-40.42,19.12-40.42,38.73V256h68.78l-11,71.69H262.75V480H400a48,48,0,0,0,48-48V80a48,48,0,0,0-48-48Z" transform="matrix(0.951, -0.309, 0.309, 0.951, -17300.219, 16785.566)" fill="#4267b2"/>
      </g>
      <g id="Gruppe_835" data-name="Gruppe 835">
        <g id="Rechteck_789" data-name="Rechteck 789" transform="matrix(0.966, 0.259, -0.259, 0.966, -17349.396, 17180.732)" fill="#fff" stroke="#707070" stroke-width="1">
          <rect width="376" height="375" stroke="none"/>
          <rect x="0.5" y="0.5" width="375" height="374" fill="none"/>
        </g>
        <path id="linkedin-brands" d="M422.5,32H32.4A32.64,32.64,0,0,0,0,64.8V454.2A32.64,32.64,0,0,0,32.4,487H422.5A32.726,32.726,0,0,0,455,454.2V64.8A32.726,32.726,0,0,0,422.5,32ZM137.516,422H70.078V204.859h67.539V422ZM103.8,175.2a39.1,39.1,0,1,1,39.1-39.1A39.118,39.118,0,0,1,103.8,175.2ZM390.3,422H322.867V316.375c0-25.187-.508-57.586-35.039-57.586-35.141,0-40.523,27.422-40.523,55.758V422H179.867V204.859h64.7v29.656h.914c9.039-17.063,31.078-35.039,63.883-35.039,68.25,0,80.945,44.992,80.945,103.492Z" transform="matrix(0.966, 0.259, -0.259, 0.966, -17378.107, 17099.75)" fill="#0077b5"/>
      </g>
      <g id="Gruppe_831" data-name="Gruppe 831" transform="matrix(0.966, -0.259, 0.259, 0.966, -5251.066, -3677.197)">
        <g id="Rechteck_788" data-name="Rechteck 788" transform="translate(-17611 16778)" fill="#fff" stroke="#707070" stroke-width="1">
          <rect width="373.254" height="359" stroke="none"/>
          <rect x="0.5" y="0.5" width="372.254" height="358" fill="none"/>
        </g>
        <path id="instagram-square-brands" d="M223.653,170.682a53.34,53.34,0,1,0,53.274,53.348,53.293,53.293,0,0,0-53.274-53.348Zm124.5-41A53.96,53.96,0,0,0,317.8,99.274c-20.966-8.291-70.884-6.432-94.146-6.433s-73.13-1.932-94.155,6.427a53.951,53.951,0,0,0-30.359,30.409c-8.266,21-6.417,71.05-6.417,94.33s-1.845,73.27,6.462,94.34a53.96,53.96,0,0,0,30.361,30.411c20.966,8.291,70.884,6.432,94.156,6.433s73.12,1.932,94.145-6.427A53.952,53.952,0,0,0,348.2,318.355c8.336-21,6.417-71.05,6.417-94.33s1.915-73.26-6.422-94.33Zm-124.5,176.336a81.827,81.827,0,1,1,57.916-23.986,81.939,81.939,0,0,1-57.916,23.986Zm85.236-148.3a7.92,7.92,0,1,1,.04.04ZM399.36.027,47.937.017a47.957,47.957,0,0,0-47.92,48l.01,352a47.964,47.964,0,0,0,47.923,48l351.424.01a47.957,47.957,0,0,0,47.92-48l-.01-352a47.964,47.964,0,0,0-47.923-48Zm-17.084,290c-1.287,25.63-7.127,48.34-25.806,67s-41.331,24.629-66.889,25.848c-26.367,1.489-105.417,1.487-131.784,0-25.588-1.291-48.181-7.151-66.891-25.852s-24.591-41.421-25.81-67c-1.488-26.42-1.491-105.61,0-132,1.287-25.63,7.057-48.34,25.806-67s41.4-24.559,66.89-25.778c26.367-1.489,105.417-1.487,131.784,0,25.588,1.291,48.251,7.151,66.891,25.852s24.591,41.421,25.81,67.051C383.761,184.466,383.763,263.586,382.277,290.026Z" transform="matrix(1, 0.017, -0.017, 1, -17642.006, 16731.234)" fill="#ff7068"/>
      </g>
    </g>
  </g>
</svg>
