<svg xmlns="http://www.w3.org/2000/svg" width="1197.128" height="1136.066" viewBox="0 0 1197.128 1136.066">
  <g id="Gruppe_833" data-name="Gruppe 833" transform="translate(17556.223 -16483.852)">
    <g id="Rechteck_789" data-name="Rechteck 789" transform="matrix(0.966, 0.259, -0.259, 0.966, -16944.066, 17112.732)" fill="#fff" stroke="#707070" stroke-width="1">
      <rect width="376" height="375" stroke="none"/>
      <rect x="0.5" y="0.5" width="375" height="374" fill="none"/>
    </g>
    <g id="Gruppe_832" data-name="Gruppe 832" transform="translate(405.33 -68)">
      <g id="Gruppe_830" data-name="Gruppe 830" transform="matrix(0.978, 0.208, -0.208, 0.978, 1595.743, 5443.525)">
        <g id="Rechteck_787" data-name="Rechteck 787" transform="translate(-16440 14915)" fill="#54aced" stroke="#707070" stroke-width="1">
          <rect width="376" height="328" stroke="none"/>
          <rect x="0.5" y="0.5" width="375" height="327" fill="none"/>
        </g>
        <path id="twitter-square-brands" d="M406.25,32H48.75C21.836,32,0,53.5,0,80V432c0,26.5,21.836,48,48.75,48h357.5c26.914,0,48.75-21.5,48.75-48V80C455,53.5,433.164,32,406.25,32ZM356.586,190.8c.2,2.8.2,5.7.2,8.5,0,86.7-67.031,186.6-189.516,186.6A190.792,190.792,0,0,1,65,356.5a142.5,142.5,0,0,0,16.047.8,134.881,134.881,0,0,0,82.672-28c-29.25-.6-53.828-19.5-62.258-45.5,10.258,1.5,19.5,1.5,30.062-1.2-30.469-6.1-53.32-32.5-53.32-64.4v-.8a67.354,67.354,0,0,0,30.062,8.3,65.184,65.184,0,0,1-29.656-54.6A64.007,64.007,0,0,1,87.648,138a190.125,190.125,0,0,0,137.312,68.6c-9.445-44.5,24.375-80.6,65-80.6a66.858,66.858,0,0,1,48.648,20.7,131.775,131.775,0,0,0,42.25-15.8,65.609,65.609,0,0,1-29.25,36.1A134.187,134.187,0,0,0,390,156.8,139.043,139.043,0,0,1,356.586,190.8Z" transform="translate(-16478 14827)" fill="#f3f3f3"/>
      </g>
      <g id="Signal_Messenger_Icon" data-name="Signal Messenger Icon" transform="matrix(0.951, -0.309, 0.309, 0.951, -17337.758, 16846.709)">
        <path id="Pfad_1775" data-name="Pfad 1775" d="M28.4,122.445v238.51A94.072,94.072,0,0,0,122.445,455h238.51A94.072,94.072,0,0,0,455,360.955V122.445A94.072,94.072,0,0,0,360.955,28.4H122.445A94.072,94.072,0,0,0,28.4,122.445Z" fill="#3a76f0"/>
        <g id="Gruppe_829" data-name="Gruppe 829" transform="translate(78.145 78.145)">
          <path id="Pfad_1776" data-name="Pfad 1776" d="M289.41,175.511l3.519,14.169a141.3,141.3,0,0,0-39.17,16.18l-7.5-12.478A155.767,155.767,0,0,1,289.41,175.511Zm74.866,0-3.519,14.169a141.3,141.3,0,0,1,39.17,16.18l7.541-12.523a157.332,157.332,0,0,0-43.192-17.825ZM193.382,246.264a155.767,155.767,0,0,0-17.871,43.146l14.169,3.519a141.3,141.3,0,0,1,16.18-39.17Zm-7.816,80.579a136.6,136.6,0,0,1,1.6-21.162l-14.443-2.194a156.883,156.883,0,0,0,0,46.711L187.166,348a142.481,142.481,0,0,1-1.6-21.162ZM407.422,460.3l-7.5-12.523A139.651,139.651,0,0,1,360.8,463.96l3.519,14.169a155.372,155.372,0,0,0,43.1-17.825Zm60.7-133.461a136.6,136.6,0,0,1-1.6,21.162l14.443,2.194a156.883,156.883,0,0,0,0-46.711l-14.443,2.194A142.479,142.479,0,0,1,468.119,326.843Zm10.055,37.387-14.169-3.519a141.3,141.3,0,0,1-16.18,39.17l12.523,7.541a156.749,156.749,0,0,0,17.825-43.192ZM348,466.519a142.788,142.788,0,0,1-42.323,0l-2.194,14.443a156.883,156.883,0,0,0,46.711,0Zm92.554-55.9a140.643,140.643,0,0,1-29.937,29.892l8.684,11.746a156.65,156.65,0,0,0,33.045-32.908ZM410.621,213.127a140.857,140.857,0,0,1,29.937,29.937l11.746-8.776A156,156,0,0,0,419.4,201.381ZM213.127,243.064a140.856,140.856,0,0,1,29.937-29.937l-8.776-11.746a156,156,0,0,0-32.908,32.908Zm247.176,3.2-12.523,7.5a139.65,139.65,0,0,1,16.18,39.124l14.169-3.519a154,154,0,0,0-17.825-43.1Zm-154.622-59.1a142.787,142.787,0,0,1,42.323,0l2.194-14.443a156.883,156.883,0,0,0-46.711,0ZM220.623,456.19l-30.166,7.039,7.039-30.166-14.214-3.337-7.039,30.166a14.593,14.593,0,0,0,17.551,17.551l30.166-6.9ZM186.3,416.654l14.214,3.291,4.891-20.933a141.883,141.883,0,0,1-15.723-38.347l-14.169,3.519a155.065,155.065,0,0,0,14.352,37.022Zm68.193,31.674L233.6,453.219l3.291,14.214,15.4-3.565a154.222,154.222,0,0,0,37.067,14.352l3.519-14.169a140.694,140.694,0,0,1-38.256-15.814Zm72.352-248.136A126.614,126.614,0,0,0,219.709,394.213L207.551,446.18l51.967-12.158a126.663,126.663,0,1,0,67.324-233.83Z" transform="translate(-170.975 -170.975)" fill="#fff"/>
        </g>
        <path id="Pfad_1777" data-name="Pfad 1777" d="M0,0" fill="#3a76f0"/>
      </g>
      <path id="linkedin-brands" d="M422.5,32H32.4A32.64,32.64,0,0,0,0,64.8V454.2A32.64,32.64,0,0,0,32.4,487H422.5A32.726,32.726,0,0,0,455,454.2V64.8A32.726,32.726,0,0,0,422.5,32ZM137.516,422H70.078V204.859h67.539V422ZM103.8,175.2a39.1,39.1,0,1,1,39.1-39.1A39.118,39.118,0,0,1,103.8,175.2ZM390.3,422H322.867V316.375c0-25.187-.508-57.586-35.039-57.586-35.141,0-40.523,27.422-40.523,55.758V422H179.867V204.859h64.7v29.656h.914c9.039-17.063,31.078-35.039,63.883-35.039,68.25,0,80.945,44.992,80.945,103.492Z" transform="matrix(0.966, 0.259, -0.259, 0.966, -17378.107, 17099.75)" fill="#0077b5"/>
      <g id="Gruppe_831" data-name="Gruppe 831" transform="matrix(0.966, -0.259, 0.259, 0.966, -5251.066, -3677.197)">
        <g id="Rechteck_788" data-name="Rechteck 788" transform="translate(-17611 16778)" fill="#fff" stroke="#707070" stroke-width="1">
          <rect width="373.254" height="359" stroke="none"/>
          <rect x="0.5" y="0.5" width="372.254" height="358" fill="none"/>
        </g>
        <path id="instagram-square-brands" d="M223.653,170.682a53.34,53.34,0,1,0,53.274,53.348,53.293,53.293,0,0,0-53.274-53.348Zm124.5-41A53.96,53.96,0,0,0,317.8,99.274c-20.966-8.291-70.884-6.432-94.146-6.433s-73.13-1.932-94.155,6.427a53.951,53.951,0,0,0-30.359,30.409c-8.266,21-6.417,71.05-6.417,94.33s-1.845,73.27,6.462,94.34a53.96,53.96,0,0,0,30.361,30.411c20.966,8.291,70.884,6.432,94.156,6.433s73.12,1.932,94.145-6.427A53.952,53.952,0,0,0,348.2,318.355c8.336-21,6.417-71.05,6.417-94.33s1.915-73.26-6.422-94.33Zm-124.5,176.336a81.827,81.827,0,1,1,57.916-23.986,81.939,81.939,0,0,1-57.916,23.986Zm85.236-148.3a7.92,7.92,0,1,1,.04.04ZM399.36.027,47.937.017a47.957,47.957,0,0,0-47.92,48l.01,352a47.964,47.964,0,0,0,47.923,48l351.424.01a47.957,47.957,0,0,0,47.92-48l-.01-352a47.964,47.964,0,0,0-47.923-48Zm-17.084,290c-1.287,25.63-7.127,48.34-25.806,67s-41.331,24.629-66.889,25.848c-26.367,1.489-105.417,1.487-131.784,0-25.588-1.291-48.181-7.151-66.891-25.852s-24.591-41.421-25.81-67c-1.488-26.42-1.491-105.61,0-132,1.287-25.63,7.057-48.34,25.806-67s41.4-24.559,66.89-25.778c26.367-1.489,105.417-1.487,131.784,0,25.588,1.291,48.251,7.151,66.891,25.852s24.591,41.421,25.81,67.051C383.761,184.466,383.763,263.586,382.277,290.026Z" transform="matrix(1, 0.017, -0.017, 1, -17642.006, 16731.234)" fill="#ff7068"/>
      </g>
    </g>
  </g>
</svg>
