<svg xmlns="http://www.w3.org/2000/svg" width="500.129" height="377.608" viewBox="0 0 500.129 377.608">
  <g id="Gruppe_342" data-name="Gruppe 342" transform="translate(-1076.398 -304)">
    <g id="undraw_online_connection_6778" transform="translate(1076.398 304)">
      <path id="Pfad_639" data-name="Pfad 639" d="M445.473,208.206H322.1a2.287,2.287,0,0,1-2.285-2.285v-30.6a2.287,2.287,0,0,1,2.285-2.285H445.473a2.287,2.287,0,0,1,2.285,2.285v30.6a2.287,2.287,0,0,1-2.285,2.285ZM322.1,173.946a1.372,1.372,0,0,0-1.371,1.371v30.6a1.372,1.372,0,0,0,1.371,1.371H445.473a1.372,1.372,0,0,0,1.371-1.371v-30.6a1.372,1.372,0,0,0-1.371-1.371Z" transform="translate(-214.835 -127.65)" fill="#3f3d56"/>
      <circle id="Ellipse_243" data-name="Ellipse 243" cx="9.307" cy="9.307" r="9.307" transform="translate(117.125 52.488)" fill="#ff7268"/>
      <path id="Pfad_640" data-name="Pfad 640" d="M401.309,192.745a1.551,1.551,0,0,0,0,3.1h73.125a1.551,1.551,0,0,0,0-3.1Z" transform="translate(-253.383 -137.155)" fill="#e6e6e6"/>
      <path id="Pfad_641" data-name="Pfad 641" d="M401.309,210.718a1.551,1.551,0,0,0,0,3.1h31.466a1.551,1.551,0,1,0,0-3.1Z" transform="translate(-253.383 -145.821)" fill="#e6e6e6"/>
      <path id="Pfad_642" data-name="Pfad 642" d="M405.858,394.2H351.025a2.287,2.287,0,0,1-2.285-2.285V334.806a2.287,2.287,0,0,1,2.285-2.285h54.834a2.287,2.287,0,0,1,2.285,2.285v57.107A2.287,2.287,0,0,1,405.858,394.2Zm-54.834-60.763a1.372,1.372,0,0,0-1.371,1.371v57.107a1.372,1.372,0,0,0,1.371,1.371h54.834a1.372,1.372,0,0,0,1.371-1.371V334.806a1.372,1.372,0,0,0-1.371-1.371Z" transform="translate(-228.783 -204.551)" fill="#3f3d56"/>
      <path id="Pfad_643" data-name="Pfad 643" d="M374.271,355.263a1.551,1.551,0,1,0,0,3.1h31.466a1.551,1.551,0,1,0,0-3.1Z" transform="translate(-240.346 -215.517)" fill="#e6e6e6"/>
      <path id="Pfad_644" data-name="Pfad 644" d="M374.271,372.911a1.551,1.551,0,1,0,0,3.1h31.466a1.551,1.551,0,1,0,0-3.1Z" transform="translate(-240.346 -224.026)" fill="#e6e6e6"/>
      <path id="Pfad_645" data-name="Pfad 645" d="M397.007,410.7a9.764,9.764,0,1,1,9.764-9.764A9.764,9.764,0,0,1,397.007,410.7Z" transform="translate(-247.348 -232.832)" fill="#ff7268"/>
      <path id="Pfad_646" data-name="Pfad 646" d="M630.386,85.393h54.834a2.288,2.288,0,0,1,2.285,2.285v57.107a2.287,2.287,0,0,1-2.285,2.285H630.386a2.287,2.287,0,0,1-2.285-2.285V87.678A2.287,2.287,0,0,1,630.386,85.393Zm54.834,60.763a1.372,1.372,0,0,0,1.371-1.371V87.678a1.372,1.372,0,0,0-1.371-1.371H630.386a1.372,1.372,0,0,0-1.371,1.371v57.108a1.372,1.372,0,0,0,1.371,1.371Z" transform="translate(-363.483 -85.393)" fill="#3f3d56"/>
      <path id="Pfad_647" data-name="Pfad 647" d="M685.1,178.869a1.551,1.551,0,1,0,0-3.1H653.633a1.551,1.551,0,1,0,0,3.1Z" transform="translate(-375.046 -128.969)" fill="#e6e6e6"/>
      <path id="Pfad_648" data-name="Pfad 648" d="M685.1,161.22a1.551,1.551,0,1,0,0-3.1H653.633a1.551,1.551,0,1,0,0,3.1Z" transform="translate(-375.046 -120.459)" fill="#e6e6e6"/>
      <path id="Pfad_649" data-name="Pfad 649" d="M676.368,108.135A9.764,9.764,0,1,1,666.6,117.9,9.764,9.764,0,0,1,676.368,108.135Z" transform="translate(-382.048 -96.359)" fill="#ff7268"/>
      <path id="Pfad_650" data-name="Pfad 650" d="M320.118,297.158A78.168,78.168,0,0,1,353.21,282.2a77.037,77.037,0,0,1,36.521,1.877,77.908,77.908,0,0,1,17.043,7.385,99.173,99.173,0,0,1,15.162,11.3c4.815,4.22,9.473,8.628,14.5,12.6a81.232,81.232,0,0,0,50.542,17.78q2.277,0,4.55-.125c.822-.045.827-1.329,0-1.284a79.923,79.923,0,0,1-52.247-15.788c-5.21-3.9-9.967-8.351-14.824-12.667a114.656,114.656,0,0,0-14.886-11.619,78.636,78.636,0,0,0-86.82,1.979c-1.205.838-2.383,1.714-3.542,2.616-.651.507.263,1.41.908.908Z" transform="translate(-214.437 -179.011)" fill="#3f3d56"/>
      <circle id="Ellipse_244" data-name="Ellipse 244" cx="6.673" cy="6.673" r="6.673" transform="translate(98.327 111.007)" fill="#3f3d56"/>
      <circle id="Ellipse_245" data-name="Ellipse 245" cx="6.673" cy="6.673" r="6.673" transform="translate(346.562 199.602)" fill="#3f3d56"/>
      <path id="Pfad_651" data-name="Pfad 651" d="M763.232,353.33H654.355a2.287,2.287,0,0,1-2.285-2.285v-56.65a2.287,2.287,0,0,1,2.285-2.285H763.232a2.287,2.287,0,0,1,2.285,2.285v56.65A2.287,2.287,0,0,1,763.232,353.33ZM654.355,293.024a1.372,1.372,0,0,0-1.371,1.371v56.65a1.372,1.372,0,0,0,1.371,1.371H763.232a1.372,1.372,0,0,0,1.371-1.371v-56.65a1.372,1.372,0,0,0-1.371-1.371Z" transform="translate(-375.04 -185.066)" fill="#3f3d56"/>
      <circle id="Ellipse_246" data-name="Ellipse 246" cx="9.307" cy="9.307" r="9.307" transform="translate(288.263 117.805)" fill="#ff7268"/>
      <path id="Pfad_652" data-name="Pfad 652" d="M731.8,318.883a1.551,1.551,0,0,0,0,3.1h58.626a1.551,1.551,0,1,0,0-3.1Z" transform="translate(-412.737 -197.975)" fill="#e6e6e6"/>
      <path id="Pfad_653" data-name="Pfad 653" d="M731.8,336.856a1.551,1.551,0,1,0,0,3.1h31.466a1.551,1.551,0,1,0,0-3.1Z" transform="translate(-412.737 -206.641)" fill="#e6e6e6"/>
      <path id="Pfad_654" data-name="Pfad 654" d="M675.959,365.589c-1.18,0-2.14.7-2.14,1.551s.96,1.551,2.14,1.551H762.35c1.18,0,2.14-.7,2.14-1.551s-.96-1.551-2.14-1.551Z" transform="translate(-385.527 -220.496)" fill="#e6e6e6"/>
      <path id="Pfad_655" data-name="Pfad 655" d="M675.959,383.562c-1.18,0-2.14.7-2.14,1.551s.96,1.551,2.14,1.551H762.35c1.18,0,2.14-.7,2.14-1.551s-.96-1.551-2.14-1.551Z" transform="translate(-385.527 -229.162)" fill="#e6e6e6"/>
      <path id="Pfad_656" data-name="Pfad 656" d="M638.664,487.991c6.142-2.665,13-.342,18.79,2.114,2.982,1.265,5.932,2.615,9.017,3.614a51.4,51.4,0,0,0,7.95,1.884,56.183,56.183,0,0,0,16.332.1,57.025,57.025,0,0,0,15.761-4.583,53.3,53.3,0,0,0,13.641-8.918q.775-.7,1.521-1.433c.591-.579-.317-1.487-.908-.908a51.782,51.782,0,0,1-13.307,9.394A55.743,55.743,0,0,1,692,494.222a54.6,54.6,0,0,1-16.292.281,51.285,51.285,0,0,1-7.977-1.734,84.39,84.39,0,0,1-8.8-3.419c-5.844-2.51-12.336-4.967-18.757-3.236a15.645,15.645,0,0,0-2.154.769c-.756.328-.1,1.434.648,1.109Z" transform="translate(-368.102 -275.505)" fill="#3f3d56"/>
      <path id="Pfad_657" data-name="Pfad 657" d="M587.1,499.34h-51.44l12.105-20.967a2.472,2.472,0,0,1,4.282,0l5.171,8.957,8.793-15.23a3.095,3.095,0,0,1,5.361,0Z" transform="translate(-318.912 -271.106)" fill="#ff7268"/>
      <path id="Pfad_658" data-name="Pfad 658" d="M581.905,493.383H527.071a2.287,2.287,0,0,1-2.285-2.285v-30.6a2.287,2.287,0,0,1,2.285-2.285h54.834a2.287,2.287,0,0,1,2.285,2.285v30.6a2.288,2.288,0,0,1-2.285,2.285Zm-54.834-34.26a1.372,1.372,0,0,0-1.371,1.371v30.6a1.372,1.372,0,0,0,1.371,1.371h54.834a1.372,1.372,0,0,0,1.371-1.371v-30.6a1.372,1.372,0,0,0-1.371-1.371Z" transform="translate(-313.668 -265.154)" fill="#3f3d56"/>
      <path id="Pfad_659" data-name="Pfad 659" d="M825.764,438.953l-9.774,4.963c-3.489,1.772-6.855,1.469-8.145-2.225h0a6.463,6.463,0,0,1,4.916-8.483l9.289-1.734,39.784-13.2,24.1-17.089,8.835,14.075-27.847,15.026Z" transform="translate(-449.977 -237.659)" fill="#ffb8b8"/>
      <path id="Pfad_660" data-name="Pfad 660" d="M806.844,692.559l-7.478-1.246.831-14.125h7.894Z" transform="translate(-385.431 -326.52)" fill="#ffb8b8"/>
      <path id="Pfad_661" data-name="Pfad 661" d="M941.992,666.929l-7.237,2.258L929.131,656.2l7.046-3.557Z" transform="translate(-448 -314.687)" fill="#ffb8b8"/>
      <path id="Pfad_662" data-name="Pfad 662" d="M985.927,616.384l-9.14,3.739-43.621-57.332-13.71,67.3-9.14-1.662c-5.863-58.024-10.644-117.207-4.777-145.2l33.859-1.454L954.77,530.8l7.478,33.236Z" transform="translate(-495.967 -276.519)" fill="#2f2e41"/>
      <path id="Pfad_663" data-name="Pfad 663" d="M913.39,798.344h0a6.562,6.562,0,0,1-4.068-.432l-4.442-2c-3.725-.191-6.261.551-8.335-2.156a5.435,5.435,0,0,1-.635-5.479h0a5.473,5.473,0,0,1,4.469-3.252l6.1-3.845.32,2.882c2.789,1.58,6.1.9,9.608-.641l1.915,6.7a6.562,6.562,0,0,1-4.934,8.219Z" transform="translate(-492.389 -420.882)" fill="#2f2e41"/>
      <path id="Pfad_664" data-name="Pfad 664" d="M1058.313,773.72h0a6.562,6.562,0,0,1-3.988.912l-4.851-.448c-3.585,1.029-5.743,2.554-8.583.668a5.435,5.435,0,0,1-2.379-4.976h0a5.473,5.473,0,0,1,3.171-4.527l4.522-5.618,1.239,2.622c3.151.589,6.06-1.132,8.879-3.726l3.988,5.718a6.562,6.562,0,0,1-2,9.376Z" transform="translate(-561.362 -410.007)" fill="#2f2e41"/>
      <circle id="Ellipse_247" data-name="Ellipse 247" cx="14.956" cy="14.956" r="14.956" transform="translate(416.012 116.354)" fill="#ffb8b8"/>
      <path id="Pfad_665" data-name="Pfad 665" d="M847.059,292.89l-19.526-4.155-2.492-16.2,13.71-2.908Z" transform="translate(-397.811 -130.006)" fill="#ffb8b8"/>
      <path id="Pfad_666" data-name="Pfad 666" d="M941.724,436.6h-34.9l7.866-19.749c-.572-6.8,2.308-11.793,6.431-16.145l5.229-13.129c8.45-5.561,14.82-5.146,21.6,2.077C956,401.046,950.431,418.164,941.724,436.6Z" transform="translate(-497.877 -229.267)" fill="#5f38fa"/>
      <path id="Pfad_667" data-name="Pfad 667" d="M932.344,500.672l-.992,10.917c-.354,3.9-2.4,6.587-6.215,5.715h0a6.463,6.463,0,0,1-4.571-8.673l3.47-8.79,9.971-40.714-1.662-29.5h16.618L946.885,461.2Z" transform="translate(-504.284 -251.375)" fill="#ffb8b8"/>
      <path id="Pfad_668" data-name="Pfad 668" d="M960.435,411.9h-19.11l1.34-12.467a8.648,8.648,0,0,1,8.209-8.285h0a8.648,8.648,0,0,1,9.073,8.3Z" transform="translate(-514.511 -232.816)" fill="#5f38fa"/>
      <circle id="Ellipse_248" data-name="Ellipse 248" cx="5.622" cy="5.622" r="5.622" transform="translate(443.857 104.689)" fill="#2f2e41"/>
      <path id="Pfad_669" data-name="Pfad 669" d="M973.243,290.82a5.617,5.617,0,0,1,5.619-5.254c-.116-.015-.231-.033-.349-.04a5.622,5.622,0,1,0-.721,11.22c.118.008.235,0,.352,0A5.617,5.617,0,0,1,973.243,290.82Z" transform="translate(-529.557 -181.886)" fill="#2f2e41"/>
      <path id="Pfad_670" data-name="Pfad 670" d="M943.831,298.963c-5.013-4.159-19.394,1.127-20.322,3.923-6.78.924-11.913,4.88-11.913,11.913h0c4.031,1.651,8.615,1.448,13.571,0,7.9,6.438,8.441,14.53,3.637,23.826l5.91.118,7.326-10.707.35,10.861,13.548-.272V323.061a32.541,32.541,0,0,0-3.475-14.908C950.353,304.051,947.077,301.656,943.831,298.963Z" transform="translate(-500.177 -187.629)" fill="#2f2e41"/>
      <ellipse id="Ellipse_249" data-name="Ellipse 249" cx="2.688" cy="3.764" rx="2.688" ry="3.764" transform="translate(428.35 131.307)" fill="#ffb8b8"/>
      <path id="Pfad_671" data-name="Pfad 671" d="M296.282,334.425S297.9,306.416,306.3,312.78s-3.669,24.243-3.669,24.243Z" transform="translate(-203.49 -194.579)" fill="#ffb9b9"/>
      <path id="Pfad_672" data-name="Pfad 672" d="M230.032,515.9s18.661,20.95,8.221,22.39S223.7,518.554,223.7,518.554Z" transform="translate(-168.495 -292.971)" fill="#ffb9b9"/>
      <path id="Pfad_673" data-name="Pfad 673" d="M175.725,324.292h0a12.29,12.29,0,0,1,9.043,10.175l5.936,42.25,8.322,33.7s4.161,3.745,2.5,5.825,2.08,10.818,2.08,10.818l-10.4,3.329s-1.248-8.738-3.329-9.154c-1.828-.366-22.295-55.039-27.228-68.284-.68-1.826-1.065-2.865-1.065-2.865S162.41,322.212,175.725,324.292Z" transform="translate(-138.539 -200.53)" fill="#575a89"/>
      <path id="Pfad_674" data-name="Pfad 674" d="M185.157,749.885l6.389,11.322c4.948,10.563.551,12.482-11.58,7.246L177.2,755.084Z" transform="translate(-146.072 -405.792)" fill="#ffb9b9"/>
      <path id="Pfad_675" data-name="Pfad 675" d="M185.589,775.03s3.033-4.938,4.13-4.112,5.622,4.408,5.622,4.408l5.893,5.645s19.912,2.105,7.26,9.082-19.645,1.192-19.645,1.192-17.721.922-17.436-4.023,6-12.766,6-12.766S184.618,779.286,185.589,775.03Z" transform="translate(-143.28 -415.889)" fill="#2f2e41"/>
      <path id="Pfad_676" data-name="Pfad 676" d="M137.815,493.994l5.99,72.477s.2,43.327,6.589,51.712,6.589,12.579,6.589,12.579l13.178-6.788s-6.788-11.312-5.391-13.043a9.651,9.651,0,0,0,1.8-3.728l-3.594-44.724,6.788-77.868Z" transform="translate(-127.081 -277.884)" fill="#2f2e41"/>
      <path id="Pfad_677" data-name="Pfad 677" d="M155.551,766.85" transform="translate(-135.633 -413.972)" fill="none" stroke="#3f3d56" stroke-miterlimit="10" stroke-width="1"/>
      <path id="Pfad_678" data-name="Pfad 678" d="M35.333,663l-5.59,14.775-12.679-5.3,6.689-11.072Z" transform="translate(-8.228 -318.912)" fill="#ffb9b9"/>
      <path id="Pfad_679" data-name="Pfad 679" d="M134.866,765.066s4.755-2.972,5.349-1.783,2.972,6.241,2.972,6.241l2.675,7.43s16.346,10.4,2.378,11-17.534-7.43-17.534-7.43-15.751-6.835-13.374-11,10.7-8.476,10.7-8.476S132.191,768.335,134.866,765.066Z" transform="translate(-117.087 -411.175)" fill="#2f2e41"/>
      <path id="Pfad_680" data-name="Pfad 680" d="M188.529,501.258l3.195,66.687s-29.151,60.3-32.345,61.9a8.02,8.02,0,0,0-3.993,4.792l-17.57-4.393,7.986-12.778,17.57-42.727a7.045,7.045,0,0,0,3.594-5.191c.8-3.993,2.4-3.993-1.6-4.792a4.96,4.96,0,0,1-3.993-4.792l-13.178-60.7Z" transform="translate(-127.082 -284.949)" fill="#2f2e41"/>
      <circle id="Ellipse_250" data-name="Ellipse 250" cx="15.973" cy="15.973" r="15.973" transform="translate(28.747 108.922) rotate(-80.783)" fill="#ffb9b9"/>
      <path id="Pfad_681" data-name="Pfad 681" d="M177.919,272.159s-1.2,20.365-2.8,22.362,16.772,1.6,16.772,1.6-1.2-17.171,0-18.768S177.919,272.159,177.919,272.159Z" transform="translate(-145.023 -175.446)" fill="#ffb9b9"/>
      <path id="Pfad_682" data-name="Pfad 682" d="M188.238,410.969s-45.124-3.992-53.507,0c0,0,3.086-11.449,2.289-12.645-.58-.875,1.02-33.488.518-52.3-.285-10.615-2.734-20.982,4.386-28.864a22.164,22.164,0,0,1,7.98-6.022s-.8-7.586,3.195-7.985c0,0,15.178-1.6,20.765,3.2,1.786,1.522,2.91,6.162,3.029,10.16-2.765,13.6-1.786,28.688.751,44.342.155.994.326,1.994.5,2.993C180.833,379.366,184.9,395.372,188.238,410.969Z" transform="translate(-125.594 -190.267)" fill="#722ed1"/>
      <path id="Pfad_683" data-name="Pfad 683" d="M182.159,252.269a21.269,21.269,0,0,1,4.011.554,10.153,10.153,0,0,0,10.852-7.57,5.808,5.808,0,0,1,.555-1.808c.739-1.206,2.421-1.436,3.808-1.159a29.4,29.4,0,0,0,4.114,1,6.3,6.3,0,0,0,5.436-3.077,10.433,10.433,0,0,0,1.334-6.3l-1.045,1.1a5.309,5.309,0,0,1-.473-2.886,3.349,3.349,0,0,0-3.172.812c-.922.1-.226-1.71-.911-2.334a1.584,1.584,0,0,0-1.114-.208c-1.961.019-3.547-1.481-5.092-2.688a21.64,21.64,0,0,0-9.14-4.169,12.024,12.024,0,0,0-6.669.323,14.246,14.246,0,0,0-4.5,3.195c-3.288,3.161-6.2,6.876-7.566,11.227a18.9,18.9,0,0,0-.091,10.959c.551,1.86,2.212,8.23,4.644,8.379C180.19,257.8,178.356,252.5,182.159,252.269Z" transform="translate(-143.432 -151.848)" fill="#2f2e41"/>
      <path id="Pfad_684" data-name="Pfad 684" d="M194.237,328.181l5.723.613s5.618,10.9,5.21,13.172-1.3.893,1.232,4.53,9.7,13.038,10.591,14.418,25.109-17.1,23.6-22.636c0,0,7.65,5.488,10.927,6.218,0,0-24.961,32.736-28.439,36.925s-6.278,3.329-11.058.845-28.963-27.261-28.963-27.261Z" transform="translate(-148.898 -202.459)" fill="#722ed1"/>
      <path id="Pfad_685" data-name="Pfad 685" d="M200.041,400.542l-19.89-19.89,5.033-1.642,14.359,18.538C199.7,398.543,199.87,399.543,200.041,400.542Z" transform="translate(-147.495 -226.967)" opacity="0.1"/>
    </g>
  </g>
</svg>
