<svg xmlns="http://www.w3.org/2000/svg" width="217.007" height="233.5" viewBox="0 0 217.007 233.5">
  <g id="undraw_File_searching_re_3evy" transform="translate(-0.004)">
    <path id="Pfad_183" data-name="Pfad 183" d="M448.657,271.517l-93.805,24.156a12.4,12.4,0,0,1-15.088-8.909L311.395,176.6A12.4,12.4,0,0,1,320.3,161.51l87.27-22.473,22.337,10,27.655,107.393a12.4,12.4,0,0,1-8.909,15.088Z" transform="translate(-310.999 -139.037)" fill="#f2f2f2"/>
    <path id="Pfad_184" data-name="Pfad 184" d="M327.126,171.228a8.833,8.833,0,0,0-6.344,10.745l28.369,110.166a8.833,8.833,0,0,0,10.745,6.344L453.7,274.327a8.833,8.833,0,0,0,6.344-10.744L432.819,157.854l-19.63-8.788Z" transform="translate(-316.933 -145.301)" fill="#fff"/>
    <path id="Pfad_185" data-name="Pfad 185" d="M589.961,150.1l-14.518,3.738a4.126,4.126,0,0,1-5.025-2.967l-2.761-10.723a.258.258,0,0,1,.354-.3L590,149.61a.258.258,0,0,1-.04.486Z" transform="translate(-471.288 -139.527)" fill="#f2f2f2"/>
    <path id="Pfad_186" data-name="Pfad 186" d="M531.4,411.009l-42.708,11a2.063,2.063,0,0,1-1.029-4l42.708-11a2.063,2.063,0,0,1,1.029,4Z" transform="translate(-420.366 -306.361)" fill="#ccc"/>
    <path id="Pfad_187" data-name="Pfad 187" d="M544.268,423.316l-50.95,13.12a2.063,2.063,0,1,1-1.029-4l50.95-13.12a2.063,2.063,0,0,1,1.029,4Z" transform="translate(-423.254 -314.048)" fill="#ccc"/>
    <circle id="Ellipse_44" data-name="Ellipse 44" cx="7.292" cy="7.292" r="7.292" transform="translate(43.604 114.307)" fill="#e6e6e6"/>
    <path id="Pfad_188" data-name="Pfad 188" d="M467.247,269.22l-56.721,14.6a6.39,6.39,0,0,1-7.772-4.59l-11.887-46.177a6.39,6.39,0,0,1,4.59-7.772l56.721-14.6a6.39,6.39,0,0,1,7.772,4.59l11.887,46.177a6.39,6.39,0,0,1-4.59,7.773Z" transform="translate(-360.753 -183.656)" fill="#fff"/>
    <path id="Pfad_189" data-name="Pfad 189" d="M467.247,269.22l-56.721,14.6a6.39,6.39,0,0,1-7.772-4.59l-11.887-46.177a6.39,6.39,0,0,1,4.59-7.772l56.721-14.6a6.39,6.39,0,0,1,7.772,4.59l11.887,46.177a6.39,6.39,0,0,1-4.59,7.773Zm-71.6-43.211a5.638,5.638,0,0,0-4.05,6.858l11.887,46.177a5.638,5.638,0,0,0,6.858,4.05l56.721-14.6a5.638,5.638,0,0,0,4.05-6.858l-11.886-46.177a5.638,5.638,0,0,0-6.858-4.05Z" transform="translate(-360.753 -183.656)" fill="#e6e6e6"/>
    <path id="Path_411" data-name="Path 411" d="M497.077,248.992l-28.626,7.369a1.025,1.025,0,0,1-1.242-.645.988.988,0,0,1,.7-1.254l29.14-7.5c1.177.6.867,1.816.033,2.031Z" transform="translate(-408.529 -206.441)" fill="#f2f2f2"/>
    <path id="Path_412" data-name="Path 412" d="M500.52,262.366l-28.626,7.369a1.025,1.025,0,0,1-1.242-.645.988.988,0,0,1,.7-1.254l29.14-7.5c1.177.6.867,1.816.033,2.031Z" transform="translate(-410.68 -214.794)" fill="#f2f2f2"/>
    <path id="Path_413" data-name="Path 413" d="M438.258,276.441l-8.736,2.249a1.112,1.112,0,0,1-1.353-.8l-2.654-10.31a1.112,1.112,0,0,1,.8-1.353l8.736-2.249a1.112,1.112,0,0,1,1.353.8l2.654,10.31A1.112,1.112,0,0,1,438.258,276.441Z" transform="translate(-382.495 -217.049)" fill="#e6e6e6"/>
    <path id="Path_414" data-name="Path 414" d="M482.29,289.806,438.6,301.052a1.025,1.025,0,0,1-1.242-.645.988.988,0,0,1,.7-1.254l44.2-11.378c1.177.6.867,1.816.033,2.031Z" transform="translate(-389.887 -231.932)" fill="#f2f2f2"/>
    <path id="Path_415" data-name="Path 415" d="M485.734,303.184,442.046,314.43a1.025,1.025,0,0,1-1.242-.645.988.988,0,0,1,.7-1.254l44.2-11.378c1.177.6.867,1.816.033,2.031Z" transform="translate(-392.038 -240.287)" fill="#f2f2f2"/>
    <path id="Path_416" data-name="Path 416" d="M489.176,316.553,445.488,327.8a1.025,1.025,0,0,1-1.242-.645.988.988,0,0,1,.7-1.254l44.2-11.378c1.177.6.867,1.816.033,2.031Z" transform="translate(-394.187 -248.637)" fill="#f2f2f2"/>
    <path id="Path_417" data-name="Path 417" d="M492.619,329.93,448.93,341.176a1.025,1.025,0,0,1-1.242-.645.988.988,0,0,1,.7-1.254l44.2-11.378C493.764,328.5,493.454,329.715,492.619,329.93Z" transform="translate(-396.338 -256.991)" fill="#f2f2f2"/>
    <path id="Path_418" data-name="Path 418" d="M496.061,343.3l-43.688,11.246a1.025,1.025,0,0,1-1.242-.645.988.988,0,0,1,.7-1.254l44.2-11.378c1.177.6.867,1.816.033,2.031Z" transform="translate(-398.487 -265.341)" fill="#f2f2f2"/>
    <path id="Path_395" data-name="Path 395" d="M443.1,459.468a.756.756,0,0,1-.478-.033l-.009,0-1.986-.842a.762.762,0,1,1,.6-1.4l1.287.547,1.687-3.968a.761.761,0,0,1,1-.4h0l-.01.026.011-.026a.762.762,0,0,1,.4,1l-1.985,4.666a.762.762,0,0,1-.513.439Z" transform="translate(-391.665 -335.313)" fill="#fff"/>
    <path id="Pfad_190" data-name="Pfad 190" d="M591.73,373.255H494.865a12.4,12.4,0,0,1-12.39-12.39V247.1a12.4,12.4,0,0,1,12.39-12.39h90.117l19.138,15.254v110.9A12.4,12.4,0,0,1,591.73,373.255Z" transform="translate(-418.092 -198.793)" fill="#e6e6e6"/>
    <path id="Pfad_191" data-name="Pfad 191" d="M500.8,244.215a8.833,8.833,0,0,0-8.823,8.823V366.8a8.833,8.833,0,0,0,8.823,8.823h96.865a8.833,8.833,0,0,0,8.823-8.823V257.62l-16.818-13.406Z" transform="translate(-424.025 -204.726)" fill="#fff"/>
    <path id="Pfad_192" data-name="Pfad 192" d="M646.5,325.455H602.4a2.063,2.063,0,0,1,0-4.126h44.1a2.063,2.063,0,0,1,0,4.126Z" transform="translate(-491.702 -252.888)" fill="#c754ff"/>
    <path id="Pfad_193" data-name="Pfad 193" d="M655.01,344H602.4a2.063,2.063,0,0,1,0-4.126H655.01a2.063,2.063,0,0,1,0,4.126Z" transform="translate(-491.702 -264.471)" fill="#c754ff"/>
    <path id="Pfad_194" data-name="Pfad 194" d="M646.5,404.443H602.4a2.063,2.063,0,1,0,0,4.126h44.1a2.063,2.063,0,0,0,0-4.126Z" transform="translate(-491.705 -304.797)" fill="#ccc"/>
    <path id="Pfad_195" data-name="Pfad 195" d="M655.013,422.993H602.4a2.063,2.063,0,1,0,0,4.126h52.611a2.063,2.063,0,0,0,0-4.126Z" transform="translate(-491.705 -316.383)" fill="#ccc"/>
    <path id="Pfad_196" data-name="Pfad 196" d="M646.5,491.69H602.4a2.063,2.063,0,0,1,0-4.126h44.1a2.063,2.063,0,0,1,0,4.126Z" transform="translate(-491.702 -356.71)" fill="#ccc"/>
    <path id="Pfad_197" data-name="Pfad 197" d="M655.01,510.237H602.4a2.063,2.063,0,0,1,0-4.126H655.01a2.063,2.063,0,0,1,0,4.126Z" transform="translate(-491.702 -368.294)" fill="#ccc"/>
    <circle id="Ellipse_44-2" data-name="Ellipse 44" cx="7.292" cy="7.292" r="7.292" transform="translate(85.039 66.693)" fill="#c754ff"/>
    <path id="Path_395-2" data-name="Path 395" d="M550.872,334.28a.756.756,0,0,1-.455-.151l-.008-.006-1.714-1.311a.762.762,0,1,1,.927-1.209l1.11.851,2.623-3.422a.761.761,0,0,1,1.067-.141h0l-.016.023.017-.023a.762.762,0,0,1,.141,1.068l-3.085,4.023a.762.762,0,0,1-.606.3Z" transform="translate(-459.264 -257.513)" fill="#fff"/>
    <path id="Pfad_198" data-name="Pfad 198" d="M554.074,407.079a7.292,7.292,0,0,1-7.291,7.295,1.58,1.58,0,0,1-.188-.008,7.292,7.292,0,1,1,7.479-7.287Z" transform="translate(-453.701 -301.888)" fill="#ccc"/>
    <circle id="Ellipse_44-3" data-name="Ellipse 44" cx="7.292" cy="7.292" r="7.292" transform="translate(85.039 129.106)" fill="#ccc"/>
    <path id="Pfad_199" data-name="Pfad 199" d="M773.68,250.939H758.689a4.127,4.127,0,0,1-4.127-4.126V235.74a.258.258,0,0,1,.418-.2l18.86,14.941a.258.258,0,0,1-.16.46Z" transform="translate(-588.025 -199.272)" fill="#ccc"/>
    <path id="Pfad_200" data-name="Pfad 200" d="M564.007,407.253a7.292,7.292,0,0,1-7.291,7.295,1.562,1.562,0,0,1-.188-.008,15.788,15.788,0,0,1,1.415-14.477A7.3,7.3,0,0,1,564.007,407.253Z" transform="translate(-463.634 -302.062)" fill="#c754ff"/>
    <path id="Pfad_201" data-name="Pfad 201" d="M600.334,406.508a2.069,2.069,0,0,1,2.065-2.065h10.989a15.61,15.61,0,0,1,1.355,4.126H602.4a2.065,2.065,0,0,1-2.065-2.061Z" transform="translate(-491.701 -304.797)" fill="#c754ff"/>
    <path id="Pfad_202" data-name="Pfad 202" d="M615,422.993a15.744,15.744,0,0,1-.548,4.126H602.4a2.063,2.063,0,0,1,0-4.126Z" transform="translate(-491.704 -316.383)" fill="#c754ff"/>
    <path id="Pfad_203" data-name="Pfad 203" d="M661.147,458.4a2.253,2.253,0,0,1-3.1.75l-26.283-16.032a2.253,2.253,0,1,1,2.346-3.846L660.4,455.306a2.253,2.253,0,0,1,.75,3.1Z" transform="translate(-510.659 -326.345)" fill="#3f3d56"/>
    <path id="Pfad_204" data-name="Pfad 204" d="M586.235,402.476a18.021,18.021,0,1,1-6-24.77,18.021,18.021,0,0,1,6,24.77Zm-26.924-16.423a13.516,13.516,0,1,0,18.577-4.5,13.516,13.516,0,0,0-18.577,4.5Z" transform="translate(-462.03 -286.451)" fill="#3f3d56"/>
    <circle id="Ellipse_18" data-name="Ellipse 18" cx="9.221" cy="9.221" r="9.221" transform="translate(172.724 91.088)" fill="#a0616a"/>
    <path id="Pfad_205" data-name="Pfad 205" d="M793.686,484.862a4.131,4.131,0,0,1,3.125-5.313,3.929,3.929,0,0,1,.548-.067l9.713-15.59-8.873-8.435a3.541,3.541,0,1,1,4.926-5.088l12.25,12.08.025.03a3.208,3.208,0,0,1-.223,3.824l-13.61,16.1a3.889,3.889,0,0,1,.1.393,4.131,4.131,0,0,1-3.708,4.924q-.176.015-.35.015A4.144,4.144,0,0,1,793.686,484.862Z" transform="translate(-612.337 -332.857)" fill="#a0616a"/>
    <path id="Pfad_206" data-name="Pfad 206" d="M432.852,579.466h-4.6l-2.19-17.754h6.793Z" transform="translate(-266.094 -350.819)" fill="#a0616a"/>
    <path id="Pfad_207" data-name="Pfad 207" d="M733.588,750H718.746v-.188a5.777,5.777,0,0,1,5.777-5.777h9.065Z" transform="translate(-565.656 -516.89)" fill="#2f2e41"/>
    <path id="Pfad_208" data-name="Pfad 208" d="M541.188,566.674l-3.955,2.355-10.965-14.134,5.837-3.475Z" transform="translate(-328.68 -344.39)" fill="#a0616a"/>
    <path id="Pfad_209" data-name="Pfad 209" d="M863.044,731.174l-12.752,7.593-.1-.161a5.777,5.777,0,0,1,2.008-7.919h0l7.789-4.637Z" transform="translate(-647.245 -505.657)" fill="#2f2e41"/>
    <path id="Pfad_210" data-name="Pfad 210" d="M731.609,587.64c-3.084-36.308-4.918-70.038,6.354-83.8l.087-.107,18.97,7.588.031.068c.064.139,6.373,14.017,4.9,23.351l4.679,21.523,15.257,25.546a1.69,1.69,0,0,1-.77,2.413l-6.63,2.917a1.7,1.7,0,0,1-2.121-.663l-16.6-27.062L746.4,538.66a.563.563,0,0,0-1.073.172l-5.2,48.844a1.686,1.686,0,0,1-1.68,1.511h-5.154A1.7,1.7,0,0,1,731.609,587.64Z" transform="translate(-572.225 -366.811)" fill="#fac82e"/>
    <path id="Pfad_211" data-name="Pfad 211" d="M752.027,463.749l-.09-.043-.014-.1c-.709-4.96.13-10.47,2.493-16.379a13,13,0,0,1,15.094-7.788h0a12.988,12.988,0,0,1,8.283,6.369,12.848,12.848,0,0,1,.891,10.3c-2.979,8.71-6.843,16.86-6.882,16.942l-.081.17Z" transform="translate(-586.224 -326.429)" fill="#c754ff"/>
    <path id="Pfad_212" data-name="Pfad 212" d="M694.87,458.248a4.131,4.131,0,0,1,6.071,1.066,3.942,3.942,0,0,1,.255.49l18,3.639,4.794-11.265a3.541,3.541,0,1,1,6.491,2.832l-7.025,15.705-.02.034a3.208,3.208,0,0,1-3.66,1.13l-19.844-7.111a3.876,3.876,0,0,1-.332.232,4.131,4.131,0,0,1-5.911-1.748q-.076-.159-.137-.322A4.144,4.144,0,0,1,694.87,458.248Z" transform="translate(-549.764 -333.282)" fill="#a0616a"/>
    <path id="Pfad_213" data-name="Pfad 213" d="M810.317,394.486a7.518,7.518,0,0,0-3.893-3.6c-2.209-.751-4.6.049-6.873.583a12.736,12.736,0,0,1-5.343.316,6,6,0,0,1-4.268-2.983c-1.181-2.367-.186-5.189-.258-7.833a9.512,9.512,0,0,0-11.986-8.94c-2.175-.628-4.145-.686-5.49.986a6.383,6.383,0,0,0-6.383,6.383h6.1a6.063,6.063,0,0,0,.921,4.479c1.077,1.583,2.951,2.728,3.311,4.608.35,1.822-.889,3.551-2.189,4.876s-2.806,2.637-3.212,4.448a5.515,5.515,0,0,0,.79,3.966,12.915,12.915,0,0,0,2.773,3.055,40.7,40.7,0,0,0,16.909,8.65c4.394,1.058,9.2,1.332,13.28-.614a13.188,13.188,0,0,0,5.806-18.384Z" transform="translate(-595.058 -284.302)" fill="#2f2e41"/>
    <path id="Pfad_214" data-name="Pfad 214" d="M768.711,759.714H697.376a.375.375,0,1,1,0-.751h71.335a.375.375,0,0,1,0,.751Z" transform="translate(-552.075 -526.214)" fill="#ccc"/>
  </g>
</svg>
