<svg xmlns="http://www.w3.org/2000/svg" width="233.5" height="215.104" viewBox="0 0 233.5 215.104">
  <path id="Pfad_1576" data-name="Pfad 1576" d="M428.817,258.661l4.192-13.652a46.079,46.079,0,0,0-18.419-12.34c6.89,11.415.214,26.306,3,39.347A27.717,27.717,0,0,0,432.431,290.9l6.361,7.882a46.445,46.445,0,0,0,3.414-38.738,44.859,44.859,0,0,0-5.194-9.984C433.232,254.507,428.817,258.661,428.817,258.661Z" transform="translate(-284.929 -177.7)" fill="#f2f2f2"/>
  <path id="Pfad_1577" data-name="Pfad 1577" d="M375.775,269.918l-2.337-14.089A46.079,46.079,0,0,0,351.449,253c11.258,7.144,11.923,23.45,20.229,33.881a27.716,27.716,0,0,0,21.711,10.285l9.209,4.218a46.445,46.445,0,0,0-14.221-36.194,44.862,44.862,0,0,0-9.1-6.62C377.874,264.231,375.775,269.918,375.775,269.918Z" transform="translate(-254.937 -182.212)" fill="#f2f2f2"/>
  <path id="Pfad_1578" data-name="Pfad 1578" d="M542.244,195.156l4.305-5.382a4.531,4.531,0,0,0-.589-6.271h0a4.531,4.531,0,0,0-7.4,2.579l-1.16,5.993L533,203.958l5.281,2.641Z" transform="translate(-341.175 -148.829)" fill="#ffb8b8"/>
  <path id="Pfad_1579" data-name="Pfad 1579" d="M504.794,215.572l-8.649-18.43a7.477,7.477,0,0,0-10.711-3.019h0a7.477,7.477,0,0,0-2.411,10.164l14.17,24.289a7.325,7.325,0,0,0,7.978,3.357h0a7.325,7.325,0,0,0,5.282-4.9L515.8,210.29l-7.042-3.521Z" transform="translate(-316.929 -153.84)" fill="#2f2e41"/>
  <path id="Pfad_1580" data-name="Pfad 1580" d="M548.625,194.695l-5.666-.475a3.37,3.37,0,0,1-3.074-3.636l2.18-26a3.371,3.371,0,0,1,3.636-3.074l5.666.475a3.371,3.371,0,0,1,3.074,3.636l-2.18,26A3.371,3.371,0,0,1,548.625,194.695Z" transform="translate(-344.439 -138.895)" fill="#3f3d56"/>
  <path id="Pfad_1581" data-name="Pfad 1581" d="M545.749,163.935a1.816,1.816,0,0,0-1.96,1.656l-2.18,26a1.816,1.816,0,0,0,1.656,1.96l5.666.475a1.816,1.816,0,0,0,1.96-1.656l2.18-26a1.816,1.816,0,0,0-1.656-1.96Z" transform="translate(-345.261 -140.049)" fill="#ff7268"/>
  <rect id="Rechteck_768" data-name="Rechteck 768" width="23.574" height="23.574" transform="translate(165.321 79.201)" fill="#ffb8b8"/>
  <ellipse id="Ellipse_444" data-name="Ellipse 444" cx="1.263" cy="1.263" rx="1.263" ry="1.263" transform="translate(192.217 74.659)" fill="#2f2e41"/>
  <path id="Pfad_1582" data-name="Pfad 1582" d="M408.612,318.587H414.9l2.991-24.252h-9.28Z" transform="translate(-194.089 -139.81)" fill="#ffb6b6"/>
  <path id="Pfad_1583" data-name="Pfad 1583" d="M572.128,452.528l9.939-.593v4.258l9.45,6.526a2.66,2.66,0,0,1-1.511,4.849H578.172l-2.04-4.212-.8,4.212h-4.462Z" transform="translate(-359.166 -276.852)" fill="#2f2e41"/>
  <path id="Pfad_1584" data-name="Pfad 1584" d="M319.732,354.692l5.391,3.236,15.045-19.254-7.956-4.775Z" transform="translate(-151.873 -158.602)" fill="#ffb6b6"/>
  <path id="Pfad_1585" data-name="Pfad 1585" d="M479.869,485.355l8.827,4.607-2.192,3.651,4.743,10.459a2.66,2.66,0,0,1-3.791,3.38l-10.146-6.09.419-4.661-2.851,3.2-3.825-2.3Z" transform="translate(-311.752 -292.727)" fill="#2f2e41"/>
  <path id="Pfad_1586" data-name="Pfad 1586" d="M209.051,410.125c-.062,0-.124,0-.187,0a4.541,4.541,0,0,1-3.651-2.077,51.3,51.3,0,0,0-10.8-11.7c-2.534-2.026-5.182-3.909-7.743-5.731-6.607-4.7-12.828-9.122-16.282-15.235-7.53-13.33,1.338-31.9,14.006-40.225,14.21-9.339,32.9-10.8,50.981-11q2.819-.03,5.641-.03h0a537.81,537.81,0,0,1,97.127,8.881c10.654,1.966,21.806,4.374,30.768,10.217,8.909,5.809,14.323,14.957,13.8,23.306-.771,12.188-13.692,21.3-25.457,23.677-11.214,2.268-22.864.735-35.2-.888-2.723-.358-5.538-.728-8.322-1.05-30.256-3.5-87.093,7.282-89.5,7.743l-2.386.457-9.256,11.912a4.442,4.442,0,0,1-3.54,1.739Z" transform="translate(-167.619 -216.146)" fill="#ff7268"/>
  <path id="Pfad_1587" data-name="Pfad 1587" d="M384.952,369.638H257.072a2.782,2.782,0,0,1,0-5.565h127.88a2.782,2.782,0,0,1,0,5.565Z" transform="translate(-208.787 -235.118)" fill="#fff"/>
  <path id="Pfad_1588" data-name="Pfad 1588" d="M384.949,402.169H257.069a2.782,2.782,0,0,1-.006-5.565H384.95a2.782,2.782,0,0,1,0,5.565Z" transform="translate(-208.785 -250.57)" fill="#fff"/>
  <path id="Pfad_1589" data-name="Pfad 1589" d="M271.974,434.7h-14.9a2.782,2.782,0,0,1,0-5.565h14.9a2.782,2.782,0,0,1,0,5.565Z" transform="translate(-208.787 -266.022)" fill="#fff"/>
  <path id="Pfad_1590" data-name="Pfad 1590" d="M498.289,298.629l-25.2-3.008.725,4.779s-17.067,13.753-5.384,28.926l5.641,5.5-.519,2.585h3.623l.388,3.119,15.582,12.9.895,2.639H496.6l-1.254,3-11.569,26.906,9.584,4.469,17.652-33.84-4.522-10.2-16.266-20.587,25.193,9.951.43,2.184,2.316-.439-.447,3.215,4.916,25.3,10.413-1.382-1.071-31.474a9.76,9.76,0,0,0-5.317-8.24c-5.338-2.742-25.056-10.36-25.056-10.36Z" transform="translate(-308.56 -202.603)" fill="#2f2e41"/>
  <path id="Pfad_1591" data-name="Pfad 1591" d="M490.121,190.55l-4.745-6.1-6.769-.293-.676,5.737-3.354,1.547a89.948,89.948,0,0,0-1.515,38.969h0a3.47,3.47,0,0,1,.987,3.371l-.217.867.02.032a5.078,5.078,0,0,1,.674,3.791h0L468.4,249.364c13.02,5.307,22.565-4.59,31.408-17.559l5.473-18.944Z" transform="translate(-310.488 -149.658)" fill="#3f3d56"/>
  <path id="Pfad_1592" data-name="Pfad 1592" d="M354.506,110.407l1.278-12.781L338.819,72.513l-.7.471,16.795,24.862-1.247,12.477Z" transform="translate(-160.607 -34.444)" fill="#2f2e41"/>
  <ellipse id="Ellipse_445" data-name="Ellipse 445" cx="12.515" cy="12.515" rx="12.515" ry="12.515" transform="translate(162.706 9.263)" fill="#ffb8b8"/>
  <path id="Pfad_1593" data-name="Pfad 1593" d="M486.631,130.847l-1.57.05-.533.017-5.976.19c-5.3.168-9.438,5.135-9.249,11.095-3.87,4.14-2.511,9.13.833,14.443a62.818,62.818,0,0,1,16.778,3.922l.652-3.245,1.622,4.194q2.015.9,4,1.978c-1.744-7.084-2.595-14.18-1.728-19.741l2.737-.087-.1-2.995,1.024,2.966,4.962-.157h0a13.05,13.05,0,0,0-13.457-12.63Z" transform="translate(-309.802 -124.332)" fill="#2f2e41"/>
  <ellipse id="Ellipse_446" data-name="Ellipse 446" cx="5.894" cy="5.894" rx="5.894" ry="5.894" transform="translate(160.129)" fill="#2f2e41"/>
  <path id="Pfad_1594" data-name="Pfad 1594" d="M549.244,207.156l4.305-5.382a4.531,4.531,0,0,0-.589-6.271h0a4.531,4.531,0,0,0-7.4,2.579l-1.16,5.993L540,215.958l5.281,2.641Z" transform="translate(-344.502 -154.529)" fill="#ffb8b8"/>
  <path id="Pfad_1595" data-name="Pfad 1595" d="M511.794,227.572l-8.649-18.43a7.477,7.477,0,0,0-10.711-3.019h0a7.477,7.477,0,0,0-2.411,10.164l14.17,24.289a7.325,7.325,0,0,0,7.978,3.357h0a7.325,7.325,0,0,0,5.282-4.9L522.8,222.29l-7.042-3.521Z" transform="translate(-320.253 -159.541)" fill="#2f2e41"/>
</svg>
