<svg xmlns="http://www.w3.org/2000/svg" xmlns:xlink="http://www.w3.org/1999/xlink" width="690" height="520.911" viewBox="0 0 690 520.911"><defs><style>.a,.b,.k{fill:#fc0;}.a,.l,.v,.x{opacity:0.1;}.c{fill:#444053;}.d,.e{fill:none;stroke:#444053;stroke-miterlimit:10;}.e{stroke-width:0.75px;}.f{fill:url(#a);}.g{fill:#fff;}.aa,.h,.i,.l{fill:#4a4a4a;}.h{opacity:0.04;}.j,.x{fill:#5a5773;}.j,.k{opacity:0.2;}.m{fill:#ffd037;}.n{fill:#9d9cb5;}.o{fill:url(#b);}.p{fill:#65617d;}.q{fill:#fbbebe;}.r{fill:#e7effd;}.s{fill:#5f5d7e;}.t{fill:#3f3d56;}.u{fill:#7c5c5c;}.w{fill:#e6e8ec;}.y{fill:url(#c);}.z{fill:#2d293d;}.aa,.ab{opacity:0.05;}.ac{fill:#ffcdd3;}.ad{fill:#dce6f2;}.ae{fill:#575988;}</style><linearGradient id="a" x1="0.5" y1="1" x2="0.5" gradientUnits="objectBoundingBox"><stop offset="0" stop-color="gray" stop-opacity="0.251"/><stop offset="0.54" stop-color="gray" stop-opacity="0.122"/><stop offset="1" stop-color="gray" stop-opacity="0.102"/></linearGradient><linearGradient id="b" x1="0.5" y1="1" x2="0.5" y2="0" xlink:href="#a"/><linearGradient id="c" x1="3.499" y1="1.031" x2="3.499" y2="0.019" xlink:href="#a"/></defs><g transform="translate(0 0.077)"><ellipse class="a" cx="60.427" cy="14.927" rx="60.427" ry="14.927" transform="translate(557.515 488.492)"/><ellipse class="a" cx="60.427" cy="14.927" rx="60.427" ry="14.927" transform="translate(24.102 490.979)"/><path class="b" d="M607.551,163.026s-8.493-3.447-35.5,8.945-30.4,10.811-37.375,8.915-10.865-2.342-18.386-12.676c0,0-5.288-28.659-10.4-33.1s-26.86,2.529-26.86,2.529-26.07,5.982-31.037-28.858c0,0,3.525-26.263-1.274-34.321,0,0,9.658,4.183,25.677-2.565s28.786,7.243,28.786,7.243,4.032,10.442,3.622,16.666,2.131,8.559,9.76,5.553c0,0,3.742-5.33-1.563-14.136s-9.09-15.374-7.605-22.213,5.734-16.3,19.412-21.066,32.257-5.662,41.178-9.374,11.076-6.127,11.076-6.127-5.5,5.517,7.449,28.822S589.2,90.69,589.2,90.69s-6.881,16.394-37.242,15.09c0,0-29.257,1.068-13.279,13.479,0,0,10.219-2.082,25.49-6.935s26.3,15.181,29.033,29.124S607.551,163.026,607.551,163.026Z" transform="translate(-194.237 -22.495)"/><path class="c" d="M632.862,57.722l.163-.042c1.171,4.449-11.909,22.333-23.082,36.536l-.133-.1C625.582,74.068,633.773,61.145,632.862,57.722Z" transform="translate(-258.885 -34.085)"/><path class="c" d="M589.278,117.55l.066.181c-8.927,11.354-20.155,24.9-29.142,34.931-.857.96-1.708,1.962-2.529,2.988l-.254-.211c.821-1.026,1.678-2.034,2.535-3.018C568.937,142.419,580.357,128.9,589.278,117.55Z" transform="translate(-238.118 -57.817)"/><path class="c" d="M544.132,179.88l.175.3c-16.358,20.42-17.438,52.127-17.5,52.405L523.35,228.6C523.422,228.325,527.66,200.439,544.132,179.88Z" transform="translate(-224.613 -82.525)"/><path class="d" d="M598.141,189.108s-19.315-10.026-34.315-6.428-48.892-12.712-48.892-12.712-14.372-5.843-17.257-12.495c0,0-9.857-10.418-10.418-15.814S477.1,122.705,470.84,122.18" transform="translate(-203.798 -59.653)"/><path class="d" d="M671.422,239.747s-9.73-6.543-8.583-14.167" transform="translate(-279.868 -100.64)"/><path class="d" d="M642.393,246.764s-13.883-5.046-15.283-24.814" transform="translate(-265.743 -99.201)"/><path class="d" d="M608.887,251.669a31.078,31.078,0,0,1-8.867-30.259" transform="translate(-254.648 -98.987)"/><path class="d" d="M567.9,242.527s-8.843-18.537-.978-30.6" transform="translate(-240.592 -95.229)"/><path class="d" d="M676.736,212.82s-10.05,3.187-7.9,8.451" transform="translate(-282.165 -95.582)"/><path class="d" d="M652.962,182.61s-13.442,4.268-13.762,23.281" transform="translate(-270.535 -83.607)"/><path class="d" d="M623.529,175.34S611.3,190.43,612.2,204.162" transform="translate(-259.813 -80.725)"/><path class="d" d="M588.43,185.15s-12.151,11.613-10.6,18.078" transform="translate(-246.154 -84.614)"/><path class="d" d="M574.81,177.236s-11.4,2.046-12.99-1.7" transform="translate(-239.862 -80.804)"/><path class="d" d="M558.81,155.56s5.758,7.624,7.243,5.915" transform="translate(-238.669 -72.884)"/><path class="d" d="M630.227,143.253s-28.72,2.07-35.227-6.573" transform="translate(-253.015 -65.4)"/><path class="d" d="M548.8,91.91s13.479,28.931,23.263,32.595" transform="translate(-234.701 -47.654)"/><path class="d" d="M572.22,69.08S580.5,95.693,590.757,104" transform="translate(-243.985 -38.604)"/><path class="e" d="M650.431,111.119s-21.845,9.374-34.961-.109" transform="translate(-261.129 -55.225)"/><path class="e" d="M604.46,59.68s4.992,19.563,11.716,24.289" transform="translate(-256.764 -34.878)"/><path class="e" d="M656.849,74.89s-12.271,4.648-16.859,1.086" transform="translate(-270.848 -40.907)"/><path class="d" d="M538.342,166.15s0,17.052-4.642,18.265" transform="translate(-228.716 -77.082)"/><path class="d" d="M478.52,197.541s18.434,1.581,26.939-7.931" transform="translate(-206.843 -86.382)"/><path class="d" d="M522.5,132.78s-4.461,17.293-16.768,21.953" transform="translate(-217.628 -63.855)"/><path class="d" d="M460.2,167.964s13.05,4.539,24.271-7.014" transform="translate(-199.581 -75.021)"/><path class="d" d="M503.417,108.15s-1.207,14.686-9.217,21.561" transform="translate(-213.058 -54.091)"/><path class="d" d="M461,133.223s10.829.078,13.364-3.453" transform="translate(-199.898 -62.661)"/><path class="a" d="M388.691,101.481c-43.1,7.189-86.261,3.32-127.814-2.04s-83.008-12.2-126.2-10.865c-27.766.869-58.652,6.326-77.865,23.07C38.334,127.756,35.69,149.782,35.865,169.7,36,184.682,37.4,200.2,47.551,212.249c7.044,8.36,17.812,14.432,25.955,22.164,28.369,26.909,20.323,68.594,2.36,103.893-8.45,16.563-18.778,32.818-24.446,49.8s-6.229,35.269,4.443,49.327C66.45,451.368,86.7,459.4,107.773,463.7c42.79,8.734,90.281,4.225,136.216-2.046C345.66,447.7,446.2,425.141,546.444,402.621c37.1-8.33,74.37-16.708,110.068-28.973,19.822-6.8,39.989-15.35,52.683-28.877,16.11-17.173,16.255-40.876.338-55.254-26.7-24.144-86.443-19.605-107.2-47.081-11.432-15.09-6.778-35.383,1.956-53.22,18.712-38.269,55.381-75.843,50.1-114.3-3.622-26.414-29.2-48.53-63.186-54.645-35.613-6.4-81.131,4.292-101.273,30.555C469.188,77.941,426.742,95.143,388.691,101.481Z" transform="translate(-31.374 -18.54)"/><rect class="f" width="573.626" height="324.94" rx="12.49" transform="translate(46.049 90.577)"/><rect class="g" width="571.869" height="319.29" rx="12.49" transform="translate(46.961 95.146)"/><rect class="g" width="571.869" height="319.29" rx="12.49" transform="translate(46.961 95.146)"/><rect class="h" width="571.869" height="319.29" rx="12.49" transform="translate(46.961 95.146)"/><path class="i" d="M675.18,170.15H109.093a2.9,2.9,0,0,0-2.9,2.9v12.277H678.059V173.077A2.9,2.9,0,0,0,675.18,170.15Z" transform="translate(-59.254 -78.668)"/><g transform="translate(54.457 95.146)"><circle class="g" cx="3.923" cy="3.923" r="3.923"/><circle class="g" cx="3.923" cy="3.923" r="3.923" transform="translate(10.563)"/><circle class="g" cx="3.923" cy="3.923" r="3.923" transform="translate(21.126)"/></g><rect class="g" width="476.849" height="237.085" rx="10.19" transform="translate(85.241 177.345)"/><rect class="j" width="137.164" height="14.396" rx="3.86" transform="translate(65.021 122.773)"/><rect class="k" width="137.164" height="14.396" rx="3.86" transform="translate(323.666 204.864)"/><rect class="k" width="214.178" height="14.396" rx="3.86" transform="translate(323.666 245.173)"/><rect class="k" width="214.178" height="14.396" rx="3.86" transform="translate(323.666 268.713)"/><rect class="k" width="214.178" height="14.396" rx="3.86" transform="translate(323.666 292.254)"/><rect class="k" width="214.178" height="14.396" rx="3.86" transform="translate(323.666 315.795)"/><rect class="k" width="426.75" height="14.396" rx="3.86" transform="translate(111.094 341.75)"/><rect class="k" width="426.75" height="14.396" rx="3.86" transform="translate(111.094 365.29)"/><rect class="k" width="426.75" height="14.396" rx="3.86" transform="translate(111.094 388.831)"/><path class="b" d="M751.264,678.54s3.579,4.678-1.654,11.746-9.543,13.032-7.8,17.438c0,0,7.889-13.122,14.318-13.279S758.332,686.429,751.264,678.54Z" transform="translate(-311.053 -280.19)"/><path class="l" d="M751.4,678.54a5.8,5.8,0,0,1,.73,1.467c6.272,7.364,9.609,14.239,3.586,14.408-5.614.163-12.35,10.2-13.961,12.73a4.657,4.657,0,0,0,.193.6s7.889-13.122,14.318-13.279S758.464,686.429,751.4,678.54Z" transform="translate(-311.185 -280.19)"/><path class="m" d="M768.211,687.728c0,1.648-.181,2.982-.41,2.982s-.41-1.334-.41-2.982.229-.869.459-.869S768.211,686.081,768.211,687.728Z" transform="translate(-321.349 -283.415)"/><path class="m" d="M770.684,690.917c-1.449.785-2.71,1.262-2.819,1.062s.978-1,2.414-1.811.875-.217.984,0S772.127,690.127,770.684,690.917Z" transform="translate(-321.534 -284.636)"/><path class="b" d="M721.135,678.54s-3.579,4.678,1.648,11.746,9.549,13.032,7.8,17.438c0,0-7.9-13.122-14.318-13.279S714.067,686.429,721.135,678.54Z" transform="translate(-299.83 -280.19)"/><path class="l" d="M721.135,678.54a5.665,5.665,0,0,0-.736,1.467c-6.265,7.364-9.6,14.239-3.579,14.408,5.614.163,12.344,10.2,13.955,12.73a4.643,4.643,0,0,1-.187.6s-7.9-13.122-14.318-13.279S714.067,686.429,721.135,678.54Z" transform="translate(-299.83 -280.19)"/><path class="m" d="M715.38,687.733c0,1.648.187,2.982.417,2.982s.41-1.334.41-2.982-.229-.857-.453-.857S715.38,686.085,715.38,687.733Z" transform="translate(-300.732 -283.419)"/><path class="m" d="M711.025,690.917c1.449.785,2.71,1.262,2.819,1.062s-.978-1-2.414-1.811-.875-.217-.984,0S709.576,690.127,711.025,690.917Z" transform="translate(-298.659 -284.636)"/><ellipse class="a" cx="37.424" cy="5.74" rx="37.424" ry="5.74" transform="translate(393.334 451.854)"/><path class="i" d="M748.686,715.017l-.181,1.461-.247,2.064-.109.863-.247,2.064-.109.863-.254,2.058-2.861,23.48c-.26,2.094-3.682,3.73-7.847,3.73H721.97c-4.135,0-7.551-1.636-7.8-3.73l-2.873-23.462-.247-2.058-.109-.863-.253-2.064-.1-.863-.253-2.064-.181-1.461c-.139-1.207,1.714-2.185,4.05-2.185h30.434C746.965,712.832,748.818,713.828,748.686,715.017Z" transform="translate(-298.654 -293.79)"/><path class="n" d="M720.186,700.32l-.247,2.064H682.273l-.253-2.064Z" transform="translate(-270.348 -277.633)"/><path class="n" d="M720.064,705.16l-.247,2.065H682.864l-.254-2.065Z" transform="translate(-270.582 -279.551)"/><path class="n" d="M719.945,710.01l-.254,2.064H683.457l-.247-2.064Z" transform="translate(-270.82 -281.474)"/><rect class="k" width="182.289" height="133.723" rx="8.5" transform="translate(111.094 196.878)"/><path class="o" d="M1078.046,542.746c.229-.6-1.473-4.056-1.473-4.225s-1.756-2.082-1.756-3.151-2.324-3.38-2.324-3.38-3.121-1.292-3.459-4.111-3.736-2.867-3.742-2.867h0v-.646a8.88,8.88,0,0,0-.417-3.29,3.313,3.313,0,0,0-1.925-1.636,7.286,7.286,0,0,0-1.02-2.873,3.229,3.229,0,0,1-.8-3.018c.344-1.062-.453-3.766-2.094-4.165s-3.519-1.014-3.519-1.014l-.453.078-.223-.078a9.41,9.41,0,0,1-1.207.151,1.491,1.491,0,0,1-.96-.314c-.567-.6-5.161-1.811-6.036-1.811a13.8,13.8,0,0,1-3.29-1.129s-1.7-1.292-2.414-1.859a15.838,15.838,0,0,1-2.137-2.939v-.042h0a10.4,10.4,0,0,1-.513-1.479h0a13.311,13.311,0,0,0,2.107-2.9c.06-.109.115-.217.169-.332a1.268,1.268,0,0,0,.368-.054l.151-.06a2.451,2.451,0,0,0,1.207-1.437h0a3.754,3.754,0,0,0,.109-.374v-.127l.054-.254a1.2,1.2,0,0,1,0-.145l.036-.254v-.145a.837.837,0,0,1,.042-.32h0a11.308,11.308,0,0,1,.175-1.207h0a21.762,21.762,0,0,1,1.907-4.225h0c.091-.2.181-.4.26-.6s.157-.453.224-.682l.054-.211c.042-.169.078-.338.115-.507s0-.151.042-.229q.054-.344.091-.706a8.724,8.724,0,0,0-.6-3.954c-.422-1.056-1.056-2.01-1.485-3.066-.652-1.6-.827-3.416-1.618-4.944a5.885,5.885,0,0,0-7.062-2.873c-1.207.459-2.306,1.346-3.555,1.744-1.678.537-3.465.133-5.2-.1s-3.622-.266-5.046.869c-1.606,1.3-2.04,3.754-3.549,5.185-.6.6-1.418.984-2.088,1.539a3.41,3.41,0,0,0-1.05,1.437l-.036.115a1.1,1.1,0,0,0-.036.151,1.39,1.39,0,0,0-.03.169.654.654,0,0,0,0,.115,1.267,1.267,0,0,0,0,.3h0a2.338,2.338,0,0,0,.042.284v.078a.706.706,0,0,0,.072.235c.03.078,0,.03,0,.042s.067.175.1.26l.054.127a.1.1,0,0,0,.048.1,7.509,7.509,0,0,1,.525,1.31,1.456,1.456,0,0,1-.054.863,2.548,2.548,0,0,1-.6.827,11.678,11.678,0,0,0-2.559,4.1q-.1.266-.181.525h.078a3.424,3.424,0,0,0,.495.1,2.46,2.46,0,0,0,.284,0,4.421,4.421,0,0,0,1.159-.085l.29-.072a6.56,6.56,0,0,0,1.147-.416q0,.172,0,.344v.193a13.388,13.388,0,0,0,7.443,11.975,2.486,2.486,0,0,0,.048.362l.036.308-.151-.145s-1.02-.507-1.986.954a6.412,6.412,0,0,1-2.777,2.143s-10.322,1.63-10.72,2.982l-4.829.284s-1.7.223-1.871,3.773-1.074,3.881-1.074,3.881-1.986,3.495-1.811,5.294a2.952,2.952,0,0,1-1.533,2.7l-.223,3.211a2.215,2.215,0,0,0-2.414,1.913,7.635,7.635,0,0,1-1.413,3.205s-3.121,2.6-3.29,4.787l-1.932,1.207s-4.479-1.014-5.5-2.813c0,0-.121-.121-.314-.3v-.042h0a18.175,18.175,0,0,0-1.871-1.648,1.357,1.357,0,0,1,.09.905l-.332-.368-.893-.99s-7.243-6.785-11.469-7.322h0c-.055-.109-.332-1.207-1.056-.513a5.915,5.915,0,0,0-.042,8.674l6.785,6.332.175.127,1.454,1.871a17,17,0,0,0-.6,1.678v.054l-.109.326a.727.727,0,0,0-.03.109c-.036.109-.066.211-.1.314l-.054.181v.109c-.163.567-.266,1-.314,1.244l-.38-.121.368.163v.175l.35.151c1.986.863,11.9,5.215,12.4,5.873s4.31,2.873,7.714,1.068a8.123,8.123,0,0,0,4.135-4.557s3.29-4.563,3.4-5.239,2.662-1.461,2.662-1.461.229,7.539-1.074,10.3-3.742,14.975-3.742,14.975a1.722,1.722,0,0,1,.483,0l-.145.706a1.64,1.64,0,0,1,.6,0c-.181,1.388-1.207,7.847-1.207,7.847a16.081,16.081,0,0,1-.905,3.942c-.567,1.014-.6,6.308-.6,6.308l-.911,3.827s.121.266.344.658h0a9.8,9.8,0,0,0,2.608,3.374,6.675,6.675,0,0,1-.459,1.751,6.151,6.151,0,0,0-.453,2.7,35.11,35.11,0,0,0-.851,5.571,21.283,21.283,0,0,1-.6,4.28l-1.02,9.8s-.676,8.5-.338,10.811a20.744,20.744,0,0,1-.229,5.432s.682,6.7.513,7.43-1.02,3.887-.513,5.632.229,6.531.229,6.531.338,6.308.736,8.336a14.258,14.258,0,0,1-.115,4.618,38.021,38.021,0,0,1-.568,4.334c-.169,0-1.642,2.982,1.358,5.909s1.141,2.475,1.141,2.475-2.415-1.207-2.1,1.244c.265,2.3.64,1.7.676,1.636l-.567,1.853.4.054-.326.392a8.467,8.467,0,0,1-1.147,1.207,2.457,2.457,0,0,0-.736,1.63,44.211,44.211,0,0,1-8.107,6.869,23.435,23.435,0,0,0-4.605,3.1c-.7.76-.6,1.376.863,1.859,3.06,1.014,8.451,1.521,12.3.223a14.391,14.391,0,0,0,6.036-3.881,8.543,8.543,0,0,1,4.829-.791c2.414.453,7.147-2.644,7.147-2.644l-.091-.8-.247-2.306a1.811,1.811,0,0,1-.4-1.4,7.234,7.234,0,0,0-.2-2.028c-.042-.223-.085-.447-.127-.652l.435-.084s-.562-2.867.459-3.435.73-7.937.73-7.937a8.9,8.9,0,0,0-1.98-1.968c-.682-.278-.06-3.779.06-4.225s1.02-9.181,1.02-9.181a11.758,11.758,0,0,1,.109-3.935c.453-1.183-.567-5.746-.567-5.746a1.05,1.05,0,0,1,.284-1.237c.6-.676.4-6.7.4-6.7s-.054-3.018-.054-3.833a13.6,13.6,0,0,1,1.3-4.612c.628-.954.223-3.942.223-3.942h0l.036-.223a.84.84,0,0,1,.048-.32l.048-.3a43.926,43.926,0,0,1,1.111-4.889c.736-2.36,1.587-6.525,1.587-6.525l5.269-13.75.06-.163s2.414,4.5,2.414,8.674a54.753,54.753,0,0,1,.459,6.362c-.145,1.352.392,7.708.392,7.708s.736,9.121.736,9.513.911,7.43,1.479,8.5-.568,4.334-.911,4.672.115,8.613.115,8.613-.851,6.531-1.02,7.883-.851,6.531-.284,8.559.338,2.306.338,2.306,2.046,2.088.851,2.258a3.121,3.121,0,0,0-2.27,4.1,54.1,54.1,0,0,0,2.5,6.036l.942-.2v.67l.066,3.356a19.572,19.572,0,0,1,.169,3.942c-.163.531-.392,3.054-.5,4.376-.042.483-.066.8-.066.8s0,2.982,6.3,2.082,7.424-3.38,7.424-3.38l.048-.308c.091-.567.3-1.775.465-2.451.223-.9-1.811-4.956-1.811-4.956s-.338-2.758-.906-3.374a3.015,3.015,0,0,1-.459-1.207c-.048-.229-.1-.465-.133-.694a4.1,4.1,0,0,1,.422.072s-.344-1.968.966-2.589a1.854,1.854,0,0,0,.791-2.475,19.135,19.135,0,0,1,.507-3.718,1.811,1.811,0,0,1,.453-1.811c.8-.791,1.418-6.308,1.418-6.308l.115-21.283s.4-3.773-.054-5.294-.905-4.449-.284-5.239.054-4.442.054-4.442,0-7.714.851-9.658.567-14.022.567-14.022l.224-7.937s1.853-1.75,1.418-10.865c1.974-.127,4.225-.2,4.539.078.6.507,4.648,3.1,7.032,1.461a31.592,31.592,0,0,0,2.831-2.191l-1-16.9,1,1.563c0-2.36,6.694-10.02,6.694-10.02s6.235-8.052,7.593-9.006,4.026-6.036,4.026-6.036a24.469,24.469,0,0,1,1.364-2.813C1079.863,546.066,1077.823,543.362,1078.046,542.746Zm-14.625,5.909c-1.7.169-5.276,4.056-5.33,4.9a3.48,3.48,0,0,1-.754,1.509c0-.338-.054-.682-.085-1.032-.4-4.98-.833-11.04-.6-11.625a34.33,34.33,0,0,0,.223-5.577h0l.066-.091c1.141,3.537,4.69,7.7,4.69,7.7s.6,1.811,1.364,1.853S1063.421,548.655,1063.421,548.655Z" transform="translate(-398.958 -197.145)"/><path class="p" d="M978.65,591.675s2.07-10.865,8.716-10.865l4.865,10-3.241,2.233S981.946,593.238,978.65,591.675Z" transform="translate(-405.091 -241.451)"/><path class="l" d="M992.231,590.77,988.99,593a38.384,38.384,0,0,1-8.5-.712,9.8,9.8,0,0,1-1.841-.6l.036-.175v-.036a24.152,24.152,0,0,1,1.256-3.984c.205-.489.435-.99.688-1.491a10.106,10.106,0,0,1,4.225-4.618,5.728,5.728,0,0,1,2.215-.6h.3l.109.223,1.642,3.38Z" transform="translate(-405.091 -241.439)"/><path class="p" d="M1089.268,651.577s6.984-.67,7.6-.163,4.581,3.072,6.923,1.449.785-7.243.785-7.485-.224-8.215-.224-8.215l-4.189-5.644-5.251-9.887-10.732-1.062.278,15.694-.054,8.046Z" transform="translate(-446.922 -257.211)"/><path class="l" d="M1089.268,651.577s6.984-.67,7.6-.163,4.581,3.072,6.923,1.449.785-7.243.785-7.485-.224-8.215-.224-8.215l-4.189-5.644-5.251-9.887-10.732-1.062.278,15.694-.054,8.046Z" transform="translate(-446.922 -257.211)"/><path class="q" d="M980.305,573.545s-.561,6.815-4.829,6.929c0,0-1.207-.724-2.825-1.938-3.73-2.795-9.658-8.161-8.016-13.153,2.348-7.153,13.744,6.036,13.744,6.036l.881.984Z" transform="translate(-399.424 -234.493)"/><path class="l" d="M985.516,579.535s-.561,6.815-4.829,6.929c0,0-1.207-.724-2.825-1.938l-.362-.465a5.561,5.561,0,0,0,2.33.6,3.145,3.145,0,0,0,3.018-1.913,24.138,24.138,0,0,0,1.207-2.71,8.441,8.441,0,0,0,.429-1.672Z" transform="translate(-404.635 -240.483)"/><path class="r" d="M983.907,591.524l-.954-1.207-3.217-4.141-1.636-2.119a5.513,5.513,0,0,0,2.324.6,3.126,3.126,0,0,0,3.018-1.913,23.645,23.645,0,0,0,1.177-2.7c.531-1.509.519-2.282.332-2.547a14.913,14.913,0,0,1,1.847,1.642h0l.308.29.115.229,1.684,3.259a.851.851,0,0,1,0,.139C989.025,584.082,989.568,590.595,983.907,591.524Z" transform="translate(-404.873 -240.123)"/><path class="p" d="M1022.755,833.11s-4.7,3.078-7.044,2.626a8.45,8.45,0,0,0-4.75.785,14.1,14.1,0,0,1-5.922,3.857c-3.8,1.286-9.108.779-12.127-.223-1.424-.477-1.539-1.093-.851-1.847a25.772,25.772,0,0,1,4.539-3.072,43.884,43.884,0,0,0,7.992-6.815,2.415,2.415,0,0,1,.724-1.624,8.33,8.33,0,0,0,1.129-1.207c.6-.706,1.165-1.449,1.165-1.449l13.829.519s.235,1,.423,2.016a7.288,7.288,0,0,1,.193,2.01,1.811,1.811,0,0,0,.392,1.394l.248,2.281Z" transform="translate(-410.245 -337.905)"/><path class="p" d="M1081.792,837.7c-.163.67-.368,1.865-.459,2.414a1.022,1.022,0,0,1-.042.308s-1.117,2.457-7.322,3.35-6.2-2.064-6.2-2.064l.06-.8c.109-1.3.332-3.809.495-4.34a19.843,19.843,0,0,0-.163-3.911l-.066-3.332-.048-2.312,10.262-1.062a19.772,19.772,0,0,0,.332,2.288,2.937,2.937,0,0,0,.453,1.207c.555.6.893,3.35.893,3.35S1082.033,836.809,1081.792,837.7Z" transform="translate(-440.417 -338.622)"/><path class="l" d="M1031.118,824.7s.236,1,.422,2.016c-1.491.272-8.01,1.4-9.658.6a25.573,25.573,0,0,0-5.813-1.394l.066-.229c.6-.706,1.165-1.449,1.165-1.449Z" transform="translate(-419.924 -337.949)"/><path class="l" d="M1078.871,828.268c-2.6-.441-8.318.6-10.563,1.087l-.048-2.312,10.261-1.062A19.794,19.794,0,0,0,1078.871,828.268Z" transform="translate(-440.612 -338.634)"/><path class="i" d="M1063.32,667.171l-.217,7.847s.278,12.012-.561,13.883-.839,9.555-.839,9.555.561,3.622-.054,4.412-.169,3.688.278,5.2.054,5.251.054,5.251l-.109,21.126s-.6,5.475-1.4,6.259a1.841,1.841,0,0,0-.447,1.811,18.833,18.833,0,0,0-.5,3.688,1.854,1.854,0,0,1-.779,2.457c-1.28.616-.954,2.571-.954,2.571-3.072-.73-11.788,1.207-11.788,1.207a53.471,53.471,0,0,1-2.463-5.982,3.1,3.1,0,0,1,2.239-4.08c1.171-.163-.839-2.233-.839-2.233s.223-.278-.338-2.294.115-7.153.284-8.493,1-7.847,1-7.847-.447-8.215-.109-8.547,1.449-3.579.894-4.636-1.455-8.046-1.455-8.451-.724-9.446-.724-9.446a75.29,75.29,0,0,1-.5-7.654,49.331,49.331,0,0,0-.453-6.314c0-4.135-2.414-8.607-2.414-8.607l-.06.163-5.191,13.738s-.839,4.135-1.563,6.483a42.622,42.622,0,0,0-1.092,4.829l-.048.3-.048.314-.036.223h0s.386,2.958-.229,3.911a13.943,13.943,0,0,0-1.28,4.581c0,.785.054,3.8.054,3.8s.223,5.976-.392,6.64a1.044,1.044,0,0,0-.278,1.207s1,4.527.555,5.7a11.78,11.78,0,0,0-.109,3.911s-.893,8.662-1.008,9.109-.724,3.911-.054,4.189a8.945,8.945,0,0,1,1.956,1.956s.278,7.322-.724,7.877-.453,3.41-.453,3.41-8.1,1.563-9.941.67a25.5,25.5,0,0,0-5.813-1.394l.555-1.811c-.036.066-.4.664-.664-1.624-.284-2.414,2.064-1.207,2.064-1.207s1.847.447-1.117-2.457-1.509-5.867-1.34-5.867a37.465,37.465,0,0,0,.555-4.3,14.228,14.228,0,0,0,.115-4.581c-.392-2.01-.724-8.269-.724-8.269s.278-4.75-.229-6.483.338-4.829.507-5.589-.507-7.376-.507-7.376a20.682,20.682,0,0,0,.229-5.432c-.338-2.294.332-10.732.332-10.732l1.008-9.718a20.077,20.077,0,0,0,.6-4.225,33.911,33.911,0,0,1,.839-5.529,6.13,6.13,0,0,1,.447-2.686c.561-1.117.785-4.829.785-4.829l5.366-12.289,2.626-10.865,35.48-.338s.127.942.344,2.65.519,4.225.857,7.358c.308,2.837.646,6.175.978,9.887C1065.559,665.046,1063.32,667.171,1063.32,667.171Z" transform="translate(-419.247 -262.241)"/><path class="q" d="M1077.621,521.372l-8.263,8.843s-10.611-4.225-9.495-5.7c.428-.561.362-2.336.115-4.292-.392-3.1-1.207-6.64-1.207-6.64s18.549-3.018,16.979.109a5.143,5.143,0,0,0-.115,3.712,14.053,14.053,0,0,0,1.986,3.972Z" transform="translate(-436.85 -214.282)"/><path class="l" d="M1075.725,513.639c-.567,1.147-.839,1.255-.483,2.487-2.414,2.6-5.511,5.432-9.35,5.432a13.233,13.233,0,0,1-5.915-1.388c-.392-3.1-1.207-6.64-1.207-6.64S1077.295,510.512,1075.725,513.639Z" transform="translate(-436.85 -214.262)"/><path class="q" d="M1075.141,496.334a13.3,13.3,0,1,1-26.6,0v-.193a13.3,13.3,0,0,1,26.595.193Z" transform="translate(-432.795 -202.655)"/><path class="l" d="M1071.233,645.656c-1.763,0-7.63.06-14.185.169h-.078l-2.167.036h-.066c-7.775.121-15.434-1.394-18.513-1.11-6.537.6,2.348-6.036,2.348-6.036a54.822,54.822,0,0,0,14.891,1.5l1.883-.1c5.939-.338,11.909-.893,15.03-1.811C1070.593,640.024,1070.895,642.535,1071.233,645.656Z" transform="translate(-426.961 -264.243)"/><path class="s" d="M1071.233,645.1c-1.763,0-7.63.066-14.185.169h-.078l-2.167.036h-.066c-7.775.127-15.434-1.394-18.513-1.1-6.537.6,2.348-6.036,2.348-6.036a54.549,54.549,0,0,0,14.891,1.5l1.883-.1c5.939-.332,11.909-.893,15.03-1.811C1070.593,639.468,1070.895,641.979,1071.233,645.1Z" transform="translate(-426.961 -264.025)"/><path class="l" d="M1052.7,532.164l-10.261,4.829-7.937,61.351s4.7-2.125,7.376-.785,10.949.115,10.949.115,6.036-.338,6.929.338,11.4-2.795,11.4-2.795,1.9-4.225.447-4.919.447-7.243.447-7.243l-.893-44.257-1.811-5.7-4.829-2.909L1059.6,534.1l-2.348.338Z" transform="translate(-427.229 -221.385)"/><path class="r" d="M1052.687,531.058l-10.261,4.829-7.956,61.357s4.7-2.125,7.376-.785,10.95.115,10.95.115,6.036-.338,6.929.332,11.4-2.789,11.4-2.789,1.9-4.225.447-4.919.447-7.243.447-7.243l-.893-44.257-1.811-5.7-4.829-2.909L1059.574,533l-2.348.338Z" transform="translate(-427.217 -220.949)"/><path class="l" d="M1059.106,536.5s2.964,3.519,2.909,4.225-.169,2.463-.169,2.463l-2.233,4.521s-1.207,5.644-1.207,6.821-1.956,11.342-1.956,11.342l-2.4,15.664-2.964,20.523,3.018,5.2,3.579-3.018,4.75-36.542,1-7.207s1.063-12.966,1.063-14.306a45.53,45.53,0,0,0-.6-4.859s.73-3.356,3.748-4.135-.229-.169-.229-.169l-1.726-1.394-1.509.6S1060,534.932,1059.106,536.5Z" transform="translate(-433.806 -223.538)"/><path class="b" d="M1058.588,535.915s2.958,3.519,2.9,4.225-.169,2.457-.169,2.457l-2.233,4.527s-1.207,5.644-1.207,6.815-1.956,11.342-1.956,11.342l-2.342,15.646-2.964,20.523,3.018,5.2,3.573-3.018,4.75-36.542,1.008-7.207s1.062-12.966,1.062-14.305a45.674,45.674,0,0,0-.6-4.865s.725-3.35,3.743-4.135-.224-.163-.224-.163l-1.732-1.4-1.509.6S1059.481,534.352,1058.588,535.915Z" transform="translate(-433.619 -223.296)"/><path class="l" d="M1059.109,526.79s-.447.338-.561,2.571a44.737,44.737,0,0,1-1.678,7.243s5.813-4.02,8.716-3.573Z" transform="translate(-436.097 -220.037)"/><path class="r" d="M1059.109,525.68s-.447.338-.561,2.571a44.741,44.741,0,0,1-1.678,7.243s5.813-4.02,8.716-3.573Z" transform="translate(-436.097 -219.597)"/><path class="l" d="M1080.853,523.83l-9.163,8.046s7.708,4.581,8.716,5.7,2.01-10.949,2.01-10.949Z" transform="translate(-441.971 -218.864)"/><path class="r" d="M1081.4,522.72l-9.163,8.046s7.714,4.581,8.716,5.7,2.01-10.95,2.01-10.95Z" transform="translate(-442.189 -218.424)"/><path class="l" d="M1043.653,526.735s-1-.5-1.956.954a6.308,6.308,0,0,1-2.734,2.119s-10.171,1.624-10.563,2.964l-4.751.278s-1.678.223-1.811,3.748-1.062,3.851-1.062,3.851-1.956,3.465-1.811,5.251a2.94,2.94,0,0,1-1.509,2.686l6.984,18.156s.223,7.491-1.062,10.225-3.688,14.867-3.688,14.867,1.008-.223.948.447-1.207,7.992-1.207,7.992a16.275,16.275,0,0,1-.893,3.911c-.555,1.008-.6,6.253-.6,6.253l-.893,3.8s2.119,4.75,5.36,4.08,9.1-13.358,9.1-13.358l3.742-13.69,2.909-13.521.839-9.163,1.34-20.287,1.956-13.406S1044.438,527.689,1043.653,526.735Z" transform="translate(-420.308 -219.983)"/><path class="i" d="M1043.1,525.625s-1.008-.5-1.956.954a6.344,6.344,0,0,1-2.74,2.119s-10.171,1.624-10.563,2.964l-4.744.278s-1.678.223-1.847,3.742-1.062,3.857-1.062,3.857-1.956,3.465-1.811,5.251a2.928,2.928,0,0,1-1.509,2.686l7.008,18.181s.224,7.491-1.062,10.225-3.688,14.867-3.688,14.867,1.008-.223.954.447-1.207,7.986-1.207,7.986a15.92,15.92,0,0,1-.893,3.911c-.562,1-.6,6.259-.6,6.259l-.893,3.8s2.125,4.75,5.366,4.074,9.108-13.352,9.108-13.352l3.742-13.69,2.9-13.521.8-9.2,1.34-20.287,1.956-13.406S1043.878,526.579,1043.1,525.625Z" transform="translate(-420.086 -219.543)"/><path class="l" d="M992.013,590.556l-3.241,2.233a38.381,38.381,0,0,1-8.5-.712l-1.811-.8-.362-.157.374.121a7.4,7.4,0,0,0,4.473.157c4.588-1.545,4.08-9.114,3.9-10.829a1.576,1.576,0,0,0-.036-.326h0v.042a3.029,3.029,0,0,0,.211.3l.205.217h0l1.678,3.223a.877.877,0,0,1,0,.139Z" transform="translate(-404.873 -241.225)"/><path class="p" d="M1003.45,561.14l-1.563.447-.223,3.181a2.163,2.163,0,0,0-2.348,1.9,7.674,7.674,0,0,1-1.394,3.187s-3.072,2.571-3.241,4.75l-1.9,1.171s-4.412-1.008-5.432-2.795c0,0,2.016,14.414-8.716,10.865,0,0,12.012,5.251,12.573,5.982a7.023,7.023,0,0,0,7.6,1.062,7.969,7.969,0,0,0,4.08-4.527s3.241-4.527,3.35-5.2,2.626-1.455,2.626-1.455l4.829-11.619Z" transform="translate(-405.083 -233.654)"/><path class="l" d="M1084.015,530.1l1.618-7.376s.73,2.414,1.455,2.964l2.414,1.811a14.176,14.176,0,0,0,3.241,1.117c.827,0,5.366,1.207,5.922,1.811s2.795.169,2.795.169,1.841.6,3.465,1.008,2.415,3.072,2.065,4.135a3.229,3.229,0,0,0,.785,3.018,7.208,7.208,0,0,1,1.008,2.849,3.271,3.271,0,0,1,1.9,1.618,11.169,11.169,0,0,1,.393,3.911l-8.324,11.734a34.525,34.525,0,0,1-.223,5.535c-.332,1.008,1.171,18.108,1.171,18.108l1.732,29.39a30.5,30.5,0,0,1-2.795,2.179c-.5.223-1-10.394-1-10.78s-12.911-19.315-12.911-19.315-1.732-2.795-1.732-3.41-1.618-6.259-1.618-6.259l-2.457-10.865Z" transform="translate(-446.419 -218.424)"/><path class="i" d="M1112.186,546.5v.64l-8.318,11.722h0a33.833,33.833,0,0,1-.224,5.535c-.193.6.23,6.6.6,11.535.284,3.561.543,6.567.543,6.567l.736,12.465,1,16.9a30.48,30.48,0,0,1-2.8,2.179c-.5.223-1-10.394-1-10.786s-12.911-19.316-12.911-19.316-1.733-2.795-1.733-3.41-1.618-6.259-1.618-6.259l-2.457-10.865,1.117-33.3.948-7.376a15.834,15.834,0,0,0,2.125,2.958l2.414,1.847a14.169,14.169,0,0,0,3.241,1.117c.827,0,5.366,1.207,5.921,1.811s2.795.169,2.795.169,1.847.6,3.465,1.008,2.414,3.072,2.064,4.135a3.234,3.234,0,0,0,.785,3.018,7.208,7.208,0,0,1,1.008,2.849,3.272,3.272,0,0,1,1.9,1.618A9.052,9.052,0,0,1,1112.186,546.5Z" transform="translate(-446.855 -218.428)"/><path class="l" d="M1017.53,808.76c.278,0,12.012.447,11.788,2.348S1017.53,808.76,1017.53,808.76Z" transform="translate(-420.503 -331.809)"/><path class="l" d="M1021.88,814s7.877,1.286,5.813,2.457S1021.88,814,1021.88,814Z" transform="translate(-422.227 -333.886)"/><path class="l" d="M1070.39,806.73s13.074,1.117,11.119,2.565-6.591,1.678-6.815,1.732S1070.39,806.73,1070.39,806.73Z" transform="translate(-441.456 -331.004)"/><path class="l" d="M1067.8,816.26s7.243,1.207,7.485,2.626S1067.8,816.26,1067.8,816.26Z" transform="translate(-440.429 -334.781)"/><path class="l" d="M1074.46,760.53s6.64,1.563,7.044,2.626Z" transform="translate(-443.069 -312.69)"/><path class="l" d="M1030.967,768.49s-3.465,1.008-.109,3.018S1030.967,768.49,1030.967,768.49Z" transform="translate(-425.206 -315.846)"/><path class="l" d="M1057.43,678.646c.392,0,6.483-2.01,8.607-1.117a14.156,14.156,0,0,0,4.744.893Z" transform="translate(-436.319 -279.699)"/><path class="l" d="M1053.525,688.054l-.06.555-5.209,13.642s-.839,4.135-1.563,6.483a42.592,42.592,0,0,0-1.092,4.829l4.611-28.593Z" transform="translate(-431.629 -282.739)"/><path class="t" d="M1069.867,646.458l-2.167.036h-.067l-1.274-5.632,1.883-.1Z" transform="translate(-439.859 -265.214)"/><path class="q" d="M1101.068,635.376l-1.388,1.147-4.648,3.821s-12.567,6.706-16.032.338c-3.054-5.614,11.2-9.621,14.631-10.5l.73-.175Z" transform="translate(-444.7 -260.953)"/><path class="l" d="M1026.88,547.9s2.457,1.117,3.018,2.68S1026.88,547.9,1026.88,547.9Z" transform="translate(-424.209 -228.405)"/><path class="l" d="M1012.668,575.67s-3.573,4.358-2.125,6.036S1012.668,575.67,1012.668,575.67Z" transform="translate(-417.596 -239.413)"/><path class="l" d="M1117.915,552s-3.35.338-3.465,3.241Z" transform="translate(-458.921 -230.031)"/><path class="l" d="M1068.72,620.795c.338-.338,8.046-11.734,9.839-10.726Z" transform="translate(-440.794 -253.023)"/><path class="l" d="M1075.161,496.354a13.276,13.276,0,0,1-1.575,6.278h-.1c-.845-.181-1.286-1.159-1.925-1.775a2.613,2.613,0,0,0-3.018-.423,3.066,3.066,0,0,0-1.485,2.867c-.423-1.811-.29-3.694-.706-5.487s-1.666-3.622-3.38-3.622c-.736,0-1.6.272-2.131-.284a5.3,5.3,0,0,1-.6-1.262c-1.207-1.986-4.949-.984-6.471.036a39.39,39.39,0,0,1-5.179,3.507,13.3,13.3,0,1,1,26.595.193Z" transform="translate(-432.815 -202.675)"/><path class="u" d="M1057.968,487.567a8.477,8.477,0,0,0,.6,1.268c.531.549,1.394.266,2.131.278,1.714.03,2.97,1.847,3.38,3.622s.284,3.694.712,5.481a3.018,3.018,0,0,1,1.479-2.861,2.626,2.626,0,0,1,3.018.416c.64.6,1.08,1.6,1.926,1.775s1.654-.634,1.956-1.521a23.25,23.25,0,0,0,.483-2.783c.38-1.738,1.521-3.169,2.149-4.829a8.759,8.759,0,0,0-.054-6.241c-.423-1.05-1.044-1.992-1.467-3.018-.646-1.588-.815-3.386-1.6-4.9a5.8,5.8,0,0,0-6.96-2.861c-1.207.459-2.27,1.34-3.5,1.738-1.654.531-3.416.133-5.125-.109s-3.622-.26-4.974.863c-1.581,1.3-2.016,3.73-3.5,5.149-.6.6-1.4.978-2.058,1.527a2.837,2.837,0,0,0-1.153,2.27c.1,1.159,1.207,2.209.815,3.284a2.545,2.545,0,0,1-.6.815,11.7,11.7,0,0,0-2.7,4.605c3.018.93,6.229-2.366,8.565-3.923C1053.018,486.589,1056.742,485.587,1057.968,487.567Z" transform="translate(-430.567 -197.963)"/><path class="l" d="M1110.814,635.376l-1.388,1.147c-1.207-2.046-6.266-6.127-6.266-6.127l.217-.211.73-.175Z" transform="translate(-454.446 -260.953)"/><path class="r" d="M1112.376,632.128s-.495,1.243-1.014,2.318-1.08,2.052-1.1,1.261c-.06-1.569-6.537-6.821-6.537-6.821l.875-.857,1.02-.99Z" transform="translate(-454.668 -259.776)"/><path class="l" d="M1112.635,617.457l.736,12.464c-1.739-2.7-6.5-9.615-9.561-9.392l7.43-8.547a9.967,9.967,0,0,0,.851-1.093C1112.375,614.451,1112.635,617.457,1112.635,617.457Z" transform="translate(-454.703 -253.374)"/><path class="l" d="M1112.951,632.128s-.495,1.243-1.014,2.318c-1.95-2.668-4.624-5.825-6.766-6.416l1.02-.99Z" transform="translate(-455.243 -259.776)"/><path class="i" d="M1118.219,560.58l2.01,1.563s3.356.06,3.688,2.849,3.41,4.08,3.41,4.08,2.288,2.294,2.288,3.356,1.732,2.958,1.732,3.127,1.678,3.573,1.455,4.189,1.811,3.3,1.171,4.3a25.872,25.872,0,0,0-1.34,2.795s-2.626,5.028-3.965,5.976-7.485,8.945-7.485,8.945-6.6,7.593-6.6,9.941c0,0-6.422-10.726-10.225-10.448l7.43-8.547a5.791,5.791,0,0,0,1.346-2.233c.06-.833,3.573-4.7,5.251-4.865,0,0,.277-2.288-.447-2.348s-1.34-1.811-1.34-1.811-4.919-5.813-4.974-9.5S1118.219,560.58,1118.219,560.58Z" transform="translate(-454.921 -233.432)"/><path class="l" d="M1129.715,569.37s-4.7,3.465-3.688,4.587S1129.715,569.37,1129.715,569.37Z" transform="translate(-463.454 -236.916)"/><path class="l" d="M1132.6,592.254s8.716-2.795,9.609,0Z" transform="translate(-466.116 -245.495)"/><path class="l" d="M1022.755,838.481s-4.7,3.078-7.044,2.626a8.451,8.451,0,0,0-4.75.785,14.1,14.1,0,0,1-5.922,3.857c-3.8,1.286-9.108.779-12.127-.223-1.424-.477-1.539-1.093-.851-1.847,3.278.652,10.611,1.95,12.585,1.008a52.389,52.389,0,0,0,6.259-3.911s4.829-.67,5.475-.67a59.794,59.794,0,0,0,6.284-2.414Z" transform="translate(-410.245 -343.276)"/><path class="l" d="M1081.363,849.45a1.019,1.019,0,0,1-.042.308s-1.116,2.457-7.322,3.35-6.2-2.064-6.2-2.064l.06-.8C1069.822,850.989,1074.108,851.816,1081.363,849.45Z" transform="translate(-440.429 -347.938)"/><path class="l" d="M1029.807,568.26s0,12.742-1.087,14S1029.807,568.26,1029.807,568.26Z" transform="translate(-424.818 -236.476)"/><path class="l" d="M1114.17,575.07l1.624,4.551S1116.433,575.155,1114.17,575.07Z" transform="translate(-458.81 -239.175)"/><g class="v" transform="translate(612.383 283.852)"><path class="i" d="M1048.07,492.049c.41-1.044-.664-2.076-.8-3.2a2.059,2.059,0,0,0-.181,1.008,19.631,19.631,0,0,0,.863,2.414A1.371,1.371,0,0,0,1048.07,492.049Z" transform="translate(-1044.599 -488.85)"/><path class="i" d="M1064.984,506.408c-.4-1.763-.278-3.622-.688-5.39s-1.666-3.622-3.38-3.622c-.737,0-1.6.266-2.131-.284-.326-.332-.386-.857-.6-1.268-1.207-1.98-4.95-.972-6.477.042-2.282,1.515-5.432,4.7-8.354,3.972-.139.338-.272.682-.38,1.038,3.018.93,6.229-2.366,8.565-3.923,1.527-1.014,5.251-2.016,6.477-.036a8.458,8.458,0,0,0,.6,1.268c.531.549,1.394.266,2.13.278,1.714.03,2.97,1.847,3.38,3.622s.284,3.694.712,5.481A3.017,3.017,0,0,1,1064.984,506.408Z" transform="translate(-1042.97 -491.173)"/><path class="i" d="M1087.853,509.982c-.3.887-1.1,1.7-1.962,1.521s-1.28-1.159-1.92-1.775a2.632,2.632,0,0,0-3.018-.422,3.055,3.055,0,0,0-1.485,2.71,2.915,2.915,0,0,1,1.316-1.618,2.625,2.625,0,0,1,3.018.416c.64.6,1.08,1.6,1.925,1.775s1.654-.634,1.956-1.521a7.134,7.134,0,0,0,.308-1.605,3.9,3.9,0,0,1-.139.519Z" transform="translate(-1057.437 -496.841)"/><path class="i" d="M1096.2,497.183c-.6,1.654-1.769,3.084-2.149,4.829-.073.35-.121.712-.163,1.074.386-1.738,1.515-3.163,2.143-4.829a8.39,8.39,0,0,0,.513-2.318,8.455,8.455,0,0,1-.344,1.243Z" transform="translate(-1063.154 -491.66)"/></g><circle class="w" cx="0.139" cy="0.139" r="0.139" transform="translate(564.541 329.557)"/><rect class="g" width="109.361" height="125.683" rx="6.61" transform="translate(512.534 332.81)"/><rect class="x" width="109.361" height="125.683" rx="6.61" transform="translate(512.534 332.81)"/><rect class="g" width="98.207" height="112.862" rx="6.61" transform="translate(518.112 339.221)"/><rect class="b" width="67.375" height="23.251" rx="6.03" transform="translate(532.399 361.856)"/><rect class="b" width="62.431" height="4.744" transform="translate(534.874 393.612)"/><rect class="b" width="85.905" height="4.744" transform="translate(524.263 403.625)"/><rect class="b" width="85.905" height="4.744" transform="translate(524.263 414.164)"/><rect class="b" width="85.905" height="4.744" transform="translate(524.263 424.703)"/><rect class="g" width="257.505" height="125.683" rx="6.61" transform="translate(0 291.264)"/><rect class="l" width="257.505" height="125.683" rx="6.61" transform="translate(0 291.264)"/><rect class="g" width="231.23" height="112.862" rx="6.61" transform="translate(13.134 297.674)"/><rect class="b" width="158.634" height="23.251" rx="6.03" transform="translate(46.786 320.316)"/><rect class="b" width="146.996" height="4.744" transform="translate(52.604 352.065)"/><rect class="b" width="202.269" height="4.744" transform="translate(27.615 362.079)"/><rect class="b" width="202.269" height="4.744" transform="translate(27.615 372.618)"/><rect class="b" width="202.269" height="4.744" transform="translate(27.615 383.157)"/><path class="y" d="M132.679,712.64c.718-2.62,1.207-4.925,1.207-4.925a10.261,10.261,0,0,1,1.34-4.992V702h0l.205-5.318a17.693,17.693,0,0,0-1.207-2.837c-.893-1.708.3-7.8.3-7.8s3.881-8.493,3.229-14S145.976,648,145.976,648a23.832,23.832,0,0,0-.555-5.432,4.165,4.165,0,0,1-.06-1.129,1.06,1.06,0,0,1,0-.139v.042c.26-3.622,3.374-10.261,3.374-10.261l.115-12.917s-1.533-7.678,1.811-17.776c1.177-3.525,1.95-6.35,2.457-8.535.06-.247.115-.483.163-.712-6.084-1.171-10.732-2.125-10.732-2.125s4.123-14.716,6.64-17.221,4.726-10.605,4.726-10.605,1.654-10.442-.241-13.581-1.98-8.451-1.98-8.451-4.479-3.519-5-5.022a24.624,24.624,0,0,1-1.28-6.64c.066-1.75.706-3.32.549-4.255s1.515-4.4.809-6.1a4.673,4.673,0,0,1-.241-1.624v-.048h0a22.587,22.587,0,0,1,.573-4.34,12.314,12.314,0,0,1,4.648-2.258l.115-.4.3-1.032a5.048,5.048,0,0,1,.459-.253l.03-.38.1-1.5-.579-3.428c-1.207-5.952,6.712-6.525,6.712-6.525a4.147,4.147,0,0,1,2.3-1.871c1.606-.495-.072,8.879-.839,9.452a32.04,32.04,0,0,0-3.29,4.738h0l-.145.235a3.262,3.262,0,0,1,.35.392l-.38,2.034-.06.308A8.449,8.449,0,0,1,158,512.828a4.551,4.551,0,0,0-1.28,3.3,10.618,10.618,0,0,1-.6,4.062c.085-.091,1.141-1.147,2.143-.845s3.791,1.262,3.791,1.262,2.095.453,1.883.911,1.346,2.559,1.346,2.559l5.873-5.149c.066-.163.127-.32.187-.483a13.489,13.489,0,0,0,.6-2.336,12.627,12.627,0,0,1-1.811-.646A3.943,3.943,0,0,1,168.6,514.4a6.337,6.337,0,0,1-.815-2.481,34.778,34.778,0,0,0-1.926-4.775,15.265,15.265,0,0,1-.809-8.451,5.626,5.626,0,0,1,.966-2.414c.978-1.237,2.674-1.69,3.936-2.656s2.107-2.493,3.555-3.2a6.851,6.851,0,0,1,4.322-.205,23.093,23.093,0,0,1,7.877,3.205,4.093,4.093,0,0,0,2.656.99,3.663,3.663,0,0,0,1.992-1.346.455.455,0,0,1,0-.085l.066-.066a9.953,9.953,0,0,1,.712,4.274,3.189,3.189,0,0,1-.048.676v.235a1.1,1.1,0,0,0,0,.2h0a1,1,0,0,0,.036.3,2.118,2.118,0,0,0,.5.791,4.317,4.317,0,0,1,.435.646.863.863,0,0,0-.066-.235,3.369,3.369,0,0,1,.519,1.811,1.769,1.769,0,0,1-.477,1.262,5.609,5.609,0,0,1-.954.712,10.835,10.835,0,0,1-5.6,11.04c-.072.157-.145.32-.211.483A13.5,13.5,0,0,0,184,521.243a1.448,1.448,0,0,0,.048.453c.048.151.139.163.2.247h0s9.356.453,11.638-1.461,5.372,5.089,5.372,5.089,3.332.779,4.026.157,4.612.084,4.612.084a8.45,8.45,0,0,1,5.927-1.913,17.314,17.314,0,0,1,4.388-2.221h0l.109-.036h0a4.735,4.735,0,0,1,2.119-.187s4.75-3.622,6.169-5.62,8.076-9.32,8.076-9.356l.042-.362.115-1.1a3.694,3.694,0,0,0,.567.072l.145-.38a20.72,20.72,0,0,1,1.479-3.066s.054-1.394-.338-1.757.38-5.432.38-5.432,4.521-9.537,7.956-2.155c0,0,6.845,4.956.736,10.183,0,0-2.414,1.05-2.758,1.938-.241.6-1.1,2.185-1.684,3.253l-.26.477.066.06-.121.905-.048.356c1.08.67,1.811,1.322,1.612,1.811a10.263,10.263,0,0,0-.767,2.481s-8.535,9.839-9.754,14.179c0,0-22.37,12.157-29.577,12.809l1,6.543a52.164,52.164,0,0,1,.085,5.306c-.151,1.388.567,7.732.567,7.732s.887,9.332,1.9,10.672.6,6.905.6,6.905a47.024,47.024,0,0,0,1.135,7.943,20.3,20.3,0,0,1,0,7.9s3.326,8.493-5.185,2.493c0,0-4.274-.429-9.2-.785v.489c0,.64-.03,1.328-.048,2.052-.121,4.787-.344,11.378-.755,16.358-.724,8.807-4.08,26.154-4.08,26.154l-.338,8.764a11.615,11.615,0,0,1,.157,2.517,16.3,16.3,0,0,1-2.7,8.686l-.9,5.825a22.952,22.952,0,0,0-1.841,6.09,2.742,2.742,0,0,0,.048.561,4.478,4.478,0,0,1,.042.9c0,2.656-1.859,8.945-1.859,8.945s-.344,6.4-1.316,6.736c-.833.29.954,3.736,1.485,4.726a.983.983,0,0,0,.042-.181l.115.193a4.552,4.552,0,0,1,.235,1.636,2.336,2.336,0,0,1-1.153,2.209c-1.865,1.044-2.879,1.932-1.346,2.366a17.045,17.045,0,0,1,1.678.417l.091-.211a1.032,1.032,0,0,1,.6,1.147,4.689,4.689,0,0,1-.658,2.149,23.4,23.4,0,0,1-2.777,4.636l-.736-.109a3.687,3.687,0,0,0,.4.8,3.067,3.067,0,0,0,1.05,1.008,3.357,3.357,0,0,0,1.292.495,3.724,3.724,0,0,1,2.668,1.431c.905,1.274,1.443,2.982-.507,4.388l-6.948,2.1s-11.855,1.081-11.131-1.539,1.207-4.925,1.207-4.925a10.473,10.473,0,0,1,1.135-4.66,6.253,6.253,0,0,1,.447-.676l-.417-.06s-.688-5.885-1.823-7.026c-.254-.272-.308-.471-.241-.6-.1-.32.2-.495.6-.6a.941.941,0,0,0,.078.229,5.82,5.82,0,0,1,1.147-.079s.5-3.048-.7-4.225a1.147,1.147,0,0,1-.205-.917,4.7,4.7,0,0,1,.175-1.243.449.449,0,0,0,.042.072,45.684,45.684,0,0,1,3.018-7.086s.2-2.783-.525-3.929.682-15.127.682-15.127-.03-6.784.954-9.905-.791-6.911-.791-6.911a.96.96,0,0,1,.03-.2.246.246,0,0,0,0-.054s.06-.416.157-1.062v.066c.266-1.811.755-5.016,1.08-6.513.465-2.119.38-12.35.38-12.35l-1.563-4.406-3.362,7.4-3.622,9.9a8.518,8.518,0,0,0-1.811,4.225v.32a5.024,5.024,0,0,1,0,.67,5.987,5.987,0,0,1-1.135,3.531s-1.044,4.7-2.414,5.855a5.471,5.471,0,0,0-1.479,3.477s-1.9,6.809-2.71,7.986c-.682.99-.827,3.785-.851,4.642h0v.247s-.32,2.451-.392,4.515v.73a.133.133,0,0,1,0-.048,7,7,0,0,0,.133,1.672v-.248a17.56,17.56,0,0,1,.332,4.3c-.054,2.469-.543,5.378-2.107,7.038-2.7,2.873-4.316,2.414-4.316,2.414s1.1,3.76,2.608,4.563a.964.964,0,0,1,.163.109.371.371,0,0,1,.042-.211,1.811,1.811,0,0,1,.4,1.4,10.008,10.008,0,0,1-2.113,5.432,3.019,3.019,0,0,1-1.322.712,2.276,2.276,0,0,0,.235.157,4.73,4.73,0,0,0,.519.266,2.563,2.563,0,0,0,.773.236,3.67,3.67,0,0,1,2.668,1.43c.905,1.268,1.443,2.976-.507,4.382l-6.947,2.1S131.948,715.26,132.679,712.64Z" transform="translate(-69.741 -205.255)"/><path class="z" d="M199.966,860.638l6.73-2.107c1.889-1.412,1.37-3.121.495-4.394a3.525,3.525,0,0,0-2.577-1.418,3.151,3.151,0,0,1-1.255-.5,3.017,3.017,0,0,1-1.008-1,4.95,4.95,0,0,1-.658-2.6s-7.207-2.414-9.283-.356a5.433,5.433,0,0,0-.924,1.261,10.866,10.866,0,0,0-1.111,4.66s-.459,2.3-1.165,4.925S199.966,860.638,199.966,860.638Z" transform="translate(-92.149 -347.138)"/><path class="z" d="M146.348,853.133l6.73-2.107c1.889-1.412,1.37-3.121.495-4.388a3.525,3.525,0,0,0-2.583-1.424,2.369,2.369,0,0,1-.748-.229,4.743,4.743,0,0,1-.5-.272c-1.811-1.093-1.672-3.622-1.672-3.622s-7.207-2.414-9.283-.356a5.336,5.336,0,0,0-.736.918,10.533,10.533,0,0,0-1.3,5s-.465,2.306-1.165,4.925S146.348,853.133,146.348,853.133Z" transform="translate(-70.891 -344.154)"/><path class="l" d="M193.917,848.264a5.433,5.433,0,0,0-.917,1.262h0l10.865,1.684a4.95,4.95,0,0,1-.658-2.6S196.018,846.205,193.917,848.264Z" transform="translate(-93.664 -347.138)"/><path class="l" d="M139.638,841.676l-.078,2.046c1.594,2.867,9.833,2.572,12.271,1.262a4.743,4.743,0,0,1-.5-.272c-1.811-1.093-1.672-3.622-1.672-3.622s-7.207-2.415-9.283-.356A5.335,5.335,0,0,0,139.638,841.676Z" transform="translate(-72.481 -344.154)"/><path class="i" d="M137.891,757.285a18.758,18.758,0,0,1,1.207,2.837l-.3,7.328c1.738,3.139,11.432,2.487,12.8.869s2.921-5.933,1.467-6.73-2.523-4.563-2.523-4.563,1.563.435,4.189-2.414,2.131-9.495,1.72-11.088.272-6.869.272-6.869.048-3.718.839-4.9,2.632-7.986,2.632-7.986a5.449,5.449,0,0,1,1.431-3.477c1.346-1.153,2.366-5.861,2.366-5.861a6.072,6.072,0,0,0,1.08-3.954c-.187-2.33,1.763-4.768,1.763-4.768l3.543-9.9,3.259-7.406,1.5,4.424s.072,10.231-.38,12.35-1.207,7.762-1.207,7.762,1.714,3.785.761,6.911-.942,9.905-.942,9.905-1.376,13.985-.676,15.126.5,3.923.5,3.923-4.117,8.022-2.958,9.187.676,4.225.676,4.225-2.6-.1-1.527,1.056,1.642,7,1.642,7l11.173,1.732a23.636,23.636,0,0,0,2.692-4.642c1.618-3.374-.157-3.072-1.636-3.5s-.5-1.322,1.3-2.366.881-3.591.881-3.591-2.517-4.654-1.569-4.986,1.28-6.736,1.28-6.736,2.149-7.545,1.762-9.6,1.757-6.905,1.757-6.905l.869-5.819a16.073,16.073,0,0,0,2.469-10.967l.35-9.006s3.284-17.318,4.02-26.154c.459-5.638.688-13.346.791-18.156.06-2.7.085-4.491.085-4.491l-39.941-5.722a32.962,32.962,0,0,1-.96,5.927,88.148,88.148,0,0,1-2.414,8.541c-3.272,10.1-1.811,17.776-1.811,17.776L152,694.522s-3.863,8.5-3.229,11.5a24.536,24.536,0,0,1,.531,5.432s-8.6,18.519-7.968,24.005-3.145,14.01-3.145,14.01S137.028,755.577,137.891,757.285Z" transform="translate(-71.693 -268.623)"/><path class="aa" d="M171.195,748.113,159.05,746S165.7,753.34,171.195,748.113Z" transform="translate(-80.207 -306.931)"/><path class="l" d="M162.178,726.39s-.6,4.3,2,6.036C164.151,732.414,159.473,731.491,162.178,726.39Z" transform="translate(-81.113 -299.158)"/><path class="l" d="M164.85,703.67s9.881,8.794,13.617,8.245S164.85,703.67,164.85,703.67Z" transform="translate(-82.506 -290.152)"/><path class="l" d="M204,757s7.684,2.064,7.8,5.179S204,757,204,757Z" transform="translate(-98.025 -311.291)"/><path class="aa" d="M197.372,821s10.865,2.463,7.714,3.736a52.618,52.618,0,0,1-8.312,2.191S193.238,826.988,197.372,821Z" transform="translate(-94.602 -336.66)"/><g class="ab" transform="translate(65.886 386.157)"><path class="i" d="M213.663,829.985a2.173,2.173,0,0,0,1.062-1.545l.1.2s.93,2.541-.881,3.622c-.205.115-.4.235-.6.35-.32-.072-.67-.133-1-.229C210.868,831.929,211.852,831.036,213.663,829.985Z" transform="translate(-166.934 -725.767)"/><path class="i" d="M191.528,827.623c-.29-.29-.247-1,0-1.913a5.185,5.185,0,0,1,.519,2.716A2.112,2.112,0,0,0,191.528,827.623Z" transform="translate(-158.887 -724.684)"/><path class="i" d="M197.3,752.48a12.627,12.627,0,0,1,.6,3.446,13.166,13.166,0,0,0-.761-2.378S197.206,753.132,197.3,752.48Z" transform="translate(-161.192 -695.657)"/><path class="i" d="M156.123,742.14a4.433,4.433,0,0,1-.066-1.02c.115.7.187,1.346.229,1.913C156.237,742.744,156.183,742.448,156.123,742.14Z" transform="translate(-144.904 -691.153)"/><path class="i" d="M195.591,805.81a6.15,6.15,0,0,1-.193-2.07,6.984,6.984,0,0,1,.435,2.62,2.554,2.554,0,0,0-.241-.549Z" transform="translate(-160.494 -715.976)"/><path class="i" d="M190.416,836a36.459,36.459,0,0,1,1.056,5.752l11.173,1.732a23.4,23.4,0,0,0,2.7-4.642c.145-.3.254-.561.35-.8.658.332.9,1.044-.066,3.048a23.68,23.68,0,0,1-2.692,4.636l-11.2-1.72s-.6-5.879-1.684-7.032C189.553,836.4,189.927,836.139,190.416,836Z" transform="translate(-158.289 -728.763)"/><path class="i" d="M215.276,749.491s-.338,6.4-1.28,6.736h0c-.429-1.08-.706-2.094-.284-2.245.942-.338,1.286-6.736,1.286-6.736s2.149-7.539,1.762-9.6,1.75-6.9,1.75-6.9l.875-5.825a16.074,16.074,0,0,0,2.469-10.967l.344-9.006s3.272-17.348,3.984-26.154c.453-5.638.682-13.346.791-18.157,0-.869.036-1.642.048-2.294l.32.048s0,1.811-.085,4.485c-.1,4.829-.332,12.525-.791,18.162-.712,8.8-3.978,26.154-3.978,26.154l-.35,9a16.092,16.092,0,0,1-2.463,10.968l-.881,5.825s-2.143,4.829-1.757,6.905S215.276,749.491,215.276,749.491Z" transform="translate(-167.677 -658.34)"/><path class="i" d="M152.133,839.46a10.865,10.865,0,0,0,1.944-4.34c1.1,1.074-.362,5.04-1.66,6.579s-11.058,2.27-12.8-.863l.066-1.769C142.1,841.651,150.841,840.993,152.133,839.46Z" transform="translate(-138.391 -728.414)"/><path class="i" d="M137.618,823.952a18.752,18.752,0,0,1,1.207,2.837l-.054,1.3a20.261,20.261,0,0,0-.857-1.9,5.6,5.6,0,0,1-.314-2.312Z" transform="translate(-137.584 -723.959)"/><path class="i" d="M159.453,818.433a18.138,18.138,0,0,1-.833-2.239s1.563.429,4.183-2.445c1.907-2.095,2.167-6.169,2.01-8.849.41,1.6.9,8.215-1.72,11.088C161.366,817.872,160.1,818.336,159.453,818.433Z" transform="translate(-145.922 -716.435)"/><path class="i" d="M168.86,760.366a49.628,49.628,0,0,0-.4,5.5A7.846,7.846,0,0,0,168.3,765c-.4-1.6.266-6.869.266-6.869s.054-3.718.839-4.9,2.632-7.986,2.632-7.986a5.48,5.48,0,0,1,1.437-3.477c1.346-1.159,2.366-5.861,2.366-5.861a6.109,6.109,0,0,0,1.08-3.954c-.187-2.33,1.763-4.768,1.763-4.768l3.543-9.9,3.259-7.406,1.5,4.43v1.413l-1.207-3.622-3.259,7.4-3.543,9.905s-1.95,2.414-1.763,4.768a6.072,6.072,0,0,1-1.08,3.954s-1.02,4.7-2.366,5.855a5.448,5.448,0,0,0-1.431,3.477s-1.847,6.809-2.632,7.992S168.86,760.366,168.86,760.366Z" transform="translate(-149.71 -678.77)"/></g><path class="ac" d="M167.2,504.574l.567,3.416-.1,1.509-.072,1.111,3.857.549.465-.785h0a35.324,35.324,0,0,1,3.193-4.744c.736-.573,2.378-9.947.821-9.452a4.074,4.074,0,0,0-2.233,1.871S166.063,498.628,167.2,504.574Z" transform="translate(-83.393 -207.896)"/><path class="l" d="M167.94,519.121l3.857.549.465-.785h0a3.422,3.422,0,0,0-4.225-.869Z" transform="translate(-83.731 -216.407)"/><path class="ad" d="M166.2,521.162l5.064,1.382.133-.76.368-2.034a3.519,3.519,0,0,0-4.919-.863l-.29,1.032Z" transform="translate(-83.041 -216.649)"/><path class="ac" d="M303.74,505.46l5.336,3.139s.223-.428.537-1.014c.561-1.068,1.394-2.674,1.63-3.253.356-.887,2.674-1.944,2.674-1.944,5.921-5.233-.7-10.177-.7-10.177-3.32-7.382-7.7,2.161-7.7,2.161s-.755,5.088-.374,5.432.326,1.756.326,1.756a20.523,20.523,0,0,0-1.437,3.066C303.843,505.128,303.74,505.46,303.74,505.46Z" transform="translate(-137.561 -205.22)"/><path class="l" d="M303.74,515.475l5.336,3.139s.223-.429.537-1.014c-.748-.67-3.392-3.018-4.292-2.921a6.488,6.488,0,0,1-1.292,0C303.843,515.143,303.74,515.475,303.74,515.475Z" transform="translate(-137.561 -215.235)"/><path class="ad" d="M302.71,517.267l6.036,3.253.169-1.316.121-.905s-3.428-3.175-4.479-3.1a5.7,5.7,0,0,1-1.606-.066l-.109,1.1Z" transform="translate(-137.153 -215.416)"/><path class="ac" d="M190.45,534.876s26.6,4.044,21.669,2.233c-3.434-1.268-4.732-3.531-4.925-5.994a14.016,14.016,0,0,1,1.207-6.145,26.933,26.933,0,0,1,2.577-4.732s-19.991-12.018-16.3-1.648a16.383,16.383,0,0,1,.972,4.883,13.762,13.762,0,0,1-.712,4.877,14.608,14.608,0,0,1-4.491,6.525Z" transform="translate(-92.654 -215.116)"/><path class="l" d="M197.2,518.59a16.382,16.382,0,0,1,.972,4.883c1.859,1.684,3.972,1.66,6.682,1.763,2.082.084,4.364.676,6.036-.266a26.937,26.937,0,0,1,2.577-4.732S193.506,508.22,197.2,518.59Z" transform="translate(-95.149 -215.115)"/><circle class="ac" cx="11.052" cy="11.052" r="11.052" transform="translate(99.414 288.747)"/><path class="l" d="M190.45,543.395s26.6,4.044,21.669,2.233c-3.434-1.268-4.732-3.531-4.925-5.994-1.274-1.491-3.905-2.632-5.6-3.253a8.045,8.045,0,0,0-4.829-.266,6.636,6.636,0,0,0-1.811.755,14.607,14.607,0,0,1-4.5,6.525Z" transform="translate(-92.654 -223.635)"/><path class="l" d="M166.2,522.176l5.064,1.382.133-.761a4.509,4.509,0,0,0-4.829-1.865Z" transform="translate(-83.041 -217.663)"/><path class="l" d="M302.71,518.008l6.036,3.253.169-1.316a45.7,45.7,0,0,0-6.1-2.946Z" transform="translate(-137.153 -216.157)"/><path class="l" d="M168.65,655.287c10.261,2.034,24.929,4.726,27.289,4.1,1.962-.513,8.149-.211,13.527.181.06-2.7.084-4.491.084-4.491L169.61,649.36A32.961,32.961,0,0,1,168.65,655.287Z" transform="translate(-84.012 -268.623)"/><path class="i" d="M151.72,600.218s33.838,7.159,37.538,6.187,22.424.954,22.424.954c8.227,5.988,5.022-2.5,5.022-2.5a20.428,20.428,0,0,0,0-7.9,48.292,48.292,0,0,1-1.093-7.943s.4-5.565-.567-6.9-1.811-10.672-1.811-10.672-.682-6.344-.537-7.732-.072-5.306-.072-5.306l-.96-6.543c7-.658,28.659-12.839,28.659-12.839,1.207-4.322,9.471-14.233,9.471-14.233a10.723,10.723,0,0,1,.748-2.481c.6-1.461-7.624-4.75-7.624-4.75s-6.525,7.37-7.877,9.362-5.982,5.626-5.982,5.626a4.533,4.533,0,0,0-2.052.187H226.9a16.579,16.579,0,0,0-4.225,2.227,8.088,8.088,0,0,0-5.746,1.914s-3.785-.7-4.455-.079-3.9-.151-3.9-.151-3.018-6.99-5.2-5.076-11.269,1.473-11.269,1.473c-1.141-1.654-4.038-2.915-5.849-3.579a8,8,0,0,0-4.829-.266,6.275,6.275,0,0,0-1.95.851l-5.7,5.167s-1.5-2.1-1.3-2.559-1.811-.905-1.811-.905-2.662-.942-3.67-1.256-1.992.748-2.076.845a10.732,10.732,0,0,0,.6-4.062,4.666,4.666,0,0,1,1.237-3.3c-2.94-8.106-10.527-1.7-10.527-1.7s-1.008,4.328-.326,6.036-.942,5.167-.8,6.1-.465,2.493-.531,4.255a26.185,26.185,0,0,0,1.207,6.64c.477,1.5,4.829,5.022,4.829,5.022s.078,5.3,1.907,8.45.223,13.581.223,13.581-2.173,8.094-4.593,10.605S151.72,600.218,151.72,600.218Z" transform="translate(-77.301 -216.379)"/><path class="l" d="M237.774,552.845s1.141-3.018,2.076-3.266a21.385,21.385,0,0,0,2.74-1.1l-.555-1.165s-3.525.827-4.117,1.811S237.774,552.845,237.774,552.845Z" transform="translate(-111.348 -228.171)"/><path class="l" d="M269.22,544.964c.151.936,8.378,2.089,8.378,2.089l-4.014-4.352h-.1A16.583,16.583,0,0,0,269.22,544.964Z" transform="translate(-123.878 -226.344)"/><circle class="ae" cx="0.742" cy="0.742" r="0.742" transform="translate(168.992 306.052)"/><circle class="ae" cx="0.742" cy="0.742" r="0.742" transform="translate(167.984 307.501)"/><circle class="ae" cx="0.742" cy="0.742" r="0.742" transform="translate(167 308.835)"/><circle class="ae" cx="0.742" cy="0.742" r="0.742" transform="translate(165.974 310.284)"/><circle class="ae" cx="0.604" cy="0.604" r="0.604" transform="translate(78.62 306.976)"/><circle class="ae" cx="0.604" cy="0.604" r="0.604" transform="translate(78.475 308.34)"/><circle class="ae" cx="0.604" cy="0.604" r="0.604" transform="translate(78.336 309.704)"/><path class="l" d="M211.568,598.15c.091-.1-21.851,25.515-37.508,9.622C174.06,607.771,199.593,612.238,211.568,598.15Z" transform="translate(-86.157 -248.324)"/><path class="l" d="M245.96,621.68s-12.537-.139-13.986,3.41l-.145,3.748a2.414,2.414,0,0,0,2.33.09c1.292-.634,9.006-4.189,11.607-2.233Z" transform="translate(-109.056 -257.651)"/><path class="i" d="M245.979,621.659s-11.982-.133-13.37,3.253l-.139,3.573a2.294,2.294,0,0,0,2.227.085c1.207-.6,8.613-3.99,11.1-2.131Z" transform="translate(-109.31 -257.643)"/><path class="l" d="M237.068,576.2a40.684,40.684,0,0,1-5.173,8.143,32.635,32.635,0,0,1-7.9,7.05S236.79,577.89,237.068,576.2Z" transform="translate(-105.953 -239.623)"/><path class="l" d="M248.147,552.36s-2.414,8.939-7.937,11.794Z" transform="translate(-112.378 -230.173)"/><path class="l" d="M253.77,554.068c.06-.163,1.581,7.207-7.37,10.907C246.4,564.975,250.185,563.847,253.77,554.068Z" transform="translate(-114.832 -230.849)"/><path class="l" d="M164.666,540.561c.139,0-4.449,2.686-5.716,3.96C158.98,544.52,162.028,540.271,164.666,540.561Z" transform="translate(-80.167 -225.49)"/><path class="z" d="M204.534,515.52a2.372,2.372,0,0,1-.924,1.461,2.275,2.275,0,0,1-1.05.187c-3.374.084-6.887.1-9.947-1.322a3.754,3.754,0,0,1-1.479-1.062,6.087,6.087,0,0,1-.791-2.481,35.9,35.9,0,0,0-1.859-4.768,15.694,15.694,0,0,1-.767-8.451,5.656,5.656,0,0,1,.936-2.414c.942-1.237,2.589-1.69,3.809-2.662s2.04-2.493,3.453-3.205a6.373,6.373,0,0,1,4.177-.205,21.921,21.921,0,0,1,7.666,3.217,3.858,3.858,0,0,0,2.565.984,3.573,3.573,0,0,0,1.968-1.388,10.262,10.262,0,0,1,.64,4.829,2.082,2.082,0,0,0,0,.724,2.2,2.2,0,0,0,.483.791c.791,1,1.256,2.541.4,3.483-.374.41-.936.6-1.3,1.044-.652.748-.489,1.871-.513,2.867a1.509,1.509,0,0,1-.278.972,1.442,1.442,0,0,1-1.376.272,3.755,3.755,0,0,0-1.449-.193,2.415,2.415,0,0,0-1.3.918C205.964,511.011,205.288,513.165,204.534,515.52Z" transform="translate(-91.466 -205.592)"/><g class="v" transform="translate(99.233 287.642)"><path class="i" d="M192.933,520.344a3.706,3.706,0,0,0,1.479,1.068c3.06,1.419,6.573,1.4,9.947,1.322a2.2,2.2,0,0,0,1.05-.193,2.342,2.342,0,0,0,.923-1.455,17.164,17.164,0,0,1,3.066-6.428,2.414,2.414,0,0,1,1.3-.924,3.875,3.875,0,0,1,1.449.193,1.424,1.424,0,0,0,1.376-.272,1.485,1.485,0,0,0,.278-.966c0-1-.139-2.119.513-2.873.362-.416.924-.6,1.3-1.038a2.185,2.185,0,0,0,.3-2.209,2.528,2.528,0,0,1,.042,2.964c-.374.41-.93.6-1.3,1.044-.652.749-.483,1.871-.507,2.867a1.479,1.479,0,0,1-.284.972,1.437,1.437,0,0,1-1.376.272,3.721,3.721,0,0,0-1.443-.193,2.414,2.414,0,0,0-1.3.924,17.322,17.322,0,0,0-3.066,6.422A1.744,1.744,0,0,1,204.7,523.5c-3.374.078-6.887.091-9.953-1.328a3.778,3.778,0,0,1-1.479-1.062,2.9,2.9,0,0,1-.441-.911A1.117,1.117,0,0,0,192.933,520.344Z" transform="translate(-192.83 -499.665)"/><path class="i" d="M229.176,500.544a1.491,1.491,0,0,1-.314-.6,2.082,2.082,0,0,1,0-.724,10.292,10.292,0,0,0-.362-4.02l.06-.066a10.183,10.183,0,0,1,.646,4.829,3.274,3.274,0,0,0-.03.585Z" transform="translate(-206.969 -495.13)"/></g><path class="l" d="M208.71,542.727s-13.883,1.3-15.03-.827" transform="translate(-93.934 -226.027)"/><path class="l" d="M168.295,532.095s-7.672-.284-9.465,2.523" transform="translate(-80.12 -222.137)"/></g></svg>