<svg xmlns="http://www.w3.org/2000/svg" width="128.059" height="109.622" viewBox="0 0 128.059 109.622">
  <g id="undraw_Mailbox_re_dvds" transform="translate(0)">
    <path id="Pfad_100" data-name="Pfad 100" d="M349.384,583.982a8.3,8.3,0,0,0,2.977-7.153,6.708,6.708,0,0,0-4.987-5.695,5.646,5.646,0,0,0-6.429,3.573c-.44-4.955-.947-10.117-3.581-14.337a15.184,15.184,0,0,0-10.994-7.044,13.623,13.623,0,0,0-11.984,4.892,12.364,12.364,0,0,0-1.52,12.729c1.441,2.989,4.1,5.213,6.876,7.023a44.379,44.379,0,0,0,30.352,6.64" transform="translate(-311.75 -475.503)" fill="#f2f2f2"/>
    <path id="Pfad_101" data-name="Pfad 101" d="M340.956,559.818a73.227,73.227,0,0,1,21.516,29.094c.205.5-.611.722-.814.224a72.475,72.475,0,0,0-21.3-28.721c-.422-.343.179-.938.6-.6Z" transform="translate(-333.893 -480.533)" fill="#fff"/>
    <path id="Pfad_102" data-name="Pfad 102" d="M476.958,583.982a8.3,8.3,0,0,1-2.977-7.153,6.708,6.708,0,0,1,4.987-5.695,5.646,5.646,0,0,1,6.429,3.573c.44-4.955.947-10.117,3.581-14.337a15.184,15.184,0,0,1,10.994-7.044,13.623,13.623,0,0,1,11.984,4.892,12.364,12.364,0,0,1,1.521,12.729c-1.441,2.989-4.1,5.213-6.876,7.023a44.379,44.379,0,0,1-30.352,6.64" transform="translate(-437.905 -475.503)" fill="#f2f2f2"/>
    <path id="Pfad_103" data-name="Pfad 103" d="M549.726,559.817a73.228,73.228,0,0,0-21.516,29.094c-.205.5.611.722.814.224a72.412,72.412,0,0,1,21.3-28.721c.422-.343-.179-.938-.6-.6Z" transform="translate(-480.102 -480.533)" fill="#fff"/>
    <circle id="Ellipse_9" data-name="Ellipse 9" cx="6.886" cy="6.886" r="6.886" transform="translate(38.268 35.541)" fill="#f2f2f2"/>
    <path id="Pfad_104" data-name="Pfad 104" d="M354.557,287.388H402v2.6H360.613a18.53,18.53,0,0,0-18.53,18.53V338h-5.191a.865.865,0,0,1-.865-.865v-31.22a18.53,18.53,0,0,1,18.53-18.53Z" transform="translate(-330.635 -268.698)" fill="#f2f2f2"/>
    <path id="Pfad_105" data-name="Pfad 105" d="M460.527,554.178V514.75h11.551v39.428a1,1,0,0,1-1,1h-9.552A1,1,0,0,1,460.527,554.178Z" transform="translate(-427.479 -445.556)" fill="#3f3d56"/>
    <path id="Pfad_106" data-name="Pfad 106" d="M325.027,331.562V299.5a19.273,19.273,0,0,1,19.251-19.251h48.943v52.423H326.138A1.112,1.112,0,0,1,325.027,331.562Zm67.75-50.868h-48.5A18.828,18.828,0,0,0,325.471,299.5v32.061a.667.667,0,0,0,.666.666h66.64Z" transform="translate(-322.078 -263.146)" fill="#3f3d56"/>
    <path id="Pfad_107" data-name="Pfad 107" d="M440.352,249.231a4,4,0,0,1-4-4V216.578a.667.667,0,0,0-.666-.666H420.138a1.112,1.112,0,0,1-1.111-1.111v-10.44a1.112,1.112,0,0,1,1.111-1.111h23.1a1.112,1.112,0,0,1,1.111,1.111v40.872A4,4,0,0,1,440.352,249.231Z" transform="translate(-395.198 -203.25)" fill="#ff7268"/>
    <path id="Pfad_108" data-name="Pfad 108" d="M595.689,278.25h0a12.635,12.635,0,0,1,12.661,12.609v36.5h24.879a3.768,3.768,0,0,1,3.776,3.76H583.027V290.858A12.635,12.635,0,0,1,595.689,278.25Z" transform="translate(-522.768 -261.59)" fill="#3f3d56"/>
    <path id="Pfad_109" data-name="Pfad 109" d="M626.269,272.1l2.622,10.83,51.286-12.415-2.622-10.83a.808.808,0,0,0-.524-.576.8.8,0,0,0-.3-.045l-29.646-15.35a.818.818,0,0,0-1.034.249l-14.287,19.924-5.386,7.513a.114.114,0,0,0-.02.093A.81.81,0,0,0,626.269,272.1Z" transform="translate(-556.387 -234.656)" fill="#fff"/>
    <path id="Pfad_110" data-name="Pfad 110" d="M626.756,271.493a.109.109,0,0,0,.045.07.124.124,0,0,0,.1.019.119.119,0,0,0,.066-.046l.018-.026.28-.392,5.093-7.1L646.64,244.1a.582.582,0,0,1,.738-.177l29.416,15.231.264.137.033.011a.36.36,0,0,1,.06-.006.114.114,0,0,0,.064-.054.116.116,0,0,0-.049-.157l-.036-.019-29.645-15.35a.818.818,0,0,0-1.034.249l-14.287,19.924-5.386,7.513A.114.114,0,0,0,626.756,271.493Z" transform="translate(-556.782 -234.656)" fill="#3f3d56"/>
    <path id="Pfad_111" data-name="Pfad 111" d="M693.026,257.527l1.142.127,8.473.939,5.617.622.332.037,7.009-5.474.269-.21,1.655-1.293,5.889-4.6.035-.323,2.095-18.907a.989.989,0,0,0-.873-1.091l-27.956-3.1a.99.99,0,0,0-1.091.873l-1.477,13.336-.819,7.394-.733,6.615-.34,3.072-.1.89A.99.99,0,0,0,693.026,257.527Z" transform="translate(-607.649 -219.586)" fill="#e6e6e6"/>
    <path id="Pfad_112" data-name="Pfad 112" d="M726.164,289.3l12.11,1.341,4.295.476a1.453,1.453,0,0,0,.32-2.888l-5.342-.592-11.062-1.227a1.453,1.453,0,1,0-.321,2.889Z" transform="translate(-633.104 -267.931)" fill="#fff"/>
    <path id="Pfad_113" data-name="Pfad 113" d="M723.391,313.469c.031.006.063.011.094.014l14.058,1.557,2.347.261a1.453,1.453,0,1,0,.32-2.889l-3.394-.375L725.68,310.8l-1.874-.208a1.453,1.453,0,0,0-.415,2.874Z" transform="translate(-631.02 -286.743)" fill="#fff"/>
    <path id="Pfad_114" data-name="Pfad 114" d="M719.694,337.232a1.452,1.452,0,0,0,1.084.694l5.762.638L736.8,339.7h0l.328.037,1.655-1.293a1.435,1.435,0,0,0,0-.3,1.456,1.456,0,0,0-1.286-1.294l-1.425-.158-5.655-.626-4.069-.451-5.256-.582a1.453,1.453,0,0,0-1.4,2.195Z" transform="translate(-628.915 -305.756)" fill="#fff"/>
    <path id="Pfad_115" data-name="Pfad 115" d="M752.333,259.825l3.013.334,1.331.148,2.01.222a1.453,1.453,0,1,0,.32-2.889l-6.353-.7a1.453,1.453,0,0,0-.321,2.888Z" transform="translate(-653.461 -245.005)" fill="#fff"/>
    <path id="Pfad_116" data-name="Pfad 116" d="M645.846,278.734l3.674,15.175,6.131,1.166,5.671,1.08,6.085,1.158,1.944.37a.816.816,0,0,0,.653-.158l1.56-1.218.988-.771,7.009-5.474L675.1,271.652a.978.978,0,0,0-.276-.48.988.988,0,0,0-.916-.248l-27.338,6.618A.989.989,0,0,0,645.846,278.734Z" transform="translate(-571.612 -255.87)" fill="#5f38fa"/>
    <path id="Pfad_117" data-name="Pfad 117" d="M683.721,340.645a1.454,1.454,0,0,0,1.754,1.07l16.041-3.883a1.455,1.455,0,0,0,1.07-1.754.465.465,0,0,0-.016-.055,1.452,1.452,0,0,0-1.738-1.015l-16.041,3.883A1.454,1.454,0,0,0,683.721,340.645Z" transform="translate(-601.063 -305.708)" fill="#fff"/>
    <path id="Pfad_118" data-name="Pfad 118" d="M690.082,363.307l5.671,1.08,12.014-2.908a1.453,1.453,0,0,0-.684-2.824l-16.041,3.883a1.443,1.443,0,0,0-.832.558A1.471,1.471,0,0,0,690.082,363.307Z" transform="translate(-606.043 -324.102)" fill="#fff"/>
    <path id="Pfad_119" data-name="Pfad 119" d="M743.008,386.293l1.944.37a.816.816,0,0,0,.653-.158l1.56-1.218Z" transform="translate(-647.212 -344.85)" fill="#fff"/>
    <path id="Pfad_120" data-name="Pfad 120" d="M698.271,312.346a1.454,1.454,0,0,0,1.754,1.07l6.213-1.5a1.455,1.455,0,0,0,1.07-1.754,1.435,1.435,0,0,0-.268-.552,1.454,1.454,0,0,0-1.486-.518l-6.213,1.5A1.453,1.453,0,0,0,698.271,312.346Z" transform="translate(-612.381 -285.547)" fill="#fff"/>
    <path id="Pfad_121" data-name="Pfad 121" d="M646.1,329l6.086,1.158,1.944.37a.819.819,0,0,0,.653-.158l1.561-1.219-.548.133-1.156.9a.585.585,0,0,1-.466.113l-1.439-.274-6.086-1.158Zm18.179-6.339.059.245.27-.21ZM646.1,329l6.086,1.158,1.944.37a.819.819,0,0,0,.653-.158l1.561-1.219-.548.133-1.156.9a.585.585,0,0,1-.466.113l-1.439-.274-6.086-1.158Zm0,0,6.086,1.158,1.944.37a.819.819,0,0,0,.653-.158l1.561-1.219-.548.133-1.156.9a.585.585,0,0,1-.466.113l-1.439-.274-6.086-1.158Zm-19.828-2.84,6.867,28.368a.814.814,0,0,0,.982.6l49.7-12.032a.814.814,0,0,0,.6-.982l-6.867-28.368a.809.809,0,0,0-.524-.576.8.8,0,0,0-.3-.045.768.768,0,0,0-.336.088.71.71,0,0,0-.135.084l-4.079,3.185-5.924,4.628-1.985,1.55v0h0L657,328.347l-1.2.942-1.156.9a.585.585,0,0,1-.466.113l-1.439-.274-6.086-1.158-6.091-1.158-13.341-2.539a.8.8,0,0,0-.344.007.815.815,0,0,0-.4.23.914.914,0,0,0-.109.145.81.81,0,0,0-.093.608ZM646.1,329l6.086,1.158,1.944.37a.819.819,0,0,0,.653-.158l1.561-1.219-.548.133-1.156.9a.585.585,0,0,1-.466.113l-1.439-.274-6.086-1.158Zm0,0,6.086,1.158,1.944.37a.819.819,0,0,0,.653-.158l1.561-1.219-.548.133-1.156.9a.585.585,0,0,1-.466.113l-1.439-.274-6.086-1.158Zm0,0,6.086,1.158,1.944.37a.819.819,0,0,0,.653-.158l1.561-1.219-.548.133-1.156.9a.585.585,0,0,1-.466.113l-1.439-.274-6.086-1.158Z" transform="translate(-556.387 -288.72)" fill="#fff"/>
    <path id="Pfad_122" data-name="Pfad 122" d="M646.1,329l6.086,1.158,1.944.37a.819.819,0,0,0,.653-.158l1.561-1.219-.548.133-1.156.9a.586.586,0,0,1-.466.113l-1.439-.274-6.086-1.158Zm18.179-6.339.059.245.27-.21ZM646.1,329l6.086,1.158,1.944.37a.819.819,0,0,0,.653-.158l1.561-1.219-.548.133-1.156.9a.586.586,0,0,1-.466.113l-1.439-.274-6.086-1.158Zm0,0,6.086,1.158,1.944.37a.819.819,0,0,0,.653-.158l1.561-1.219-.548.133-1.156.9a.586.586,0,0,1-.466.113l-1.439-.274-6.086-1.158Zm-19.509-3.43.03.023c.005-.008.014-.016.021-.024a.587.587,0,0,1,.53-.171l13.258,2.522L646.1,329l6.086,1.158,1.944.37a.82.82,0,0,0,.653-.158l1.561-1.219-.548.133-1.156.9a.586.586,0,0,1-.466.113l-1.439-.274-6.086-1.158-6.091-1.159-13.341-2.539a.8.8,0,0,0-.344.007Zm-.319.59,6.867,28.368a.814.814,0,0,0,.982.6l49.7-12.032a.814.814,0,0,0,.6-.982l-6.867-28.368a.808.808,0,0,0-.524-.576.8.8,0,0,0-.3-.045.768.768,0,0,0-.336.088.708.708,0,0,0-.135.084l-4.079,3.185-5.924,4.628-1.985,1.55v0h0L657,328.347l-1.2.942-1.156.9a.585.585,0,0,1-.466.113l-1.439-.274-6.086-1.158-6.091-1.159-13.341-2.539a.8.8,0,0,0-.344.007.815.815,0,0,0-.4.23.913.913,0,0,0-.109.145.81.81,0,0,0-.093.608Zm.226-.055a.577.577,0,0,1,.1-.487.077.077,0,0,1,.02-.026c.005-.008.014-.016.021-.024a.587.587,0,0,1,.53-.171l13.258,2.522L646.1,329l6.086,1.158,1.944.37a.819.819,0,0,0,.653-.158l1.561-1.219.987-.771,7.008-5.475.27-.21,1.654-1.292,5.891-4.6,4.259-3.326a.577.577,0,0,1,.219-.106.448.448,0,0,1,.068-.011.357.357,0,0,1,.06-.006.594.594,0,0,1,.2.033.583.583,0,0,1,.375.412l6.867,28.368a.582.582,0,0,1-.429.7l-49.7,12.032a.581.581,0,0,1-.7-.429Zm19.6,2.9,6.086,1.158,1.944.37a.819.819,0,0,0,.653-.158l1.561-1.219-.548.133-1.156.9a.586.586,0,0,1-.466.113l-1.439-.274-6.086-1.158Zm0,0,6.086,1.158,1.944.37a.819.819,0,0,0,.653-.158l1.561-1.219-.548.133-1.156.9a.586.586,0,0,1-.466.113l-1.439-.274-6.086-1.158Zm0,0,6.086,1.158,1.944.37a.819.819,0,0,0,.653-.158l1.561-1.219-.548.133-1.156.9a.586.586,0,0,1-.466.113l-1.439-.274-6.086-1.158Z" transform="translate(-556.387 -288.72)" fill="#3f3d56"/>
    <path id="Pfad_123" data-name="Pfad 123" d="M826.952,409.846a1.806,1.806,0,0,1,1.328-2.177l6.273-1.519a1.8,1.8,0,0,1,.849,3.506l-6.273,1.519A1.806,1.806,0,0,1,826.952,409.846Z" transform="translate(-712.47 -361.04)" fill="#c754ff"/>
    <circle id="Ellipse_10" data-name="Ellipse 10" cx="1.555" cy="1.555" r="1.555" transform="translate(43.599 40.428)" fill="#fff"/>
  </g>
</svg>
