<svg xmlns="http://www.w3.org/2000/svg" width="548.208" height="521.31" viewBox="0 0 548.208 521.31"><defs><style>.a{fill:#fc0;}.b{fill:#3f3d56;}.c{fill:#fbbebe;}.d{fill:#2f2e41;}.e,.i{fill:#4a4a4a;}.f{fill:#9f616a;}.g{fill:#393939;}.h{fill:#e6e6e6;}.i{opacity:0.2;}</style></defs><path class="a" d="M699.8,191.391c-12.954-7.18-26.113-14.873-35.266-26.517-9.56-12.16-13.64-30.347-4.781-43.026,7.442-10.65,22.261-14.4,34.884-11.317s23.191,11.847,31.4,21.919c-2.686-12.38,10.371-24.333,22.991-23.237s22.746,12.127,26.116,24.339,1.177,25.28-2.439,37.421a165.562,165.562,0,0,1-29.307,55.947,53.99,53.99,0,0,0-7.326-10.236C726.1,205.727,712.749,198.572,699.8,191.391Z" transform="translate(-543.432 -101.611)"/><path class="b" d="M715.187,224.9a164.186,164.186,0,0,0,36.284-65.3c3.554-12.606,5.637-26.938.31-39.375-4.12-9.619-12.9-18.322-23.785-19.128-11.487-.85-24.239,9.787-21.778,21.95.184.908-1.013,1.867-1.721,1-9.194-11.222-21.833-21.56-36.894-22.573-13.415-.9-27.507,5.8-31.414,19.429-4.07,14.194,2.952,29.21,12.786,39.247,10.909,11.134,25.11,18.079,38.513,25.662,13.188,7.461,26.6,16.076,34.712,29.265a46.506,46.506,0,0,1,6.956,20.192,36.151,36.151,0,0,1-4.8,20.879c-3.81,6.864-8.522,13.12-11.963,20.207a102.288,102.288,0,0,0-7.672,21.959,103.656,103.656,0,0,0-.067,45.968c6.323,27.582,24.772,51.859,49.325,65.824a101.5,101.5,0,0,0,9.138,4.594c1.21.535.163,2.31-1.039,1.778a105.783,105.783,0,0,1-56.3-60.925c-10.388-29.489-6.406-63.466,10.212-89.9,4.349-6.918,9.373-13.628,10.805-21.87,1.312-7.553-.3-15.432-3.493-22.323-6.83-14.757-20.368-24.349-34.042-32.266s-28.275-14.769-39.86-25.747c-10.313-9.773-17.922-23.717-16.136-38.325a28.053,28.053,0,0,1,8.759-17.444,33,33,0,0,1,17.643-7.958c14.6-2.058,28.285,4.869,38.691,14.66a86.548,86.548,0,0,1,7.606,8.212l-1.721,1c-2.221-10.979,6.506-21.065,16.725-23.842,11.113-3.02,22.13,3.477,28.533,12.285,8,11,8.653,25.11,6.315,38.082-2.426,13.456-7.447,26.63-13.546,38.83a167.16,167.16,0,0,1-25.616,37.412c-.892.984-2.344-.476-1.456-1.456Z" transform="translate(-514.045 -99)"/><path class="c" d="M393.2,625.805l9.718,2.758,38.186-121.6-28.02-4.831Z" transform="translate(-184.892 -129.245)"/><path class="c" d="M333.451,625.707l9.611-2.059L318.2,499.036l-27.035,8.807Z" transform="translate(-11.074 -128.449)"/><path class="d" d="M697.19,789.63c-2.661,1.215-4.89-6.313-7.135-4.107-6.279,6.17-21.341,4.787-21.341,4.787a3.925,3.925,0,0,1-2.474-5.115h0a3.925,3.925,0,0,1,2.723-2.43l6.677-1.669,10.484-18.438,11.426-1.446.289.472A29.462,29.462,0,0,1,701,785.775C700.047,788.819,698.754,788.917,697.19,789.63Z" transform="translate(-477.169 -269.449)"/><path class="d" d="M543.16,782.549c-2.394,1.68-5.961-5.313-7.765-2.734-5.045,7.214-20.107,8.607-20.107,8.607a3.925,3.925,0,0,1-3.367-4.576h0a3.925,3.925,0,0,1,2.233-2.886l6.26-2.861,6.938-20.044,10.97-3.51.37.411a29.461,29.461,0,0,1,7.507,23.108C545.821,781.23,544.567,781.562,543.16,782.549Z" transform="translate(-206.824 -267.733)"/><path class="e" d="M564.6,482.9c-5.117,7.87-10.078,15.818-12.273,24.864a500.407,500.407,0,0,0-11.341,67.277c17.78,10.2,33.206,16.057,48.275,17.066.7.047,1.4.08,2.1.106l5.493-31.012,4.382,30.67c2.17-.231,4.343-.559,6.527-1,9.446-1.895,19.064-5.767,29.341-11.712a156.832,156.832,0,0,0,4.593-44.863c-.844-20.19-5.41-37.476-9.831-51.357Z" transform="translate(-323.902 -197.815)"/><path class="f" d="M573.233,347.05l24.155-8.213c-8.738-8.554-12.307-17.947-8.7-28.5l-27.054,4.831C568.058,327.538,576.463,334.988,573.233,347.05Z" transform="translate(-294.797 -153.396)"/><path class="g" d="M544.793,445.015c21.973,17.479,44.343,19.494,67.265.04-9.24-29.012,9.611-56.293,6.865-76.888-1.713-12.849-7.057-28.764-19.483-32.465l-13.346,4.078a28.27,28.27,0,0,0-19.119,19.963l-1.579,6.144c-7.641,8.128-10.188,18.81-8.2,31.778-1.675,3.68-.906,8.32-.137,12.968.728,4.421,1.455,8.849.082,12.453-2.955,7.749-7.714,14.806-12.345,21.928" transform="translate(-304.098 -159.926)"/><path class="h" d="M277.813,773.4H294.15c8.546,0,16.18.6,21.219,3.843A27.467,27.467,0,0,1,339.449,763h16.337a27.476,27.476,0,0,1,27.476,27.476H250.336C250.336,775.3,262.638,773.4,277.813,773.4Z" transform="translate(150.504 -269.91)"/><path class="h" d="M918.135,795.595H848.35c.352-13.02,10.1-15.595,26.724-15.595h16.337C908.031,780,917.783,782.575,918.135,795.595Z" transform="translate(-828.457 -274.285)"/><rect class="e" width="548.208" height="1.485" transform="translate(0 519.535)"/><circle class="c" cx="21.74" cy="21.74" r="21.74" transform="translate(251.865 129.401)"/><path class="c" d="M692.506,463.119l15.229-4.985-1.111-12.22-16.722-.372a9.013,9.013,0,0,0-9.1,10.416h0a9.013,9.013,0,0,0,11.706,7.16Z" transform="translate(-493.552 -188.197)"/><path class="i" d="M576.143,482.774c6.3-2.952,20.622-10.393,41.32-25.476,28.5-20.774,21.254-71.5,21.254-71.5l-38.039,37.73c.728,4.421,1.455,8.849.082,12.453C594.542,452.293,580.324,465.543,576.143,482.774Z" transform="translate(-347.721 -172.82)"/><path class="g" d="M576.815,436.984c20.623,4.569,37.5,7.309,51.209-2.415,21.748-25.293,34.108-50.686,29.482-76.257a12.4,12.4,0,0,0-9-9.71h0a12.471,12.471,0,0,0-14.879,7.524L617.2,411.193l-42.563,8.238Z" transform="translate(-365.531 -163.134)"/><path class="b" d="M636.021,534.814a10.659,10.659,0,0,0,10.386-8.334l1.265-5.7L626.9,516.168l-1.265,5.7a10.642,10.642,0,0,0,8.08,12.7h0A10.651,10.651,0,0,0,636.021,534.814Zm10.014-12.988-.968,4.356a9.268,9.268,0,1,1-18.094-4.02l.967-4.356Z" transform="translate(-392.413 -206.376)"/><path class="d" d="M550.868,283.343s-3.49-27.16,24.986-18.254c0,0,20.338-3.732,27.007,21.707l6.753,26.666-3.291-1.791-1.534,3.354-5.333,1.351-2.282-4.53-1.1,5.5L552.386,321.7s19.565-11.57,19.875-32.307l-3.727,3.938Z" transform="translate(-298.923 -141.289)"/><path class="h" d="M315.681,722.072s-13.367-145.551,0-168.572c0,0-56.438,89.855-24.506,173.027Z" transform="translate(195.026 -215.986)"/><path class="h" d="M338.2,747.564s-42.878-76.286-41.188-92.139c0,0-8.927,62.919,28.867,100.569Z" transform="translate(161.584 -242.22)"/><path class="h" d="M900.64,747.21s-9.453-102.935,0-119.215c0,0-39.913,63.546-17.331,122.366Z" transform="translate(-831.785 -235.16)"/><path class="h" d="M916.568,765.239s-30.323-53.95-29.129-65.161c0,0-6.313,44.5,20.415,71.123Z" transform="translate(-855.435 -253.714)"/></svg>